<svg width="25" height="25" viewBox="0 0 25 25" fill="none" xmlns="http://www.w3.org/2000/svg">
<path d="M10.0776 0.0901424C7.51506 0.534217 5.24408 1.76148 3.44112 3.68311C1.09342 6.18607 -0.134129 9.51259 0.0116429 13.0167C0.195776 17.6593 2.73527 21.7287 6.7018 23.7553C8.38969 24.6192 9.59422 24.9179 11.5353 24.9825C12.7168 25.0229 13.0544 24.9987 13.8676 24.8533C18.1487 24.0863 21.5705 21.0827 23.1126 16.755C23.2661 16.3271 23.3888 15.9153 23.3888 15.8507C23.3888 15.77 23.1126 15.5762 22.6907 15.3501C22.3071 15.1483 21.9848 14.9949 21.9772 15.011C21.9695 15.0272 21.8851 15.3259 21.7853 15.6812C21.3097 17.4494 20.1205 19.3953 18.7241 20.671C17.6654 21.6479 16.5299 22.3342 15.2333 22.7864C13.952 23.2304 13.2999 23.3435 11.9189 23.3435C10.0852 23.3435 8.75028 23.0124 7.17748 22.1647C4.30807 20.6144 2.26727 17.6916 1.7072 14.349C1.53841 13.3397 1.53841 11.6441 1.7072 10.6349C2.4514 6.16992 5.7351 2.67385 10.0162 1.77762C10.9599 1.58385 12.9086 1.58385 13.7986 1.77762C16.6757 2.41548 18.9543 4.01414 20.5501 6.50903C20.9951 7.21148 21.5782 8.51948 21.7853 9.30266C21.8851 9.65792 21.9695 9.95666 21.9772 9.97281C21.9848 9.98896 22.3071 9.83555 22.6907 9.6337C23.1126 9.40763 23.3888 9.21385 23.3888 9.13311C23.3888 9.06852 23.2661 8.65674 23.1126 8.22881C21.6396 4.07874 18.5247 1.22859 14.374 0.211254C13.484 -0.00674656 11.0213 -0.0713392 10.0776 0.0901424Z" fill="white"/>
<path d="M10.3921 2.92411C10.0545 2.99678 9.59418 3.10174 9.37168 3.1744C9.00342 3.28744 8.95738 3.32781 8.99574 3.47315C9.01876 3.57003 9.5865 5.04759 10.2617 6.7593L11.4815 9.86782L11.8958 9.89204L12.3025 9.91626L13.5914 6.63011C14.3049 4.82959 14.865 3.33589 14.842 3.31166C14.8189 3.28744 14.466 3.1744 14.0517 3.06944C13.0774 2.81107 11.3051 2.74648 10.3921 2.92411Z" fill="white"/>
<path d="M7.18513 4.18373C6.30283 4.73277 5.38217 5.58055 4.77606 6.37988C4.30039 7.01774 3.67126 8.04314 3.67126 8.18848C3.67126 8.22885 5.06761 8.8667 6.77083 9.60951L9.8704 10.9579L10.1466 10.6672C10.3 10.5057 10.4228 10.3604 10.4228 10.3362C10.4228 10.2958 7.8833 3.82848 7.86029 3.79618C7.84494 3.78003 7.54573 3.95766 7.18513 4.18373Z" fill="white" fill-opacity="0.75"/>
<path d="M15.8931 3.9092C15.8624 3.98994 15.2793 5.4675 14.5965 7.20342L13.3536 10.3523L13.6374 10.6591L13.9213 10.9659L17.0286 9.61757C18.7318 8.87476 20.1435 8.26113 20.1511 8.24498C20.2202 8.19653 19.6678 7.22764 19.2075 6.58979C18.4633 5.54016 17.5196 4.68431 16.3918 4.01416C15.9775 3.77194 15.9468 3.76387 15.8931 3.9092Z" fill="white" fill-opacity="0.5"/>
<path d="M3.12656 9.56918C2.58184 11.0467 2.58184 13.9373 3.12656 15.4148L3.20328 15.6328L4.37713 15.1241C5.0216 14.8416 6.42561 14.236 7.48437 13.7758L9.42544 12.9361V12.492V12.0479L7.48437 11.2082C6.42561 10.748 5.0216 10.1424 4.37713 9.85985L3.20328 9.35118L3.12656 9.56918Z" fill="white"/>
<path d="M17.4813 10.7074L14.374 12.0638V12.4917V12.9197L17.2127 14.1631C18.7779 14.8413 20.1819 15.4549 20.3353 15.5195L20.6269 15.6406L20.7496 15.1723C20.811 14.922 20.8877 14.6475 20.9031 14.5748C20.9338 14.4699 20.7726 14.3488 20.2509 14.0662C19.8673 13.8563 19.4684 13.5817 19.361 13.4525C19.0004 13.0004 18.939 12.306 19.2152 11.7489C19.3533 11.4663 19.6832 11.208 20.3814 10.8446C20.811 10.6185 20.9338 10.5136 20.9031 10.4086C20.6729 9.52855 20.6192 9.34284 20.6039 9.34284C20.5962 9.35092 19.1922 9.95647 17.4813 10.7074Z" fill="white"/>
<path d="M22.4528 11.095C20.4044 12.185 20.2049 12.3062 20.2049 12.4919C20.2049 12.6776 20.4044 12.7987 22.4528 13.8887C24.3172 14.8737 24.7238 15.0594 24.8542 14.9948C24.9923 14.9141 25 14.8011 25 12.4919C25 10.1827 24.9923 10.0696 24.8542 9.9889C24.7238 9.92431 24.3172 10.11 22.4528 11.095Z" fill="white"/>
<path d="M11.2207 11.2727C10.7834 11.5472 10.6146 11.9025 10.6146 12.5C10.6146 12.9521 10.6453 13.0732 10.8294 13.3235C11.1133 13.7192 11.4049 13.8645 11.8882 13.8645C12.6784 13.8645 13.2232 13.3074 13.2232 12.4919C13.2232 11.9429 13.0007 11.5472 12.5634 11.2889C12.1951 11.0709 11.5506 11.0628 11.2207 11.2727Z" fill="white"/>
<path d="M6.76316 15.3744C5.05993 16.1172 3.67126 16.755 3.67126 16.7954C3.67126 16.9407 4.30039 17.9661 4.77606 18.604C5.38217 19.4033 6.30283 20.2511 7.18513 20.8001C7.54573 21.0262 7.84494 21.2038 7.86029 21.1877C7.8833 21.1554 10.4228 14.6881 10.4228 14.6477C10.4228 14.6073 9.88575 14.026 9.86273 14.026C9.85506 14.026 8.45872 14.6396 6.76316 15.3744Z" fill="white" fill-opacity="0.5"/>
<path d="M13.6298 14.3247L13.3536 14.6315L14.6425 17.9015C15.5018 20.0654 15.9698 21.1634 16.0388 21.1473C16.4915 21.0342 18.0643 19.807 18.6781 19.0884C19.2842 18.386 20.2586 16.8277 20.1511 16.7308C20.1281 16.7146 14.2742 14.1713 14.0287 14.0663C13.952 14.0421 13.8062 14.139 13.6298 14.3247Z" fill="white" fill-opacity="0.75"/>
<path d="M11.4279 15.2532C11.3895 15.3581 10.8218 16.8034 10.162 18.4747C9.50214 20.1461 8.96509 21.551 8.96509 21.5994C8.96509 21.7124 9.57886 21.8981 10.4995 22.0677C11.4969 22.2453 13.0083 22.1807 14.0518 21.9143C14.4661 21.8013 14.819 21.6963 14.842 21.6721C14.865 21.6478 14.3049 20.1541 13.5991 18.3536L12.3102 15.0755H11.9035C11.5506 15.0755 11.4816 15.0998 11.4279 15.2532Z" fill="white"/>
</svg>
