<svg width="502" height="502" viewBox="0 0 502 502" fill="none" xmlns="http://www.w3.org/2000/svg">
<g filter="url(#filter0_i_70_38)">
<path d="M297.668 270.245C287.544 266.07 290.53 251 301.481 251H491.073C496.567 251 501.053 255.435 500.875 260.926C500.032 286.941 495.13 312.665 486.349 337.166C484.477 342.39 478.586 344.85 473.456 342.735L297.668 270.245Z" fill="#1E1E1E" fill-opacity="0.3"/>
<path d="M286.403 286.403C278.672 278.672 287.179 265.919 297.287 270.087L473.456 342.735C478.585 344.85 481.031 350.748 478.677 355.773C467.525 379.582 452.685 401.484 434.707 420.669C430.95 424.678 424.642 424.642 420.757 420.757L286.403 286.403Z" fill="#8000FF" fill-opacity="0.3"/>
<path d="M270.087 297.287C265.919 287.179 278.672 278.672 286.403 286.403L420.757 420.757C424.642 424.642 424.678 430.95 420.669 434.707C401.484 452.685 379.582 467.525 355.773 478.677C350.748 481.031 344.85 478.586 342.735 473.456L270.087 297.287Z" fill="#1E1E1E" fill-opacity="0.3"/>
<path d="M251 301.481C251 290.53 266.07 287.544 270.245 297.668L342.735 473.456C344.851 478.586 342.39 484.477 337.166 486.349C312.665 495.13 286.941 500.032 260.926 500.875C255.435 501.053 251 496.567 251 491.073V301.481Z" fill="#88FF48" fill-opacity="0.6"/>
<path d="M231.755 297.668C235.93 287.544 251 290.53 251 301.481V491.073C251 496.567 246.565 501.053 241.074 500.875C215.059 500.032 189.335 495.13 164.834 486.349C159.61 484.477 157.15 478.586 159.265 473.456L231.755 297.668Z" fill="#1E1E1E" fill-opacity="0.3"/>
<path d="M215.597 286.403C223.328 278.672 236.081 287.179 231.913 297.287L159.265 473.456C157.15 478.585 151.252 481.031 146.227 478.677C122.418 467.525 100.516 452.685 81.3312 434.707C77.3218 430.95 77.3582 424.642 81.2435 420.757L215.597 286.403Z" fill="#8000FF" fill-opacity="0.3"/>
<path d="M204.713 270.087C214.821 265.919 223.328 278.672 215.597 286.403L81.2435 420.757C77.3582 424.642 71.0498 424.678 67.2927 420.669C49.3148 401.484 34.4756 379.582 23.323 355.773C20.9692 350.748 23.4141 344.85 28.544 342.735L204.713 270.087Z" fill="#1E1E1E" fill-opacity="0.3"/>
<path d="M200.519 251C211.471 251 214.456 266.07 204.332 270.245L28.544 342.735C23.4139 344.851 17.5229 342.39 15.6508 337.166C6.86966 312.665 1.96841 286.941 1.12475 260.926C0.946664 255.435 5.433 251 10.9274 251H200.519Z" fill="#C81111"/>
<path d="M204.332 231.755C214.456 235.93 211.471 251 200.519 251H10.9274C5.433 251 0.946664 246.565 1.12475 241.074C1.96841 215.059 6.86966 189.335 15.6508 164.834C17.5229 159.61 23.4144 157.15 28.5445 159.265L204.332 231.755Z" fill="#1E1E1E" fill-opacity="0.3"/>
<path d="M215.597 215.597C223.328 223.328 214.821 236.081 204.713 231.913L28.5445 159.265C23.4147 157.15 20.9692 151.252 23.323 146.227C34.4756 122.418 49.3148 100.516 67.2927 81.3312C71.0498 77.3218 77.3582 77.3582 81.2434 81.2435L215.597 215.597Z" fill="#8000FF" fill-opacity="0.3"/>
<path d="M231.913 204.713C236.081 214.821 223.328 223.328 215.597 215.597L81.2434 81.2435C77.3582 77.3582 77.3218 71.0498 81.3312 67.2927C100.516 49.3148 122.418 34.4756 146.227 23.323C151.252 20.9692 157.15 23.4141 159.265 28.544L231.913 204.713Z" fill="#1E1E1E" fill-opacity="0.3"/>
<path d="M251 200.519C251 211.471 235.93 214.456 231.755 204.332L159.265 28.544C157.15 23.4139 159.61 17.5229 164.834 15.6508C189.335 6.86966 215.059 1.96841 241.074 1.12475C246.565 0.946664 251 5.433 251 10.9274V200.519Z" fill="#88FF48" fill-opacity="0.6"/>
<path d="M270.245 204.332C266.07 214.456 251 211.471 251 200.519V10.9274C251 5.433 255.435 0.946664 260.926 1.12475C286.941 1.96841 312.665 6.86966 337.166 15.6508C342.39 17.5229 344.85 23.4144 342.735 28.5445L270.245 204.332Z" fill="#1E1E1E" fill-opacity="0.3"/>
<path d="M286.403 215.597C278.672 223.328 265.919 214.821 270.087 204.713L342.735 28.5445C344.85 23.4147 350.748 20.9692 355.773 23.323C379.582 34.4756 401.484 49.3148 420.669 67.2927C424.678 71.0498 424.642 77.3582 420.757 81.2434L286.403 215.597Z" fill="#8000FF" fill-opacity="0.3"/>
<path d="M297.287 231.913C287.179 236.081 278.672 223.328 286.403 215.597L420.757 81.2434C424.642 77.3582 430.95 77.3218 434.707 81.3312C452.685 100.516 467.525 122.418 478.677 146.227C481.031 151.252 478.586 157.15 473.456 159.265L297.287 231.913Z" fill="#1E1E1E" fill-opacity="0.3"/>
<path d="M301.481 251C290.53 251 287.544 235.93 297.668 231.755L473.456 159.265C478.586 157.15 484.477 159.61 486.349 164.834C495.13 189.335 500.032 215.059 500.875 241.074C501.053 246.565 496.567 251 491.073 251H301.481Z" fill="#C81111"/>
</g>
<path d="M423.026 423.026C426.952 425.044 431.881 424.416 435.072 421.011C453.086 401.787 467.955 379.842 479.13 355.985C481.134 351.707 479.833 346.841 476.423 343.958C480.874 344.318 485.226 341.782 486.82 337.335C495.619 312.784 500.53 287.009 501.375 260.942C501.526 256.278 498.485 252.349 494.282 251C498.485 249.651 501.526 245.722 501.375 241.058C500.53 214.991 495.619 189.216 486.82 164.665C485.226 160.218 480.874 157.682 476.423 158.041C479.834 155.159 481.134 150.293 479.13 146.015C467.955 122.158 453.086 100.213 435.072 80.9893C431.881 77.5839 426.952 76.9557 423.026 78.9741C425.044 75.0478 424.416 70.1189 421.011 66.9279C401.787 48.914 379.842 34.0451 355.985 22.8702C351.707 20.8665 346.841 22.1668 343.958 25.5772C344.318 21.1263 341.782 16.7738 337.335 15.1801C312.784 6.38141 287.009 1.47036 260.942 0.625017C256.278 0.473759 252.349 3.5147 251 7.71808C249.651 3.5147 245.722 0.473759 241.058 0.625017C214.991 1.47036 189.216 6.38141 164.665 15.1801C160.218 16.7738 157.682 21.1259 158.041 25.5767C155.159 22.1665 150.293 20.8665 146.015 22.8702C122.158 34.0451 100.213 48.914 80.9893 66.9279C77.5839 70.1189 76.9557 75.0478 78.9741 78.9741C75.0477 76.9557 70.1189 77.5839 66.9279 80.9893C48.914 100.213 34.0451 122.158 22.8702 146.015C20.8665 150.293 22.1669 155.159 25.5772 158.042C21.1263 157.682 16.7738 160.218 15.1801 164.665C6.38141 189.216 1.47036 214.991 0.625017 241.058C0.473759 245.722 3.5147 249.651 7.71808 251C3.5147 252.349 0.473759 256.278 0.625017 260.942C1.47036 287.009 6.38141 312.784 15.1801 337.335C16.7738 341.782 21.1259 344.318 25.5767 343.959C22.1665 346.841 20.8665 351.707 22.8702 355.985C34.0451 379.842 48.914 401.787 66.9279 421.011C70.1189 424.416 75.0478 425.044 78.9741 423.026C76.9557 426.952 77.5839 431.881 80.9893 435.072C100.213 453.086 122.158 467.955 146.015 479.13C150.293 481.134 155.159 479.833 158.042 476.423C157.682 480.874 160.218 485.226 164.665 486.82C189.216 495.619 214.991 500.53 241.058 501.375C245.722 501.526 249.651 498.485 251 494.282C252.349 498.485 256.278 501.526 260.942 501.375C287.009 500.53 312.784 495.619 337.335 486.82C341.782 485.226 344.318 480.874 343.959 476.423C346.841 479.834 351.707 481.134 355.985 479.13C379.842 467.955 401.787 453.086 421.011 435.072C424.416 431.881 425.044 426.952 423.026 423.026ZM268.826 294.398C263.656 288.465 253.38 290.563 251 298.115C248.62 290.563 238.344 288.465 233.174 294.398C234.044 286.341 225.115 280.306 217.976 284.024C221.694 276.885 215.659 267.957 207.602 268.826C213.535 263.656 211.437 253.38 203.885 251C211.437 248.62 213.535 238.344 207.602 233.174C215.659 234.044 221.694 225.115 217.976 217.976C225.115 221.694 234.044 215.659 233.174 207.602C238.344 213.535 248.62 211.437 251 203.885C253.38 211.437 263.656 213.535 268.826 207.602C267.957 215.659 276.885 221.694 284.024 217.976C280.306 225.115 286.341 234.044 294.398 233.174C288.465 238.344 290.563 248.62 298.115 251C290.563 253.38 288.465 263.656 294.398 268.826C286.341 267.957 280.306 276.885 284.024 284.024C276.885 280.306 267.957 286.341 268.826 294.398Z" stroke="black"/>
<defs>
<filter id="filter0_i_70_38" x="0.119629" y="0.119629" width="501.761" height="501.761" filterUnits="userSpaceOnUse" color-interpolation-filters="sRGB">
<feFlood flood-opacity="0" result="BackgroundImageFix"/>
<feBlend mode="normal" in="SourceGraphic" in2="BackgroundImageFix" result="shape"/>
<feColorMatrix in="SourceAlpha" type="matrix" values="0 0 0 0 0 0 0 0 0 0 0 0 0 0 0 0 0 0 127 0" result="hardAlpha"/>
<feOffset/>
<feGaussianBlur stdDeviation="20"/>
<feComposite in2="hardAlpha" operator="arithmetic" k2="-1" k3="1"/>
<feColorMatrix type="matrix" values="0 0 0 0 0 0 0 0 0 0 0 0 0 0 0 0 0 0 0.6 0"/>
<feBlend mode="normal" in2="shape" result="effect1_innerShadow_70_38"/>
</filter>
</defs>
</svg>
