<svg width="174" height="63" viewBox="0 0 174 63" fill="none" xmlns="http://www.w3.org/2000/svg">
<g filter="url(#filter0_d_150_106)">
<path d="M36.7368 40.3999H32.8965L32.8965 48H23.8731L23.8731 40.3999H11.1167L11.1167 33.0415L24.0879 8.7373H32.8965L32.8965 32.8804H36.7368L36.7368 40.3999ZM23.8731 32.8804L23.8731 27.5361C23.8731 27.375 23.8731 26.999 23.8731 26.4082C23.891 25.8174 23.9089 25.1729 23.9268 24.4746C23.9447 23.7585 23.9626 23.1408 23.9805 22.6216C23.9984 22.0845 24.0163 21.798 24.0342 21.7622H23.8193C23.5866 22.5321 23.3359 23.2393 23.0674 23.8838C22.7988 24.5283 22.5124 25.1281 22.208 25.6831L18.4214 32.8804H23.8731ZM54.7837 48H45.4917L45.4917 16.8208H38.4019L38.4019 8.7373H61.8198L61.8198 16.8208H54.7837L54.7837 48ZM92.0859 8.7373L92.0859 34.6797C92.0859 37.7054 91.5757 40.2477 90.5552 42.3066C89.5347 44.3656 88.0397 45.9232 86.0703 46.9795C84.1009 48.0179 81.6839 48.5371 78.8193 48.5371C74.6478 48.5371 71.443 47.4092 69.2051 45.1533C66.9671 42.8975 65.8482 39.4868 65.8482 34.9214L65.8481 8.7373H75.1938L75.1939 34.4648C75.1939 36.6133 75.5072 38.1351 76.1338 39.0303C76.7604 39.9076 77.6914 40.3462 78.9268 40.3462C79.804 40.3462 80.5202 40.1582 81.0752 39.7822C81.6302 39.4062 82.042 38.7886 82.3106 37.9292C82.5791 37.0519 82.7134 35.8792 82.7134 34.4111L82.7134 8.7373H92.0859ZM127.938 48H117.035L106.803 23.5884H106.588C106.695 25.0207 106.776 26.3545 106.83 27.5898C106.901 28.8073 106.946 29.9173 106.964 30.9199C107 31.9046 107.018 32.7729 107.018 33.5249L107.018 48H98.3433L98.3433 8.7373H109.166L119.344 32.4775H119.559C119.487 31.1527 119.425 29.9173 119.371 28.7715C119.317 27.6257 119.273 26.5693 119.237 25.6025C119.201 24.6357 119.183 23.7585 119.183 22.9707L119.183 8.7373H127.938L127.938 48ZM152.752 48L151.275 40.3462H142.789L141.312 48H131.188L140.748 8.7373H153.075L162.77 48H152.752ZM149.825 32.3164L148.241 23.5347C148.062 22.55 147.892 21.5921 147.73 20.6611C147.587 19.7301 147.453 18.8439 147.328 18.0024C147.22 17.1431 147.122 16.3464 147.032 15.6123C146.961 16.3105 146.862 17.0804 146.737 17.9219C146.629 18.7633 146.495 19.6496 146.334 20.5806C146.173 21.4937 146.003 22.4425 145.824 23.4272L144.159 32.3164H149.825Z" fill="url(#paint0_linear_150_106)"/>
<path d="M36.7368 40.3999L36.7368 40.8999H37.2368L37.2368 40.3999H36.7368ZM32.8965 40.3999L32.8965 39.8999H32.3965L32.3965 40.3999H32.8965ZM32.8965 48L32.8965 48.5H33.3965L33.3965 48H32.8965ZM23.8731 48H23.3731L23.3731 48.5H23.8731L23.8731 48ZM23.8731 40.3999H24.3731L24.3731 39.8999H23.8731L23.8731 40.3999ZM11.1167 40.3999H10.6167L10.6167 40.8999H11.1167L11.1167 40.3999ZM11.1167 33.0415L10.6756 32.8061L10.6167 32.9164L10.6167 33.0415H11.1167ZM24.0879 8.7373L24.0879 8.2373H23.788L23.6468 8.50188L24.0879 8.7373ZM32.8965 8.7373H33.3965L33.3965 8.2373H32.8965L32.8965 8.7373ZM32.8965 32.8804H32.3965L32.3965 33.3804H32.8965L32.8965 32.8804ZM36.7368 32.8804H37.2368L37.2368 32.3804H36.7368L36.7368 32.8804ZM23.8731 32.8804L23.8731 33.3804H24.3731L24.3731 32.8804H23.8731ZM23.8731 26.4082L23.3733 26.3931L23.3731 26.4006L23.3731 26.4082H23.8731ZM23.9268 24.4746L24.4266 24.4874L24.4266 24.4871L23.9268 24.4746ZM23.9805 22.6216L24.4802 22.6388L24.4802 22.6382L23.9805 22.6216ZM24.0342 21.7622L24.4814 21.9858L24.8432 21.2622H24.0342L24.0342 21.7622ZM23.8193 21.7622L23.8193 21.2622H23.4482L23.3407 21.6175L23.8193 21.7622ZM22.208 25.6831L21.7695 25.4427L21.7655 25.4503L22.208 25.6831ZM18.4214 32.8804L17.9789 32.6476L17.5934 33.3804H18.4214L18.4214 32.8804ZM36.7368 39.8999H32.8965L32.8965 40.8999H36.7368L36.7368 39.8999ZM32.3965 40.3999L32.3965 48H33.3965L33.3965 40.3999H32.3965ZM32.8965 47.5H23.8731L23.8731 48.5H32.8965L32.8965 47.5ZM24.3731 48L24.3731 40.3999H23.3731L23.3731 48H24.3731ZM23.8731 39.8999H11.1167L11.1167 40.8999H23.8731L23.8731 39.8999ZM11.6167 40.3999L11.6167 33.0415H10.6167L10.6167 40.3999H11.6167ZM11.5578 33.2769L24.529 8.97273L23.6468 8.50188L10.6756 32.8061L11.5578 33.2769ZM24.0879 9.2373H32.8965L32.8965 8.2373H24.0879L24.0879 9.2373ZM32.3965 8.7373L32.3965 32.8804H33.3965L33.3965 8.7373H32.3965ZM32.8965 33.3804H36.7368L36.7368 32.3804H32.8965L32.8965 33.3804ZM36.2368 32.8804L36.2368 40.3999H37.2368L37.2368 32.8804H36.2368ZM24.3731 32.8804L24.3731 27.5361H23.3731L23.3731 32.8804H24.3731ZM24.3731 27.5361C24.3731 27.5358 24.3731 27.5355 24.3731 27.5352C24.3731 27.5349 24.3731 27.5346 24.3731 27.5342C24.3731 27.5339 24.3731 27.5336 24.3731 27.5333C24.3731 27.533 24.3731 27.5326 24.3731 27.5323C24.3731 27.532 24.3731 27.5317 24.3731 27.5314C24.3731 27.531 24.3731 27.5307 24.3731 27.5304C24.3731 27.5301 24.3731 27.5297 24.3731 27.5294C24.3731 27.5291 24.3731 27.5288 24.3731 27.5284C24.3731 27.5281 24.3731 27.5278 24.3731 27.5274C24.3731 27.5271 24.3731 27.5268 24.3731 27.5264C24.3731 27.5261 24.3731 27.5258 24.3731 27.5254C24.3731 27.5251 24.3731 27.5248 24.3731 27.5244C24.3731 27.5241 24.3731 27.5238 24.3731 27.5234C24.3731 27.5231 24.3731 27.5228 24.3731 27.5224C24.3731 27.5221 24.3731 27.5218 24.3731 27.5214C24.3731 27.5211 24.3731 27.5207 24.3731 27.5204C24.3731 27.5201 24.3731 27.5197 24.3731 27.5194C24.3731 27.519 24.3731 27.5187 24.3731 27.5183C24.3731 27.518 24.3731 27.5177 24.3731 27.5173C24.3731 27.517 24.3731 27.5166 24.3731 27.5163C24.3731 27.5159 24.3731 27.5156 24.3731 27.5152C24.3731 27.5149 24.3731 27.5145 24.3731 27.5142C24.3731 27.5138 24.3731 27.5135 24.3731 27.5131C24.3731 27.5128 24.3731 27.5124 24.3731 27.5121C24.3731 27.5117 24.3731 27.5113 24.3731 27.511C24.3731 27.5106 24.3731 27.5103 24.3731 27.5099C24.3731 27.5096 24.3731 27.5092 24.3731 27.5088C24.3731 27.5085 24.3731 27.5081 24.3731 27.5078C24.3731 27.5074 24.3731 27.507 24.3731 27.5067C24.3731 27.5063 24.3731 27.506 24.3731 27.5056C24.3731 27.5052 24.3731 27.5049 24.3731 27.5045C24.3731 27.5041 24.3731 27.5038 24.3731 27.5034C24.3731 27.503 24.3731 27.5027 24.3731 27.5023C24.3731 27.5019 24.3731 27.5016 24.3731 27.5012C24.3731 27.5008 24.3731 27.5004 24.3731 27.5001C24.3731 27.4997 24.3731 27.4993 24.3731 27.499C24.3731 27.4986 24.3731 27.4982 24.3731 27.4978C24.3731 27.4975 24.3731 27.4971 24.3731 27.4967C24.3731 27.4963 24.3731 27.496 24.3731 27.4956C24.3731 27.4952 24.3731 27.4948 24.3731 27.4944C24.3731 27.4941 24.3731 27.4937 24.3731 27.4933C24.3731 27.4929 24.3731 27.4925 24.3731 27.4921C24.3731 27.4918 24.3731 27.4914 24.3731 27.491C24.3731 27.4906 24.3731 27.4902 24.3731 27.4898C24.3731 27.4894 24.3731 27.4891 24.3731 27.4887C24.3731 27.4883 24.3731 27.4879 24.3731 27.4875C24.3731 27.4871 24.3731 27.4867 24.3731 27.4863C24.3731 27.4859 24.3731 27.4855 24.3731 27.4851C24.3731 27.4848 24.3731 27.4844 24.3731 27.484C24.3731 27.4836 24.3731 27.4832 24.3731 27.4828C24.3731 27.4824 24.3731 27.482 24.3731 27.4816C24.3731 27.4812 24.3731 27.4808 24.3731 27.4804C24.3731 27.48 24.3731 27.4796 24.3731 27.4792C24.3731 27.4788 24.3731 27.4784 24.3731 27.478C24.3731 27.4776 24.3731 27.4772 24.3731 27.4768C24.3731 27.4764 24.3731 27.476 24.3731 27.4756C24.3731 27.4751 24.3731 27.4747 24.3731 27.4743C24.3731 27.4739 24.3731 27.4735 24.3731 27.4731C24.3731 27.4727 24.3731 27.4723 24.3731 27.4719C24.3731 27.4715 24.3731 27.471 24.3731 27.4706C24.3731 27.4702 24.3731 27.4698 24.3731 27.4694C24.3731 27.469 24.3731 27.4686 24.3731 27.4681C24.3731 27.4677 24.3731 27.4673 24.3731 27.4669C24.3731 27.4665 24.3731 27.4661 24.3731 27.4656C24.3731 27.4652 24.3731 27.4648 24.3731 27.4644C24.3731 27.464 24.3731 27.4635 24.3731 27.4631C24.3731 27.4627 24.3731 27.4623 24.3731 27.4618C24.3731 27.4614 24.3731 27.461 24.3731 27.4606C24.3731 27.4601 24.3731 27.4597 24.3731 27.4593C24.3731 27.4589 24.3731 27.4584 24.3731 27.458C24.3731 27.4576 24.3731 27.4571 24.3731 27.4567C24.3731 27.4563 24.3731 27.4558 24.3731 27.4554C24.3731 27.455 24.3731 27.4545 24.3731 27.4541C24.3731 27.4537 24.3731 27.4532 24.3731 27.4528C24.3731 27.4524 24.3731 27.4519 24.3731 27.4515C24.3731 27.4511 24.3731 27.4506 24.3731 27.4502C24.3731 27.4497 24.3731 27.4493 24.3731 27.4489C24.3731 27.4484 24.3731 27.448 24.3731 27.4475C24.3731 27.4471 24.3731 27.4466 24.3731 27.4462C24.3731 27.4458 24.3731 27.4453 24.3731 27.4449C24.3731 27.4444 24.3731 27.444 24.3731 27.4435C24.3731 27.4431 24.3731 27.4426 24.3731 27.4422C24.3731 27.4417 24.3731 27.4413 24.3731 27.4408C24.3731 27.4404 24.3731 27.4399 24.3731 27.4395C24.3731 27.439 24.3731 27.4386 24.3731 27.4381C24.3731 27.4377 24.3731 27.4372 24.3731 27.4368C24.3731 27.4363 24.3731 27.4358 24.3731 27.4354C24.3731 27.4349 24.3731 27.4345 24.3731 27.434C24.3731 27.4335 24.3731 27.4331 24.3731 27.4326C24.3731 27.4322 24.3731 27.4317 24.3731 27.4312C24.3731 27.4308 24.3731 27.4303 24.3731 27.4299C24.3731 27.4294 24.3731 27.4289 24.3731 27.4285C24.3731 27.428 24.3731 27.4275 24.3731 27.4271C24.3731 27.4266 24.3731 27.4261 24.3731 27.4257C24.3731 27.4252 24.3731 27.4247 24.3731 27.4243C24.3731 27.4238 24.3731 27.4233 24.3731 27.4228C24.3731 27.4224 24.3731 27.4219 24.3731 27.4214C24.3731 27.4209 24.3731 27.4205 24.3731 27.42C24.3731 27.4195 24.3731 27.419 24.3731 27.4186C24.3731 27.4181 24.3731 27.4176 24.3731 27.4171C24.3731 27.4167 24.3731 27.4162 24.3731 27.4157C24.3731 27.4152 24.3731 27.4147 24.3731 27.4143C24.3731 27.4138 24.3731 27.4133 24.3731 27.4128C24.3731 27.4123 24.3731 27.4118 24.3731 27.4113C24.3731 27.4109 24.3731 27.4104 24.3731 27.4099C24.3731 27.4094 24.3731 27.4089 24.3731 27.4084C24.3731 27.4079 24.3731 27.4075 24.3731 27.407C24.3731 27.4065 24.3731 27.406 24.3731 27.4055C24.3731 27.405 24.3731 27.4045 24.3731 27.404C24.3731 27.4035 24.3731 27.403 24.3731 27.4025C24.3731 27.402 24.3731 27.4015 24.3731 27.401C24.3731 27.4005 24.3731 27.4 24.3731 27.3995C24.3731 27.399 24.3731 27.3986 24.3731 27.3981C24.3731 27.3976 24.3731 27.397 24.3731 27.3965C24.3731 27.396 24.3731 27.3955 24.3731 27.395C24.3731 27.3945 24.3731 27.394 24.3731 27.3935C24.3731 27.393 24.3731 27.3925 24.3731 27.392C24.3731 27.3915 24.3731 27.391 24.3731 27.3905C24.3731 27.39 24.3731 27.3895 24.3731 27.389C24.3731 27.3885 24.3731 27.3879 24.3731 27.3874C24.3731 27.3869 24.3731 27.3864 24.3731 27.3859C24.3731 27.3854 24.3731 27.3849 24.3731 27.3844C24.3731 27.3838 24.3731 27.3833 24.3731 27.3828C24.3731 27.3823 24.3731 27.3818 24.3731 27.3813C24.3731 27.3807 24.3731 27.3802 24.3731 27.3797C24.3731 27.3792 24.3731 27.3787 24.3731 27.3781C24.3731 27.3776 24.3731 27.3771 24.3731 27.3766C24.3731 27.376 24.3731 27.3755 24.3731 27.375C24.3731 27.3745 24.3731 27.374 24.3731 27.3734C24.3731 27.3729 24.3731 27.3724 24.3731 27.3718C24.3731 27.3713 24.3731 27.3708 24.3731 27.3703C24.3731 27.3697 24.3731 27.3692 24.3731 27.3687C24.3731 27.3681 24.3731 27.3676 24.3731 27.3671C24.3731 27.3665 24.3731 27.366 24.3731 27.3655C24.3731 27.3649 24.3731 27.3644 24.3731 27.3639C24.3731 27.3633 24.3731 27.3628 24.3731 27.3623C24.3731 27.3617 24.3731 27.3612 24.3731 27.3606C24.3731 27.3601 24.3731 27.3596 24.3731 27.359C24.3731 27.3585 24.3731 27.3579 24.3731 27.3574C24.3731 27.3569 24.3731 27.3563 24.3731 27.3558C24.3731 27.3552 24.3731 27.3547 24.3731 27.3541C24.3731 27.3536 24.3731 27.353 24.3731 27.3525C24.3731 27.3519 24.3731 27.3514 24.3731 27.3508C24.3731 27.3503 24.3731 27.3497 24.3731 27.3492C24.3731 27.3486 24.3731 27.3481 24.3731 27.3475C24.3731 27.347 24.3731 27.3464 24.3731 27.3459C24.3731 27.3453 24.3731 27.3448 24.3731 27.3442C24.3731 27.3437 24.3731 27.3431 24.3731 27.3425C24.3731 27.342 24.3731 27.3414 24.3731 27.3409C24.3731 27.3403 24.3731 27.3398 24.3731 27.3392C24.3731 27.3386 24.3731 27.3381 24.3731 27.3375C24.3731 27.3369 24.3731 27.3364 24.3731 27.3358C24.3731 27.3353 24.3731 27.3347 24.3731 27.3341C24.3731 27.3336 24.3731 27.333 24.3731 27.3324C24.3731 27.3319 24.3731 27.3313 24.3731 27.3307C24.3731 27.3302 24.3731 27.3296 24.3731 27.329C24.3731 27.3284 24.3731 27.3279 24.3731 27.3273C24.3731 27.3267 24.3731 27.3262 24.3731 27.3256C24.3731 27.325 24.3731 27.3244 24.3731 27.3239C24.3731 27.3233 24.3731 27.3227 24.3731 27.3221C24.3731 27.3216 24.3731 27.321 24.3731 27.3204C24.3731 27.3198 24.3731 27.3192 24.3731 27.3187C24.3731 27.3181 24.3731 27.3175 24.3731 27.3169C24.3731 27.3163 24.3731 27.3157 24.3731 27.3152C24.3731 27.3146 24.3731 27.314 24.3731 27.3134C24.3731 27.3128 24.3731 27.3122 24.3731 27.3117C24.3731 27.3111 24.3731 27.3105 24.3731 27.3099C24.3731 27.3093 24.3731 27.3087 24.3731 27.3081C24.3731 27.3075 24.3731 27.3069 24.3731 27.3064C24.3731 27.3058 24.3731 27.3052 24.3731 27.3046C24.3731 27.304 24.3731 27.3034 24.3731 27.3028C24.3731 27.3022 24.3731 27.3016 24.3731 27.301C24.3731 27.3004 24.3731 27.2998 24.3731 27.2992C24.3731 27.2986 24.3731 27.298 24.3731 27.2974C24.3731 27.2968 24.3731 27.2962 24.3731 27.2956C24.3731 27.295 24.3731 27.2944 24.3731 27.2938C24.3731 27.2932 24.3731 27.2926 24.3731 27.292C24.3731 27.2914 24.3731 27.2908 24.3731 27.2902C24.3731 27.2896 24.3731 27.289 24.3731 27.2884C24.3731 27.2877 24.3731 27.2871 24.3731 27.2865C24.3731 27.2859 24.3731 27.2853 24.3731 27.2847C24.3731 27.2841 24.3731 27.2835 24.3731 27.2829C24.3731 27.2822 24.3731 27.2816 24.3731 27.281C24.3731 27.2804 24.3731 27.2798 24.3731 27.2792C24.3731 27.2786 24.3731 27.2779 24.3731 27.2773C24.3731 27.2767 24.3731 27.2761 24.3731 27.2755C24.3731 27.2748 24.3731 27.2742 24.3731 27.2736C24.3731 27.273 24.3731 27.2724 24.3731 27.2717C24.3731 27.2711 24.3731 27.2705 24.3731 27.2699C24.3731 27.2692 24.3731 27.2686 24.3731 27.268C24.3731 27.2674 24.3731 27.2667 24.3731 27.2661C24.3731 27.2655 24.3731 27.2649 24.3731 27.2642C24.3731 27.2636 24.3731 27.263 24.3731 27.2623C24.3731 27.2617 24.3731 27.2611 24.3731 27.2604C24.3731 27.2598 24.3731 27.2592 24.3731 27.2585C24.3731 27.2579 24.3731 27.2573 24.3731 27.2566C24.3731 27.256 24.3731 27.2554 24.3731 27.2547C24.3731 27.2541 24.3731 27.2534 24.3731 27.2528C24.3731 27.2522 24.3731 27.2515 24.3731 27.2509C24.3731 27.2502 24.3731 27.2496 24.3731 27.249C24.3731 27.2483 24.3731 27.2477 24.3731 27.247C24.3731 27.2464 24.3731 27.2457 24.3731 27.2451C24.3731 27.2444 24.3731 27.2438 24.3731 27.2432C24.3731 27.2425 24.3731 27.2419 24.3731 27.2412C24.3731 27.2406 24.3731 27.2399 24.3731 27.2393C24.3731 27.2386 24.3731 27.238 24.3731 27.2373C24.3731 27.2367 24.3731 27.236 24.3731 27.2353C24.3731 27.2347 24.3731 27.234 24.3731 27.2334C24.3731 27.2327 24.3731 27.2321 24.3731 27.2314C24.3731 27.2308 24.3731 27.2301 24.3731 27.2294C24.3731 27.2288 24.3731 27.2281 24.3731 27.2275C24.3731 27.2268 24.3731 27.2261 24.3731 27.2255C24.3731 27.2248 24.3731 27.2241 24.3731 27.2235C24.3731 27.2228 24.3731 27.2222 24.3731 27.2215C24.3731 27.2208 24.3731 27.2202 24.3731 27.2195C24.3731 27.2188 24.3731 27.2182 24.3731 27.2175C24.3731 27.2168 24.3731 27.2161 24.3731 27.2155C24.3731 27.2148 24.3731 27.2141 24.3731 27.2135C24.3731 27.2128 24.3731 27.2121 24.3731 27.2114C24.3731 27.2108 24.3731 27.2101 24.3731 27.2094C24.3731 27.2087 24.3731 27.2081 24.3731 27.2074C24.3731 27.2067 24.3731 27.206 24.3731 27.2054C24.3731 27.2047 24.3731 27.204 24.3731 27.2033C24.3731 27.2026 24.3731 27.202 24.3731 27.2013C24.3731 27.2006 24.3731 27.1999 24.3731 27.1992C24.3731 27.1985 24.3731 27.1979 24.3731 27.1972C24.3731 27.1965 24.3731 27.1958 24.3731 27.1951C24.3731 27.1944 24.3731 27.1937 24.3731 27.1931C24.3731 27.1924 24.3731 27.1917 24.3731 27.191C24.3731 27.1903 24.3731 27.1896 24.3731 27.1889C24.3731 27.1882 24.3731 27.1875 24.3731 27.1868C24.3731 27.1861 24.3731 27.1855 24.3731 27.1848C24.3731 27.1841 24.3731 27.1834 24.3731 27.1827C24.3731 27.182 24.3731 27.1813 24.3731 27.1806C24.3731 27.1799 24.3731 27.1792 24.3731 27.1785C24.3731 27.1778 24.3731 27.1771 24.3731 27.1764C24.3731 27.1757 24.3731 27.175 24.3731 27.1743C24.3731 27.1736 24.3731 27.1729 24.3731 27.1722C24.3731 27.1715 24.3731 27.1707 24.3731 27.17C24.3731 27.1693 24.3731 27.1686 24.3731 27.1679C24.3731 27.1672 24.3731 27.1665 24.3731 27.1658C24.3731 27.1651 24.3731 27.1644 24.3731 27.1637C24.3731 27.1629 24.3731 27.1622 24.3731 27.1615C24.3731 27.1608 24.3731 27.1601 24.3731 27.1594C24.3731 27.1587 24.3731 27.158 24.3731 27.1572C24.3731 27.1565 24.3731 27.1558 24.3731 27.1551C24.3731 27.1544 24.3731 27.1536 24.3731 27.1529C24.3731 27.1522 24.3731 27.1515 24.3731 27.1508C24.3731 27.15 24.3731 27.1493 24.3731 27.1486C24.3731 27.1479 24.3731 27.1472 24.3731 27.1464C24.3731 27.1457 24.3731 27.145 24.3731 27.1443C24.3731 27.1435 24.3731 27.1428 24.3731 27.1421C24.3731 27.1413 24.3731 27.1406 24.3731 27.1399C24.3731 27.1392 24.3731 27.1384 24.3731 27.1377C24.3731 27.137 24.3731 27.1362 24.3731 27.1355C24.3731 27.1348 24.3731 27.134 24.3731 27.1333C24.3731 27.1326 24.3731 27.1318 24.3731 27.1311C24.3731 27.1304 24.3731 27.1296 24.3731 27.1289C24.3731 27.1281 24.3731 27.1274 24.3731 27.1267C24.3731 27.1259 24.3731 27.1252 24.3731 27.1244C24.3731 27.1237 24.3731 27.123 24.3731 27.1222C24.3731 27.1215 24.3731 27.1207 24.3731 27.12C24.3731 27.1193 24.3731 27.1185 24.3731 27.1178C24.3731 27.117 24.3731 27.1163 24.3731 27.1155C24.3731 27.1148 24.3731 27.114 24.3731 27.1133C24.3731 27.1125 24.3731 27.1118 24.3731 27.111C24.3731 27.1103 24.3731 27.1095 24.3731 27.1088C24.3731 27.108 24.3731 27.1073 24.3731 27.1065C24.3731 27.1058 24.3731 27.105 24.3731 27.1042C24.3731 27.1035 24.3731 27.1027 24.3731 27.102C24.3731 27.1012 24.3731 27.1005 24.3731 27.0997C24.3731 27.0989 24.3731 27.0982 24.3731 27.0974C24.3731 27.0967 24.3731 27.0959 24.3731 27.0951C24.3731 27.0944 24.3731 27.0936 24.3731 27.0929C24.3731 27.0921 24.3731 27.0913 24.3731 27.0906C24.3731 27.0898 24.3731 27.089 24.3731 27.0883C24.3731 27.0875 24.3731 27.0867 24.3731 27.086C24.3731 27.0852 24.3731 27.0844 24.3731 27.0836C24.3731 27.0829 24.3731 27.0821 24.3731 27.0813C24.3731 27.0806 24.3731 27.0798 24.3731 27.079C24.3731 27.0782 24.3731 27.0775 24.3731 27.0767C24.3731 27.0759 24.3731 27.0751 24.3731 27.0744C24.3731 27.0736 24.3731 27.0728 24.3731 27.072C24.3731 27.0712 24.3731 27.0705 24.3731 27.0697C24.3731 27.0689 24.3731 27.0681 24.3731 27.0673C24.3731 27.0666 24.3731 27.0658 24.3731 27.065C24.3731 27.0642 24.3731 27.0634 24.3731 27.0626C24.3731 27.0619 24.3731 27.0611 24.3731 27.0603C24.3731 27.0595 24.3731 27.0587 24.3731 27.0579C24.3731 27.0571 24.3731 27.0563 24.3731 27.0556C24.3731 27.0548 24.3731 27.054 24.3731 27.0532C24.3731 27.0524 24.3731 27.0516 24.3731 27.0508C24.3731 27.05 24.3731 27.0492 24.3731 27.0484C24.3731 27.0476 24.3731 27.0468 24.3731 27.046C24.3731 27.0452 24.3731 27.0444 24.3731 27.0436C24.3731 27.0428 24.3731 27.042 24.3731 27.0412C24.3731 27.0404 24.3731 27.0396 24.3731 27.0388C24.3731 27.038 24.3731 27.0372 24.3731 27.0364C24.3731 27.0356 24.3731 27.0348 24.3731 27.034C24.3731 27.0332 24.3731 27.0324 24.3731 27.0316C24.3731 27.0308 24.3731 27.03 24.3731 27.0292C24.3731 27.0284 24.3731 27.0276 24.3731 27.0268C24.3731 27.026 24.3731 27.0251 24.3731 27.0243C24.3731 27.0235 24.3731 27.0227 24.3731 27.0219C24.3731 27.0211 24.3731 27.0203 24.3731 27.0195C24.3731 27.0186 24.3731 27.0178 24.3731 27.017C24.3731 27.0162 24.3731 27.0154 24.3731 27.0146C24.3731 27.0137 24.3731 27.0129 24.3731 27.0121C24.3731 27.0113 24.3731 27.0105 24.3731 27.0096C24.3731 27.0088 24.3731 27.008 24.3731 27.0072C24.3731 27.0063 24.3731 27.0055 24.3731 27.0047C24.3731 27.0039 24.3731 27.003 24.3731 27.0022C24.3731 27.0014 24.3731 27.0006 24.3731 26.9997C24.3731 26.9989 24.3731 26.9981 24.3731 26.9973C24.3731 26.9964 24.3731 26.9956 24.3731 26.9948C24.3731 26.9939 24.3731 26.9931 24.3731 26.9923C24.3731 26.9914 24.3731 26.9906 24.3731 26.9898C24.3731 26.9889 24.3731 26.9881 24.3731 26.9873C24.3731 26.9864 24.3731 26.9856 24.3731 26.9848C24.3731 26.9839 24.3731 26.9831 24.3731 26.9822C24.3731 26.9814 24.3731 26.9806 24.3731 26.9797C24.3731 26.9789 24.3731 26.978 24.3731 26.9772C24.3731 26.9764 24.3731 26.9755 24.3731 26.9747C24.3731 26.9738 24.3731 26.973 24.3731 26.9721C24.3731 26.9713 24.3731 26.9704 24.3731 26.9696C24.3731 26.9687 24.3731 26.9679 24.3731 26.967C24.3731 26.9662 24.3731 26.9653 24.3731 26.9645C24.3731 26.9636 24.3731 26.9628 24.3731 26.9619C24.3731 26.9611 24.3731 26.9602 24.3731 26.9594C24.3731 26.9585 24.3731 26.9577 24.3731 26.9568C24.3731 26.956 24.3731 26.9551 24.3731 26.9542C24.3731 26.9534 24.3731 26.9525 24.3731 26.9517C24.3731 26.9508 24.3731 26.95 24.3731 26.9491C24.3731 26.9482 24.3731 26.9474 24.3731 26.9465C24.3731 26.9456 24.3731 26.9448 24.3731 26.9439C24.3731 26.9431 24.3731 26.9422 24.3731 26.9413C24.3731 26.9405 24.3731 26.9396 24.3731 26.9387C24.3731 26.9379 24.3731 26.937 24.3731 26.9361C24.3731 26.9353 24.3731 26.9344 24.3731 26.9335C24.3731 26.9326 24.3731 26.9318 24.3731 26.9309C24.3731 26.93 24.3731 26.9292 24.3731 26.9283C24.3731 26.9274 24.3731 26.9265 24.3731 26.9257C24.3731 26.9248 24.3731 26.9239 24.3731 26.923C24.3731 26.9222 24.3731 26.9213 24.3731 26.9204C24.3731 26.9195 24.3731 26.9186 24.3731 26.9178C24.3731 26.9169 24.3731 26.916 24.3731 26.9151C24.3731 26.9142 24.3731 26.9134 24.3731 26.9125C24.3731 26.9116 24.3731 26.9107 24.3731 26.9098C24.3731 26.9089 24.3731 26.908 24.3731 26.9072C24.3731 26.9063 24.3731 26.9054 24.3731 26.9045C24.3731 26.9036 24.3731 26.9027 24.3731 26.9018C24.3731 26.9009 24.3731 26.9 24.3731 26.8992C24.3731 26.8983 24.3731 26.8974 24.3731 26.8965C24.3731 26.8956 24.3731 26.8947 24.3731 26.8938C24.3731 26.8929 24.3731 26.892 24.3731 26.8911C24.3731 26.8902 24.3731 26.8893 24.3731 26.8884C24.3731 26.8875 24.3731 26.8866 24.3731 26.8857C24.3731 26.8848 24.3731 26.8839 24.3731 26.883C24.3731 26.8821 24.3731 26.8812 24.3731 26.8803C24.3731 26.8794 24.3731 26.8785 24.3731 26.8776C24.3731 26.8767 24.3731 26.8758 24.3731 26.8749C24.3731 26.874 24.3731 26.8731 24.3731 26.8722C24.3731 26.8713 24.3731 26.8703 24.3731 26.8694C24.3731 26.8685 24.3731 26.8676 24.3731 26.8667C24.3731 26.8658 24.3731 26.8649 24.3731 26.864C24.3731 26.8631 24.3731 26.8621 24.3731 26.8612C24.3731 26.8603 24.3731 26.8594 24.3731 26.8585C24.3731 26.8576 24.3731 26.8566 24.3731 26.8557C24.3731 26.8548 24.3731 26.8539 24.3731 26.853C24.3731 26.852 24.3731 26.8511 24.3731 26.8502C24.3731 26.8493 24.3731 26.8484 24.3731 26.8474C24.3731 26.8465 24.3731 26.8456 24.3731 26.8447C24.3731 26.8437 24.3731 26.8428 24.3731 26.8419C24.3731 26.841 24.3731 26.84 24.3731 26.8391C24.3731 26.8382 24.3731 26.8373 24.3731 26.8363C24.3731 26.8354 24.3731 26.8345 24.3731 26.8335C24.3731 26.8326 24.3731 26.8317 24.3731 26.8307C24.3731 26.8298 24.3731 26.8289 24.3731 26.8279C24.3731 26.827 24.3731 26.8261 24.3731 26.8251C24.3731 26.8242 24.3731 26.8233 24.3731 26.8223C24.3731 26.8214 24.3731 26.8204 24.3731 26.8195C24.3731 26.8186 24.3731 26.8176 24.3731 26.8167C24.3731 26.8157 24.3731 26.8148 24.3731 26.8139C24.3731 26.8129 24.3731 26.812 24.3731 26.811C24.3731 26.8101 24.3731 26.8091 24.3731 26.8082C24.3731 26.8073 24.3731 26.8063 24.3731 26.8054C24.3731 26.8044 24.3731 26.8035 24.3731 26.8025C24.3731 26.8016 24.3731 26.8006 24.3731 26.7997C24.3731 26.7987 24.3731 26.7978 24.3731 26.7968C24.3731 26.7959 24.3731 26.7949 24.3731 26.794C24.3731 26.793 24.3731 26.792 24.3731 26.7911C24.3731 26.7901 24.3731 26.7892 24.3731 26.7882C24.3731 26.7873 24.3731 26.7863 24.3731 26.7853C24.3731 26.7844 24.3731 26.7834 24.3731 26.7825C24.3731 26.7815 24.3731 26.7805 24.3731 26.7796C24.3731 26.7786 24.3731 26.7777 24.3731 26.7767C24.3731 26.7757 24.3731 26.7748 24.3731 26.7738C24.3731 26.7728 24.3731 26.7719 24.3731 26.7709C24.3731 26.7699 24.3731 26.769 24.3731 26.768C24.3731 26.767 24.3731 26.7661 24.3731 26.7651C24.3731 26.7641 24.3731 26.7631 24.3731 26.7622C24.3731 26.7612 24.3731 26.7602 24.3731 26.7593C24.3731 26.7583 24.3731 26.7573 24.3731 26.7563C24.3731 26.7554 24.3731 26.7544 24.3731 26.7534C24.3731 26.7524 24.3731 26.7514 24.3731 26.7505C24.3731 26.7495 24.3731 26.7485 24.3731 26.7475C24.3731 26.7466 24.3731 26.7456 24.3731 26.7446C24.3731 26.7436 24.3731 26.7426 24.3731 26.7416C24.3731 26.7407 24.3731 26.7397 24.3731 26.7387C24.3731 26.7377 24.3731 26.7367 24.3731 26.7357C24.3731 26.7347 24.3731 26.7338 24.3731 26.7328C24.3731 26.7318 24.3731 26.7308 24.3731 26.7298C24.3731 26.7288 24.3731 26.7278 24.3731 26.7268C24.3731 26.7258 24.3731 26.7248 24.3731 26.7238C24.3731 26.7229 24.3731 26.7219 24.3731 26.7209C24.3731 26.7199 24.3731 26.7189 24.3731 26.7179C24.3731 26.7169 24.3731 26.7159 24.3731 26.7149C24.3731 26.7139 24.3731 26.7129 24.3731 26.7119C24.3731 26.7109 24.3731 26.7099 24.3731 26.7089C24.3731 26.7079 24.3731 26.7069 24.3731 26.7059C24.3731 26.7049 24.3731 26.7039 24.3731 26.7029C24.3731 26.7019 24.3731 26.7009 24.3731 26.6999C24.3731 26.6988 24.3731 26.6978 24.3731 26.6968C24.3731 26.6958 24.3731 26.6948 24.3731 26.6938C24.3731 26.6928 24.3731 26.6918 24.3731 26.6908C24.3731 26.6898 24.3731 26.6887 24.3731 26.6877C24.3731 26.6867 24.3731 26.6857 24.3731 26.6847C24.3731 26.6837 24.3731 26.6827 24.3731 26.6816C24.3731 26.6806 24.3731 26.6796 24.3731 26.6786C24.3731 26.6776 24.3731 26.6766 24.3731 26.6755C24.3731 26.6745 24.3731 26.6735 24.3731 26.6725C24.3731 26.6715 24.3731 26.6704 24.3731 26.6694C24.3731 26.6684 24.3731 26.6674 24.3731 26.6663C24.3731 26.6653 24.3731 26.6643 24.3731 26.6633C24.3731 26.6622 24.3731 26.6612 24.3731 26.6602C24.3731 26.6592 24.3731 26.6581 24.3731 26.6571C24.3731 26.6561 24.3731 26.655 24.3731 26.654C24.3731 26.653 24.3731 26.6519 24.3731 26.6509C24.3731 26.6499 24.3731 26.6488 24.3731 26.6478C24.3731 26.6468 24.3731 26.6457 24.3731 26.6447C24.3731 26.6437 24.3731 26.6426 24.3731 26.6416C24.3731 26.6406 24.3731 26.6395 24.3731 26.6385C24.3731 26.6374 24.3731 26.6364 24.3731 26.6354C24.3731 26.6343 24.3731 26.6333 24.3731 26.6322C24.3731 26.6312 24.3731 26.6302 24.3731 26.6291C24.3731 26.6281 24.3731 26.627 24.3731 26.626C24.3731 26.6249 24.3731 26.6239 24.3731 26.6228C24.3731 26.6218 24.3731 26.6207 24.3731 26.6197C24.3731 26.6186 24.3731 26.6176 24.3731 26.6165C24.3731 26.6155 24.3731 26.6144 24.3731 26.6134C24.3731 26.6123 24.3731 26.6113 24.3731 26.6102C24.3731 26.6092 24.3731 26.6081 24.3731 26.6071C24.3731 26.606 24.3731 26.605 24.3731 26.6039C24.3731 26.6028 24.3731 26.6018 24.3731 26.6007C24.3731 26.5997 24.3731 26.5986 24.3731 26.5975C24.3731 26.5965 24.3731 26.5954 24.3731 26.5944C24.3731 26.5933 24.3731 26.5922 24.3731 26.5912C24.3731 26.5901 24.3731 26.589 24.3731 26.588C24.3731 26.5869 24.3731 26.5858 24.3731 26.5848C24.3731 26.5837 24.3731 26.5826 24.3731 26.5816C24.3731 26.5805 24.3731 26.5794 24.3731 26.5784C24.3731 26.5773 24.3731 26.5762 24.3731 26.5751C24.3731 26.5741 24.3731 26.573 24.3731 26.5719C24.3731 26.5709 24.3731 26.5698 24.3731 26.5687C24.3731 26.5676 24.3731 26.5666 24.3731 26.5655C24.3731 26.5644 24.3731 26.5633 24.3731 26.5622C24.3731 26.5612 24.3731 26.5601 24.3731 26.559C24.3731 26.5579 24.3731 26.5568 24.3731 26.5558C24.3731 26.5547 24.3731 26.5536 24.3731 26.5525C24.3731 26.5514 24.3731 26.5503 24.3731 26.5493C24.3731 26.5482 24.3731 26.5471 24.3731 26.546C24.3731 26.5449 24.3731 26.5438 24.3731 26.5427C24.3731 26.5417 24.3731 26.5406 24.3731 26.5395C24.3731 26.5384 24.3731 26.5373 24.3731 26.5362C24.3731 26.5351 24.3731 26.534 24.3731 26.5329C24.3731 26.5318 24.3731 26.5307 24.3731 26.5296C24.3731 26.5285 24.3731 26.5275 24.3731 26.5264C24.3731 26.5253 24.3731 26.5242 24.3731 26.5231C24.3731 26.522 24.3731 26.5209 24.3731 26.5198C24.3731 26.5187 24.3731 26.5176 24.3731 26.5165C24.3731 26.5154 24.3731 26.5143 24.3731 26.5132C24.3731 26.5121 24.3731 26.511 24.3731 26.5098C24.3731 26.5087 24.3731 26.5076 24.3731 26.5065C24.3731 26.5054 24.3731 26.5043 24.3731 26.5032C24.3731 26.5021 24.3731 26.501 24.3731 26.4999C24.3731 26.4988 24.3731 26.4977 24.3731 26.4965C24.3731 26.4954 24.3731 26.4943 24.3731 26.4932C24.3731 26.4921 24.3731 26.491 24.3731 26.4899C24.3731 26.4888 24.3731 26.4876 24.3731 26.4865C24.3731 26.4854 24.3731 26.4843 24.3731 26.4832C24.3731 26.4821 24.3731 26.4809 24.3731 26.4798C24.3731 26.4787 24.3731 26.4776 24.3731 26.4765C24.3731 26.4753 24.3731 26.4742 24.3731 26.4731C24.3731 26.472 24.3731 26.4708 24.3731 26.4697C24.3731 26.4686 24.3731 26.4675 24.3731 26.4663C24.3731 26.4652 24.3731 26.4641 24.3731 26.463C24.3731 26.4618 24.3731 26.4607 24.3731 26.4596C24.3731 26.4584 24.3731 26.4573 24.3731 26.4562C24.3731 26.4551 24.3731 26.4539 24.3731 26.4528C24.3731 26.4517 24.3731 26.4505 24.3731 26.4494C24.3731 26.4483 24.3731 26.4471 24.3731 26.446C24.3731 26.4448 24.3731 26.4437 24.3731 26.4426C24.3731 26.4414 24.3731 26.4403 24.3731 26.4392C24.3731 26.438 24.3731 26.4369 24.3731 26.4357C24.3731 26.4346 24.3731 26.4335 24.3731 26.4323C24.3731 26.4312 24.3731 26.43 24.3731 26.4289C24.3731 26.4277 24.3731 26.4266 24.3731 26.4255C24.3731 26.4243 24.3731 26.4232 24.3731 26.422C24.3731 26.4209 24.3731 26.4197 24.3731 26.4186C24.3731 26.4174 24.3731 26.4163 24.3731 26.4151C24.3731 26.414 24.3731 26.4128 24.3731 26.4117C24.3731 26.4105 24.3731 26.4094 24.3731 26.4082H23.3731C23.3731 26.4094 23.3731 26.4105 23.3731 26.4117C23.3731 26.4128 23.3731 26.414 23.3731 26.4151C23.3731 26.4163 23.3731 26.4174 23.3731 26.4186C23.3731 26.4197 23.3731 26.4209 23.3731 26.422C23.3731 26.4232 23.3731 26.4243 23.3731 26.4255C23.3731 26.4266 23.3731 26.4277 23.3731 26.4289C23.3731 26.43 23.3731 26.4312 23.3731 26.4323C23.3731 26.4335 23.3731 26.4346 23.3731 26.4357C23.3731 26.4369 23.3731 26.438 23.3731 26.4392C23.3731 26.4403 23.3731 26.4414 23.3731 26.4426C23.3731 26.4437 23.3731 26.4448 23.3731 26.446C23.3731 26.4471 23.3731 26.4483 23.3731 26.4494C23.3731 26.4505 23.3731 26.4517 23.3731 26.4528C23.3731 26.4539 23.3731 26.4551 23.3731 26.4562C23.3731 26.4573 23.3731 26.4584 23.3731 26.4596C23.3731 26.4607 23.3731 26.4618 23.3731 26.463C23.3731 26.4641 23.3731 26.4652 23.3731 26.4663C23.3731 26.4675 23.3731 26.4686 23.3731 26.4697C23.3731 26.4708 23.3731 26.472 23.3731 26.4731C23.3731 26.4742 23.3731 26.4753 23.3731 26.4765C23.3731 26.4776 23.3731 26.4787 23.3731 26.4798C23.3731 26.4809 23.3731 26.4821 23.3731 26.4832C23.3731 26.4843 23.3731 26.4854 23.3731 26.4865C23.3731 26.4876 23.3731 26.4888 23.3731 26.4899C23.3731 26.491 23.3731 26.4921 23.3731 26.4932C23.3731 26.4943 23.3731 26.4954 23.3731 26.4965C23.3731 26.4977 23.3731 26.4988 23.3731 26.4999C23.3731 26.501 23.3731 26.5021 23.3731 26.5032C23.3731 26.5043 23.3731 26.5054 23.3731 26.5065C23.3731 26.5076 23.3731 26.5087 23.3731 26.5098C23.3731 26.511 23.3731 26.5121 23.3731 26.5132C23.3731 26.5143 23.3731 26.5154 23.3731 26.5165C23.3731 26.5176 23.3731 26.5187 23.3731 26.5198C23.3731 26.5209 23.3731 26.522 23.3731 26.5231C23.3731 26.5242 23.3731 26.5253 23.3731 26.5264C23.3731 26.5275 23.3731 26.5285 23.3731 26.5296C23.3731 26.5307 23.3731 26.5318 23.3731 26.5329C23.3731 26.534 23.3731 26.5351 23.3731 26.5362C23.3731 26.5373 23.3731 26.5384 23.3731 26.5395C23.3731 26.5406 23.3731 26.5417 23.3731 26.5427C23.3731 26.5438 23.3731 26.5449 23.3731 26.546C23.3731 26.5471 23.3731 26.5482 23.3731 26.5493C23.3731 26.5503 23.3731 26.5514 23.3731 26.5525C23.3731 26.5536 23.3731 26.5547 23.3731 26.5558C23.3731 26.5568 23.3731 26.5579 23.3731 26.559C23.3731 26.5601 23.3731 26.5612 23.3731 26.5622C23.3731 26.5633 23.3731 26.5644 23.3731 26.5655C23.3731 26.5666 23.3731 26.5676 23.3731 26.5687C23.3731 26.5698 23.3731 26.5709 23.3731 26.5719C23.3731 26.573 23.3731 26.5741 23.3731 26.5751C23.3731 26.5762 23.3731 26.5773 23.3731 26.5784C23.3731 26.5794 23.3731 26.5805 23.3731 26.5816C23.3731 26.5826 23.3731 26.5837 23.3731 26.5848C23.3731 26.5858 23.3731 26.5869 23.3731 26.588C23.3731 26.589 23.3731 26.5901 23.3731 26.5912C23.3731 26.5922 23.3731 26.5933 23.3731 26.5944C23.3731 26.5954 23.3731 26.5965 23.3731 26.5975C23.3731 26.5986 23.3731 26.5997 23.3731 26.6007C23.3731 26.6018 23.3731 26.6028 23.3731 26.6039C23.3731 26.605 23.3731 26.606 23.3731 26.6071C23.3731 26.6081 23.3731 26.6092 23.3731 26.6102C23.3731 26.6113 23.3731 26.6123 23.3731 26.6134C23.3731 26.6144 23.3731 26.6155 23.3731 26.6165C23.3731 26.6176 23.3731 26.6186 23.3731 26.6197C23.3731 26.6207 23.3731 26.6218 23.3731 26.6228C23.3731 26.6239 23.3731 26.6249 23.3731 26.626C23.3731 26.627 23.3731 26.6281 23.3731 26.6291C23.3731 26.6302 23.3731 26.6312 23.3731 26.6322C23.3731 26.6333 23.3731 26.6343 23.3731 26.6354C23.3731 26.6364 23.3731 26.6374 23.3731 26.6385C23.3731 26.6395 23.3731 26.6406 23.3731 26.6416C23.3731 26.6426 23.3731 26.6437 23.3731 26.6447C23.3731 26.6457 23.3731 26.6468 23.3731 26.6478C23.3731 26.6488 23.3731 26.6499 23.3731 26.6509C23.3731 26.6519 23.3731 26.653 23.3731 26.654C23.3731 26.655 23.3731 26.6561 23.3731 26.6571C23.3731 26.6581 23.3731 26.6592 23.3731 26.6602C23.3731 26.6612 23.3731 26.6622 23.3731 26.6633C23.3731 26.6643 23.3731 26.6653 23.3731 26.6663C23.3731 26.6674 23.3731 26.6684 23.3731 26.6694C23.3731 26.6704 23.3731 26.6715 23.3731 26.6725C23.3731 26.6735 23.3731 26.6745 23.3731 26.6755C23.3731 26.6766 23.3731 26.6776 23.3731 26.6786C23.3731 26.6796 23.3731 26.6806 23.3731 26.6816C23.3731 26.6827 23.3731 26.6837 23.3731 26.6847C23.3731 26.6857 23.3731 26.6867 23.3731 26.6877C23.3731 26.6887 23.3731 26.6898 23.3731 26.6908C23.3731 26.6918 23.3731 26.6928 23.3731 26.6938C23.3731 26.6948 23.3731 26.6958 23.3731 26.6968C23.3731 26.6978 23.3731 26.6988 23.3731 26.6999C23.3731 26.7009 23.3731 26.7019 23.3731 26.7029C23.3731 26.7039 23.3731 26.7049 23.3731 26.7059C23.3731 26.7069 23.3731 26.7079 23.3731 26.7089C23.3731 26.7099 23.3731 26.7109 23.3731 26.7119C23.3731 26.7129 23.3731 26.7139 23.3731 26.7149C23.3731 26.7159 23.3731 26.7169 23.3731 26.7179C23.3731 26.7189 23.3731 26.7199 23.3731 26.7209C23.3731 26.7219 23.3731 26.7229 23.3731 26.7238C23.3731 26.7248 23.3731 26.7258 23.3731 26.7268C23.3731 26.7278 23.3731 26.7288 23.3731 26.7298C23.3731 26.7308 23.3731 26.7318 23.3731 26.7328C23.3731 26.7338 23.3731 26.7347 23.3731 26.7357C23.3731 26.7367 23.3731 26.7377 23.3731 26.7387C23.3731 26.7397 23.3731 26.7407 23.3731 26.7416C23.3731 26.7426 23.3731 26.7436 23.3731 26.7446C23.3731 26.7456 23.3731 26.7466 23.3731 26.7475C23.3731 26.7485 23.3731 26.7495 23.3731 26.7505C23.3731 26.7514 23.3731 26.7524 23.3731 26.7534C23.3731 26.7544 23.3731 26.7554 23.3731 26.7563C23.3731 26.7573 23.3731 26.7583 23.3731 26.7593C23.3731 26.7602 23.3731 26.7612 23.3731 26.7622C23.3731 26.7631 23.3731 26.7641 23.3731 26.7651C23.3731 26.7661 23.3731 26.767 23.3731 26.768C23.3731 26.769 23.3731 26.7699 23.3731 26.7709C23.3731 26.7719 23.3731 26.7728 23.3731 26.7738C23.3731 26.7748 23.3731 26.7757 23.3731 26.7767C23.3731 26.7777 23.3731 26.7786 23.3731 26.7796C23.3731 26.7805 23.3731 26.7815 23.3731 26.7825C23.3731 26.7834 23.3731 26.7844 23.3731 26.7853C23.3731 26.7863 23.3731 26.7873 23.3731 26.7882C23.3731 26.7892 23.3731 26.7901 23.3731 26.7911C23.3731 26.792 23.3731 26.793 23.3731 26.794C23.3731 26.7949 23.3731 26.7959 23.3731 26.7968C23.3731 26.7978 23.3731 26.7987 23.3731 26.7997C23.3731 26.8006 23.3731 26.8016 23.3731 26.8025C23.3731 26.8035 23.3731 26.8044 23.3731 26.8054C23.3731 26.8063 23.3731 26.8073 23.3731 26.8082C23.3731 26.8091 23.3731 26.8101 23.3731 26.811C23.3731 26.812 23.3731 26.8129 23.3731 26.8139C23.3731 26.8148 23.3731 26.8157 23.3731 26.8167C23.3731 26.8176 23.3731 26.8186 23.3731 26.8195C23.3731 26.8204 23.3731 26.8214 23.3731 26.8223C23.3731 26.8233 23.3731 26.8242 23.3731 26.8251C23.3731 26.8261 23.3731 26.827 23.3731 26.8279C23.3731 26.8289 23.3731 26.8298 23.3731 26.8307C23.3731 26.8317 23.3731 26.8326 23.3731 26.8335C23.3731 26.8345 23.3731 26.8354 23.3731 26.8363C23.3731 26.8373 23.3731 26.8382 23.3731 26.8391C23.3731 26.84 23.3731 26.841 23.3731 26.8419C23.3731 26.8428 23.3731 26.8437 23.3731 26.8447C23.3731 26.8456 23.3731 26.8465 23.3731 26.8474C23.3731 26.8484 23.3731 26.8493 23.3731 26.8502C23.3731 26.8511 23.3731 26.852 23.3731 26.853C23.3731 26.8539 23.3731 26.8548 23.3731 26.8557C23.3731 26.8566 23.3731 26.8576 23.3731 26.8585C23.3731 26.8594 23.3731 26.8603 23.3731 26.8612C23.3731 26.8621 23.3731 26.8631 23.3731 26.864C23.3731 26.8649 23.3731 26.8658 23.3731 26.8667C23.3731 26.8676 23.3731 26.8685 23.3731 26.8694C23.3731 26.8703 23.3731 26.8713 23.3731 26.8722C23.3731 26.8731 23.3731 26.874 23.3731 26.8749C23.3731 26.8758 23.3731 26.8767 23.3731 26.8776C23.3731 26.8785 23.3731 26.8794 23.3731 26.8803C23.3731 26.8812 23.3731 26.8821 23.3731 26.883C23.3731 26.8839 23.3731 26.8848 23.3731 26.8857C23.3731 26.8866 23.3731 26.8875 23.3731 26.8884C23.3731 26.8893 23.3731 26.8902 23.3731 26.8911C23.3731 26.892 23.3731 26.8929 23.3731 26.8938C23.3731 26.8947 23.3731 26.8956 23.3731 26.8965C23.3731 26.8974 23.3731 26.8983 23.3731 26.8992C23.3731 26.9 23.3731 26.9009 23.3731 26.9018C23.3731 26.9027 23.3731 26.9036 23.3731 26.9045C23.3731 26.9054 23.3731 26.9063 23.3731 26.9072C23.3731 26.908 23.3731 26.9089 23.3731 26.9098C23.3731 26.9107 23.3731 26.9116 23.3731 26.9125C23.3731 26.9134 23.3731 26.9142 23.3731 26.9151C23.3731 26.916 23.3731 26.9169 23.3731 26.9178C23.3731 26.9186 23.3731 26.9195 23.3731 26.9204C23.3731 26.9213 23.3731 26.9222 23.3731 26.923C23.3731 26.9239 23.3731 26.9248 23.3731 26.9257C23.3731 26.9265 23.3731 26.9274 23.3731 26.9283C23.3731 26.9292 23.3731 26.93 23.3731 26.9309C23.3731 26.9318 23.3731 26.9326 23.3731 26.9335C23.3731 26.9344 23.3731 26.9353 23.3731 26.9361C23.3731 26.937 23.3731 26.9379 23.3731 26.9387C23.3731 26.9396 23.3731 26.9405 23.3731 26.9413C23.3731 26.9422 23.3731 26.9431 23.3731 26.9439C23.3731 26.9448 23.3731 26.9456 23.3731 26.9465C23.3731 26.9474 23.3731 26.9482 23.3731 26.9491C23.3731 26.95 23.3731 26.9508 23.3731 26.9517C23.3731 26.9525 23.3731 26.9534 23.3731 26.9542C23.3731 26.9551 23.3731 26.956 23.3731 26.9568C23.3731 26.9577 23.3731 26.9585 23.3731 26.9594C23.3731 26.9602 23.3731 26.9611 23.3731 26.9619C23.3731 26.9628 23.3731 26.9636 23.3731 26.9645C23.3731 26.9653 23.3731 26.9662 23.3731 26.967C23.3731 26.9679 23.3731 26.9687 23.3731 26.9696C23.3731 26.9704 23.3731 26.9713 23.3731 26.9721C23.3731 26.973 23.3731 26.9738 23.3731 26.9747C23.3731 26.9755 23.3731 26.9764 23.3731 26.9772C23.3731 26.978 23.3731 26.9789 23.3731 26.9797C23.3731 26.9806 23.3731 26.9814 23.3731 26.9822C23.3731 26.9831 23.3731 26.9839 23.3731 26.9848C23.3731 26.9856 23.3731 26.9864 23.3731 26.9873C23.3731 26.9881 23.3731 26.9889 23.3731 26.9898C23.3731 26.9906 23.3731 26.9914 23.3731 26.9923C23.3731 26.9931 23.3731 26.9939 23.3731 26.9948C23.3731 26.9956 23.3731 26.9964 23.3731 26.9973C23.3731 26.9981 23.3731 26.9989 23.3731 26.9997C23.3731 27.0006 23.3731 27.0014 23.3731 27.0022C23.3731 27.003 23.3731 27.0039 23.3731 27.0047C23.3731 27.0055 23.3731 27.0063 23.3731 27.0072C23.3731 27.008 23.3731 27.0088 23.3731 27.0096C23.3731 27.0105 23.3731 27.0113 23.3731 27.0121C23.3731 27.0129 23.3731 27.0137 23.3731 27.0146C23.3731 27.0154 23.3731 27.0162 23.3731 27.017C23.3731 27.0178 23.3731 27.0186 23.3731 27.0195C23.3731 27.0203 23.3731 27.0211 23.3731 27.0219C23.3731 27.0227 23.3731 27.0235 23.3731 27.0243C23.3731 27.0251 23.3731 27.026 23.3731 27.0268C23.3731 27.0276 23.3731 27.0284 23.3731 27.0292C23.3731 27.03 23.3731 27.0308 23.3731 27.0316C23.3731 27.0324 23.3731 27.0332 23.3731 27.034C23.3731 27.0348 23.3731 27.0356 23.3731 27.0364C23.3731 27.0372 23.3731 27.038 23.3731 27.0388C23.3731 27.0396 23.3731 27.0404 23.3731 27.0412C23.3731 27.042 23.3731 27.0428 23.3731 27.0436C23.3731 27.0444 23.3731 27.0452 23.3731 27.046C23.3731 27.0468 23.3731 27.0476 23.3731 27.0484C23.3731 27.0492 23.3731 27.05 23.3731 27.0508C23.3731 27.0516 23.3731 27.0524 23.3731 27.0532C23.3731 27.054 23.3731 27.0548 23.3731 27.0556C23.3731 27.0563 23.3731 27.0571 23.3731 27.0579C23.3731 27.0587 23.3731 27.0595 23.3731 27.0603C23.3731 27.0611 23.3731 27.0619 23.3731 27.0626C23.3731 27.0634 23.3731 27.0642 23.3731 27.065C23.3731 27.0658 23.3731 27.0666 23.3731 27.0673C23.3731 27.0681 23.3731 27.0689 23.3731 27.0697C23.3731 27.0705 23.3731 27.0712 23.3731 27.072C23.3731 27.0728 23.3731 27.0736 23.3731 27.0744C23.3731 27.0751 23.3731 27.0759 23.3731 27.0767C23.3731 27.0775 23.3731 27.0782 23.3731 27.079C23.3731 27.0798 23.3731 27.0806 23.3731 27.0813C23.3731 27.0821 23.3731 27.0829 23.3731 27.0836C23.3731 27.0844 23.3731 27.0852 23.3731 27.086C23.3731 27.0867 23.3731 27.0875 23.3731 27.0883C23.3731 27.089 23.3731 27.0898 23.3731 27.0906C23.3731 27.0913 23.3731 27.0921 23.3731 27.0929C23.3731 27.0936 23.3731 27.0944 23.3731 27.0951C23.3731 27.0959 23.3731 27.0967 23.3731 27.0974C23.3731 27.0982 23.3731 27.0989 23.3731 27.0997C23.3731 27.1005 23.3731 27.1012 23.3731 27.102C23.3731 27.1027 23.3731 27.1035 23.3731 27.1042C23.3731 27.105 23.3731 27.1058 23.3731 27.1065C23.3731 27.1073 23.3731 27.108 23.3731 27.1088C23.3731 27.1095 23.3731 27.1103 23.3731 27.111C23.3731 27.1118 23.3731 27.1125 23.3731 27.1133C23.3731 27.114 23.3731 27.1148 23.3731 27.1155C23.3731 27.1163 23.3731 27.117 23.3731 27.1178C23.3731 27.1185 23.3731 27.1193 23.3731 27.12C23.3731 27.1207 23.3731 27.1215 23.3731 27.1222C23.3731 27.123 23.3731 27.1237 23.3731 27.1244C23.3731 27.1252 23.3731 27.1259 23.3731 27.1267C23.3731 27.1274 23.3731 27.1281 23.3731 27.1289C23.3731 27.1296 23.3731 27.1304 23.3731 27.1311C23.3731 27.1318 23.3731 27.1326 23.3731 27.1333C23.3731 27.134 23.3731 27.1348 23.3731 27.1355C23.3731 27.1362 23.3731 27.137 23.3731 27.1377C23.3731 27.1384 23.3731 27.1392 23.3731 27.1399C23.3731 27.1406 23.3731 27.1413 23.3731 27.1421C23.3731 27.1428 23.3731 27.1435 23.3731 27.1443C23.3731 27.145 23.3731 27.1457 23.3731 27.1464C23.3731 27.1472 23.3731 27.1479 23.3731 27.1486C23.3731 27.1493 23.3731 27.15 23.3731 27.1508C23.3731 27.1515 23.3731 27.1522 23.3731 27.1529C23.3731 27.1536 23.3731 27.1544 23.3731 27.1551C23.3731 27.1558 23.3731 27.1565 23.3731 27.1572C23.3731 27.158 23.3731 27.1587 23.3731 27.1594C23.3731 27.1601 23.3731 27.1608 23.3731 27.1615C23.3731 27.1622 23.3731 27.1629 23.3731 27.1637C23.3731 27.1644 23.3731 27.1651 23.3731 27.1658C23.3731 27.1665 23.3731 27.1672 23.3731 27.1679C23.3731 27.1686 23.3731 27.1693 23.3731 27.17C23.3731 27.1707 23.3731 27.1715 23.3731 27.1722C23.3731 27.1729 23.3731 27.1736 23.3731 27.1743C23.3731 27.175 23.3731 27.1757 23.3731 27.1764C23.3731 27.1771 23.3731 27.1778 23.3731 27.1785C23.3731 27.1792 23.3731 27.1799 23.3731 27.1806C23.3731 27.1813 23.3731 27.182 23.3731 27.1827C23.3731 27.1834 23.3731 27.1841 23.3731 27.1848C23.3731 27.1855 23.3731 27.1861 23.3731 27.1868C23.3731 27.1875 23.3731 27.1882 23.3731 27.1889C23.3731 27.1896 23.3731 27.1903 23.3731 27.191C23.3731 27.1917 23.3731 27.1924 23.3731 27.1931C23.3731 27.1937 23.3731 27.1944 23.3731 27.1951C23.3731 27.1958 23.3731 27.1965 23.3731 27.1972C23.3731 27.1979 23.3731 27.1985 23.3731 27.1992C23.3731 27.1999 23.3731 27.2006 23.3731 27.2013C23.3731 27.202 23.3731 27.2026 23.3731 27.2033C23.3731 27.204 23.3731 27.2047 23.3731 27.2054C23.3731 27.206 23.3731 27.2067 23.3731 27.2074C23.3731 27.2081 23.3731 27.2087 23.3731 27.2094C23.3731 27.2101 23.3731 27.2108 23.3731 27.2114C23.3731 27.2121 23.3731 27.2128 23.3731 27.2135C23.3731 27.2141 23.3731 27.2148 23.3731 27.2155C23.3731 27.2161 23.3731 27.2168 23.3731 27.2175C23.3731 27.2182 23.3731 27.2188 23.3731 27.2195C23.3731 27.2202 23.3731 27.2208 23.3731 27.2215C23.3731 27.2222 23.3731 27.2228 23.3731 27.2235C23.3731 27.2241 23.3731 27.2248 23.3731 27.2255C23.3731 27.2261 23.3731 27.2268 23.3731 27.2275C23.3731 27.2281 23.3731 27.2288 23.3731 27.2294C23.3731 27.2301 23.3731 27.2308 23.3731 27.2314C23.3731 27.2321 23.3731 27.2327 23.3731 27.2334C23.3731 27.234 23.3731 27.2347 23.3731 27.2353C23.3731 27.236 23.3731 27.2367 23.3731 27.2373C23.3731 27.238 23.3731 27.2386 23.3731 27.2393C23.3731 27.2399 23.3731 27.2406 23.3731 27.2412C23.3731 27.2419 23.3731 27.2425 23.3731 27.2432C23.3731 27.2438 23.3731 27.2444 23.3731 27.2451C23.3731 27.2457 23.3731 27.2464 23.3731 27.247C23.3731 27.2477 23.3731 27.2483 23.3731 27.249C23.3731 27.2496 23.3731 27.2502 23.3731 27.2509C23.3731 27.2515 23.3731 27.2522 23.3731 27.2528C23.3731 27.2534 23.3731 27.2541 23.3731 27.2547C23.3731 27.2554 23.3731 27.256 23.3731 27.2566C23.3731 27.2573 23.3731 27.2579 23.3731 27.2585C23.3731 27.2592 23.3731 27.2598 23.3731 27.2604C23.3731 27.2611 23.3731 27.2617 23.3731 27.2623C23.3731 27.263 23.3731 27.2636 23.3731 27.2642C23.3731 27.2649 23.3731 27.2655 23.3731 27.2661C23.3731 27.2667 23.3731 27.2674 23.3731 27.268C23.3731 27.2686 23.3731 27.2692 23.3731 27.2699C23.3731 27.2705 23.3731 27.2711 23.3731 27.2717C23.3731 27.2724 23.3731 27.273 23.3731 27.2736C23.3731 27.2742 23.3731 27.2748 23.3731 27.2755C23.3731 27.2761 23.3731 27.2767 23.3731 27.2773C23.3731 27.2779 23.3731 27.2786 23.3731 27.2792C23.3731 27.2798 23.3731 27.2804 23.3731 27.281C23.3731 27.2816 23.3731 27.2822 23.3731 27.2829C23.3731 27.2835 23.3731 27.2841 23.3731 27.2847C23.3731 27.2853 23.3731 27.2859 23.3731 27.2865C23.3731 27.2871 23.3731 27.2877 23.3731 27.2884C23.3731 27.289 23.3731 27.2896 23.3731 27.2902C23.3731 27.2908 23.3731 27.2914 23.3731 27.292C23.3731 27.2926 23.3731 27.2932 23.3731 27.2938C23.3731 27.2944 23.3731 27.295 23.3731 27.2956C23.3731 27.2962 23.3731 27.2968 23.3731 27.2974C23.3731 27.298 23.3731 27.2986 23.3731 27.2992C23.3731 27.2998 23.3731 27.3004 23.3731 27.301C23.3731 27.3016 23.3731 27.3022 23.3731 27.3028C23.3731 27.3034 23.3731 27.304 23.3731 27.3046C23.3731 27.3052 23.3731 27.3058 23.3731 27.3064C23.3731 27.3069 23.3731 27.3075 23.3731 27.3081C23.3731 27.3087 23.3731 27.3093 23.3731 27.3099C23.3731 27.3105 23.3731 27.3111 23.3731 27.3117C23.3731 27.3122 23.3731 27.3128 23.3731 27.3134C23.3731 27.314 23.3731 27.3146 23.3731 27.3152C23.3731 27.3157 23.3731 27.3163 23.3731 27.3169C23.3731 27.3175 23.3731 27.3181 23.3731 27.3187C23.3731 27.3192 23.3731 27.3198 23.3731 27.3204C23.3731 27.321 23.3731 27.3216 23.3731 27.3221C23.3731 27.3227 23.3731 27.3233 23.3731 27.3239C23.3731 27.3244 23.3731 27.325 23.3731 27.3256C23.3731 27.3262 23.3731 27.3267 23.3731 27.3273C23.3731 27.3279 23.3731 27.3284 23.3731 27.329C23.3731 27.3296 23.3731 27.3302 23.3731 27.3307C23.3731 27.3313 23.3731 27.3319 23.3731 27.3324C23.3731 27.333 23.3731 27.3336 23.3731 27.3341C23.3731 27.3347 23.3731 27.3353 23.3731 27.3358C23.3731 27.3364 23.3731 27.3369 23.3731 27.3375C23.3731 27.3381 23.3731 27.3386 23.3731 27.3392C23.3731 27.3398 23.3731 27.3403 23.3731 27.3409C23.3731 27.3414 23.3731 27.342 23.3731 27.3425C23.3731 27.3431 23.3731 27.3437 23.3731 27.3442C23.3731 27.3448 23.3731 27.3453 23.3731 27.3459C23.3731 27.3464 23.3731 27.347 23.3731 27.3475C23.3731 27.3481 23.3731 27.3486 23.3731 27.3492C23.3731 27.3497 23.3731 27.3503 23.3731 27.3508C23.3731 27.3514 23.3731 27.3519 23.3731 27.3525C23.3731 27.353 23.3731 27.3536 23.3731 27.3541C23.3731 27.3547 23.3731 27.3552 23.3731 27.3558C23.3731 27.3563 23.3731 27.3569 23.3731 27.3574C23.3731 27.3579 23.3731 27.3585 23.3731 27.359C23.3731 27.3596 23.3731 27.3601 23.3731 27.3606C23.3731 27.3612 23.3731 27.3617 23.3731 27.3623C23.3731 27.3628 23.3731 27.3633 23.3731 27.3639C23.3731 27.3644 23.3731 27.3649 23.3731 27.3655C23.3731 27.366 23.3731 27.3665 23.3731 27.3671C23.3731 27.3676 23.3731 27.3681 23.3731 27.3687C23.3731 27.3692 23.3731 27.3697 23.3731 27.3703C23.3731 27.3708 23.3731 27.3713 23.3731 27.3718C23.3731 27.3724 23.3731 27.3729 23.3731 27.3734C23.3731 27.374 23.3731 27.3745 23.3731 27.375C23.3731 27.3755 23.3731 27.376 23.3731 27.3766C23.3731 27.3771 23.3731 27.3776 23.3731 27.3781C23.3731 27.3787 23.3731 27.3792 23.3731 27.3797C23.3731 27.3802 23.3731 27.3807 23.3731 27.3813C23.3731 27.3818 23.3731 27.3823 23.3731 27.3828C23.3731 27.3833 23.3731 27.3838 23.3731 27.3844C23.3731 27.3849 23.3731 27.3854 23.3731 27.3859C23.3731 27.3864 23.3731 27.3869 23.3731 27.3874C23.3731 27.3879 23.3731 27.3885 23.3731 27.389C23.3731 27.3895 23.3731 27.39 23.3731 27.3905C23.3731 27.391 23.3731 27.3915 23.3731 27.392C23.3731 27.3925 23.3731 27.393 23.3731 27.3935C23.3731 27.394 23.3731 27.3945 23.3731 27.395C23.3731 27.3955 23.3731 27.396 23.3731 27.3965C23.3731 27.397 23.3731 27.3976 23.3731 27.3981C23.3731 27.3986 23.3731 27.399 23.3731 27.3995C23.3731 27.4 23.3731 27.4005 23.3731 27.401C23.3731 27.4015 23.3731 27.402 23.3731 27.4025C23.3731 27.403 23.3731 27.4035 23.3731 27.404C23.3731 27.4045 23.3731 27.405 23.3731 27.4055C23.3731 27.406 23.3731 27.4065 23.3731 27.407C23.3731 27.4075 23.3731 27.4079 23.3731 27.4084C23.3731 27.4089 23.3731 27.4094 23.3731 27.4099C23.3731 27.4104 23.3731 27.4109 23.3731 27.4113C23.3731 27.4118 23.3731 27.4123 23.3731 27.4128C23.3731 27.4133 23.3731 27.4138 23.3731 27.4143C23.3731 27.4147 23.3731 27.4152 23.3731 27.4157C23.3731 27.4162 23.3731 27.4167 23.3731 27.4171C23.3731 27.4176 23.3731 27.4181 23.3731 27.4186C23.3731 27.419 23.3731 27.4195 23.3731 27.42C23.3731 27.4205 23.3731 27.4209 23.3731 27.4214C23.3731 27.4219 23.3731 27.4224 23.3731 27.4228C23.3731 27.4233 23.3731 27.4238 23.3731 27.4243C23.3731 27.4247 23.3731 27.4252 23.3731 27.4257C23.3731 27.4261 23.3731 27.4266 23.3731 27.4271C23.3731 27.4275 23.3731 27.428 23.3731 27.4285C23.3731 27.4289 23.3731 27.4294 23.3731 27.4299C23.3731 27.4303 23.3731 27.4308 23.3731 27.4312C23.3731 27.4317 23.3731 27.4322 23.3731 27.4326C23.3731 27.4331 23.3731 27.4335 23.3731 27.434C23.3731 27.4345 23.3731 27.4349 23.3731 27.4354C23.3731 27.4358 23.3731 27.4363 23.3731 27.4368C23.3731 27.4372 23.3731 27.4377 23.3731 27.4381C23.3731 27.4386 23.3731 27.439 23.3731 27.4395C23.3731 27.4399 23.3731 27.4404 23.3731 27.4408C23.3731 27.4413 23.3731 27.4417 23.3731 27.4422C23.3731 27.4426 23.3731 27.4431 23.3731 27.4435C23.3731 27.444 23.3731 27.4444 23.3731 27.4449C23.3731 27.4453 23.3731 27.4458 23.3731 27.4462C23.3731 27.4466 23.3731 27.4471 23.3731 27.4475C23.3731 27.448 23.3731 27.4484 23.3731 27.4489C23.3731 27.4493 23.3731 27.4497 23.3731 27.4502C23.3731 27.4506 23.3731 27.4511 23.3731 27.4515C23.3731 27.4519 23.3731 27.4524 23.3731 27.4528C23.3731 27.4532 23.3731 27.4537 23.3731 27.4541C23.3731 27.4545 23.3731 27.455 23.3731 27.4554C23.3731 27.4558 23.3731 27.4563 23.3731 27.4567C23.3731 27.4571 23.3731 27.4576 23.3731 27.458C23.3731 27.4584 23.3731 27.4589 23.3731 27.4593C23.3731 27.4597 23.3731 27.4601 23.3731 27.4606C23.3731 27.461 23.3731 27.4614 23.3731 27.4618C23.3731 27.4623 23.3731 27.4627 23.3731 27.4631C23.3731 27.4635 23.3731 27.464 23.3731 27.4644C23.3731 27.4648 23.3731 27.4652 23.3731 27.4656C23.3731 27.4661 23.3731 27.4665 23.3731 27.4669C23.3731 27.4673 23.3731 27.4677 23.3731 27.4681C23.3731 27.4686 23.3731 27.469 23.3731 27.4694C23.3731 27.4698 23.3731 27.4702 23.3731 27.4706C23.3731 27.471 23.3731 27.4715 23.3731 27.4719C23.3731 27.4723 23.3731 27.4727 23.3731 27.4731C23.3731 27.4735 23.3731 27.4739 23.3731 27.4743C23.3731 27.4747 23.3731 27.4751 23.3731 27.4756C23.3731 27.476 23.3731 27.4764 23.3731 27.4768C23.3731 27.4772 23.3731 27.4776 23.3731 27.478C23.3731 27.4784 23.3731 27.4788 23.3731 27.4792C23.3731 27.4796 23.3731 27.48 23.3731 27.4804C23.3731 27.4808 23.3731 27.4812 23.3731 27.4816C23.3731 27.482 23.3731 27.4824 23.3731 27.4828C23.3731 27.4832 23.3731 27.4836 23.3731 27.484C23.3731 27.4844 23.3731 27.4848 23.3731 27.4851C23.3731 27.4855 23.3731 27.4859 23.3731 27.4863C23.3731 27.4867 23.3731 27.4871 23.3731 27.4875C23.3731 27.4879 23.3731 27.4883 23.3731 27.4887C23.3731 27.4891 23.3731 27.4894 23.3731 27.4898C23.3731 27.4902 23.3731 27.4906 23.3731 27.491C23.3731 27.4914 23.3731 27.4918 23.3731 27.4921C23.3731 27.4925 23.3731 27.4929 23.3731 27.4933C23.3731 27.4937 23.3731 27.4941 23.3731 27.4944C23.3731 27.4948 23.3731 27.4952 23.3731 27.4956C23.3731 27.496 23.3731 27.4963 23.3731 27.4967C23.3731 27.4971 23.3731 27.4975 23.3731 27.4978C23.3731 27.4982 23.3731 27.4986 23.3731 27.499C23.3731 27.4993 23.3731 27.4997 23.3731 27.5001C23.3731 27.5004 23.3731 27.5008 23.3731 27.5012C23.3731 27.5016 23.3731 27.5019 23.3731 27.5023C23.3731 27.5027 23.3731 27.503 23.3731 27.5034C23.3731 27.5038 23.3731 27.5041 23.3731 27.5045C23.3731 27.5049 23.3731 27.5052 23.3731 27.5056C23.3731 27.506 23.3731 27.5063 23.3731 27.5067C23.3731 27.507 23.3731 27.5074 23.3731 27.5078C23.3731 27.5081 23.3731 27.5085 23.3731 27.5088C23.3731 27.5092 23.3731 27.5096 23.3731 27.5099C23.3731 27.5103 23.3731 27.5106 23.3731 27.511C23.3731 27.5113 23.3731 27.5117 23.3731 27.5121C23.3731 27.5124 23.3731 27.5128 23.3731 27.5131C23.3731 27.5135 23.3731 27.5138 23.3731 27.5142C23.3731 27.5145 23.3731 27.5149 23.3731 27.5152C23.3731 27.5156 23.3731 27.5159 23.3731 27.5163C23.3731 27.5166 23.3731 27.517 23.3731 27.5173C23.3731 27.5177 23.3731 27.518 23.3731 27.5183C23.3731 27.5187 23.3731 27.519 23.3731 27.5194C23.3731 27.5197 23.3731 27.5201 23.3731 27.5204C23.3731 27.5207 23.3731 27.5211 23.3731 27.5214C23.3731 27.5218 23.3731 27.5221 23.3731 27.5224C23.3731 27.5228 23.3731 27.5231 23.3731 27.5234C23.3731 27.5238 23.3731 27.5241 23.3731 27.5244C23.3731 27.5248 23.3731 27.5251 23.3731 27.5254C23.3731 27.5258 23.3731 27.5261 23.3731 27.5264C23.3731 27.5268 23.3731 27.5271 23.3731 27.5274C23.3731 27.5278 23.3731 27.5281 23.3731 27.5284C23.3731 27.5288 23.3731 27.5291 23.3731 27.5294C23.3731 27.5297 23.3731 27.5301 23.3731 27.5304C23.3731 27.5307 23.3731 27.531 23.3731 27.5314C23.3731 27.5317 23.3731 27.532 23.3731 27.5323C23.3731 27.5326 23.3731 27.533 23.3731 27.5333C23.3731 27.5336 23.3731 27.5339 23.3731 27.5342C23.3731 27.5346 23.3731 27.5349 23.3731 27.5352C23.3731 27.5355 23.3731 27.5358 23.3731 27.5361H24.3731ZM24.3728 26.4233C24.3908 25.8316 24.4087 25.1863 24.4266 24.4874L23.4269 24.4618C23.409 25.1594 23.3912 25.8031 23.3733 26.3931L24.3728 26.4233ZM24.4266 24.4871C24.4445 23.772 24.4623 23.156 24.4802 22.6388L23.4808 22.6044C23.4628 23.1256 23.4448 23.7449 23.4269 24.4621L24.4266 24.4871ZM24.4802 22.6382C24.4891 22.3711 24.4979 22.171 24.5064 22.0351C24.5106 21.9664 24.5145 21.9197 24.5177 21.8913C24.5193 21.8765 24.5201 21.873 24.5194 21.8768C24.5191 21.8787 24.5174 21.8876 24.5139 21.9007C24.5117 21.9091 24.5025 21.9436 24.4814 21.9858L23.587 21.5386C23.5491 21.6144 23.5373 21.6882 23.5355 21.6979C23.5304 21.7263 23.5267 21.7553 23.5238 21.7808C23.518 21.8329 23.513 21.8982 23.5083 21.9727C23.4989 22.1233 23.4898 22.3349 23.4808 22.6049L24.4802 22.6382ZM24.0342 21.2622H23.8193L23.8193 22.2622H24.0342L24.0342 21.2622ZM23.3407 21.6175C23.1122 22.3736 22.867 23.0646 22.6058 23.6915L23.5289 24.0761C23.8049 23.4139 24.061 22.6905 24.2979 21.9069L23.3407 21.6175ZM22.6058 23.6915C22.3435 24.3212 22.0646 24.9048 21.7696 25.4427L22.6464 25.9235C22.9602 25.3514 23.2542 24.7354 23.5289 24.0761L22.6058 23.6915ZM21.7655 25.4503L17.9789 32.6476L18.8639 33.1132L22.6505 25.9159L21.7655 25.4503ZM18.4214 33.3804H23.8731L23.8731 32.3804H18.4214L18.4214 33.3804ZM54.7837 48L54.7837 48.5H55.2837L55.2837 48H54.7837ZM45.4917 48H44.9917L44.9917 48.5H45.4917L45.4917 48ZM45.4917 16.8208H45.9917L45.9917 16.3208H45.4917L45.4917 16.8208ZM38.4019 16.8208H37.9019L37.9019 17.3208H38.4019L38.4019 16.8208ZM38.4019 8.7373L38.4019 8.2373H37.9019L37.9019 8.7373H38.4019ZM61.8198 8.7373H62.3198L62.3198 8.2373H61.8198L61.8198 8.7373ZM61.8198 16.8208L61.8198 17.3208H62.3198L62.3198 16.8208H61.8198ZM54.7837 16.8208L54.7837 16.3208H54.2837L54.2837 16.8208H54.7837ZM54.7837 47.5H45.4917L45.4917 48.5H54.7837L54.7837 47.5ZM45.9917 48L45.9917 16.8208H44.9917L44.9917 48H45.9917ZM45.4917 16.3208H38.4019L38.4019 17.3208H45.4917L45.4917 16.3208ZM38.9019 16.8208L38.9019 8.7373H37.9019L37.9019 16.8208H38.9019ZM38.4019 9.2373H61.8198L61.8198 8.2373H38.4019L38.4019 9.2373ZM61.3198 8.7373L61.3198 16.8208H62.3198L62.3198 8.7373H61.3198ZM61.8198 16.3208H54.7837L54.7837 17.3208H61.8198L61.8198 16.3208ZM54.2837 16.8208L54.2837 48H55.2837L55.2837 16.8208H54.2837ZM92.0859 8.7373H92.5859L92.5859 8.2373H92.0859L92.0859 8.7373ZM86.0703 46.9795L86.3035 47.4218L86.3067 47.4201L86.0703 46.9795ZM65.8481 8.7373L65.8481 8.2373H65.3481L65.3481 8.7373H65.8481ZM75.1938 8.7373H75.6938L75.6938 8.2373H75.1938L75.1938 8.7373ZM76.1338 39.0303L75.7242 39.317L75.7269 39.3209L76.1338 39.0303ZM82.3106 37.9292L82.7878 38.0783L82.7887 38.0756L82.3106 37.9292ZM82.7134 8.7373L82.7134 8.2373H82.2134L82.2134 8.7373H82.7134ZM91.5859 8.7373L91.5859 34.6797H92.5859L92.5859 8.7373H91.5859ZM91.5859 34.6797C91.5859 37.6518 91.0844 40.113 90.1072 42.0846L91.0032 42.5287C92.067 40.3825 92.5859 37.759 92.5859 34.6797H91.5859ZM90.1072 42.0846C89.1314 44.0532 87.7091 45.5331 85.834 46.5389L86.3067 47.4201C88.3703 46.3132 89.9379 44.6779 91.0032 42.5287L90.1072 42.0846ZM85.8371 46.5372C83.9573 47.5284 81.6253 48.0371 78.8193 48.0371L78.8193 49.0371C81.7426 49.0371 84.2446 48.5074 86.3035 47.4218L85.8371 46.5372ZM78.8193 48.0371C74.7377 48.0371 71.6774 46.9355 69.56 44.8012L68.8501 45.5055C71.2086 47.8828 74.5579 49.0371 78.8193 49.0371L78.8193 48.0371ZM69.56 44.8012C67.449 42.6733 66.3482 39.4127 66.3482 34.9214H65.3482C65.3482 39.5609 66.4852 43.1216 68.8501 45.5055L69.56 44.8012ZM66.3482 34.9214L66.3481 8.7373H65.3481L65.3482 34.9214H66.3482ZM65.8481 9.2373H75.1938L75.1938 8.2373H65.8481L65.8481 9.2373ZM74.6938 8.7373L74.6939 34.4648H75.6939L75.6938 8.7373H74.6938ZM74.6939 34.4648C74.6939 36.6329 75.0044 38.2888 75.7242 39.317L76.5434 38.7435C76.0099 37.9814 75.6939 36.5937 75.6939 34.4648H74.6939ZM75.7269 39.3209C76.4621 40.3502 77.557 40.8462 78.9268 40.8462L78.9268 39.8462C77.8258 39.8462 77.0587 39.4649 76.5407 38.7397L75.7269 39.3209ZM78.9268 40.8462C79.8735 40.8462 80.6958 40.6432 81.3556 40.1962L80.7948 39.3683C80.3446 39.6732 79.7346 39.8462 78.9268 39.8462L78.9268 40.8462ZM81.3556 40.1962C82.032 39.738 82.497 39.0087 82.7878 38.0783L81.8333 37.7801C81.587 38.5684 81.2284 39.0745 80.7948 39.3683L81.3556 40.1962ZM82.7887 38.0756C83.0778 37.1312 83.2134 35.9029 83.2134 34.4111H82.2134C82.2134 35.8556 82.0805 36.9727 81.8325 37.7828L82.7887 38.0756ZM83.2134 34.4111L83.2134 8.7373H82.2134L82.2134 34.4111H83.2134ZM82.7134 9.2373H92.0859L92.0859 8.2373H82.7134L82.7134 9.2373ZM127.938 48L127.938 48.5H128.438L128.438 48H127.938ZM117.035 48L116.574 48.1933L116.702 48.5H117.035L117.035 48ZM106.803 23.5884L107.264 23.3951L107.135 23.0884H106.803L106.803 23.5884ZM106.588 23.5884L106.588 23.0884H106.049L106.089 23.6258L106.588 23.5884ZM106.83 27.5898L106.33 27.6116L106.33 27.6192L106.83 27.5898ZM106.964 30.9199L106.464 30.9289L106.464 30.9381L106.964 30.9199ZM107.018 48L107.018 48.5H107.518L107.518 48H107.018ZM98.3433 48H97.8433L97.8433 48.5H98.3433L98.3433 48ZM98.3433 8.7373L98.3433 8.2373H97.8433L97.8433 8.7373H98.3433ZM109.166 8.7373L109.626 8.54028L109.496 8.2373H109.166L109.166 8.7373ZM119.344 32.4775L118.885 32.6746L119.015 32.9775H119.344L119.344 32.4775ZM119.559 32.4775L119.559 32.9775H120.087L120.058 32.4506L119.559 32.4775ZM119.183 8.7373L119.183 8.2373H118.683L118.683 8.7373H119.183ZM127.938 8.7373H128.438L128.438 8.2373H127.938L127.938 8.7373ZM127.938 47.5H117.035L117.035 48.5H127.938L127.938 47.5ZM117.496 47.8067L107.264 23.3951L106.342 23.7817L116.574 48.1933L117.496 47.8067ZM106.803 23.0884H106.588L106.588 24.0884H106.803L106.803 23.0884ZM106.089 23.6258C106.196 25.0537 106.277 26.3822 106.33 27.6116L107.329 27.5681C107.275 26.3268 107.194 24.9877 107.086 23.551L106.089 23.6258ZM106.33 27.6192C106.402 28.8312 106.446 29.9343 106.464 30.9288L107.464 30.911C107.446 29.9003 107.401 28.7833 107.329 27.5605L106.33 27.6192ZM106.464 30.9381C106.5 31.9185 106.518 32.7805 106.518 33.5249H107.518C107.518 32.7654 107.5 31.8908 107.464 30.9018L106.464 30.9381ZM106.518 33.5249L106.518 48H107.518L107.518 33.5249H106.518ZM107.018 47.5H98.3433L98.3433 48.5H107.018L107.018 47.5ZM98.8433 48L98.8433 8.7373H97.8433L97.8433 48H98.8433ZM98.3433 9.2373H109.166L109.166 8.2373H98.3433L98.3433 9.2373ZM108.706 8.93433L118.885 32.6746L119.804 32.2805L109.626 8.54028L108.706 8.93433ZM119.344 32.9775H119.559L119.559 31.9775H119.344L119.344 32.9775ZM120.058 32.4506C119.987 31.1267 119.924 29.8925 119.871 28.7481L118.872 28.7949C118.925 29.9421 118.988 31.1786 119.06 32.5045L120.058 32.4506ZM119.871 28.7481C119.817 27.6036 119.772 26.5489 119.736 25.584L118.737 25.621C118.773 26.5897 118.818 27.6477 118.872 28.7949L119.871 28.7481ZM119.736 25.584C119.701 24.6221 119.683 23.7511 119.683 22.9707H118.683C118.683 23.7658 118.701 24.6494 118.737 25.621L119.736 25.584ZM119.683 22.9707L119.683 8.7373H118.683L118.683 22.9707H119.683ZM119.183 9.2373H127.938L127.938 8.2373H119.183L119.183 9.2373ZM127.438 8.7373L127.438 48H128.438L128.438 8.7373H127.438ZM152.752 48L152.262 48.0947L152.34 48.5H152.752L152.752 48ZM151.275 40.3462L151.766 40.2514L151.688 39.8462H151.275L151.275 40.3462ZM142.789 40.3462L142.789 39.8462H142.376L142.298 40.2514L142.789 40.3462ZM141.312 48L141.312 48.5H141.725L141.803 48.0947L141.312 48ZM131.188 48L130.702 47.8817L130.551 48.5H131.188L131.188 48ZM140.748 8.7373L140.748 8.2373H140.355L140.262 8.61901L140.748 8.7373ZM153.075 8.7373L153.56 8.61744L153.466 8.2373H153.075L153.075 8.7373ZM162.77 48L162.77 48.5H163.408L163.255 47.8801L162.77 48ZM149.825 32.3164L149.825 32.8164H150.423L150.317 32.2276L149.825 32.3164ZM148.241 23.5347L148.733 23.4459L148.733 23.4452L148.241 23.5347ZM147.73 20.6611L147.236 20.7372L147.238 20.7464L147.73 20.6611ZM147.328 18.0024L146.831 18.0645L146.833 18.0761L147.328 18.0024ZM147.032 15.6123L147.529 15.5518L146.535 15.5613L147.032 15.6123ZM146.737 17.9219L146.242 17.8482L146.241 17.8586L146.737 17.9219ZM146.334 20.5806L146.826 20.6675L146.827 20.6658L146.334 20.5806ZM145.824 23.4272L146.315 23.5193L146.316 23.5167L145.824 23.4272ZM144.159 32.3164L143.667 32.2244L143.556 32.8164H144.159L144.159 32.3164ZM153.243 47.9053L151.766 40.2514L150.784 40.4409L152.262 48.0947L153.243 47.9053ZM151.275 39.8462H142.789L142.789 40.8462H151.275L151.275 39.8462ZM142.298 40.2514L140.821 47.9053L141.803 48.0947L143.28 40.4409L142.298 40.2514ZM141.312 47.5H131.188L131.188 48.5H141.312L141.312 47.5ZM131.673 48.1183L141.234 8.8556L140.262 8.61901L130.702 47.8817L131.673 48.1183ZM140.748 9.2373H153.075L153.075 8.2373H140.748L140.748 9.2373ZM152.589 8.85717L162.284 48.1199L163.255 47.8801L153.56 8.61744L152.589 8.85717ZM162.77 47.5H152.752L152.752 48.5H162.77L162.77 47.5ZM150.317 32.2276L148.733 23.4459L147.749 23.6234L149.333 32.4052L150.317 32.2276ZM148.733 23.4452C148.554 22.4618 148.384 21.5054 148.223 20.5759L147.238 20.7464C147.399 21.6789 147.57 22.6381 147.749 23.6241L148.733 23.4452ZM148.225 20.5851C148.082 19.6548 147.947 18.7694 147.822 17.9288L146.833 18.0761C146.959 18.9184 147.093 19.8055 147.236 20.7372L148.225 20.5851ZM147.824 17.9404C147.716 17.0815 147.618 16.2853 147.529 15.5518L146.536 15.6728C146.625 16.4075 146.724 17.2047 146.832 18.0645L147.824 17.9404ZM146.535 15.5613C146.464 16.2506 146.367 17.0128 146.242 17.8482L147.231 17.9955C147.358 17.148 147.457 16.3705 147.53 15.6633L146.535 15.5613ZM146.241 17.8586C146.134 18.6919 146.001 19.5708 145.841 20.4953L146.827 20.6658C146.989 19.7284 147.124 18.8348 147.233 17.9852L146.241 17.8586ZM145.842 20.4937C145.681 21.4058 145.511 22.3539 145.332 23.3378L146.316 23.5167C146.495 22.5312 146.665 21.5815 146.826 20.6675L145.842 20.4937ZM145.332 23.3352L143.667 32.2244L144.65 32.4085L146.315 23.5193L145.332 23.3352ZM144.159 32.8164H149.825L149.825 31.8164H144.159L144.159 32.8164Z" fill="#F0D981"/>
</g>
<defs>
<filter id="filter0_d_150_106" x="0.116699" y="0.737305" width="173.653" height="61.7998" filterUnits="userSpaceOnUse" color-interpolation-filters="sRGB">
<feFlood flood-opacity="0" result="BackgroundImageFix"/>
<feColorMatrix in="SourceAlpha" type="matrix" values="0 0 0 0 0 0 0 0 0 0 0 0 0 0 0 0 0 0 127 0" result="hardAlpha"/>
<feOffset dy="3"/>
<feGaussianBlur stdDeviation="5.5"/>
<feComposite in2="hardAlpha" operator="out"/>
<feColorMatrix type="matrix" values="0 0 0 0 0.65 0 0 0 0 0.254583 0 0 0 0 0.339316 0 0 0 1 0"/>
<feBlend mode="normal" in2="BackgroundImageFix" result="effect1_dropShadow_150_106"/>
<feBlend mode="normal" in="SourceGraphic" in2="effect1_dropShadow_150_106" result="shape"/>
</filter>
<linearGradient id="paint0_linear_150_106" x1="86.5" y1="12.7333" x2="86.5" y2="48.1333" gradientUnits="userSpaceOnUse">
<stop stop-color="#FFD224"/>
<stop offset="0.5" stop-color="#E6B700"/>
<stop offset="1" stop-color="#FFCB00"/>
</linearGradient>
</defs>
</svg>
