<svg width="500" height="500" viewBox="0 0 500 500" fill="none" xmlns="http://www.w3.org/2000/svg">
<g clip-path="url(#clip0_19_84)">
<g filter="url(#filter0_i_19_84)">
<path d="M250 250H500C500.239 282.745 494.042 315.217 481.763 345.573L250 250Z" fill="#FF00B3"/>
</g>
<g filter="url(#filter1_i_19_84)">
<path d="M250 250L481.763 345.573C468.975 376.006 450.287 403.604 426.777 426.777L250 250Z" fill="#FF6000"/>
</g>
<g filter="url(#filter2_i_19_84)">
<path d="M250 250L426.777 426.777C403.604 450.287 376.006 468.975 345.573 481.763L250 250Z" fill="#FFBF00"/>
</g>
<g filter="url(#filter3_i_19_84)">
<path d="M250 250L345.573 481.763C315.217 494.042 282.745 500.239 250 500V250Z" fill="#301E1E"/>
</g>
<g filter="url(#filter4_i_19_84)">
<path d="M250 250V500C217.255 500.239 184.783 494.042 154.427 481.763L250 250Z" fill="#7DBB3E"/>
</g>
<g filter="url(#filter5_i_19_84)">
<path d="M250 250L154.427 481.763C123.994 468.975 96.3956 450.287 73.2233 426.777L250 250Z" fill="#934091"/>
</g>
<g filter="url(#filter6_i_19_84)">
<path d="M250 250L73.2233 426.777C49.7132 403.604 31.0251 376.006 18.2372 345.573L250 250Z" fill="#5C956A"/>
</g>
<g filter="url(#filter7_i_19_84)">
<path d="M250 250L18.2372 345.573C5.95768 315.217 -0.238731 282.745 -8.74791e-06 250H250Z" fill="#301E1E"/>
</g>
<g filter="url(#filter8_i_19_84)">
<path d="M250 250H-8.74791e-06C-0.238731 217.256 5.95768 184.783 18.2372 154.427L250 250Z" fill="#148787"/>
</g>
<g filter="url(#filter9_i_19_84)">
<path d="M250 250L18.2372 154.427C31.0251 123.995 49.7132 96.3957 73.2233 73.2234L250 250Z" fill="#009FFF"/>
</g>
<g filter="url(#filter10_i_19_84)">
<path d="M250 250L73.2233 73.2234C96.3956 49.7133 123.994 31.0251 154.427 18.2373L250 250Z" fill="#0C2981"/>
</g>
<g filter="url(#filter11_i_19_84)">
<path d="M250 250L154.427 18.2373C184.783 5.95775 217.255 -0.23867 250 5.22872e-05V250Z" fill="#301E1E"/>
</g>
<g filter="url(#filter12_i_19_84)">
<path d="M250 250V5.22872e-05C282.745 -0.23867 315.217 5.95775 345.573 18.2373L250 250Z" fill="#8000FF"/>
</g>
<g filter="url(#filter13_i_19_84)">
<path d="M250 250L345.573 18.2373C376.006 31.0251 403.604 49.7133 426.777 73.2234L250 250Z" fill="#DF00FF"/>
</g>
<g filter="url(#filter14_i_19_84)">
<path d="M250 250L426.777 73.2234C450.287 96.3957 468.975 123.995 481.763 154.427L250 250Z" fill="#B7108D"/>
</g>
<g filter="url(#filter15_i_19_84)">
<path d="M250 250L481.763 154.427C494.042 184.783 500.239 217.256 500 250H250Z" fill="#301E1E"/>
</g>
<path d="M376.22 348.479C374.936 347.615 374.152 346.529 373.868 345.22C373.616 343.932 373.976 342.566 374.947 341.122L376.306 339.101C377.234 337.721 378.412 336.905 379.839 336.654C379.491 335.301 379.802 333.903 380.773 332.459L382.003 330.63C382.974 329.186 384.104 328.338 385.392 328.086C386.712 327.856 388.013 328.172 389.297 329.035L392.088 330.913C393.372 331.776 394.139 332.852 394.391 334.139C394.644 335.427 394.284 336.793 393.313 338.237L392.083 340.066C391.09 341.542 389.929 342.368 388.598 342.545C388.871 343.94 388.544 345.328 387.616 346.707L386.256 348.729C385.285 350.173 384.156 351.021 382.868 351.273C381.58 351.525 380.294 351.219 379.011 350.356L376.22 348.479ZM391.051 336.716C392.022 335.272 391.85 334.108 390.534 333.223L387.743 331.345C386.428 330.461 385.284 330.74 384.313 332.184L383.083 334.013C382.091 335.489 382.252 336.669 383.567 337.554L386.359 339.431C387.674 340.316 388.828 340.02 389.821 338.545L391.051 336.716ZM385.322 345.234C386.293 343.79 386.121 342.626 384.805 341.741L382.014 339.864C380.698 338.979 379.555 339.259 378.584 340.702L377.257 342.676C376.286 344.119 376.458 345.284 377.773 346.169L380.565 348.046C381.88 348.931 383.023 348.651 383.994 347.207L385.322 345.234ZM395.657 361.552C394.373 360.689 393.611 359.57 393.37 358.197C393.161 356.844 393.521 355.479 394.449 354.099L401.408 343.752C402.314 342.404 403.433 341.572 404.764 341.256C406.127 340.961 407.451 341.245 408.734 342.109L411.333 343.857C412.681 344.763 413.443 345.881 413.62 347.212C413.829 348.564 413.48 349.914 412.574 351.261L405.614 361.609C404.686 362.988 403.557 363.836 402.226 364.153C400.926 364.49 399.603 364.206 398.256 363.3L395.657 361.552ZM410.279 349.788C411.293 348.28 411.127 347.073 409.779 346.167L407.18 344.419C405.865 343.534 404.7 343.846 403.686 345.354L396.791 355.605C395.755 357.145 395.895 358.357 397.211 359.242L399.809 360.99C401.157 361.896 402.349 361.579 403.384 360.039L410.279 349.788ZM415.274 374.746C413.991 373.883 413.229 372.765 412.988 371.391C412.779 370.039 413.138 368.673 414.066 367.293L421.025 356.946C421.932 355.599 423.051 354.767 424.382 354.45C425.745 354.156 427.068 354.44 428.352 355.303L430.95 357.051C432.298 357.957 433.06 359.076 433.237 360.406C433.446 361.758 433.097 363.108 432.191 364.456L425.231 374.803C424.304 376.183 423.174 377.031 421.843 377.347C420.544 377.685 419.221 377.401 417.873 376.494L415.274 374.746ZM429.897 362.983C430.911 361.475 430.744 360.267 429.397 359.361L426.798 357.613C425.482 356.728 424.317 357.04 423.303 358.548L416.408 368.799C415.373 370.339 415.512 371.552 416.828 372.436L419.427 374.184C420.774 375.091 421.966 374.774 423.002 373.234L429.897 362.983Z" fill="white"/>
<path d="M328.554 388.506C327.663 387.149 327.393 385.822 327.745 384.527C328.097 383.232 328.968 382.128 330.358 381.215L331.473 380.483C331.731 380.313 332 380.229 332.279 380.231C332.611 380.244 332.883 380.412 333.096 380.735L333.35 381.123C333.563 381.446 333.609 381.763 333.489 382.073C333.401 382.362 333.228 382.591 332.969 382.761L331.903 383.462C330.351 384.481 330.011 385.653 330.881 386.978L332.218 389.014C333.089 390.339 334.299 390.492 335.851 389.473L339.39 387.149C340.198 386.618 340.657 386.085 340.768 385.55C340.911 384.993 340.76 384.375 340.314 383.697L338.659 381.176C338.404 380.788 338.175 380.545 337.972 380.447C337.769 380.349 337.581 380.31 337.41 380.331C337.142 380.275 336.874 380.289 336.605 380.373C336.444 380.34 336.273 380.291 336.091 380.225C335.909 380.159 335.744 380.013 335.596 379.787L335.277 379.302C335.065 378.979 335.019 378.663 335.139 378.352C335.28 378.075 335.464 377.861 335.69 377.713L344.32 372.045C344.546 371.897 344.815 371.813 345.126 371.793C345.458 371.806 345.73 371.974 345.943 372.298L351.451 380.685C351.875 381.331 351.748 381.877 351.07 382.323L350.779 382.514C350.1 382.96 349.548 382.859 349.124 382.213L344.507 375.183L339.708 378.336C340.114 378.531 340.54 378.969 340.986 379.647L342.641 382.168C343.49 383.461 343.782 384.75 343.516 386.035C343.249 387.32 342.373 388.451 340.886 389.427L337.299 391.784C335.909 392.696 334.539 393.041 333.19 392.817C331.84 392.593 330.74 391.835 329.891 390.542L328.554 388.506ZM340.882 407.276C340.033 405.983 339.763 404.657 340.073 403.297C340.404 401.97 341.264 400.849 342.654 399.937L353.077 393.091C354.434 392.2 355.788 391.866 357.137 392.089C358.508 392.346 359.618 393.12 360.467 394.413L362.187 397.031C363.078 398.388 363.348 399.714 362.996 401.01C362.665 402.337 361.821 403.447 360.464 404.338L350.041 411.184C348.651 412.097 347.281 412.441 345.931 412.217C344.603 412.026 343.493 411.251 342.601 409.894L340.882 407.276ZM358.919 402.092C360.438 401.094 360.751 399.916 359.86 398.559L358.14 395.941C357.27 394.616 356.075 394.452 354.556 395.45L344.23 402.232C342.679 403.251 342.339 404.423 343.209 405.748L344.928 408.366C345.82 409.723 347.041 409.892 348.593 408.873L358.919 402.092ZM353.86 427.037C353.011 425.744 352.742 424.418 353.051 423.058C353.382 421.73 354.242 420.61 355.632 419.698L366.055 412.852C367.413 411.96 368.766 411.627 370.116 411.85C371.487 412.106 372.597 412.881 373.446 414.174L375.165 416.791C376.057 418.149 376.327 419.475 375.974 420.77C375.644 422.098 374.799 423.208 373.442 424.099L363.019 430.945C361.629 431.857 360.26 432.202 358.91 431.978C357.581 431.787 356.471 431.012 355.58 429.655L353.86 427.037ZM371.897 421.852C373.416 420.855 373.73 419.677 372.838 418.32L371.119 415.702C370.249 414.377 369.054 414.213 367.535 415.211L357.209 421.993C355.658 423.012 355.317 424.184 356.187 425.509L357.907 428.127C358.798 429.484 360.02 429.653 361.571 428.634L371.897 421.852Z" fill="white"/>
<path d="M266.548 392.6C266.193 391.016 266.386 389.665 267.126 388.548C267.904 387.423 269.143 386.67 270.84 386.29L272.142 385.998C272.52 385.914 272.843 385.94 273.111 386.078C273.426 386.246 273.626 386.518 273.71 386.895L273.824 387.405C273.917 387.82 273.834 388.155 273.574 388.412C273.352 388.659 273.09 388.817 272.789 388.885L271.543 389.164C269.808 389.552 269.105 390.482 269.434 391.954L270.258 395.633C270.588 397.104 271.62 397.646 273.356 397.257L274.941 396.902C276.224 396.615 276.897 395.374 276.96 393.181C276.942 392.392 276.945 391.52 276.969 390.564C276.992 389.608 277.123 388.687 277.36 387.801C277.598 386.916 277.974 386.119 278.489 385.409C279.05 384.729 279.858 384.27 280.915 384.034L282.839 383.603C284.462 383.239 285.865 383.401 287.049 384.086C288.27 384.764 289.059 385.895 289.413 387.48L290.237 391.159C290.592 392.743 290.357 394.084 289.533 395.18C288.755 396.305 287.554 397.049 285.932 397.413L285.026 397.615C284.725 397.683 284.402 397.656 284.057 397.535C283.713 397.414 283.495 397.146 283.402 396.731L283.313 396.335C283.127 395.505 283.487 394.988 284.393 394.785L285.298 394.583C286.996 394.202 287.68 393.276 287.351 391.805L286.527 388.126C286.197 386.655 285.184 386.109 283.486 386.489L281.618 386.907C281.203 387 280.815 387.305 280.456 387.822C280.096 388.338 279.919 389.229 279.925 390.496C279.931 391.406 279.914 392.302 279.873 393.182C279.87 394.055 279.754 394.952 279.525 395.876C279.288 396.761 278.87 397.548 278.271 398.237C277.681 398.963 276.82 399.453 275.688 399.707L273.933 400.1C272.235 400.48 270.794 400.327 269.611 399.641C268.473 398.985 267.727 397.864 267.372 396.279L266.548 392.6ZM292.101 413.014L273.367 417.21C273.103 417.269 272.794 417.219 272.442 417.06C272.135 416.931 271.936 416.658 271.843 416.243L271.767 415.904C271.674 415.489 271.734 415.138 271.947 414.853C272.207 414.597 272.469 414.439 272.733 414.38L291.467 410.184L290.567 406.166C290.516 405.939 290.551 405.654 290.672 405.31C290.794 404.966 291.08 404.743 291.533 404.642L291.929 404.553C292.344 404.46 292.676 404.525 292.924 404.746C293.209 404.96 293.386 405.218 293.453 405.519L295.887 416.386C295.98 416.801 295.916 417.133 295.694 417.381C295.472 417.628 295.21 417.786 294.908 417.854L294.512 417.942C294.172 418.018 293.845 417.973 293.53 417.806C293.262 417.668 293.085 417.41 293.001 417.033L292.101 413.014ZM276.238 435.871C275.883 434.286 276.076 432.935 276.817 431.819C277.603 430.731 278.846 429.997 280.544 429.617L292.542 426.93C294.165 426.566 295.564 426.709 296.739 427.357C297.961 428.034 298.749 429.165 299.104 430.75L299.966 434.599C300.321 436.184 300.09 437.543 299.274 438.677C298.496 439.802 297.296 440.546 295.673 440.909L283.674 443.597C281.976 443.977 280.535 443.824 279.352 443.138C278.206 442.444 277.455 441.304 277.1 439.72L276.238 435.871ZM295.027 438.023C296.725 437.643 297.409 436.717 297.079 435.245L296.217 431.397C295.888 429.925 294.874 429.379 293.176 429.76L281.234 432.434C279.498 432.823 278.795 433.753 279.125 435.225L279.987 439.073C280.316 440.545 281.349 441.086 283.084 440.697L295.027 438.023ZM289.098 455.605L282.306 457.126C282.042 457.185 281.738 457.155 281.394 457.033C281.087 456.904 280.888 456.632 280.795 456.217L280.693 455.764C280.6 455.349 280.642 455.003 280.817 454.726C281.039 454.478 281.32 454.316 281.66 454.24L301.978 449.689C302.318 449.613 302.641 449.64 302.947 449.77C303.262 449.937 303.466 450.228 303.559 450.643L305.105 457.548C305.46 459.133 305.225 460.473 304.401 461.569C303.614 462.657 302.41 463.382 300.787 463.745L296.825 464.633C295.241 464.988 293.842 464.845 292.629 464.206C291.415 463.566 290.631 462.454 290.277 460.869L289.098 455.605ZM300.166 460.972C301.864 460.592 302.548 459.666 302.219 458.194L301.04 452.931L292.041 454.946L293.22 460.21C293.372 460.889 293.679 461.375 294.14 461.668C294.611 461.998 295.318 462.058 296.261 461.847L300.166 460.972Z" fill="white"/>
<path d="M208.116 407.114C208.196 406.735 208.384 406.498 208.681 406.403C208.977 406.307 209.258 406.287 209.523 406.343L227.685 410.165L226.484 407.422C226.478 407.263 226.457 407.081 226.421 406.876C226.423 406.679 226.444 406.486 226.484 406.296C226.516 406.145 226.623 406.01 226.807 405.89C227.02 405.816 227.334 405.823 227.751 405.911L227.978 405.959C228.621 406.094 229.046 406.421 229.253 406.938L230.929 411.084C231.055 411.427 231.09 411.731 231.034 411.995L230.962 412.336C230.891 412.676 230.707 412.895 230.41 412.99C230.113 413.086 229.832 413.106 229.567 413.05L209.021 408.727C208.757 408.671 208.508 408.539 208.275 408.332C208.042 408.125 207.961 407.851 208.033 407.511L208.116 407.114ZM204.61 423.777C204.928 422.264 205.679 421.137 206.862 420.398C208.037 419.697 209.438 419.518 211.065 419.86L223.267 422.428C224.857 422.763 226.048 423.487 226.84 424.602C227.625 425.755 227.858 427.089 227.54 428.602L226.895 431.667C226.56 433.256 225.81 434.382 224.643 435.046C223.468 435.747 222.086 435.93 220.497 435.596L208.294 433.028C206.667 432.686 205.457 431.957 204.664 430.842C203.864 429.764 203.63 428.431 203.965 426.842L204.61 423.777ZM221.001 432.916C222.779 433.29 223.836 432.683 224.17 431.094L224.815 428.029C225.142 426.478 224.416 425.515 222.637 425.14L210.548 422.597C208.732 422.214 207.661 422.799 207.334 424.35L206.689 427.415C206.355 429.004 207.096 429.99 208.912 430.372L221.001 432.916ZM199.741 446.912C200.06 445.399 200.811 444.272 201.993 443.534C203.168 442.832 204.569 442.653 206.196 442.995L218.399 445.563C219.988 445.898 221.179 446.622 221.972 447.738C222.757 448.891 222.99 450.224 222.671 451.737L222.026 454.802C221.692 456.391 220.941 457.518 219.774 458.181C218.6 458.882 217.217 459.065 215.628 458.731L203.426 456.163C201.798 455.821 200.589 455.092 199.796 453.977C198.995 452.9 198.762 451.566 199.097 449.977L199.741 446.912ZM216.133 456.051C217.911 456.426 218.968 455.818 219.302 454.229L219.947 451.164C220.273 449.613 219.547 448.65 217.769 448.276L205.68 445.732C203.864 445.35 202.792 445.934 202.466 447.485L201.821 450.55C201.486 452.14 202.227 453.125 204.044 453.507L216.133 456.051Z" fill="white"/>
<path d="M153.864 372.999C154.04 372.745 154.274 372.578 154.565 372.498C154.856 372.418 155.177 372.499 155.526 372.742L157.859 374.364C159.542 375.533 160.43 377.068 160.522 378.969L161.009 387.007C161.073 388.134 161.581 389.029 162.534 389.691L163.677 390.485C165.106 391.478 166.273 391.324 167.177 390.022L168.7 387.831C169.583 386.561 169.31 385.43 167.881 384.437L166.595 383.543C166.341 383.367 166.158 383.122 166.046 382.808C165.934 382.495 165.989 382.18 166.209 381.862L166.474 381.481C166.695 381.164 166.971 381.003 167.304 380.999C167.615 381.026 167.897 381.128 168.151 381.305L169.437 382.198C170.866 383.191 171.696 384.334 171.929 385.625C172.139 386.949 171.825 388.214 170.986 389.42L169.463 391.611C168.581 392.881 167.505 393.617 166.235 393.817C164.943 394.05 163.583 393.669 162.154 392.676L160.964 391.849C159.313 390.701 158.405 389.128 158.24 387.13L157.737 379.011C157.661 377.969 157.226 377.172 156.432 376.621L155.289 375.826L150.191 383.161C149.772 383.764 149.245 383.845 148.61 383.404L148.277 383.172C147.61 382.708 147.486 382.175 147.905 381.572L153.864 372.999ZM138.764 394.724C139.647 393.454 140.777 392.709 142.154 392.489C143.509 392.301 144.869 392.681 146.235 393.63L156.474 400.747C157.808 401.674 158.623 402.805 158.918 404.141C159.192 405.508 158.888 406.827 158.005 408.097L156.218 410.669C155.291 412.003 154.161 412.748 152.828 412.904C151.473 413.092 150.128 412.723 148.795 411.796L138.555 404.679C137.19 403.731 136.359 402.588 136.063 401.252C135.745 399.948 136.05 398.63 136.977 397.296L138.764 394.724ZM150.303 409.525C151.795 410.562 153.005 410.414 153.932 409.08L155.719 406.508C156.624 405.207 156.33 404.037 154.838 403L144.693 395.949C143.169 394.89 141.955 395.011 141.05 396.313L139.263 398.885C138.336 400.218 138.634 401.415 140.158 402.474L150.303 409.525ZM125.271 414.138C126.154 412.868 127.284 412.122 128.661 411.902C130.016 411.714 131.376 412.095 132.742 413.043L142.981 420.16C144.315 421.087 145.13 422.219 145.426 423.554C145.699 424.922 145.395 426.241 144.512 427.511L142.725 430.082C141.798 431.416 140.668 432.161 139.335 432.318C137.98 432.506 136.635 432.137 135.302 431.21L125.062 424.093C123.697 423.144 122.866 422.002 122.57 420.666C122.252 419.362 122.557 418.043 123.484 416.709L125.271 414.138ZM136.81 428.938C138.302 429.975 139.512 429.827 140.439 428.494L142.226 425.922C143.131 424.62 142.837 423.45 141.345 422.413L131.201 415.363C129.676 414.303 128.462 414.425 127.557 415.726L125.77 418.298C124.843 419.632 125.142 420.828 126.666 421.887L136.81 428.938Z" fill="white"/>
<path d="M111.814 330.621C113.111 329.779 114.423 329.527 115.749 329.866C117.074 330.204 118.19 331.071 119.094 332.466L125.88 342.928C126.764 344.29 127.09 345.646 126.859 346.994C126.627 348.343 125.863 349.438 124.565 350.279L119.651 353.467C119.391 353.635 119.111 353.702 118.811 353.666C118.479 353.651 118.197 353.465 117.966 353.108L117.776 352.816C117.566 352.492 117.511 352.159 117.612 351.817C117.701 351.528 117.876 351.3 118.135 351.131L123.05 347.944C124.38 347.081 124.551 345.887 123.562 344.363L121.731 341.54L117.352 344.381C115.989 345.265 114.661 345.527 113.368 345.167C112.043 344.829 110.927 343.962 110.023 342.567L108.097 339.599C107.192 338.204 106.856 336.832 107.087 335.484C107.286 334.157 108.067 333.051 109.429 332.167L111.814 330.621ZM112.278 341.035C113.267 342.56 114.443 342.88 115.805 341.997L120.185 339.156L116.839 333.998C115.829 332.441 114.659 332.094 113.329 332.956L110.944 334.503C109.582 335.387 109.406 336.607 110.416 338.164L112.278 341.035ZM92.5437 343.12C93.8413 342.278 95.1691 342.016 96.5272 342.334C97.8529 342.672 98.9681 343.539 99.8729 344.934L106.659 355.396C107.543 356.758 107.869 358.113 107.637 359.462C107.373 360.831 106.593 361.937 105.295 362.779L102.667 364.483C101.305 365.367 99.9771 365.629 98.6839 365.269C97.3583 364.931 96.2536 364.081 95.3698 362.718L88.5838 352.256C87.679 350.861 87.3423 349.49 87.5738 348.141C87.7728 346.814 88.5536 345.708 89.9161 344.824L92.5437 343.12ZM97.6252 361.186C98.6142 362.711 99.7899 363.031 101.152 362.147L103.78 360.443C105.11 359.58 105.281 358.387 104.292 356.862L97.5688 346.497C96.5588 344.94 95.3887 344.593 94.0587 345.456L91.4311 347.16C90.0686 348.044 89.8924 349.264 90.9024 350.821L97.6252 361.186ZM72.7091 355.986C74.0067 355.144 75.3345 354.882 76.6926 355.199C78.0182 355.538 79.1335 356.404 80.0383 357.799L86.8243 368.261C87.708 369.624 88.0342 370.979 87.8027 372.327C87.5388 373.697 86.758 374.803 85.4604 375.644L82.8328 377.349C81.4703 378.232 80.1425 378.495 78.8493 378.135C77.5236 377.797 76.4189 376.946 75.5352 375.584L68.7492 365.122C67.8444 363.727 67.5077 362.355 67.7392 361.007C67.9382 359.679 68.719 358.574 70.0814 357.69L72.7091 355.986ZM77.7906 374.052C78.7796 375.576 79.9553 375.897 81.3178 375.013L83.9454 373.309C85.2755 372.446 85.446 371.252 84.457 369.727L77.7342 359.363C76.7241 357.806 75.5541 357.459 74.2241 358.321L71.5964 360.026C70.234 360.909 70.0577 362.13 71.0677 363.687L77.7906 374.052Z" fill="white"/>
<path d="M117.655 274.287C117.955 274.214 118.251 274.203 118.541 274.253C118.794 274.312 118.938 274.416 118.974 274.567L119.244 275.695C119.29 275.883 119.208 276.042 119.001 276.171C118.764 276.347 118.496 276.471 118.195 276.543L110.581 278.367C110.28 278.439 110.003 278.446 109.75 278.387C109.478 278.413 109.315 278.313 109.261 278.087L108.991 276.959C108.955 276.808 109.055 276.645 109.291 276.469C109.49 276.303 109.739 276.183 110.04 276.111L117.655 274.287ZM92.5156 270.29C94.0949 269.912 95.4341 270.108 96.5332 270.878C97.6323 271.649 98.3756 272.842 98.763 274.459L99.0738 275.757C99.1459 276.057 99.1338 276.339 99.0374 276.6C98.9125 276.908 98.662 277.108 98.286 277.198L97.8347 277.306C97.4587 277.396 97.1451 277.332 96.8941 277.114C96.652 276.933 96.4949 276.693 96.4228 276.392L96.1255 275.151C95.6931 273.346 94.706 272.628 93.1643 272.998L90.7953 273.565C89.2536 273.935 88.699 275.022 89.1315 276.827L90.1181 280.944C90.3433 281.884 90.689 282.497 91.1551 282.783C91.6302 283.107 92.2626 283.174 93.0523 282.985L95.9852 282.282C96.4365 282.174 96.7426 282.041 96.9036 281.883C97.0645 281.725 97.1646 281.562 97.2038 281.393C97.3467 281.16 97.4243 280.903 97.4364 280.622C97.5222 280.482 97.6268 280.338 97.7502 280.189C97.8736 280.04 98.0669 279.934 98.3301 279.871L98.8941 279.736C99.2701 279.646 99.5837 279.71 99.8348 279.928C100.048 280.155 100.187 280.4 100.25 280.664L102.655 290.703C102.718 290.967 102.706 291.248 102.619 291.547C102.494 291.855 102.243 292.055 101.867 292.145L92.1095 294.483C91.3574 294.663 90.8868 294.358 90.6976 293.569L90.6165 293.23C90.4273 292.44 90.7087 291.956 91.4608 291.775L99.6393 289.816L98.3014 284.232C97.9794 284.547 97.4236 284.8 96.6339 284.989L93.701 285.692C92.1969 286.052 90.8855 285.889 89.7668 285.203C88.6481 284.517 87.8815 283.309 87.4671 281.579L86.467 277.405C86.0796 275.788 86.22 274.383 86.8882 273.189C87.5564 271.995 88.6425 271.218 90.1466 270.858L92.5156 270.29ZM70.6773 275.523C72.1814 275.162 73.5206 275.358 74.6949 276.111C75.8316 276.872 76.5937 278.061 76.9811 279.678L79.8867 291.805C80.2651 293.384 80.1202 294.771 79.452 295.965C78.7462 297.168 77.6413 297.949 76.1372 298.31L73.0914 299.04C71.5121 299.418 70.1729 299.222 69.0738 298.451C67.9371 297.69 67.1795 296.52 66.8011 294.94L63.8955 282.814C63.508 281.197 63.6484 279.791 64.3166 278.597C64.9473 277.413 66.0522 276.631 67.6315 276.253L70.6773 275.523ZM69.4385 294.249C69.862 296.016 70.8634 296.711 72.4427 296.332L75.4885 295.602C77.0302 295.233 77.5893 294.165 77.1658 292.397L74.2872 280.383C73.8548 278.578 72.8677 277.861 71.326 278.23L68.2802 278.96C66.7009 279.338 66.1275 280.43 66.5599 282.235L69.4385 294.249ZM35.1647 284.032C38.5489 283.221 40.6599 284.564 41.4978 288.061L41.9168 289.809C42.7547 293.306 41.4815 295.46 38.0973 296.271L37.5333 296.406C34.1867 297.208 32.0944 295.861 31.2565 292.364L30.8376 290.615C29.9997 287.118 31.254 284.969 34.6006 284.167L35.1647 284.032ZM44.8567 282.664C44.9335 282.486 45.0388 282.262 45.1728 281.992C45.3067 281.721 45.5805 281.536 45.9941 281.437L46.3326 281.356C46.671 281.275 46.9477 281.268 47.1628 281.336C47.3492 281.45 47.5026 281.592 47.6228 281.762C47.7055 281.941 47.7693 282.125 47.8144 282.313C47.8308 282.548 47.8383 282.745 47.8367 282.904L43.4083 306.987C43.3691 307.155 43.2826 307.375 43.1486 307.645C42.9771 307.925 42.6845 308.114 42.2708 308.214L41.9888 308.281C41.2744 308.452 40.8398 308.298 40.6851 307.818C40.5017 307.385 40.4492 307 40.5276 306.663L44.8567 282.664ZM50.7722 293.413C54.1565 292.602 56.272 293.964 57.1189 297.499L57.5379 299.247C58.3668 302.707 57.0891 304.842 53.7049 305.653L53.1409 305.788C49.7943 306.59 47.7065 305.261 46.8776 301.802L46.4587 300.053C45.6118 296.518 46.8616 294.35 50.2082 293.548L50.7722 293.413ZM34.2324 291.591C34.4756 292.606 34.7604 293.214 35.0867 293.414C35.422 293.652 36.0033 293.672 36.8305 293.473L37.3946 293.338C38.2218 293.14 38.7498 292.855 38.9785 292.482C39.1697 292.118 39.1481 291.447 38.9139 290.469L38.522 288.834C38.2877 287.856 37.9984 287.229 37.6541 286.954C37.2812 286.725 36.6812 286.71 35.8539 286.908L35.2899 287.043C34.4626 287.242 33.9534 287.523 33.7623 287.887C33.5711 288.25 33.5972 288.94 33.8405 289.955L34.2324 291.591ZM49.8535 301.029C50.0877 302.007 50.3725 302.614 50.7078 302.852C51.0431 303.09 51.6244 303.11 52.4516 302.911L53.0157 302.776C53.8429 302.578 54.3709 302.292 54.5996 301.92C54.7908 301.556 54.7692 300.885 54.535 299.907L54.1295 298.215C53.8953 297.237 53.6105 296.63 53.2752 296.392C52.9113 296.201 52.3158 296.204 51.4885 296.403L50.9245 296.538C50.0972 296.736 49.5835 296.998 49.3834 297.325C49.1922 297.688 49.2138 298.359 49.448 299.337L49.8535 301.029Z" fill="white"/>
<path d="M101.767 210.965C103.286 211.257 104.433 211.95 105.206 213.044C105.942 214.131 106.146 215.528 105.817 217.237L105.357 219.629C105.043 221.262 104.278 222.473 103.063 223.263C103.913 224.372 104.174 225.78 103.845 227.489L103.428 229.653C103.1 231.362 102.392 232.584 101.305 233.32C100.181 234.049 98.8591 234.267 97.3403 233.975L94.0368 233.339C92.518 233.047 91.3907 232.358 90.6547 231.271C89.9187 230.184 89.7151 228.787 90.0439 227.078L90.4603 224.914C90.7964 223.167 91.542 221.952 92.6973 221.269C91.9 220.092 91.6584 218.687 91.9725 217.054L92.4328 214.662C92.7615 212.953 93.4692 211.731 94.5558 210.995C95.6424 210.259 96.9452 210.037 98.464 210.329L101.767 210.965ZM92.7208 227.593C92.392 229.302 93.0061 230.306 94.5628 230.605L97.8663 231.241C99.423 231.541 100.366 230.836 100.695 229.127L101.111 226.963C101.447 225.216 100.837 224.193 99.2799 223.894L95.9765 223.258C94.4197 222.959 93.4733 223.682 93.1372 225.429L92.7208 227.593ZM94.6604 217.512C94.3316 219.221 94.9457 220.225 96.5024 220.524L99.8059 221.16C101.363 221.459 102.305 220.755 102.634 219.046L103.083 216.711C103.412 215.002 102.798 213.998 101.241 213.699L97.938 213.063C96.3812 212.764 95.4384 213.468 95.1097 215.177L94.6604 217.512ZM78.7645 206.539C80.2833 206.831 81.4224 207.562 82.1817 208.732C82.9031 209.895 83.1067 211.292 82.7925 212.925L80.4365 225.171C80.1297 226.765 79.4256 227.969 78.3244 228.781C77.1852 229.585 75.8562 229.841 74.3374 229.549L71.2618 228.957C69.6671 228.651 68.528 227.92 67.8446 226.764C67.1233 225.602 66.916 224.223 67.2229 222.628L69.5789 210.383C69.893 208.75 70.6007 207.528 71.7019 206.716C72.7652 205.897 74.0942 205.641 75.6889 205.947L78.7645 206.539ZM69.9107 223.086C69.5674 224.871 70.1931 225.917 71.7878 226.224L74.8634 226.815C76.4202 227.115 77.3702 226.372 77.7136 224.588L80.0477 212.456C80.3984 210.634 79.7953 209.573 78.2385 209.273L75.1629 208.681C73.5682 208.374 72.5955 209.132 72.2448 210.955L69.9107 223.086ZM55.5485 202.072C57.0673 202.365 58.2064 203.096 58.9657 204.266C59.6871 205.428 59.8907 206.826 59.5765 208.458L57.2205 220.704C56.9137 222.299 56.2096 223.502 55.1084 224.314C53.9692 225.118 52.6402 225.375 51.1214 225.082L48.0458 224.491C46.4511 224.184 45.312 223.453 44.6286 222.298C43.9073 221.135 43.7 219.756 44.0069 218.162L46.3629 205.916C46.677 204.283 47.3847 203.061 48.4859 202.249C49.5492 201.43 50.8782 201.174 52.4729 201.481L55.5485 202.072ZM46.6947 218.62C46.3514 220.404 46.9771 221.45 48.5718 221.757L51.6474 222.349C53.2042 222.648 54.1542 221.906 54.4976 220.121L56.8317 207.989C57.1824 206.167 56.5793 205.106 55.0225 204.806L51.9469 204.215C50.3522 203.908 49.3795 204.666 49.0288 206.488L46.6947 218.62Z" fill="white"/>
<path d="M118.944 154.696C119.251 154.433 119.559 154.31 119.871 154.326C120.129 154.353 120.355 154.43 120.551 154.555L120.844 154.742C121.137 154.93 121.317 155.115 121.385 155.296C121.399 155.489 121.386 155.687 121.347 155.892C121.275 156.075 121.187 156.249 121.083 156.411C120.946 156.553 120.857 156.657 120.815 156.722L105.113 169.186L111.657 173.379C111.917 173.546 112.093 173.773 112.184 174.061C112.254 174.382 112.185 174.705 111.976 175.031L111.789 175.324C111.559 175.682 111.295 175.88 110.995 175.917C110.695 175.955 110.415 175.89 110.155 175.723L101.951 170.466C101.69 170.299 101.514 170.072 101.423 169.784C101.3 169.475 101.353 169.142 101.582 168.783L101.739 168.539C101.906 168.279 102.101 168.082 102.323 167.949L118.944 154.696ZM102.255 142.831C103.557 143.665 104.344 144.767 104.615 146.135C104.854 147.482 104.525 148.855 103.628 150.255L96.9001 160.754C96.0239 162.122 94.924 162.978 93.6002 163.324C92.2439 163.649 90.9146 163.394 89.6124 162.56L86.9753 160.87C85.608 159.994 84.8211 158.893 84.6147 157.566C84.3758 156.219 84.6944 154.862 85.5706 153.495L92.2984 142.995C93.1955 141.595 94.3059 140.723 95.6296 140.377C96.9208 140.01 98.2501 140.265 99.6175 141.141L102.255 142.831ZM87.8971 154.917C86.9166 156.447 87.11 157.65 88.4774 158.526L91.1144 160.216C92.4492 161.071 93.6069 160.734 94.5874 159.204L101.253 148.802C102.254 147.239 102.087 146.03 100.752 145.175L98.1154 143.485C96.7481 142.609 95.5637 142.952 94.5624 144.515L87.8971 154.917ZM82.3488 130.076C83.6511 130.91 84.4379 132.011 84.7094 133.379C84.9484 134.726 84.6193 136.1 83.7223 137.5L76.9944 147.999C76.1182 149.367 75.0183 150.223 73.6945 150.569C72.3382 150.894 71.0089 150.639 69.7067 149.805L67.0696 148.115C65.7023 147.239 64.9154 146.137 64.709 144.811C64.4701 143.464 64.7887 142.107 65.6649 140.739L72.3927 130.24C73.2898 128.84 74.4002 127.967 75.7239 127.621C77.0151 127.255 78.3444 127.51 79.7118 128.386L82.3488 130.076ZM67.9914 142.161C67.0109 143.691 67.2043 144.895 68.5717 145.771L71.2087 147.461C72.5435 148.316 73.7012 147.978 74.6817 146.448L81.347 136.047C82.3483 134.484 82.1816 133.275 80.8468 132.42L78.2097 130.73C76.8424 129.854 75.658 130.197 74.6567 131.76L67.9914 142.161Z" fill="white"/>
<path d="M170.096 110.394C170.997 111.651 171.31 112.949 171.033 114.289C170.757 115.629 169.943 116.783 168.591 117.752L158.456 125.017C157.136 125.963 155.797 126.352 154.44 126.183C153.082 126.015 151.952 125.302 151.051 124.045L147.639 119.283C147.458 119.032 147.379 118.756 147.401 118.454C147.401 118.122 147.573 117.832 147.919 117.584L148.202 117.381C148.516 117.156 148.846 117.086 149.193 117.17C149.485 117.246 149.721 117.41 149.901 117.661L153.314 122.423C154.238 123.711 155.438 123.826 156.915 122.767L159.649 120.808L156.608 116.565C155.662 115.245 155.339 113.931 155.638 112.622C155.914 111.282 156.728 110.128 158.079 109.159L160.955 107.098C162.306 106.13 163.661 105.73 165.019 105.898C166.354 106.035 167.495 106.764 168.441 108.084L170.096 110.394ZM159.715 111.341C158.238 112.4 157.972 113.589 158.918 114.909L161.959 119.152L166.956 115.57C168.465 114.489 168.757 113.304 167.834 112.016L166.178 109.706C165.232 108.386 164.004 108.266 162.496 109.348L159.715 111.341ZM156.715 91.7251C157.616 92.9822 157.94 94.2964 157.686 95.6678C157.409 97.0077 156.595 98.162 155.244 99.1306L145.109 106.395C143.789 107.341 142.45 107.73 141.092 107.562C139.712 107.362 138.571 106.633 137.67 105.376L135.846 102.83C134.899 101.51 134.576 100.196 134.875 98.8877C135.151 97.5478 135.95 96.4047 137.27 95.4586L147.405 88.1939C148.756 87.2253 150.111 86.8252 151.469 86.9938C152.804 87.131 153.944 87.8595 154.891 89.1795L156.715 91.7251ZM138.905 97.6405C137.428 98.6992 137.162 99.8885 138.108 101.208L139.933 103.754C140.857 105.043 142.057 105.158 143.534 104.099L153.575 96.9016C155.084 95.8204 155.376 94.6355 154.452 93.347L152.628 90.8014C151.682 89.4814 150.454 89.3621 148.946 90.4433L138.905 97.6405ZM142.942 72.5096C143.843 73.7667 144.167 75.0809 143.913 76.4523C143.636 77.7922 142.822 78.9465 141.471 79.9151L131.336 87.1799C130.016 88.126 128.677 88.5147 127.319 88.3462C125.939 88.1462 124.798 87.4176 123.897 86.1605L122.072 83.6149C121.126 82.295 120.803 80.9807 121.102 79.6722C121.378 78.3323 122.176 77.1893 123.496 76.2432L133.632 68.9784C134.983 68.0098 136.338 67.6098 137.695 67.7783C139.031 67.9155 140.171 68.644 141.117 69.964L142.942 72.5096ZM125.132 78.425C123.655 79.4837 123.389 80.6731 124.335 81.993L126.16 84.5386C127.083 85.8271 128.284 85.942 129.761 84.8833L139.802 77.6862C141.31 76.6049 141.603 75.42 140.679 74.1315L138.855 71.5859C137.909 70.2659 136.681 70.1466 135.173 71.2278L125.132 78.425Z" fill="white"/>
<path d="M389.412 289.257C389.031 289.196 388.785 289.019 388.675 288.727C388.566 288.436 388.532 288.156 388.575 287.889L391.529 269.565L388.847 270.896C388.689 270.909 388.508 270.939 388.304 270.984C388.107 270.992 387.913 270.98 387.723 270.949C387.57 270.925 387.43 270.824 387.301 270.646C387.218 270.437 387.21 270.122 387.277 269.702L387.314 269.473C387.419 268.824 387.725 268.384 388.232 268.153L392.294 266.281C392.63 266.14 392.932 266.09 393.199 266.133L393.542 266.189C393.886 266.244 394.113 266.418 394.222 266.71C394.332 267.001 394.365 267.281 394.322 267.548L390.98 288.277C390.937 288.544 390.818 288.799 390.622 289.041C390.426 289.284 390.157 289.377 389.813 289.322L389.412 289.257ZM406.052 291.94C404.449 291.681 403.288 290.985 402.57 289.851C401.852 288.717 401.625 287.329 401.89 285.688L402.102 284.371C402.151 284.065 402.271 283.811 402.46 283.606C402.694 283.37 403.002 283.282 403.384 283.344L403.842 283.418C404.224 283.479 404.489 283.659 404.636 283.957C404.79 284.217 404.843 284.499 404.793 284.805L404.59 286.064C404.295 287.897 404.93 288.939 406.495 289.191L408.9 289.579C410.465 289.831 411.395 289.041 411.691 287.209L412.365 283.029C412.518 282.075 412.435 281.376 412.115 280.933C411.801 280.451 411.243 280.146 410.442 280.017L407.464 279.537C407.006 279.463 406.672 279.468 406.463 279.551C406.253 279.635 406.098 279.747 405.997 279.888C405.776 280.048 405.605 280.255 405.486 280.51C405.353 280.606 405.201 280.699 405.03 280.789C404.858 280.879 404.639 280.902 404.372 280.859L403.799 280.767C403.418 280.705 403.153 280.526 403.005 280.228C402.896 279.936 402.862 279.656 402.905 279.389L404.548 269.197C404.591 268.929 404.711 268.675 404.907 268.432C405.141 268.196 405.448 268.108 405.83 268.17L415.736 269.767C416.5 269.89 416.817 270.352 416.688 271.154L416.632 271.497C416.503 272.299 416.057 272.638 415.293 272.515L406.99 271.177L406.077 276.845C406.495 276.678 407.105 276.659 407.907 276.788L410.885 277.268C412.412 277.514 413.559 278.169 414.328 279.233C415.096 280.297 415.339 281.707 415.056 283.463L414.373 287.7C414.108 289.342 413.438 290.585 412.362 291.43C411.285 292.274 409.984 292.574 408.457 292.328L406.052 291.94ZM428.222 295.514C426.695 295.268 425.535 294.571 424.74 293.425C423.984 292.285 423.738 290.894 424.003 289.253L425.987 276.942C426.246 275.338 426.913 274.114 427.989 273.269C429.104 272.431 430.424 272.134 431.951 272.381L435.043 272.879C436.647 273.137 437.807 273.834 438.525 274.968C439.282 276.108 439.53 277.48 439.272 279.083L437.287 291.394C437.023 293.036 436.352 294.279 435.276 295.124C434.238 295.975 432.917 296.271 431.314 296.012L428.222 295.514ZM436.571 278.706C436.861 276.912 436.204 275.886 434.6 275.628L431.508 275.129C429.943 274.877 429.016 275.648 428.727 277.442L426.761 289.638C426.465 291.471 427.1 292.513 428.665 292.765L431.757 293.264C433.361 293.522 434.31 292.735 434.605 290.903L436.571 278.706ZM451.563 299.277C450.036 299.03 448.875 298.334 448.081 297.188C447.324 296.048 447.079 294.657 447.343 293.015L449.328 280.704C449.586 279.101 450.254 277.877 451.33 277.032C452.444 276.193 453.765 275.897 455.292 276.143L458.384 276.642C459.987 276.9 461.148 277.596 461.866 278.73C462.622 279.871 462.871 281.242 462.612 282.846L460.628 295.157C460.363 296.798 459.693 298.041 458.617 298.886C457.579 299.737 456.258 300.033 454.655 299.775L451.563 299.277ZM459.912 282.469C460.201 280.675 459.544 279.649 457.941 279.39L454.849 278.892C453.284 278.639 452.356 279.41 452.067 281.205L450.101 293.401C449.806 295.233 450.441 296.276 452.006 296.528L455.098 297.027C456.701 297.285 457.65 296.498 457.946 294.666L459.912 282.469Z" fill="white"/>
<path d="M367.822 230.249C367.522 230.321 367.226 230.332 366.936 230.283C366.683 230.224 366.539 230.119 366.503 229.969L366.232 228.841C366.187 228.653 366.268 228.494 366.475 228.365C366.711 228.189 366.98 228.065 367.281 227.993L374.894 226.164C375.195 226.092 375.472 226.085 375.724 226.144C375.997 226.118 376.16 226.218 376.214 226.444L376.485 227.572C376.521 227.722 376.421 227.885 376.185 228.061C375.986 228.228 375.737 228.348 375.436 228.42L367.822 230.249ZM392.569 234.327C392.193 234.417 391.898 234.349 391.684 234.122C391.471 233.895 391.332 233.649 391.269 233.386L386.935 215.339L384.973 217.6C384.831 217.674 384.676 217.771 384.506 217.891C384.327 217.974 384.143 218.038 383.955 218.083C383.805 218.119 383.637 218.08 383.45 217.966C383.292 217.805 383.164 217.518 383.064 217.104L383.01 216.878C382.857 216.239 382.969 215.715 383.348 215.306L386.375 212.014C386.631 211.754 386.89 211.592 387.153 211.529L387.492 211.448C387.83 211.367 388.106 211.439 388.32 211.666C388.533 211.894 388.672 212.139 388.735 212.402L393.638 232.817C393.701 233.081 393.689 233.362 393.602 233.661C393.515 233.96 393.302 234.151 392.963 234.232L392.569 234.327ZM409.126 230.35C407.622 230.712 406.283 230.516 405.108 229.764C403.971 229.004 403.209 227.815 402.82 226.198L399.908 214.073C399.529 212.494 399.673 211.107 400.341 209.913C401.046 208.71 402.151 207.927 403.655 207.566L406.7 206.835C408.279 206.456 409.618 206.651 410.718 207.421C411.855 208.182 412.613 209.352 412.992 210.931L415.904 223.056C416.293 224.673 416.153 226.078 415.485 227.272C414.855 228.458 413.751 229.24 412.172 229.619L409.126 230.35ZM410.355 211.624C409.931 209.857 408.929 209.163 407.35 209.542L404.305 210.273C402.763 210.643 402.205 211.712 402.629 213.479L405.514 225.492C405.947 227.296 406.935 228.014 408.476 227.643L411.522 226.912C413.101 226.533 413.674 225.441 413.24 223.636L410.355 211.624ZM432.115 224.83C430.611 225.191 429.271 224.996 428.097 224.244C426.96 223.483 426.197 222.294 425.809 220.677L422.897 208.552C422.517 206.973 422.662 205.586 423.329 204.392C424.034 203.189 425.139 202.407 426.643 202.046L429.688 201.314C431.267 200.935 432.607 201.13 433.706 201.9C434.843 202.661 435.601 203.831 435.981 205.41L438.893 217.535C439.281 219.152 439.141 220.557 438.474 221.752C437.844 222.937 436.739 223.719 435.16 224.098L432.115 224.83ZM433.344 206.103C432.919 204.336 431.917 203.642 430.338 204.021L427.293 204.753C425.751 205.123 425.193 206.191 425.617 207.958L428.502 219.971C428.935 221.776 429.923 222.493 431.464 222.123L434.51 221.391C436.089 221.012 436.662 219.92 436.228 218.115L433.344 206.103ZM467.623 216.302C464.239 217.115 462.127 215.773 461.287 212.276L460.868 210.528C460.028 207.032 461.3 204.877 464.684 204.064L465.248 203.929C468.594 203.125 470.687 204.472 471.527 207.968L471.946 209.717C472.786 213.213 471.533 215.363 468.187 216.167L467.623 216.302ZM457.931 217.675C457.855 217.853 457.75 218.077 457.616 218.348C457.482 218.618 457.208 218.803 456.795 218.903L456.456 218.984C456.118 219.065 455.841 219.072 455.626 219.004C455.44 218.89 455.286 218.748 455.166 218.578C455.083 218.399 455.019 218.216 454.974 218.028C454.957 217.793 454.95 217.596 454.951 217.437L459.367 193.352C459.406 193.183 459.493 192.964 459.627 192.693C459.798 192.413 460.09 192.224 460.504 192.124L460.786 192.056C461.5 191.885 461.935 192.039 462.09 192.519C462.274 192.952 462.326 193.337 462.248 193.674L457.931 217.675ZM452.01 206.929C448.627 207.742 446.51 206.381 445.661 202.847L445.242 201.098C444.411 197.639 445.687 195.503 449.071 194.691L449.635 194.555C452.981 193.752 455.07 195.08 455.901 198.538L456.32 200.287C457.169 203.821 455.92 205.99 452.574 206.793L452.01 206.929ZM468.551 208.743C468.307 207.727 468.022 207.12 467.696 206.92C467.36 206.682 466.779 206.663 465.952 206.861L465.388 206.997C464.561 207.196 464.033 207.481 463.804 207.854C463.614 208.218 463.635 208.889 463.87 209.867L464.263 211.502C464.498 212.48 464.787 213.106 465.132 213.381C465.505 213.61 466.105 213.625 466.932 213.426L467.496 213.291C468.323 213.092 468.832 212.811 469.023 212.447C469.214 212.083 469.188 211.393 468.944 210.378L468.551 208.743ZM452.925 199.313C452.69 198.335 452.405 197.728 452.07 197.49C451.734 197.252 451.153 197.233 450.326 197.432L449.762 197.567C448.935 197.766 448.407 198.052 448.178 198.425C447.988 198.789 448.009 199.459 448.244 200.437L448.651 202.129C448.885 203.106 449.17 203.714 449.506 203.951C449.87 204.142 450.465 204.139 451.292 203.94L451.856 203.804C452.684 203.606 453.197 203.343 453.397 203.017C453.588 202.653 453.566 201.982 453.331 201.005L452.925 199.313Z" fill="white"/>
<path d="M374.948 180.451C374.634 180.676 374.335 180.724 374.052 180.594C373.768 180.464 373.548 180.289 373.39 180.069L362.579 164.983L361.612 167.816C361.509 167.938 361.401 168.086 361.289 168.262C361.155 168.406 361.009 168.534 360.852 168.647C360.726 168.737 360.555 168.764 360.339 168.729C360.132 168.639 359.905 168.421 359.657 168.076L359.522 167.887C359.139 167.353 359.046 166.825 359.243 166.303L360.808 162.114C360.946 161.776 361.126 161.529 361.346 161.371L361.629 161.168C361.911 160.966 362.195 160.929 362.478 161.059C362.761 161.189 362.982 161.364 363.14 161.584L375.37 178.65C375.528 178.87 375.623 179.135 375.655 179.445C375.687 179.755 375.561 180.012 375.278 180.214L374.948 180.451ZM388.789 170.531C387.532 171.432 386.218 171.756 384.846 171.502C383.507 171.225 382.352 170.411 381.384 169.06L374.12 158.924C373.174 157.604 372.785 156.265 372.954 154.907C373.154 153.527 373.882 152.386 375.14 151.486L377.685 149.661C379.005 148.715 380.32 148.392 381.628 148.691C382.968 148.967 384.111 149.766 385.057 151.086L392.321 161.221C393.29 162.573 393.689 163.927 393.521 165.285C393.384 166.62 392.655 167.761 391.335 168.707L388.789 170.531ZM382.875 152.721C381.816 151.243 380.627 150.978 379.307 151.924L376.761 153.748C375.473 154.672 375.358 155.872 376.416 157.349L383.613 167.391C384.694 168.899 385.879 169.192 387.167 168.268L389.713 166.444C391.033 165.498 391.153 164.271 390.071 162.762L382.875 152.721ZM408.006 156.759C406.748 157.66 405.434 157.984 404.063 157.73C402.723 157.453 401.569 156.639 400.6 155.288L393.336 145.152C392.39 143.832 392.001 142.493 392.17 141.135C392.37 139.755 393.099 138.615 394.356 137.714L396.902 135.889C398.222 134.943 399.536 134.62 400.844 134.919C402.184 135.195 403.327 135.994 404.273 137.314L411.537 147.449C412.506 148.801 412.906 150.155 412.737 151.513C412.6 152.848 411.871 153.989 410.551 154.935L408.006 156.759ZM402.091 138.949C401.033 137.472 399.843 137.206 398.523 138.152L395.978 139.976C394.689 140.9 394.574 142.1 395.633 143.577L402.829 153.619C403.91 155.128 405.095 155.42 406.384 154.497L408.93 152.672C410.25 151.726 410.369 150.499 409.288 148.99L402.091 138.949ZM427.222 142.988C425.965 143.889 424.651 144.212 423.279 143.958C421.939 143.681 420.785 142.867 419.817 141.516L412.552 131.38C411.606 130.06 411.218 128.721 411.386 127.364C411.587 125.983 412.315 124.843 413.572 123.942L416.118 122.117C417.438 121.171 418.752 120.848 420.061 121.147C421.401 121.423 422.544 122.222 423.49 123.542L430.754 133.678C431.722 135.029 432.122 136.384 431.954 137.741C431.816 139.076 431.088 140.217 429.768 141.163L427.222 142.988ZM421.308 125.177C420.249 123.7 419.06 123.434 417.74 124.38L415.194 126.205C413.905 127.128 413.791 128.328 414.849 129.806L422.046 139.847C423.127 141.356 424.312 141.648 425.6 140.725L428.146 138.9C429.466 137.954 429.585 136.727 428.504 135.218L421.308 125.177Z" fill="white"/>
<path d="M347.72 116.37L350.555 118.069C350.821 118.228 351.02 118.461 351.152 118.766C351.272 119.017 351.232 119.309 351.033 119.641L350.795 120.039C350.576 120.404 350.318 120.609 350.019 120.656C349.708 120.649 349.419 120.567 349.154 120.408L346.318 118.708L341.785 126.269C341.626 126.534 341.394 126.733 341.089 126.866C340.804 126.966 340.479 126.906 340.114 126.687L339.766 126.479C339.6 126.379 339.471 126.257 339.378 126.111C339.272 125.912 339.179 125.766 339.099 125.673L330.44 110C330.134 109.457 330.141 108.919 330.459 108.389L330.936 107.593C331.135 107.261 331.39 107.099 331.702 107.105C332 107.059 332.282 107.115 332.547 107.274L345.332 114.938L346.137 113.595C346.296 113.33 346.518 113.147 346.803 113.048C347.108 112.915 347.427 112.948 347.758 113.147L348.107 113.356C348.471 113.574 348.667 113.849 348.694 114.181C348.74 114.479 348.684 114.761 348.525 115.026L347.72 116.37ZM334.379 111.55L340.62 122.798L343.93 117.276L334.379 111.55ZM360.382 104.047C359.587 105.373 358.509 106.193 357.15 106.505C355.811 106.784 354.428 106.496 353.002 105.641L342.306 99.2293C340.914 98.3943 340.025 97.3204 339.639 96.0076C339.274 94.6615 339.489 93.3253 340.284 91.9987L341.895 89.3124C342.73 87.9195 343.807 87.1001 345.127 86.8543C346.466 86.5753 347.832 86.8532 349.225 87.6883L359.92 94.0999C361.347 94.9548 362.252 96.0387 362.637 97.3515C363.042 98.6312 362.827 99.9675 361.992 101.36L360.382 104.047ZM347.873 90.0561C346.314 89.1217 345.118 89.351 344.283 90.7439L342.672 93.4301C341.857 94.7899 342.229 95.9369 343.788 96.8713L354.384 103.223C355.975 104.178 357.179 103.975 357.994 102.615L359.604 99.9289C360.439 98.5361 360.061 97.3625 358.469 96.4082L347.873 90.0561ZM372.538 83.7693C371.742 85.0959 370.665 85.9153 369.306 86.2275C367.966 86.5065 366.584 86.2186 365.158 85.3637L354.462 78.952C353.069 78.117 352.18 77.0431 351.795 75.7302C351.43 74.3842 351.645 73.0479 352.44 71.7214L354.051 69.0351C354.886 67.6422 355.963 66.8228 357.282 66.577C358.622 66.2979 359.988 66.5759 361.381 67.4109L372.076 73.8226C373.502 74.6775 374.408 75.7614 374.793 77.0742C375.198 78.3539 374.983 79.6902 374.148 81.0831L372.538 83.7693ZM360.029 69.7788C358.47 68.8444 357.273 69.0736 356.438 70.4665L354.828 73.1528C354.013 74.5125 354.385 75.6596 355.943 76.594L366.539 82.946C368.131 83.9003 369.335 83.6976 370.15 82.3379L371.76 79.6516C372.595 78.2587 372.217 77.0851 370.625 76.1308L360.029 69.7788Z" fill="white"/>
<path d="M295.098 94.906C294.87 96.4357 294.228 97.5909 293.173 98.3716C292.118 99.1523 290.73 99.414 289.009 99.1569L287.346 98.9084C287.078 98.8684 286.822 98.7519 286.577 98.5589C286.338 98.3277 286.247 98.0209 286.304 97.6385L286.381 97.1222C286.438 96.7398 286.612 96.4921 286.903 96.3791C287.199 96.2279 287.481 96.1723 287.749 96.2123L289.412 96.4608C291.133 96.718 292.111 96.0626 292.345 94.4946L292.748 91.7986C292.976 90.2689 292.23 89.3755 290.509 89.1183L288.157 88.7669C286.437 88.5098 285.462 89.1461 285.233 90.6758L284.942 92.6261C284.896 92.9321 284.761 93.1855 284.535 93.3864C284.271 93.5815 283.948 93.6505 283.566 93.5934L283.164 93.5334C282.782 93.4763 282.512 93.3187 282.355 93.0607C282.198 92.8026 282.143 92.5207 282.188 92.2147L282.48 90.2644C282.708 88.7347 281.943 87.8384 280.184 87.5756L278.004 87.2499C276.283 86.9928 275.309 87.629 275.08 89.1587L274.677 91.8548C274.443 93.4227 275.186 94.3353 276.907 94.5924L278.169 94.7809C278.475 94.8267 278.748 94.9651 278.987 95.1963C279.193 95.3836 279.268 95.6684 279.211 96.0508L279.134 96.5671C279.077 96.9495 278.919 97.2192 278.661 97.3761C278.37 97.4891 278.072 97.5227 277.766 97.477L276.504 97.2885C274.783 97.0313 273.533 96.3753 272.752 95.3203C271.971 94.2654 271.695 92.9731 271.924 91.4434L272.327 88.7473C272.549 87.2559 273.188 86.1198 274.243 85.3391C275.298 84.5585 276.686 84.2967 278.407 84.5538L280.587 84.8795C282.384 85.1481 283.626 85.8615 284.313 87.0197C285.347 86.1186 286.744 85.7995 288.503 86.0623L290.912 86.4223C292.633 86.6794 293.884 87.3354 294.665 88.3904C295.445 89.4453 295.724 90.7185 295.501 92.21L295.098 94.906ZM298.509 72.0827C298.28 73.6123 297.597 74.7809 296.46 75.5884C295.329 76.3577 293.941 76.6194 292.296 76.3737L279.963 74.531C278.357 74.291 277.125 73.6378 276.268 72.5715C275.417 71.4668 275.105 70.1497 275.334 68.62L275.797 65.5224C276.037 63.9162 276.72 62.7476 277.845 62.0166C278.977 61.2474 280.346 60.9827 281.952 61.2227L294.285 63.0655C295.929 63.3112 297.18 63.9672 298.037 65.0336C298.9 66.0617 299.211 67.3789 298.971 68.985L298.509 72.0827ZM281.606 63.9274C279.809 63.6588 278.79 64.3276 278.55 65.9338L278.087 69.0314C277.853 70.5993 278.635 71.5176 280.432 71.7861L292.65 73.6117C294.486 73.886 295.521 73.2392 295.755 71.6712L296.218 68.5736C296.458 66.9675 295.66 66.0272 293.825 65.753L281.606 63.9274ZM302.002 48.7004C301.774 50.2301 301.091 51.3987 299.954 52.2062C298.822 52.9754 297.434 53.2372 295.79 52.9915L283.457 51.1488C281.851 50.9088 280.619 50.2556 279.762 49.1892C278.91 48.0846 278.599 46.7674 278.828 45.2378L279.29 42.1401C279.53 40.534 280.213 39.3654 281.339 38.6344C282.47 37.8651 283.839 37.6005 285.445 37.8405L297.778 39.6832C299.423 39.9289 300.674 40.585 301.531 41.6513C302.394 42.6795 302.705 43.9966 302.465 45.6028L302.002 48.7004ZM285.1 40.5451C283.302 40.2766 282.284 40.9454 282.044 42.5516L281.581 45.6492C281.347 47.2171 282.128 48.1353 283.926 48.4039L296.144 50.2295C297.98 50.5038 299.015 49.8569 299.249 48.289L299.712 45.1914C299.952 43.5852 299.154 42.645 297.318 42.3707L285.1 40.5451Z" fill="white"/>
<path d="M231.68 104.523C232.076 106.097 231.919 107.453 231.208 108.589C230.459 109.734 229.241 110.519 227.554 110.943L226.26 111.269C225.885 111.363 225.562 111.345 225.289 111.214C224.97 111.055 224.764 110.788 224.669 110.413L224.542 109.907C224.438 109.494 224.513 109.157 224.765 108.894C224.981 108.64 225.238 108.476 225.538 108.4L226.776 108.089C228.501 107.655 229.179 106.707 228.811 105.244L227.892 101.588C227.524 100.126 226.477 99.6114 224.752 100.045L223.177 100.442C221.902 100.762 221.262 102.02 221.256 104.214C221.294 105.002 221.315 105.874 221.316 106.831C221.317 107.787 221.211 108.711 220.997 109.602C220.782 110.494 220.427 111.301 219.931 112.024C219.388 112.718 218.592 113.198 217.542 113.462L215.629 113.943C214.017 114.349 212.61 114.224 211.409 113.569C210.17 112.924 209.352 111.814 208.956 110.239L208.036 106.583C207.64 105.008 207.84 103.662 208.635 102.545C209.384 101.4 210.564 100.624 212.177 100.219L213.077 99.9923C213.377 99.9168 213.7 99.9351 214.047 100.047C214.394 100.159 214.62 100.421 214.724 100.834L214.823 101.228C215.03 102.053 214.684 102.578 213.784 102.805L212.884 103.031C211.197 103.456 210.537 104.399 210.905 105.861L211.825 109.518C212.193 110.98 213.22 111.499 214.908 111.074L216.764 110.607C217.176 110.504 217.556 110.189 217.902 109.663C218.248 109.138 218.401 108.242 218.362 106.976C218.333 106.066 218.327 105.171 218.344 104.289C218.324 103.417 218.416 102.516 218.621 101.588C218.836 100.697 219.233 99.8988 219.814 99.1946C220.385 98.4529 221.232 97.9405 222.357 97.6575L224.101 97.2188C225.789 96.7943 227.233 96.9094 228.434 97.5641C229.589 98.1907 230.364 99.2915 230.76 100.866L231.68 104.523ZM205.602 84.7836L224.22 80.0999C224.483 80.0339 224.792 80.0756 225.149 80.2251C225.458 80.3466 225.665 80.6136 225.769 81.026L225.854 81.3635C225.958 81.776 225.907 82.1278 225.701 82.4188C225.448 82.6817 225.19 82.8462 224.928 82.9123L206.31 87.596L207.314 91.5896C207.371 91.8146 207.343 92.1006 207.231 92.4478C207.119 92.7949 206.838 93.0251 206.388 93.1383L205.995 93.2374C205.582 93.3411 205.249 93.2854 204.996 93.07C204.705 92.8641 204.521 92.6112 204.446 92.3112L201.729 81.5117C201.625 81.0992 201.681 80.7662 201.896 80.5127C202.112 80.2592 202.369 80.0947 202.669 80.0192L203.063 79.9202C203.401 79.8353 203.729 79.8723 204.048 80.0312C204.32 80.1621 204.503 80.4151 204.598 80.7901L205.602 84.7836ZM220.862 61.5201C221.258 63.095 221.101 64.4503 220.39 65.5861C219.632 66.6939 218.409 67.46 216.721 67.8845L204.797 70.8843C203.185 71.29 201.782 71.1842 200.59 70.567C199.352 69.9218 198.534 68.8117 198.138 67.2367L197.176 63.4119C196.779 61.837 196.974 60.4722 197.76 59.3175C198.509 58.1723 199.689 57.3969 201.302 56.9912L213.226 53.9914C214.914 53.5669 216.358 53.682 217.56 54.3367C218.723 55.0008 219.503 56.1203 219.9 57.6952L220.862 61.5201ZM202.024 59.8598C200.336 60.2843 199.676 61.2278 200.044 62.6903L201.006 66.5151C201.374 67.9775 202.402 68.4965 204.089 68.072L215.958 65.0863C217.683 64.6523 218.361 63.7042 217.993 62.2417L217.031 58.4169C216.663 56.9545 215.617 56.4402 213.892 56.8742L202.024 59.8598ZM207.491 42.1286L214.241 40.4305C214.503 40.3645 214.808 40.3875 215.155 40.4995C215.465 40.621 215.671 40.8879 215.775 41.3004L215.888 41.7504C215.992 42.1629 215.96 42.5099 215.791 42.7915C215.576 43.045 215.3 43.2143 214.962 43.2992L194.769 48.3791C194.432 48.464 194.108 48.4457 193.799 48.3242C193.48 48.1653 193.268 47.8796 193.164 47.4671L191.438 40.6049C191.042 39.03 191.242 37.6839 192.037 36.5668C192.795 35.459 193.98 34.7023 195.593 34.2967L199.53 33.3062C201.105 32.91 202.507 33.0158 203.736 33.6235C204.966 34.2313 205.779 35.3226 206.175 36.8976L207.491 42.1286ZM196.286 37.0528C194.599 37.4773 193.939 38.4208 194.307 39.8832L195.623 45.1143L204.566 42.8644L203.25 37.6334C203.08 36.9584 202.761 36.4806 202.291 36.1999C201.813 35.8818 201.105 35.8406 200.167 36.0765L196.286 37.0528Z" fill="white"/>
<g filter="url(#filter16_d_19_84)">
<circle cx="250" cy="250" r="45" fill="#301E1E"/>
<circle cx="250" cy="250" r="43.5" stroke="white" stroke-width="3"/>
</g>
</g>
<defs>
<filter id="filter0_i_19_84" x="250" y="250" width="250.007" height="95.5728" filterUnits="userSpaceOnUse" color-interpolation-filters="sRGB">
<feFlood flood-opacity="0" result="BackgroundImageFix"/>
<feBlend mode="normal" in="SourceGraphic" in2="BackgroundImageFix" result="shape"/>
<feColorMatrix in="SourceAlpha" type="matrix" values="0 0 0 0 0 0 0 0 0 0 0 0 0 0 0 0 0 0 127 0" result="hardAlpha"/>
<feOffset/>
<feGaussianBlur stdDeviation="10"/>
<feComposite in2="hardAlpha" operator="arithmetic" k2="-1" k3="1"/>
<feColorMatrix type="matrix" values="0 0 0 0 0 0 0 0 0 0 0 0 0 0 0 0 0 0 0.31 0"/>
<feBlend mode="normal" in2="shape" result="effect1_innerShadow_19_84"/>
</filter>
<filter id="filter1_i_19_84" x="250" y="250" width="231.763" height="176.777" filterUnits="userSpaceOnUse" color-interpolation-filters="sRGB">
<feFlood flood-opacity="0" result="BackgroundImageFix"/>
<feBlend mode="normal" in="SourceGraphic" in2="BackgroundImageFix" result="shape"/>
<feColorMatrix in="SourceAlpha" type="matrix" values="0 0 0 0 0 0 0 0 0 0 0 0 0 0 0 0 0 0 127 0" result="hardAlpha"/>
<feOffset/>
<feGaussianBlur stdDeviation="10"/>
<feComposite in2="hardAlpha" operator="arithmetic" k2="-1" k3="1"/>
<feColorMatrix type="matrix" values="0 0 0 0 0 0 0 0 0 0 0 0 0 0 0 0 0 0 0.31 0"/>
<feBlend mode="normal" in2="shape" result="effect1_innerShadow_19_84"/>
</filter>
<filter id="filter2_i_19_84" x="250" y="250" width="176.777" height="231.763" filterUnits="userSpaceOnUse" color-interpolation-filters="sRGB">
<feFlood flood-opacity="0" result="BackgroundImageFix"/>
<feBlend mode="normal" in="SourceGraphic" in2="BackgroundImageFix" result="shape"/>
<feColorMatrix in="SourceAlpha" type="matrix" values="0 0 0 0 0 0 0 0 0 0 0 0 0 0 0 0 0 0 127 0" result="hardAlpha"/>
<feOffset/>
<feGaussianBlur stdDeviation="10"/>
<feComposite in2="hardAlpha" operator="arithmetic" k2="-1" k3="1"/>
<feColorMatrix type="matrix" values="0 0 0 0 0 0 0 0 0 0 0 0 0 0 0 0 0 0 0.31 0"/>
<feBlend mode="normal" in2="shape" result="effect1_innerShadow_19_84"/>
</filter>
<filter id="filter3_i_19_84" x="250" y="250" width="95.5728" height="250.007" filterUnits="userSpaceOnUse" color-interpolation-filters="sRGB">
<feFlood flood-opacity="0" result="BackgroundImageFix"/>
<feBlend mode="normal" in="SourceGraphic" in2="BackgroundImageFix" result="shape"/>
<feColorMatrix in="SourceAlpha" type="matrix" values="0 0 0 0 0 0 0 0 0 0 0 0 0 0 0 0 0 0 127 0" result="hardAlpha"/>
<feOffset/>
<feGaussianBlur stdDeviation="10"/>
<feComposite in2="hardAlpha" operator="arithmetic" k2="-1" k3="1"/>
<feColorMatrix type="matrix" values="0 0 0 0 0 0 0 0 0 0 0 0 0 0 0 0 0 0 0.31 0"/>
<feBlend mode="normal" in2="shape" result="effect1_innerShadow_19_84"/>
</filter>
<filter id="filter4_i_19_84" x="154.427" y="250" width="95.5728" height="250.007" filterUnits="userSpaceOnUse" color-interpolation-filters="sRGB">
<feFlood flood-opacity="0" result="BackgroundImageFix"/>
<feBlend mode="normal" in="SourceGraphic" in2="BackgroundImageFix" result="shape"/>
<feColorMatrix in="SourceAlpha" type="matrix" values="0 0 0 0 0 0 0 0 0 0 0 0 0 0 0 0 0 0 127 0" result="hardAlpha"/>
<feOffset/>
<feGaussianBlur stdDeviation="10"/>
<feComposite in2="hardAlpha" operator="arithmetic" k2="-1" k3="1"/>
<feColorMatrix type="matrix" values="0 0 0 0 0 0 0 0 0 0 0 0 0 0 0 0 0 0 0.31 0"/>
<feBlend mode="normal" in2="shape" result="effect1_innerShadow_19_84"/>
</filter>
<filter id="filter5_i_19_84" x="73.2233" y="250" width="176.777" height="231.763" filterUnits="userSpaceOnUse" color-interpolation-filters="sRGB">
<feFlood flood-opacity="0" result="BackgroundImageFix"/>
<feBlend mode="normal" in="SourceGraphic" in2="BackgroundImageFix" result="shape"/>
<feColorMatrix in="SourceAlpha" type="matrix" values="0 0 0 0 0 0 0 0 0 0 0 0 0 0 0 0 0 0 127 0" result="hardAlpha"/>
<feOffset/>
<feGaussianBlur stdDeviation="10"/>
<feComposite in2="hardAlpha" operator="arithmetic" k2="-1" k3="1"/>
<feColorMatrix type="matrix" values="0 0 0 0 0 0 0 0 0 0 0 0 0 0 0 0 0 0 0.31 0"/>
<feBlend mode="normal" in2="shape" result="effect1_innerShadow_19_84"/>
</filter>
<filter id="filter6_i_19_84" x="18.2372" y="250" width="231.763" height="176.777" filterUnits="userSpaceOnUse" color-interpolation-filters="sRGB">
<feFlood flood-opacity="0" result="BackgroundImageFix"/>
<feBlend mode="normal" in="SourceGraphic" in2="BackgroundImageFix" result="shape"/>
<feColorMatrix in="SourceAlpha" type="matrix" values="0 0 0 0 0 0 0 0 0 0 0 0 0 0 0 0 0 0 127 0" result="hardAlpha"/>
<feOffset/>
<feGaussianBlur stdDeviation="10"/>
<feComposite in2="hardAlpha" operator="arithmetic" k2="-1" k3="1"/>
<feColorMatrix type="matrix" values="0 0 0 0 0 0 0 0 0 0 0 0 0 0 0 0 0 0 0.31 0"/>
<feBlend mode="normal" in2="shape" result="effect1_innerShadow_19_84"/>
</filter>
<filter id="filter7_i_19_84" x="-0.00665283" y="250" width="250.007" height="95.5728" filterUnits="userSpaceOnUse" color-interpolation-filters="sRGB">
<feFlood flood-opacity="0" result="BackgroundImageFix"/>
<feBlend mode="normal" in="SourceGraphic" in2="BackgroundImageFix" result="shape"/>
<feColorMatrix in="SourceAlpha" type="matrix" values="0 0 0 0 0 0 0 0 0 0 0 0 0 0 0 0 0 0 127 0" result="hardAlpha"/>
<feOffset/>
<feGaussianBlur stdDeviation="10"/>
<feComposite in2="hardAlpha" operator="arithmetic" k2="-1" k3="1"/>
<feColorMatrix type="matrix" values="0 0 0 0 0 0 0 0 0 0 0 0 0 0 0 0 0 0 0.31 0"/>
<feBlend mode="normal" in2="shape" result="effect1_innerShadow_19_84"/>
</filter>
<filter id="filter8_i_19_84" x="-0.00665283" y="154.427" width="250.007" height="95.5728" filterUnits="userSpaceOnUse" color-interpolation-filters="sRGB">
<feFlood flood-opacity="0" result="BackgroundImageFix"/>
<feBlend mode="normal" in="SourceGraphic" in2="BackgroundImageFix" result="shape"/>
<feColorMatrix in="SourceAlpha" type="matrix" values="0 0 0 0 0 0 0 0 0 0 0 0 0 0 0 0 0 0 127 0" result="hardAlpha"/>
<feOffset/>
<feGaussianBlur stdDeviation="10"/>
<feComposite in2="hardAlpha" operator="arithmetic" k2="-1" k3="1"/>
<feColorMatrix type="matrix" values="0 0 0 0 0 0 0 0 0 0 0 0 0 0 0 0 0 0 0.31 0"/>
<feBlend mode="normal" in2="shape" result="effect1_innerShadow_19_84"/>
</filter>
<filter id="filter9_i_19_84" x="18.2372" y="73.2234" width="231.763" height="176.777" filterUnits="userSpaceOnUse" color-interpolation-filters="sRGB">
<feFlood flood-opacity="0" result="BackgroundImageFix"/>
<feBlend mode="normal" in="SourceGraphic" in2="BackgroundImageFix" result="shape"/>
<feColorMatrix in="SourceAlpha" type="matrix" values="0 0 0 0 0 0 0 0 0 0 0 0 0 0 0 0 0 0 127 0" result="hardAlpha"/>
<feOffset/>
<feGaussianBlur stdDeviation="10"/>
<feComposite in2="hardAlpha" operator="arithmetic" k2="-1" k3="1"/>
<feColorMatrix type="matrix" values="0 0 0 0 0 0 0 0 0 0 0 0 0 0 0 0 0 0 0.31 0"/>
<feBlend mode="normal" in2="shape" result="effect1_innerShadow_19_84"/>
</filter>
<filter id="filter10_i_19_84" x="73.2233" y="18.2373" width="176.777" height="231.763" filterUnits="userSpaceOnUse" color-interpolation-filters="sRGB">
<feFlood flood-opacity="0" result="BackgroundImageFix"/>
<feBlend mode="normal" in="SourceGraphic" in2="BackgroundImageFix" result="shape"/>
<feColorMatrix in="SourceAlpha" type="matrix" values="0 0 0 0 0 0 0 0 0 0 0 0 0 0 0 0 0 0 127 0" result="hardAlpha"/>
<feOffset/>
<feGaussianBlur stdDeviation="10"/>
<feComposite in2="hardAlpha" operator="arithmetic" k2="-1" k3="1"/>
<feColorMatrix type="matrix" values="0 0 0 0 0 0 0 0 0 0 0 0 0 0 0 0 0 0 0.31 0"/>
<feBlend mode="normal" in2="shape" result="effect1_innerShadow_19_84"/>
</filter>
<filter id="filter11_i_19_84" x="154.427" y="-0.0065918" width="95.5728" height="250.007" filterUnits="userSpaceOnUse" color-interpolation-filters="sRGB">
<feFlood flood-opacity="0" result="BackgroundImageFix"/>
<feBlend mode="normal" in="SourceGraphic" in2="BackgroundImageFix" result="shape"/>
<feColorMatrix in="SourceAlpha" type="matrix" values="0 0 0 0 0 0 0 0 0 0 0 0 0 0 0 0 0 0 127 0" result="hardAlpha"/>
<feOffset/>
<feGaussianBlur stdDeviation="10"/>
<feComposite in2="hardAlpha" operator="arithmetic" k2="-1" k3="1"/>
<feColorMatrix type="matrix" values="0 0 0 0 0 0 0 0 0 0 0 0 0 0 0 0 0 0 0.31 0"/>
<feBlend mode="normal" in2="shape" result="effect1_innerShadow_19_84"/>
</filter>
<filter id="filter12_i_19_84" x="250" y="-0.0065918" width="95.5728" height="250.007" filterUnits="userSpaceOnUse" color-interpolation-filters="sRGB">
<feFlood flood-opacity="0" result="BackgroundImageFix"/>
<feBlend mode="normal" in="SourceGraphic" in2="BackgroundImageFix" result="shape"/>
<feColorMatrix in="SourceAlpha" type="matrix" values="0 0 0 0 0 0 0 0 0 0 0 0 0 0 0 0 0 0 127 0" result="hardAlpha"/>
<feOffset/>
<feGaussianBlur stdDeviation="10"/>
<feComposite in2="hardAlpha" operator="arithmetic" k2="-1" k3="1"/>
<feColorMatrix type="matrix" values="0 0 0 0 0 0 0 0 0 0 0 0 0 0 0 0 0 0 0.31 0"/>
<feBlend mode="normal" in2="shape" result="effect1_innerShadow_19_84"/>
</filter>
<filter id="filter13_i_19_84" x="250" y="18.2373" width="176.777" height="231.763" filterUnits="userSpaceOnUse" color-interpolation-filters="sRGB">
<feFlood flood-opacity="0" result="BackgroundImageFix"/>
<feBlend mode="normal" in="SourceGraphic" in2="BackgroundImageFix" result="shape"/>
<feColorMatrix in="SourceAlpha" type="matrix" values="0 0 0 0 0 0 0 0 0 0 0 0 0 0 0 0 0 0 127 0" result="hardAlpha"/>
<feOffset/>
<feGaussianBlur stdDeviation="10"/>
<feComposite in2="hardAlpha" operator="arithmetic" k2="-1" k3="1"/>
<feColorMatrix type="matrix" values="0 0 0 0 0 0 0 0 0 0 0 0 0 0 0 0 0 0 0.31 0"/>
<feBlend mode="normal" in2="shape" result="effect1_innerShadow_19_84"/>
</filter>
<filter id="filter14_i_19_84" x="250" y="73.2234" width="231.763" height="176.777" filterUnits="userSpaceOnUse" color-interpolation-filters="sRGB">
<feFlood flood-opacity="0" result="BackgroundImageFix"/>
<feBlend mode="normal" in="SourceGraphic" in2="BackgroundImageFix" result="shape"/>
<feColorMatrix in="SourceAlpha" type="matrix" values="0 0 0 0 0 0 0 0 0 0 0 0 0 0 0 0 0 0 127 0" result="hardAlpha"/>
<feOffset/>
<feGaussianBlur stdDeviation="10"/>
<feComposite in2="hardAlpha" operator="arithmetic" k2="-1" k3="1"/>
<feColorMatrix type="matrix" values="0 0 0 0 0 0 0 0 0 0 0 0 0 0 0 0 0 0 0.31 0"/>
<feBlend mode="normal" in2="shape" result="effect1_innerShadow_19_84"/>
</filter>
<filter id="filter15_i_19_84" x="250" y="154.427" width="250.007" height="95.5728" filterUnits="userSpaceOnUse" color-interpolation-filters="sRGB">
<feFlood flood-opacity="0" result="BackgroundImageFix"/>
<feBlend mode="normal" in="SourceGraphic" in2="BackgroundImageFix" result="shape"/>
<feColorMatrix in="SourceAlpha" type="matrix" values="0 0 0 0 0 0 0 0 0 0 0 0 0 0 0 0 0 0 127 0" result="hardAlpha"/>
<feOffset/>
<feGaussianBlur stdDeviation="10"/>
<feComposite in2="hardAlpha" operator="arithmetic" k2="-1" k3="1"/>
<feColorMatrix type="matrix" values="0 0 0 0 0 0 0 0 0 0 0 0 0 0 0 0 0 0 0.31 0"/>
<feBlend mode="normal" in2="shape" result="effect1_innerShadow_19_84"/>
</filter>
<filter id="filter16_d_19_84" x="168" y="168" width="164" height="164" filterUnits="userSpaceOnUse" color-interpolation-filters="sRGB">
<feFlood flood-opacity="0" result="BackgroundImageFix"/>
<feColorMatrix in="SourceAlpha" type="matrix" values="0 0 0 0 0 0 0 0 0 0 0 0 0 0 0 0 0 0 127 0" result="hardAlpha"/>
<feMorphology radius="20" operator="dilate" in="SourceAlpha" result="effect1_dropShadow_19_84"/>
<feOffset/>
<feGaussianBlur stdDeviation="8.5"/>
<feComposite in2="hardAlpha" operator="out"/>
<feColorMatrix type="matrix" values="0 0 0 0 0 0 0 0 0 0 0 0 0 0 0 0 0 0 0.25 0"/>
<feBlend mode="normal" in2="BackgroundImageFix" result="effect1_dropShadow_19_84"/>
<feBlend mode="normal" in="SourceGraphic" in2="effect1_dropShadow_19_84" result="shape"/>
</filter>
<clipPath id="clip0_19_84">
<rect width="500" height="500" fill="white"/>
</clipPath>
</defs>
</svg>
