<svg width="500" height="500" viewBox="0 0 500 500" fill="none" xmlns="http://www.w3.org/2000/svg">
<g clip-path="url(#clip0_19_84)">
<g filter="url(#filter0_i_19_84)">
<path d="M250 250H500C500.239 282.745 494.042 315.217 481.763 345.573L250 250Z" fill="#FF00B3"/>
</g>
<g filter="url(#filter1_i_19_84)">
<path d="M250 250L481.763 345.573C468.975 376.006 450.287 403.604 426.777 426.777L250 250Z" fill="#FF6000"/>
</g>
<g filter="url(#filter2_i_19_84)">
<path d="M250 250L426.777 426.777C403.604 450.287 376.006 468.975 345.573 481.763L250 250Z" fill="#FFBF00"/>
</g>
<g filter="url(#filter3_i_19_84)">
<path d="M250 250L345.573 481.763C315.217 494.042 282.745 500.239 250 500V250Z" fill="#39639B"/>
</g>
<g filter="url(#filter4_i_19_84)">
<path d="M250 250V500C217.255 500.239 184.783 494.042 154.427 481.763L250 250Z" fill="#7DBB3E"/>
</g>
<g filter="url(#filter5_i_19_84)">
<path d="M250 250L154.427 481.763C123.994 468.975 96.3956 450.287 73.2233 426.777L250 250Z" fill="#934091"/>
</g>
<g filter="url(#filter6_i_19_84)">
<path d="M250 250L73.2233 426.777C49.7132 403.604 31.0251 376.006 18.2372 345.573L250 250Z" fill="#5C956A"/>
</g>
<g filter="url(#filter7_i_19_84)">
<path d="M250 250L18.2372 345.573C5.95768 315.217 -0.238731 282.745 -8.74791e-06 250H250Z" fill="#301E1E"/>
</g>
<g filter="url(#filter8_i_19_84)">
<path d="M250 250H-8.74791e-06C-0.238731 217.256 5.95768 184.783 18.2372 154.427L250 250Z" fill="#148787"/>
</g>
<g filter="url(#filter9_i_19_84)">
<path d="M250 250L18.2372 154.427C31.0251 123.995 49.7132 96.3957 73.2233 73.2234L250 250Z" fill="#009FFF"/>
</g>
<g filter="url(#filter10_i_19_84)">
<path d="M250 250L73.2233 73.2234C96.3956 49.7133 123.994 31.0251 154.427 18.2373L250 250Z" fill="#0C2981"/>
</g>
<g filter="url(#filter11_i_19_84)">
<path d="M250 250L154.427 18.2373C184.783 5.95775 217.255 -0.23867 250 5.22872e-05V250Z" fill="#1DCE32"/>
</g>
<g filter="url(#filter12_i_19_84)">
<path d="M250 250V5.22872e-05C282.745 -0.23867 315.217 5.95775 345.573 18.2373L250 250Z" fill="#8000FF"/>
</g>
<g filter="url(#filter13_i_19_84)">
<path d="M250 250L345.573 18.2373C376.006 31.0251 403.604 49.7133 426.777 73.2234L250 250Z" fill="#DF00FF"/>
</g>
<g filter="url(#filter14_i_19_84)">
<path d="M250 250L426.777 73.2234C450.287 96.3957 468.975 123.995 481.763 154.427L250 250Z" fill="#B7108D"/>
</g>
<g filter="url(#filter15_i_19_84)">
<path d="M250 250L481.763 154.427C494.042 184.783 500.239 217.256 500 250H250Z" fill="#301E1E"/>
</g>
<path d="M376.219 349.479C374.936 348.615 374.152 347.529 373.868 346.22C373.616 344.932 373.975 343.566 374.947 342.122L376.306 340.101C377.234 338.721 378.412 337.905 379.839 337.654C379.491 336.301 379.802 334.903 380.773 333.459L382.003 331.63C382.974 330.186 384.104 329.338 385.392 329.086C386.712 328.856 388.013 329.172 389.297 330.035L392.088 331.913C393.372 332.776 394.139 333.852 394.391 335.139C394.644 336.427 394.284 337.793 393.313 339.237L392.083 341.066C391.09 342.542 389.929 343.368 388.598 343.545C388.871 344.94 388.544 346.328 387.616 347.707L386.256 349.729C385.285 351.173 384.156 352.021 382.868 352.273C381.58 352.525 380.294 352.219 379.011 351.356L376.219 349.479ZM391.051 337.716C392.022 336.272 391.85 335.108 390.534 334.223L387.743 332.345C386.428 331.461 385.284 331.74 384.313 333.184L383.083 335.013C382.091 336.489 382.252 337.669 383.567 338.554L386.359 340.431C387.674 341.316 388.828 341.02 389.821 339.545L391.051 337.716ZM385.322 346.234C386.293 344.79 386.12 343.626 384.805 342.741L382.014 340.864C380.698 339.979 379.555 340.259 378.584 341.702L377.257 343.676C376.286 345.119 376.458 346.284 377.773 347.169L380.565 349.046C381.88 349.931 383.023 349.651 383.994 348.207L385.322 346.234ZM395.657 362.552C394.373 361.689 393.611 360.57 393.37 359.197C393.161 357.844 393.521 356.479 394.449 355.099L401.408 344.752C402.314 343.404 403.433 342.572 404.764 342.256C406.127 341.961 407.451 342.245 408.734 343.109L411.333 344.857C412.68 345.763 413.443 346.881 413.62 348.212C413.829 349.564 413.48 350.914 412.573 352.261L405.614 362.609C404.686 363.988 403.557 364.836 402.225 365.153C400.926 365.49 399.603 365.206 398.256 364.3L395.657 362.552ZM410.279 350.788C411.293 349.28 411.127 348.073 409.779 347.167L407.18 345.419C405.865 344.534 404.7 344.846 403.686 346.354L396.791 356.605C395.755 358.145 395.895 359.357 397.21 360.242L399.809 361.99C401.157 362.896 402.349 362.579 403.384 361.039L410.279 350.788ZM415.274 375.746C413.991 374.883 413.229 373.765 412.987 372.391C412.779 371.039 413.138 369.673 414.066 368.293L421.025 357.946C421.932 356.599 423.05 355.767 424.382 355.45C425.745 355.156 427.068 355.44 428.351 356.303L430.95 358.051C432.298 358.957 433.06 360.076 433.237 361.406C433.446 362.758 433.097 364.108 432.191 365.456L425.231 375.803C424.303 377.183 423.174 378.031 421.843 378.347C420.544 378.685 419.221 378.401 417.873 377.494L415.274 375.746ZM429.897 363.983C430.911 362.475 430.744 361.267 429.397 360.361L426.798 358.613C425.482 357.728 424.317 358.04 423.303 359.548L416.408 369.799C415.373 371.339 415.512 372.552 416.828 373.436L419.427 375.184C420.774 376.091 421.966 375.774 423.002 374.234L429.897 363.983Z" fill="white"/>
<path d="M328.554 389.506C327.663 388.149 327.393 386.822 327.745 385.527C328.097 384.232 328.968 383.128 330.358 382.215L331.473 381.483C331.731 381.313 332 381.229 332.279 381.231C332.611 381.244 332.883 381.412 333.096 381.735L333.35 382.123C333.563 382.446 333.609 382.763 333.489 383.073C333.401 383.362 333.228 383.592 332.969 383.761L331.903 384.462C330.351 385.481 330.011 386.653 330.881 387.978L332.218 390.014C333.089 391.339 334.299 391.492 335.851 390.473L339.39 388.149C340.198 387.618 340.657 387.085 340.768 386.55C340.911 385.993 340.76 385.375 340.314 384.697L338.659 382.176C338.404 381.788 338.175 381.545 337.972 381.447C337.769 381.349 337.581 381.31 337.41 381.331C337.142 381.275 336.874 381.289 336.605 381.373C336.444 381.34 336.273 381.291 336.091 381.225C335.909 381.16 335.744 381.014 335.596 380.787L335.277 380.303C335.065 379.979 335.019 379.663 335.139 379.353C335.28 379.075 335.464 378.861 335.69 378.713L344.32 373.045C344.546 372.897 344.815 372.813 345.126 372.793C345.458 372.806 345.73 372.975 345.943 373.298L351.451 381.685C351.875 382.331 351.748 382.877 351.07 383.323L350.779 383.514C350.1 383.96 349.548 383.859 349.124 383.213L344.507 376.183L339.708 379.336C340.114 379.531 340.54 379.969 340.986 380.647L342.641 383.168C343.49 384.461 343.782 385.75 343.516 387.035C343.249 388.32 342.373 389.451 340.886 390.427L337.299 392.784C335.909 393.696 334.539 394.041 333.19 393.817C331.84 393.593 330.74 392.835 329.891 391.542L328.554 389.506ZM340.882 408.276C340.033 406.983 339.763 405.657 340.073 404.297C340.404 402.97 341.264 401.85 342.654 400.937L353.077 394.091C354.434 393.2 355.788 392.866 357.137 393.09C358.508 393.346 359.618 394.12 360.467 395.413L362.187 398.031C363.078 399.388 363.348 400.714 362.996 402.01C362.665 403.337 361.821 404.447 360.464 405.338L350.041 412.184C348.651 413.097 347.281 413.441 345.931 413.217C344.603 413.026 343.493 412.252 342.601 410.894L340.882 408.276ZM358.919 403.092C360.438 402.094 360.751 400.916 359.86 399.559L358.14 396.941C357.27 395.616 356.075 395.452 354.556 396.45L344.23 403.232C342.679 404.251 342.339 405.423 343.209 406.748L344.928 409.366C345.82 410.723 347.041 410.892 348.593 409.874L358.919 403.092ZM353.86 428.037C353.011 426.744 352.742 425.418 353.051 424.058C353.382 422.731 354.242 421.61 355.632 420.698L366.055 413.852C367.413 412.961 368.766 412.627 370.116 412.85C371.487 413.107 372.597 413.881 373.446 415.174L375.165 417.792C376.057 419.149 376.327 420.475 375.974 421.771C375.644 423.098 374.799 424.208 373.442 425.099L363.019 431.945C361.629 432.858 360.26 433.202 358.91 432.978C357.581 432.787 356.471 432.012 355.58 430.655L353.86 428.037ZM371.897 422.853C373.416 421.855 373.73 420.677 372.838 419.32L371.119 416.702C370.249 415.377 369.054 415.213 367.535 416.211L357.209 422.993C355.658 424.012 355.317 425.184 356.187 426.509L357.907 429.127C358.798 430.484 360.02 430.653 361.571 429.634L371.897 422.853Z" fill="white"/>
<path d="M268.386 401.808C268.318 401.506 268.353 401.221 268.491 400.952C268.629 400.683 268.906 400.503 269.321 400.41L272.094 399.789C274.094 399.341 275.825 399.726 277.286 400.944L283.535 406.023C284.409 406.739 285.411 406.97 286.543 406.716L287.902 406.412C289.6 406.032 290.275 405.068 289.929 403.521L289.346 400.918C289.008 399.408 287.99 398.844 286.292 399.224L284.764 399.566C284.462 399.634 284.158 399.603 283.852 399.474C283.545 399.344 283.35 399.091 283.265 398.713L283.164 398.26C283.079 397.883 283.148 397.571 283.37 397.323C283.6 397.113 283.866 396.974 284.168 396.906L285.696 396.564C287.394 396.184 288.797 396.345 289.906 397.048C291.023 397.788 291.742 398.875 292.063 400.309L292.646 402.913C292.984 404.422 292.797 405.712 292.086 406.783C291.383 407.891 290.183 408.635 288.485 409.016L287.07 409.333C285.108 409.772 283.335 409.376 281.752 408.146L275.434 403.023C274.615 402.374 273.734 402.155 272.79 402.367L271.432 402.671L273.384 411.387C273.545 412.104 273.248 412.547 272.493 412.716L272.097 412.805C271.304 412.982 270.828 412.712 270.667 411.995L268.386 401.808ZM274.13 427.456C273.775 425.871 273.991 424.535 274.777 423.447C275.564 422.36 276.769 421.634 278.391 421.271L279.693 420.979C279.995 420.912 280.276 420.928 280.536 421.028C280.842 421.158 281.038 421.411 281.122 421.788L281.224 422.241C281.308 422.619 281.239 422.931 281.018 423.179C280.833 423.418 280.59 423.572 280.289 423.639L279.043 423.918C277.232 424.324 276.5 425.3 276.846 426.847L277.379 429.224C277.725 430.771 278.804 431.342 280.615 430.936L284.747 430.011C285.69 429.8 286.308 429.463 286.601 429.001C286.931 428.531 287.008 427.9 286.831 427.108L286.171 424.164C286.07 423.712 285.942 423.404 285.786 423.24C285.631 423.077 285.469 422.974 285.301 422.933C285.07 422.786 284.814 422.705 284.533 422.689C284.395 422.601 284.252 422.494 284.105 422.369C283.958 422.243 283.855 422.048 283.796 421.784L283.669 421.218C283.585 420.841 283.653 420.528 283.875 420.28C284.105 420.07 284.353 419.936 284.617 419.877L294.691 417.62C294.955 417.561 295.236 417.577 295.534 417.669C295.841 417.799 296.036 418.052 296.121 418.43L298.313 428.221C298.482 428.976 298.171 429.442 297.378 429.619L297.039 429.695C296.246 429.873 295.766 429.584 295.597 428.829L293.759 420.623L288.156 421.878C288.467 422.204 288.711 422.764 288.888 423.556L289.547 426.499C289.885 428.008 289.703 429.317 289 430.426C288.297 431.534 287.078 432.282 285.342 432.671L281.154 433.609C279.532 433.972 278.129 433.811 276.945 433.125C275.761 432.44 275 431.342 274.662 429.833L274.13 427.456ZM279.037 449.369C278.699 447.86 278.915 446.524 279.685 445.361C280.463 444.235 281.663 443.491 283.286 443.128L295.454 440.403C297.039 440.048 298.424 440.213 299.607 440.899C300.8 441.623 301.565 442.739 301.903 444.248L302.587 447.305C302.942 448.889 302.726 450.226 301.94 451.313C301.161 452.438 299.98 453.178 298.395 453.533L286.227 456.259C284.604 456.622 283.201 456.461 282.017 455.775C280.842 455.127 280.077 454.01 279.722 452.425L279.037 449.369ZM297.743 450.886C299.516 450.489 300.225 449.498 299.871 447.913L299.186 444.857C298.84 443.31 297.78 442.735 296.006 443.132L283.951 445.832C282.14 446.237 281.407 447.214 281.754 448.761L282.438 451.817C282.793 453.402 283.876 453.991 285.687 453.586L297.743 450.886Z" fill="white"/>
<path d="M208.116 408.114C208.196 407.735 208.384 407.498 208.681 407.403C208.977 407.307 209.258 407.287 209.523 407.343L227.685 411.165L226.484 408.423C226.478 408.263 226.457 408.081 226.421 407.876C226.423 407.679 226.444 407.486 226.484 407.296C226.516 407.145 226.623 407.01 226.807 406.89C227.02 406.816 227.334 406.823 227.751 406.911L227.978 406.959C228.621 407.094 229.046 407.421 229.253 407.938L230.929 412.084C231.055 412.427 231.09 412.731 231.034 412.996L230.962 413.336C230.891 413.677 230.707 413.895 230.41 413.99C230.113 414.086 229.832 414.106 229.567 414.05L209.021 409.727C208.757 409.671 208.508 409.54 208.275 409.332C208.042 409.125 207.961 408.852 208.033 408.511L208.116 408.114ZM204.61 424.777C204.928 423.264 205.679 422.137 206.862 421.399C208.037 420.697 209.438 420.518 211.065 420.86L223.267 423.428C224.857 423.763 226.048 424.487 226.84 425.603C227.625 426.756 227.858 428.089 227.54 429.602L226.895 432.667C226.56 434.256 225.81 435.383 224.643 436.046C223.468 436.747 222.086 436.93 220.497 436.596L208.294 434.028C206.667 433.686 205.457 432.957 204.664 431.842C203.864 430.765 203.63 429.431 203.965 427.842L204.61 424.777ZM221.001 433.916C222.779 434.291 223.836 433.683 224.17 432.094L224.815 429.029C225.142 427.478 224.416 426.515 222.637 426.141L210.548 423.597C208.732 423.215 207.661 423.799 207.334 425.35L206.689 428.415C206.355 430.005 207.096 430.99 208.912 431.372L221.001 433.916ZM199.741 447.912C200.06 446.399 200.811 445.273 201.993 444.534C203.168 443.833 204.569 443.653 206.196 443.996L218.399 446.563C219.988 446.898 221.179 447.623 221.972 448.738C222.757 449.891 222.99 451.224 222.671 452.737L222.026 455.802C221.692 457.391 220.941 458.518 219.774 459.181C218.6 459.882 217.217 460.065 215.628 459.731L203.426 457.163C201.798 456.821 200.589 456.092 199.796 454.977C198.995 453.9 198.762 452.566 199.097 450.977L199.741 447.912ZM216.133 457.051C217.911 457.426 218.968 456.818 219.302 455.229L219.947 452.164C220.273 450.613 219.547 449.65 217.769 449.276L205.68 446.732C203.864 446.35 202.792 446.934 202.466 448.486L201.821 451.55C201.486 453.14 202.227 454.125 204.044 454.508L216.133 457.051Z" fill="white"/>
<path d="M153.864 373.999C154.04 373.745 154.274 373.578 154.565 373.498C154.856 373.418 155.177 373.499 155.526 373.742L157.859 375.364C159.542 376.533 160.43 378.068 160.522 379.968L161.009 388.007C161.073 389.134 161.581 390.029 162.534 390.691L163.677 391.485C165.106 392.478 166.273 392.324 167.177 391.022L168.7 388.831C169.583 387.561 169.31 386.43 167.881 385.437L166.595 384.543C166.341 384.366 166.158 384.122 166.046 383.808C165.934 383.495 165.989 383.18 166.209 382.862L166.474 382.481C166.695 382.164 166.971 382.003 167.304 381.998C167.615 382.026 167.897 382.128 168.151 382.304L169.437 383.198C170.866 384.191 171.696 385.334 171.929 386.625C172.139 387.949 171.825 389.214 170.986 390.42L169.463 392.611C168.581 393.881 167.505 394.616 166.235 394.817C164.943 395.049 163.583 394.669 162.154 393.676L160.964 392.849C159.313 391.701 158.405 390.128 158.24 388.13L157.737 380.011C157.661 378.969 157.226 378.172 156.432 377.621L155.289 376.826L150.191 384.161C149.772 384.764 149.245 384.845 148.61 384.404L148.277 384.172C147.61 383.708 147.486 383.175 147.905 382.572L153.864 373.999ZM138.764 395.724C139.647 394.454 140.777 393.709 142.154 393.489C143.509 393.301 144.869 393.681 146.235 394.63L156.474 401.747C157.808 402.674 158.623 403.805 158.918 405.141C159.192 406.508 158.888 407.827 158.005 409.097L156.218 411.669C155.291 413.003 154.161 413.748 152.828 413.904C151.473 414.092 150.128 413.723 148.795 412.796L138.555 405.679C137.19 404.73 136.359 403.588 136.063 402.252C135.745 400.948 136.05 399.629 136.977 398.296L138.764 395.724ZM150.303 410.525C151.795 411.562 153.005 411.414 153.932 410.08L155.719 407.508C156.624 406.207 156.33 405.037 154.838 404L144.693 396.949C143.169 395.89 141.955 396.011 141.05 397.313L139.263 399.885C138.336 401.218 138.634 402.415 140.158 403.474L150.303 410.525ZM125.271 415.137C126.154 413.867 127.284 413.122 128.661 412.902C130.016 412.714 131.376 413.094 132.742 414.043L142.981 421.16C144.315 422.087 145.13 423.218 145.426 424.554C145.699 425.922 145.395 427.24 144.512 428.511L142.725 431.082C141.798 432.416 140.668 433.161 139.335 433.317C137.98 433.506 136.635 433.136 135.302 432.21L125.062 425.093C123.697 424.144 122.866 423.001 122.57 421.666C122.252 420.362 122.557 419.043 123.484 417.709L125.271 415.137ZM136.81 429.938C138.302 430.975 139.512 430.827 140.439 429.493L142.226 426.922C143.131 425.62 142.837 424.45 141.345 423.413L131.201 416.363C129.676 415.303 128.462 415.425 127.557 416.726L125.77 419.298C124.843 420.632 125.142 421.828 126.666 422.887L136.81 429.938Z" fill="white"/>
<path d="M111.814 331.621C113.111 330.779 114.423 330.527 115.749 330.866C117.074 331.204 118.19 332.071 119.094 333.466L125.88 343.928C126.764 345.29 127.09 346.646 126.859 347.994C126.627 349.343 125.863 350.438 124.565 351.279L119.651 354.467C119.391 354.635 119.111 354.702 118.811 354.666C118.479 354.651 118.197 354.465 117.966 354.108L117.776 353.816C117.566 353.492 117.511 353.159 117.612 352.817C117.701 352.528 117.876 352.3 118.135 352.131L123.05 348.944C124.38 348.081 124.551 346.887 123.562 345.363L121.731 342.54L117.352 345.381C115.989 346.265 114.661 346.527 113.368 346.167C112.043 345.829 110.927 344.962 110.023 343.567L108.097 340.599C107.192 339.204 106.856 337.832 107.087 336.484C107.286 335.157 108.067 334.051 109.429 333.167L111.814 331.621ZM112.278 342.035C113.267 343.56 114.443 343.88 115.805 342.997L120.185 340.156L116.839 334.998C115.829 333.441 114.659 333.094 113.329 333.956L110.944 335.503C109.582 336.387 109.406 337.607 110.416 339.164L112.278 342.035ZM92.5437 344.12C93.8413 343.278 95.1691 343.016 96.5272 343.334C97.8529 343.672 98.9681 344.539 99.8729 345.934L106.659 356.396C107.543 357.758 107.869 359.113 107.637 360.462C107.373 361.831 106.593 362.937 105.295 363.779L102.667 365.483C101.305 366.367 99.9771 366.629 98.6839 366.269C97.3583 365.931 96.2536 365.081 95.3698 363.718L88.5838 353.256C87.679 351.861 87.3423 350.49 87.5738 349.141C87.7728 347.814 88.5536 346.708 89.9161 345.824L92.5437 344.12ZM97.6252 362.186C98.6142 363.711 99.7899 364.031 101.152 363.147L103.78 361.443C105.11 360.58 105.281 359.387 104.292 357.862L97.5688 347.497C96.5588 345.94 95.3887 345.593 94.0587 346.456L91.4311 348.16C90.0686 349.044 89.8924 350.264 90.9024 351.821L97.6252 362.186ZM72.7091 356.986C74.0067 356.144 75.3345 355.882 76.6926 356.199C78.0182 356.538 79.1335 357.404 80.0383 358.799L86.8243 369.261C87.708 370.624 88.0342 371.979 87.8027 373.327C87.5388 374.697 86.758 375.803 85.4604 376.644L82.8328 378.349C81.4703 379.232 80.1425 379.495 78.8493 379.135C77.5236 378.797 76.4189 377.946 75.5352 376.584L68.7492 366.122C67.8444 364.727 67.5077 363.355 67.7392 362.007C67.9382 360.679 68.719 359.574 70.0814 358.69L72.7091 356.986ZM77.7906 375.052C78.7796 376.576 79.9553 376.897 81.3178 376.013L83.9454 374.309C85.2755 373.446 85.446 372.252 84.457 370.727L77.7342 360.363C76.7241 358.806 75.5541 358.459 74.2241 359.321L71.5964 361.026C70.234 361.909 70.0577 363.13 71.0677 364.687L77.7906 375.052Z" fill="white"/>
<path d="M108.425 267.478C110.004 267.1 111.357 267.273 112.485 267.996C113.622 268.758 114.393 269.985 114.798 271.677L115.109 272.974C115.199 273.35 115.177 273.673 115.043 273.944C114.881 274.261 114.611 274.465 114.235 274.555L113.728 274.677C113.314 274.776 112.977 274.697 112.717 274.442C112.466 274.224 112.305 273.964 112.232 273.663L111.935 272.422C111.521 270.693 110.58 270.003 109.114 270.355L105.448 271.233C103.981 271.585 103.455 272.625 103.869 274.355L104.248 275.934C104.554 277.213 105.804 277.867 107.999 277.898C108.787 277.869 109.659 277.858 110.616 277.868C111.572 277.877 112.495 277.994 113.384 278.218C114.272 278.443 115.075 278.807 115.792 279.311C116.481 279.862 116.952 280.664 117.204 281.717L117.663 283.634C118.051 285.251 117.91 286.657 117.242 287.85C116.583 289.082 115.464 289.887 113.884 290.265L110.218 291.144C108.639 291.522 107.295 291.307 106.187 290.499C105.05 289.738 104.288 288.549 103.901 286.932L103.685 286.029C103.613 285.729 103.634 285.405 103.75 285.059C103.866 284.713 104.131 284.491 104.545 284.392L104.94 284.297C105.767 284.099 106.289 284.451 106.505 285.354L106.721 286.256C107.126 287.948 108.062 288.619 109.529 288.267L113.195 287.389C114.662 287.037 115.192 286.016 114.787 284.324L114.341 282.462C114.242 282.049 113.931 281.666 113.409 281.314C112.888 280.961 111.994 280.798 110.727 280.823C109.817 280.842 108.922 280.838 108.041 280.811C107.168 280.821 106.269 280.718 105.343 280.503C104.454 280.279 103.661 279.872 102.963 279.284C102.228 278.705 101.725 277.851 101.455 276.723L101.036 274.974C100.63 273.282 100.762 271.839 101.43 270.645C102.07 269.498 103.179 268.735 104.758 268.357L108.425 267.478ZM88.3926 293.332L83.9193 274.662C83.8562 274.399 83.9014 274.09 84.055 273.735C84.1799 273.427 84.4492 273.223 84.8628 273.124L85.2012 273.043C85.6149 272.944 85.966 272.999 86.2547 273.208C86.5148 273.464 86.6764 273.723 86.7394 273.986L91.2127 292.656L95.2174 291.696C95.443 291.642 95.7288 291.673 96.0746 291.789C96.4205 291.905 96.6475 292.189 96.7556 292.64L96.8502 293.035C96.9493 293.448 96.8898 293.781 96.6716 294.032C96.4624 294.32 96.2075 294.501 95.9066 294.573L85.0772 297.168C84.6635 297.267 84.3312 297.207 84.0801 296.989C83.829 296.771 83.6674 296.511 83.5954 296.211L83.5008 295.816C83.4197 295.477 83.4604 295.149 83.623 294.832C83.7569 294.562 84.0119 294.381 84.3879 294.291L88.3926 293.332ZM65.3027 277.81C66.882 277.432 68.2355 277.605 69.3632 278.329C70.4623 279.099 71.2146 280.33 71.62 282.022L74.4851 293.98C74.8725 295.597 74.7509 296.998 74.1203 298.183C73.4611 299.414 72.3419 300.219 70.7626 300.597L66.9271 301.516C65.3478 301.895 63.9853 301.685 62.8396 300.886C61.7029 300.124 60.9408 298.935 60.5534 297.318L57.6883 285.36C57.2829 283.668 57.4143 282.225 58.0825 281.031C58.7597 279.875 59.888 279.108 61.4673 278.729L65.3027 277.81ZM63.43 296.629C63.8354 298.321 64.7714 298.991 66.2379 298.64L70.0733 297.721C71.5398 297.37 72.0703 296.348 71.6649 294.656L68.8133 282.755C68.3989 281.025 67.4584 280.336 65.9919 280.687L62.1565 281.606C60.69 281.957 60.164 282.998 60.5784 284.728L63.43 296.629ZM45.7615 290.962L44.1398 284.193C44.0767 283.93 44.1032 283.626 44.2191 283.28C44.344 282.971 44.6133 282.768 45.0269 282.669L45.4782 282.561C45.8918 282.461 46.2385 282.498 46.5181 282.669C46.7692 282.887 46.9353 283.166 47.0164 283.504L51.8681 303.753C51.9492 304.091 51.9272 304.415 51.8023 304.723C51.6398 305.04 51.3517 305.248 50.938 305.348L44.0568 306.996C42.4775 307.375 41.1338 307.16 40.0257 306.352C38.9266 305.581 38.1833 304.388 37.7959 302.771L36.8499 298.823C36.4715 297.243 36.5931 295.842 37.2147 294.62C37.8363 293.397 38.9367 292.597 40.516 292.219L45.7615 290.962ZM40.5597 302.109C40.9651 303.801 41.9011 304.471 43.3676 304.12L48.6131 302.863L46.4643 293.895L41.2188 295.152C40.5419 295.314 40.0605 295.628 39.7746 296.094C39.4511 296.569 39.4019 297.277 39.6272 298.217L40.5597 302.109Z" fill="white"/>
<path d="M101.767 211.965C103.286 212.257 104.433 212.95 105.206 214.044C105.942 215.131 106.146 216.528 105.817 218.237L105.357 220.629C105.043 222.262 104.278 223.473 103.063 224.263C103.913 225.372 104.174 226.78 103.845 228.489L103.428 230.653C103.1 232.362 102.392 233.584 101.305 234.32C100.181 235.049 98.8591 235.267 97.3403 234.975L94.0368 234.339C92.518 234.047 91.3907 233.358 90.6547 232.271C89.9187 231.184 89.7151 229.787 90.0439 228.078L90.4603 225.914C90.7964 224.167 91.542 222.952 92.6973 222.269C91.9 221.092 91.6584 219.687 91.9725 218.054L92.4328 215.662C92.7615 213.953 93.4692 212.731 94.5558 211.995C95.6424 211.259 96.9452 211.037 98.464 211.329L101.767 211.965ZM92.7208 228.593C92.392 230.302 93.0061 231.306 94.5628 231.605L97.8663 232.241C99.423 232.541 100.366 231.836 100.695 230.127L101.111 227.963C101.447 226.216 100.837 225.193 99.2799 224.894L95.9765 224.258C94.4197 223.959 93.4733 224.682 93.1372 226.429L92.7208 228.593ZM94.6604 218.512C94.3316 220.221 94.9457 221.225 96.5024 221.524L99.8059 222.16C101.363 222.459 102.305 221.755 102.634 220.046L103.083 217.711C103.412 216.002 102.798 214.998 101.241 214.699L97.938 214.063C96.3812 213.764 95.4384 214.468 95.1097 216.177L94.6604 218.512ZM78.7645 207.539C80.2833 207.831 81.4224 208.562 82.1817 209.732C82.9031 210.895 83.1067 212.292 82.7925 213.925L80.4365 226.171C80.1297 227.765 79.4256 228.969 78.3244 229.781C77.1852 230.585 75.8562 230.841 74.3374 230.549L71.2618 229.957C69.6671 229.651 68.528 228.92 67.8446 227.764C67.1233 226.602 66.916 225.223 67.2229 223.628L69.5789 211.383C69.893 209.75 70.6007 208.528 71.7019 207.716C72.7652 206.897 74.0942 206.641 75.6889 206.947L78.7645 207.539ZM69.9107 224.086C69.5674 225.871 70.1931 226.917 71.7878 227.224L74.8634 227.815C76.4202 228.115 77.3702 227.372 77.7136 225.588L80.0477 213.456C80.3984 211.634 79.7953 210.573 78.2385 210.273L75.1629 209.681C73.5682 209.374 72.5955 210.132 72.2448 211.955L69.9107 224.086ZM55.5485 203.072C57.0673 203.365 58.2064 204.096 58.9657 205.266C59.6871 206.428 59.8907 207.826 59.5765 209.458L57.2205 221.704C56.9137 223.299 56.2096 224.502 55.1084 225.314C53.9692 226.118 52.6402 226.375 51.1214 226.082L48.0458 225.491C46.4511 225.184 45.312 224.453 44.6286 223.298C43.9073 222.135 43.7 220.756 44.0069 219.162L46.3629 206.916C46.677 205.283 47.3847 204.061 48.4859 203.249C49.5492 202.43 50.8782 202.174 52.4729 202.481L55.5485 203.072ZM46.6947 219.62C46.3514 221.404 46.9771 222.45 48.5718 222.757L51.6474 223.349C53.2042 223.648 54.1542 222.906 54.4976 221.121L56.8317 208.989C57.1824 207.167 56.5793 206.106 55.0225 205.806L51.9469 205.215C50.3522 204.908 49.3795 205.666 49.0288 207.488L46.6947 219.62Z" fill="white"/>
<path d="M118.944 155.696C119.251 155.433 119.559 155.31 119.871 155.326C120.129 155.353 120.355 155.43 120.551 155.555L120.844 155.742C121.137 155.93 121.317 156.115 121.385 156.296C121.399 156.489 121.386 156.687 121.347 156.892C121.275 157.075 121.187 157.249 121.083 157.411C120.946 157.553 120.857 157.657 120.815 157.722L105.113 170.186L111.657 174.379C111.917 174.546 112.093 174.773 112.184 175.061C112.254 175.382 112.185 175.705 111.976 176.031L111.789 176.324C111.559 176.682 111.295 176.88 110.995 176.917C110.695 176.955 110.415 176.89 110.155 176.723L101.951 171.466C101.69 171.299 101.514 171.072 101.423 170.784C101.3 170.475 101.353 170.142 101.582 169.783L101.739 169.539C101.906 169.279 102.101 169.082 102.323 168.949L118.944 155.696ZM102.255 143.831C103.557 144.665 104.344 145.767 104.615 147.135C104.854 148.482 104.525 149.855 103.628 151.255L96.9001 161.754C96.0239 163.122 94.924 163.978 93.6002 164.324C92.2439 164.649 90.9146 164.394 89.6124 163.56L86.9753 161.87C85.608 160.994 84.8211 159.893 84.6147 158.566C84.3758 157.219 84.6944 155.862 85.5706 154.495L92.2984 143.995C93.1955 142.595 94.3059 141.723 95.6296 141.377C96.9208 141.01 98.2501 141.265 99.6175 142.141L102.255 143.831ZM87.8971 155.917C86.9166 157.447 87.11 158.65 88.4774 159.526L91.1144 161.216C92.4492 162.071 93.6069 161.734 94.5874 160.204L101.253 149.802C102.254 148.239 102.087 147.03 100.752 146.175L98.1154 144.485C96.7481 143.609 95.5637 143.952 94.5624 145.515L87.8971 155.917ZM82.3488 131.076C83.6511 131.91 84.4379 133.011 84.7094 134.379C84.9484 135.726 84.6193 137.1 83.7223 138.5L76.9944 148.999C76.1182 150.367 75.0183 151.223 73.6945 151.569C72.3382 151.894 71.0089 151.639 69.7067 150.805L67.0696 149.115C65.7023 148.239 64.9154 147.137 64.709 145.811C64.4701 144.464 64.7887 143.107 65.6649 141.739L72.3927 131.24C73.2898 129.84 74.4002 128.967 75.7239 128.621C77.0151 128.255 78.3444 128.51 79.7118 129.386L82.3488 131.076ZM67.9914 143.161C67.0109 144.691 67.2043 145.895 68.5717 146.771L71.2087 148.461C72.5435 149.316 73.7012 148.978 74.6817 147.448L81.347 137.047C82.3483 135.484 82.1816 134.275 80.8468 133.42L78.2097 131.73C76.8424 130.854 75.658 131.197 74.6567 132.76L67.9914 143.161Z" fill="white"/>
<path d="M170.096 111.394C170.997 112.651 171.31 113.949 171.033 115.289C170.757 116.629 169.943 117.783 168.591 118.752L158.456 126.017C157.136 126.963 155.797 127.352 154.44 127.183C153.082 127.015 151.952 126.302 151.051 125.045L147.639 120.283C147.458 120.032 147.379 119.756 147.401 119.454C147.401 119.122 147.573 118.832 147.919 118.584L148.202 118.381C148.516 118.156 148.846 118.086 149.193 118.17C149.485 118.246 149.721 118.41 149.901 118.661L153.314 123.423C154.238 124.711 155.438 124.826 156.915 123.767L159.649 121.808L156.608 117.565C155.662 116.245 155.339 114.931 155.638 113.622C155.914 112.282 156.728 111.128 158.079 110.159L160.955 108.098C162.306 107.13 163.661 106.73 165.019 106.898C166.354 107.035 167.495 107.764 168.441 109.084L170.096 111.394ZM159.715 112.341C158.238 113.4 157.972 114.589 158.918 115.909L161.959 120.152L166.956 116.57C168.465 115.489 168.757 114.304 167.834 113.016L166.178 110.706C165.232 109.386 164.004 109.266 162.496 110.348L159.715 112.341ZM156.715 92.7251C157.616 93.9822 157.94 95.2964 157.686 96.6678C157.409 98.0077 156.595 99.162 155.244 100.131L145.109 107.395C143.789 108.341 142.45 108.73 141.092 108.562C139.712 108.362 138.571 107.633 137.67 106.376L135.846 103.83C134.899 102.51 134.576 101.196 134.875 99.8877C135.151 98.5478 135.95 97.4047 137.27 96.4586L147.405 89.1939C148.756 88.2253 150.111 87.8252 151.469 87.9938C152.804 88.131 153.944 88.8595 154.891 90.1795L156.715 92.7251ZM138.905 98.6405C137.428 99.6992 137.162 100.889 138.108 102.208L139.933 104.754C140.857 106.043 142.057 106.158 143.534 105.099L153.575 97.9016C155.084 96.8204 155.376 95.6355 154.452 94.347L152.628 91.8014C151.682 90.4814 150.454 90.3621 148.946 91.4433L138.905 98.6405ZM142.942 73.5096C143.843 74.7667 144.167 76.0809 143.913 77.4523C143.636 78.7922 142.822 79.9465 141.471 80.9151L131.336 88.1799C130.016 89.126 128.677 89.5147 127.319 89.3462C125.939 89.1462 124.798 88.4176 123.897 87.1605L122.072 84.6149C121.126 83.295 120.803 81.9807 121.102 80.6722C121.378 79.3323 122.176 78.1893 123.496 77.2432L133.632 69.9784C134.983 69.0098 136.338 68.6098 137.695 68.7783C139.031 68.9155 140.171 69.644 141.117 70.964L142.942 73.5096ZM125.132 79.425C123.655 80.4837 123.389 81.6731 124.335 82.993L126.16 85.5386C127.083 86.8271 128.284 86.942 129.761 85.8833L139.802 78.6862C141.31 77.6049 141.603 76.42 140.679 75.1315L138.855 72.5859C137.909 71.2659 136.681 71.1466 135.173 72.2278L125.132 79.425Z" fill="white"/>
<path d="M389.412 290.258C389.031 290.196 388.785 290.019 388.675 289.728C388.566 289.436 388.532 289.156 388.575 288.889L391.529 270.566L388.847 271.896C388.689 271.909 388.508 271.939 388.304 271.984C388.107 271.992 387.913 271.98 387.723 271.949C387.57 271.925 387.43 271.824 387.301 271.646C387.218 271.437 387.21 271.122 387.277 270.703L387.314 270.473C387.419 269.825 387.725 269.384 388.232 269.153L392.294 267.281C392.63 267.14 392.932 267.09 393.199 267.133L393.542 267.189C393.886 267.244 394.113 267.418 394.222 267.71C394.332 268.002 394.365 268.281 394.322 268.548L390.98 289.277C390.937 289.544 390.818 289.799 390.622 290.041C390.426 290.284 390.157 290.378 389.813 290.322L389.412 290.258ZM406.052 292.94C404.449 292.682 403.288 291.985 402.57 290.851C401.852 289.717 401.625 288.329 401.89 286.688L402.102 285.371C402.151 285.066 402.271 284.811 402.46 284.606C402.694 284.37 403.002 284.282 403.384 284.344L403.842 284.418C404.224 284.479 404.489 284.659 404.636 284.957C404.79 285.217 404.843 285.499 404.793 285.805L404.59 287.065C404.295 288.897 404.93 289.939 406.495 290.191L408.9 290.579C410.465 290.832 411.395 290.041 411.691 288.209L412.365 284.029C412.518 283.075 412.435 282.376 412.115 281.933C411.801 281.451 411.243 281.146 410.442 281.017L407.464 280.537C407.006 280.463 406.672 280.468 406.463 280.552C406.253 280.635 406.098 280.747 405.997 280.888C405.776 281.048 405.605 281.255 405.486 281.51C405.353 281.606 405.201 281.699 405.03 281.789C404.858 281.879 404.639 281.902 404.372 281.859L403.799 281.767C403.418 281.706 403.153 281.526 403.005 281.228C402.896 280.936 402.862 280.656 402.905 280.389L404.548 270.197C404.591 269.93 404.711 269.675 404.907 269.432C405.141 269.196 405.448 269.108 405.83 269.17L415.736 270.767C416.5 270.89 416.817 271.352 416.688 272.154L416.632 272.497C416.503 273.299 416.057 273.638 415.293 273.515L406.99 272.177L406.077 277.846C406.495 277.678 407.105 277.659 407.907 277.788L410.885 278.268C412.412 278.514 413.559 279.169 414.328 280.233C415.096 281.297 415.339 282.707 415.056 284.463L414.373 288.7C414.108 290.342 413.438 291.585 412.362 292.43C411.285 293.275 409.984 293.574 408.457 293.328L406.052 292.94ZM428.222 296.514C426.695 296.268 425.535 295.572 424.74 294.425C423.984 293.285 423.738 291.894 424.003 290.253L425.987 277.942C426.246 276.338 426.913 275.114 427.989 274.269C429.104 273.431 430.424 273.135 431.951 273.381L435.043 273.879C436.647 274.138 437.807 274.834 438.525 275.968C439.282 277.108 439.53 278.48 439.272 280.083L437.287 292.394C437.023 294.036 436.352 295.279 435.276 296.124C434.238 296.975 432.917 297.271 431.314 297.012L428.222 296.514ZM436.571 279.707C436.861 277.912 436.204 276.886 434.6 276.628L431.508 276.129C429.943 275.877 429.016 276.648 428.727 278.442L426.761 290.639C426.465 292.471 427.1 293.513 428.665 293.765L431.757 294.264C433.361 294.522 434.31 293.735 434.605 291.903L436.571 279.707ZM451.563 300.277C450.036 300.031 448.875 299.334 448.081 298.188C447.324 297.048 447.079 295.657 447.343 294.015L449.328 281.704C449.586 280.101 450.254 278.877 451.33 278.032C452.444 277.193 453.765 276.897 455.292 277.143L458.384 277.642C459.987 277.9 461.148 278.597 461.866 279.731C462.622 280.871 462.871 282.243 462.612 283.846L460.628 296.157C460.363 297.798 459.693 299.042 458.617 299.886C457.579 300.737 456.258 301.034 454.655 300.775L451.563 300.277ZM459.912 283.469C460.201 281.675 459.544 280.649 457.941 280.39L454.849 279.892C453.284 279.64 452.356 280.41 452.067 282.205L450.101 294.401C449.806 296.234 450.441 297.276 452.006 297.528L455.098 298.027C456.701 298.285 457.65 297.498 457.946 295.666L459.912 283.469Z" fill="white"/>
<path d="M367.822 231.249C367.522 231.321 367.226 231.332 366.936 231.283C366.683 231.224 366.539 231.12 366.503 230.969L366.232 229.841C366.187 229.653 366.268 229.495 366.475 229.365C366.711 229.189 366.98 229.065 367.281 228.993L374.894 227.164C375.195 227.092 375.472 227.085 375.724 227.144C375.997 227.118 376.16 227.218 376.214 227.444L376.485 228.572C376.521 228.722 376.421 228.886 376.185 229.062C375.986 229.229 375.737 229.348 375.436 229.42L367.822 231.249ZM392.569 235.327C392.193 235.417 391.898 235.349 391.684 235.122C391.471 234.895 391.332 234.65 391.269 234.386L386.935 216.339L384.973 218.6C384.831 218.674 384.676 218.771 384.506 218.891C384.327 218.974 384.143 219.038 383.955 219.083C383.805 219.119 383.637 219.08 383.45 218.966C383.292 218.805 383.164 218.518 383.064 218.104L383.01 217.879C382.857 217.239 382.969 216.715 383.348 216.306L386.375 213.014C386.631 212.754 386.89 212.592 387.153 212.529L387.492 212.448C387.83 212.367 388.106 212.44 388.32 212.667C388.533 212.894 388.672 213.139 388.735 213.402L393.638 233.818C393.701 234.081 393.689 234.362 393.602 234.661C393.515 234.961 393.302 235.151 392.963 235.232L392.569 235.327ZM409.126 231.351C407.622 231.712 406.283 231.516 405.108 230.765C403.971 230.004 403.209 228.815 402.82 227.198L399.908 215.073C399.529 213.494 399.673 212.107 400.341 210.913C401.046 209.71 402.151 208.928 403.655 208.566L406.7 207.835C408.279 207.456 409.618 207.651 410.718 208.421C411.855 209.182 412.613 210.352 412.992 211.931L415.904 224.056C416.293 225.673 416.153 227.078 415.485 228.273C414.855 229.458 413.751 230.24 412.172 230.619L409.126 231.351ZM410.355 212.624C409.931 210.857 408.929 210.163 407.35 210.542L404.305 211.273C402.763 211.644 402.205 212.712 402.629 214.479L405.514 226.492C405.947 228.296 406.935 229.014 408.476 228.643L411.522 227.912C413.101 227.533 413.674 226.441 413.24 224.636L410.355 212.624ZM432.115 225.83C430.611 226.191 429.271 225.996 428.097 225.244C426.96 224.483 426.197 223.294 425.809 221.678L422.897 209.552C422.517 207.973 422.662 206.587 423.329 205.392C424.034 204.189 425.139 203.407 426.643 203.046L429.688 202.314C431.267 201.935 432.607 202.13 433.706 202.9C434.843 203.661 435.601 204.831 435.981 206.41L438.893 218.535C439.281 220.152 439.141 221.558 438.474 222.752C437.844 223.937 436.739 224.719 435.16 225.098L432.115 225.83ZM433.344 207.103C432.919 205.336 431.917 204.642 430.338 205.021L427.293 205.753C425.751 206.123 425.193 207.192 425.617 208.959L428.502 220.971C428.935 222.776 429.923 223.493 431.464 223.123L434.51 222.391C436.089 222.012 436.662 220.92 436.228 219.116L433.344 207.103ZM467.623 217.302C464.239 218.115 462.127 216.773 461.287 213.277L460.868 211.528C460.028 208.032 461.3 205.877 464.684 205.064L465.248 204.929C468.594 204.125 470.687 205.472 471.527 208.968L471.946 210.717C472.786 214.213 471.533 216.363 468.187 217.167L467.623 217.302ZM457.931 218.675C457.855 218.853 457.75 219.077 457.616 219.348C457.482 219.619 457.208 219.804 456.795 219.903L456.456 219.984C456.118 220.065 455.841 220.072 455.626 220.005C455.44 219.89 455.286 219.748 455.166 219.578C455.083 219.399 455.019 219.216 454.974 219.028C454.957 218.793 454.95 218.596 454.951 218.437L459.367 194.352C459.406 194.183 459.493 193.964 459.627 193.693C459.798 193.413 460.09 193.224 460.504 193.124L460.786 193.057C461.5 192.885 461.935 193.039 462.09 193.519C462.274 193.952 462.326 194.337 462.248 194.674L457.931 218.675ZM452.01 207.929C448.627 208.742 446.51 207.381 445.661 203.847L445.242 202.098C444.411 198.639 445.687 196.504 449.071 195.691L449.635 195.556C452.981 194.752 455.07 196.08 455.901 199.539L456.32 201.287C457.169 204.821 455.92 206.99 452.574 207.794L452.01 207.929ZM468.551 209.743C468.307 208.728 468.022 208.12 467.696 207.92C467.36 207.682 466.779 207.663 465.952 207.862L465.388 207.997C464.561 208.196 464.033 208.481 463.804 208.855C463.614 209.218 463.635 209.889 463.87 210.867L464.263 212.502C464.498 213.48 464.787 214.106 465.132 214.381C465.505 214.61 466.105 214.625 466.932 214.426L467.496 214.291C468.323 214.092 468.832 213.811 469.023 213.447C469.214 213.083 469.188 212.393 468.944 211.378L468.551 209.743ZM452.925 200.313C452.69 199.335 452.405 198.728 452.07 198.49C451.734 198.253 451.153 198.233 450.326 198.432L449.762 198.567C448.935 198.766 448.407 199.052 448.178 199.425C447.988 199.789 448.009 200.459 448.244 201.437L448.651 203.129C448.885 204.106 449.17 204.714 449.506 204.952C449.87 205.142 450.465 205.139 451.292 204.94L451.856 204.805C452.684 204.606 453.197 204.343 453.397 204.017C453.588 203.653 453.566 202.982 453.331 202.005L452.925 200.313Z" fill="white"/>
<path d="M374.948 181.451C374.634 181.676 374.335 181.724 374.052 181.594C373.768 181.464 373.548 181.289 373.39 181.069L362.579 165.983L361.612 168.816C361.509 168.938 361.401 169.086 361.289 169.262C361.155 169.406 361.009 169.534 360.852 169.647C360.726 169.737 360.555 169.764 360.339 169.729C360.132 169.639 359.905 169.421 359.657 169.076L359.522 168.887C359.139 168.353 359.046 167.825 359.243 167.303L360.808 163.114C360.946 162.776 361.126 162.529 361.346 162.371L361.629 162.168C361.911 161.966 362.195 161.929 362.478 162.059C362.761 162.189 362.982 162.364 363.14 162.584L375.37 179.65C375.528 179.87 375.623 180.135 375.655 180.445C375.687 180.755 375.561 181.012 375.278 181.214L374.948 181.451ZM388.789 171.531C387.532 172.432 386.218 172.756 384.846 172.502C383.507 172.225 382.352 171.411 381.384 170.06L374.12 159.924C373.174 158.604 372.785 157.265 372.954 155.907C373.154 154.527 373.882 153.386 375.14 152.486L377.685 150.661C379.005 149.715 380.32 149.392 381.628 149.691C382.968 149.967 384.111 150.766 385.057 152.086L392.321 162.221C393.29 163.573 393.689 164.927 393.521 166.285C393.384 167.62 392.655 168.761 391.335 169.707L388.789 171.531ZM382.875 153.721C381.816 152.243 380.627 151.978 379.307 152.924L376.761 154.748C375.473 155.672 375.358 156.872 376.416 158.349L383.613 168.391C384.694 169.899 385.879 170.192 387.167 169.268L389.713 167.444C391.033 166.498 391.153 165.271 390.071 163.762L382.875 153.721ZM408.006 157.759C406.748 158.66 405.434 158.984 404.063 158.73C402.723 158.453 401.569 157.639 400.6 156.288L393.336 146.152C392.39 144.832 392.001 143.493 392.17 142.135C392.37 140.755 393.099 139.615 394.356 138.714L396.902 136.889C398.222 135.943 399.536 135.62 400.844 135.919C402.184 136.195 403.327 136.994 404.273 138.314L411.537 148.449C412.506 149.801 412.906 151.155 412.737 152.513C412.6 153.848 411.871 154.989 410.551 155.935L408.006 157.759ZM402.091 139.949C401.033 138.472 399.843 138.206 398.523 139.152L395.978 140.976C394.689 141.9 394.574 143.1 395.633 144.577L402.829 154.619C403.91 156.128 405.095 156.42 406.384 155.497L408.93 153.672C410.25 152.726 410.369 151.499 409.288 149.99L402.091 139.949ZM427.222 143.988C425.965 144.889 424.651 145.212 423.279 144.958C421.939 144.681 420.785 143.867 419.817 142.516L412.552 132.38C411.606 131.06 411.218 129.721 411.386 128.364C411.587 126.983 412.315 125.843 413.572 124.942L416.118 123.117C417.438 122.171 418.752 121.848 420.061 122.147C421.401 122.423 422.544 123.222 423.49 124.542L430.754 134.678C431.722 136.029 432.122 137.384 431.954 138.741C431.816 140.076 431.088 141.217 429.768 142.163L427.222 143.988ZM421.308 126.177C420.249 124.7 419.06 124.434 417.74 125.38L415.194 127.205C413.905 128.128 413.791 129.328 414.849 130.806L422.046 140.847C423.127 142.356 424.312 142.648 425.6 141.725L428.146 139.9C429.466 138.954 429.585 137.727 428.504 136.218L421.308 126.177Z" fill="white"/>
<path d="M347.72 117.37L350.555 119.07C350.821 119.229 351.02 119.461 351.153 119.766C351.272 120.018 351.232 120.309 351.033 120.641L350.795 121.039C350.576 121.404 350.318 121.609 350.019 121.656C349.708 121.649 349.419 121.567 349.154 121.408L346.318 119.708L341.785 127.269C341.626 127.535 341.394 127.734 341.089 127.866C340.804 127.966 340.479 127.906 340.114 127.688L339.766 127.479C339.6 127.379 339.471 127.257 339.378 127.111C339.272 126.912 339.179 126.766 339.1 126.673L330.44 111C330.134 110.457 330.141 109.92 330.459 109.389L330.936 108.593C331.135 108.261 331.39 108.099 331.702 108.105C332 108.059 332.282 108.115 332.547 108.274L345.332 115.938L346.137 114.595C346.296 114.33 346.518 114.147 346.804 114.048C347.109 113.915 347.427 113.948 347.758 114.147L348.107 114.356C348.471 114.574 348.667 114.849 348.694 115.181C348.74 115.479 348.684 115.761 348.525 116.027L347.72 117.37ZM334.379 112.551L340.62 123.798L343.93 118.276L334.379 112.551ZM360.382 105.047C359.587 106.373 358.509 107.193 357.15 107.505C355.811 107.784 354.428 107.496 353.002 106.641L342.307 100.229C340.914 99.3944 340.025 98.3205 339.639 97.0077C339.274 95.6617 339.489 94.3254 340.285 92.9988L341.895 90.3125C342.73 88.9196 343.807 88.1003 345.127 87.8544C346.466 87.5754 347.832 87.8534 349.225 88.6884L359.921 95.1C361.347 95.9549 362.252 97.0388 362.637 98.3516C363.042 99.6313 362.827 100.968 361.992 102.361L360.382 105.047ZM347.873 91.0563C346.315 90.1218 345.118 90.3511 344.283 91.744L342.672 94.4303C341.857 95.79 342.229 96.9371 343.788 97.8715L354.384 104.223C355.975 105.178 357.179 104.975 357.994 103.615L359.604 100.929C360.439 99.5362 360.061 98.3626 358.469 97.4083L347.873 91.0563ZM372.538 84.7695C371.742 86.096 370.665 86.9154 369.306 87.2276C367.967 87.5066 366.584 87.2187 365.158 86.3638L354.462 79.9521C353.069 79.1171 352.18 78.0432 351.795 76.7303C351.43 75.3843 351.645 74.048 352.44 72.7215L354.051 70.0352C354.886 68.6423 355.963 67.8229 357.283 67.5771C358.622 67.298 359.988 67.576 361.381 68.411L372.076 74.8227C373.502 75.6776 374.408 76.7615 374.793 78.0743C375.198 79.354 374.983 80.6903 374.148 82.0832L372.538 84.7695ZM360.029 70.7789C358.47 69.8445 357.274 70.0738 356.439 71.4666L354.828 74.1529C354.013 75.5127 354.385 76.6597 355.944 77.5941L366.539 83.9462C368.131 84.9005 369.335 84.6977 370.15 83.338L371.76 80.6517C372.595 79.2588 372.217 78.0853 370.625 77.131L360.029 70.7789Z" fill="white"/>
<path d="M295.099 95.906C294.87 97.4357 294.228 98.5909 293.173 99.3716C292.118 100.152 290.73 100.414 289.01 100.157L287.346 99.9084C287.078 99.8684 286.822 99.7519 286.577 99.5589C286.338 99.3277 286.247 99.0209 286.304 98.6385L286.381 98.1222C286.438 97.7398 286.612 97.4921 286.903 97.3791C287.199 97.2279 287.481 97.1723 287.749 97.2123L289.412 97.4608C291.133 97.718 292.111 97.0626 292.345 95.4946L292.748 92.7986C292.977 91.2689 292.23 90.3755 290.509 90.1183L288.158 89.7669C286.437 89.5098 285.462 90.1461 285.233 91.6758L284.942 93.6261C284.896 93.9321 284.761 94.1855 284.535 94.3864C284.271 94.5815 283.948 94.6505 283.566 94.5934L283.164 94.5334C282.782 94.4763 282.512 94.3187 282.355 94.0607C282.198 93.8026 282.143 93.5207 282.189 93.2147L282.48 91.2644C282.708 89.7347 281.943 88.8384 280.184 88.5756L278.004 88.2499C276.283 87.9928 275.309 88.629 275.08 90.1587L274.677 92.8548C274.443 94.4227 275.186 95.3353 276.907 95.5924L278.169 95.7809C278.475 95.8267 278.748 95.9651 278.987 96.1963C279.193 96.3836 279.268 96.6684 279.211 97.0508L279.134 97.5671C279.077 97.9495 278.919 98.2192 278.661 98.3761C278.371 98.4891 278.072 98.5227 277.766 98.477L276.504 98.2885C274.783 98.0313 273.533 97.3753 272.752 96.3203C271.971 95.2654 271.695 93.9731 271.924 92.4434L272.327 89.7473C272.549 88.2559 273.188 87.1198 274.243 86.3391C275.298 85.5585 276.686 85.2967 278.407 85.5538L280.587 85.8795C282.384 86.1481 283.626 86.8615 284.314 88.0197C285.347 87.1186 286.744 86.7995 288.503 87.0623L290.912 87.4223C292.633 87.6794 293.884 88.3354 294.665 89.3904C295.445 90.4453 295.724 91.7185 295.501 93.21L295.099 95.906ZM298.509 73.0827C298.28 74.6123 297.597 75.7809 296.46 76.5884C295.329 77.3577 293.941 77.6194 292.296 77.3737L279.963 75.531C278.357 75.291 277.125 74.6378 276.268 73.5715C275.417 72.4668 275.105 71.1497 275.334 69.62L275.797 66.5224C276.037 64.9162 276.72 63.7476 277.845 63.0166C278.977 62.2474 280.346 61.9827 281.952 62.2227L294.285 64.0655C295.929 64.3112 297.18 64.9672 298.037 66.0336C298.9 67.0617 299.212 68.3789 298.972 69.985L298.509 73.0827ZM281.606 64.9274C279.809 64.6588 278.79 65.3276 278.55 66.9338L278.087 70.0314C277.853 71.5993 278.635 72.5176 280.432 72.7861L292.65 74.6117C294.486 74.886 295.521 74.2392 295.755 72.6712L296.218 69.5736C296.458 67.9675 295.66 67.0272 293.825 66.753L281.606 64.9274ZM302.002 49.7004C301.774 51.2301 301.091 52.3987 299.954 53.2062C298.822 53.9754 297.434 54.2372 295.79 53.9915L283.457 52.1488C281.851 51.9088 280.619 51.2556 279.762 50.1892C278.91 49.0846 278.599 47.7674 278.828 46.2378L279.29 43.1401C279.53 41.534 280.213 40.3654 281.339 39.6344C282.47 38.8651 283.839 38.6005 285.445 38.8405L297.778 40.6832C299.423 40.9289 300.674 41.585 301.531 42.6513C302.394 43.6795 302.705 44.9966 302.465 46.6028L302.002 49.7004ZM285.1 41.5451C283.303 41.2766 282.284 41.9454 282.044 43.5516L281.581 46.6492C281.347 48.2171 282.128 49.1353 283.926 49.4039L296.144 51.2295C297.98 51.5038 299.015 50.8569 299.249 49.289L299.712 46.1914C299.952 44.5852 299.154 43.645 297.318 43.3707L285.1 41.5451Z" fill="white"/>
<path d="M228.046 91.0787C228.141 91.4537 228.076 91.7492 227.851 91.9652C227.626 92.1813 227.382 92.3223 227.12 92.3883L209.121 96.9164L211.402 98.8543C211.478 98.9948 211.576 99.1494 211.699 99.3181C211.783 99.4961 211.849 99.6789 211.896 99.8664C211.934 100.016 211.897 100.185 211.785 100.373C211.625 100.533 211.34 100.664 210.927 100.768L210.702 100.825C210.065 100.985 209.539 100.878 209.126 100.503L205.802 97.5121C205.539 97.2593 205.374 97.0016 205.308 96.7392L205.223 96.4017C205.139 96.0642 205.208 95.7874 205.433 95.5714C205.658 95.3554 205.902 95.2143 206.164 95.1483L226.526 90.0259C226.788 89.9599 227.069 89.9689 227.37 90.0528C227.67 90.1368 227.862 90.3475 227.947 90.685L228.046 91.0787ZM223.934 74.7336C224.331 76.3085 224.15 77.6498 223.392 78.7576C222.634 79.8653 221.449 80.622 219.836 81.0276L218.542 81.3531C218.243 81.4285 217.961 81.4196 217.698 81.3262C217.389 81.2047 217.187 80.9565 217.092 80.5815L216.979 80.1315C216.885 79.7566 216.945 79.4423 217.161 79.1888C217.339 78.9447 217.577 78.7849 217.877 78.7094L219.115 78.3981C220.915 77.9453 221.621 76.9502 221.235 75.4128L220.64 73.0504C220.254 71.513 219.16 70.9707 217.36 71.4235L213.254 72.4564C212.317 72.6923 211.708 73.0448 211.427 73.5142C211.109 73.9929 211.049 74.626 211.247 75.4135L211.983 78.3383C212.096 78.7883 212.232 79.0929 212.392 79.2521C212.552 79.4113 212.716 79.5095 212.885 79.5468C213.12 79.6871 213.378 79.7617 213.659 79.7707C213.8 79.8549 213.945 79.9578 214.095 80.0795C214.246 80.2012 214.354 80.3933 214.42 80.6558L214.561 81.2183C214.656 81.5933 214.595 81.9075 214.38 82.161C214.155 82.3771 213.911 82.5181 213.649 82.5841L203.637 85.1029C203.374 85.1689 203.093 85.1599 202.793 85.076C202.483 84.9545 202.281 84.7063 202.187 84.3313L199.739 74.6005C199.55 73.8506 199.85 73.3765 200.637 73.1784L200.975 73.0935C201.762 72.8954 202.25 73.1713 202.439 73.9213L204.491 82.0772L210.059 80.6763C209.74 80.3579 209.481 79.805 209.283 79.0176L208.547 76.0927C208.17 74.5928 208.318 73.2796 208.991 72.1532C209.665 71.0269 210.864 70.2467 212.589 69.8128L216.751 68.7657C218.364 68.36 219.771 68.4846 220.972 69.1393C222.173 69.7939 222.963 70.8713 223.34 72.3712L223.934 74.7336ZM218.456 52.9557C218.833 54.4556 218.652 55.797 217.913 56.9797C217.165 58.1249 215.984 58.9004 214.372 59.306L202.278 62.3483C200.704 62.7445 199.315 62.6153 198.114 61.9606C196.903 61.2684 196.109 60.1723 195.732 58.6724L194.968 55.635C194.572 54.0601 194.752 52.7188 195.51 51.611C196.259 50.4658 197.421 49.6951 198.996 49.2989L211.089 46.2566C212.701 45.851 214.108 45.9755 215.309 46.6302C216.501 47.2474 217.295 48.3434 217.692 49.9184L218.456 52.9557ZM199.717 51.9284C197.955 52.3717 197.271 53.3809 197.668 54.9558L198.432 57.9932C198.818 59.5306 199.893 60.0776 201.656 59.6343L213.636 56.6203C215.436 56.1675 216.143 55.1724 215.756 53.6349L214.992 50.5976C214.596 49.0226 213.498 48.4616 211.698 48.9144L199.717 51.9284Z" fill="white"/>
<g filter="url(#filter16_d_19_84)">
<circle cx="250" cy="250" r="45" fill="#301E1E"/>
<circle cx="250" cy="250" r="43.5" stroke="white" stroke-width="3"/>
</g>
</g>
<defs>
<filter id="filter0_i_19_84" x="250" y="250" width="250.007" height="95.5728" filterUnits="userSpaceOnUse" color-interpolation-filters="sRGB">
<feFlood flood-opacity="0" result="BackgroundImageFix"/>
<feBlend mode="normal" in="SourceGraphic" in2="BackgroundImageFix" result="shape"/>
<feColorMatrix in="SourceAlpha" type="matrix" values="0 0 0 0 0 0 0 0 0 0 0 0 0 0 0 0 0 0 127 0" result="hardAlpha"/>
<feOffset/>
<feGaussianBlur stdDeviation="10"/>
<feComposite in2="hardAlpha" operator="arithmetic" k2="-1" k3="1"/>
<feColorMatrix type="matrix" values="0 0 0 0 0 0 0 0 0 0 0 0 0 0 0 0 0 0 0.31 0"/>
<feBlend mode="normal" in2="shape" result="effect1_innerShadow_19_84"/>
</filter>
<filter id="filter1_i_19_84" x="250" y="250" width="231.763" height="176.777" filterUnits="userSpaceOnUse" color-interpolation-filters="sRGB">
<feFlood flood-opacity="0" result="BackgroundImageFix"/>
<feBlend mode="normal" in="SourceGraphic" in2="BackgroundImageFix" result="shape"/>
<feColorMatrix in="SourceAlpha" type="matrix" values="0 0 0 0 0 0 0 0 0 0 0 0 0 0 0 0 0 0 127 0" result="hardAlpha"/>
<feOffset/>
<feGaussianBlur stdDeviation="10"/>
<feComposite in2="hardAlpha" operator="arithmetic" k2="-1" k3="1"/>
<feColorMatrix type="matrix" values="0 0 0 0 0 0 0 0 0 0 0 0 0 0 0 0 0 0 0.31 0"/>
<feBlend mode="normal" in2="shape" result="effect1_innerShadow_19_84"/>
</filter>
<filter id="filter2_i_19_84" x="250" y="250" width="176.777" height="231.763" filterUnits="userSpaceOnUse" color-interpolation-filters="sRGB">
<feFlood flood-opacity="0" result="BackgroundImageFix"/>
<feBlend mode="normal" in="SourceGraphic" in2="BackgroundImageFix" result="shape"/>
<feColorMatrix in="SourceAlpha" type="matrix" values="0 0 0 0 0 0 0 0 0 0 0 0 0 0 0 0 0 0 127 0" result="hardAlpha"/>
<feOffset/>
<feGaussianBlur stdDeviation="10"/>
<feComposite in2="hardAlpha" operator="arithmetic" k2="-1" k3="1"/>
<feColorMatrix type="matrix" values="0 0 0 0 0 0 0 0 0 0 0 0 0 0 0 0 0 0 0.31 0"/>
<feBlend mode="normal" in2="shape" result="effect1_innerShadow_19_84"/>
</filter>
<filter id="filter3_i_19_84" x="250" y="250" width="95.5728" height="250.007" filterUnits="userSpaceOnUse" color-interpolation-filters="sRGB">
<feFlood flood-opacity="0" result="BackgroundImageFix"/>
<feBlend mode="normal" in="SourceGraphic" in2="BackgroundImageFix" result="shape"/>
<feColorMatrix in="SourceAlpha" type="matrix" values="0 0 0 0 0 0 0 0 0 0 0 0 0 0 0 0 0 0 127 0" result="hardAlpha"/>
<feOffset/>
<feGaussianBlur stdDeviation="10"/>
<feComposite in2="hardAlpha" operator="arithmetic" k2="-1" k3="1"/>
<feColorMatrix type="matrix" values="0 0 0 0 0 0 0 0 0 0 0 0 0 0 0 0 0 0 0.31 0"/>
<feBlend mode="normal" in2="shape" result="effect1_innerShadow_19_84"/>
</filter>
<filter id="filter4_i_19_84" x="154.427" y="250" width="95.5728" height="250.007" filterUnits="userSpaceOnUse" color-interpolation-filters="sRGB">
<feFlood flood-opacity="0" result="BackgroundImageFix"/>
<feBlend mode="normal" in="SourceGraphic" in2="BackgroundImageFix" result="shape"/>
<feColorMatrix in="SourceAlpha" type="matrix" values="0 0 0 0 0 0 0 0 0 0 0 0 0 0 0 0 0 0 127 0" result="hardAlpha"/>
<feOffset/>
<feGaussianBlur stdDeviation="10"/>
<feComposite in2="hardAlpha" operator="arithmetic" k2="-1" k3="1"/>
<feColorMatrix type="matrix" values="0 0 0 0 0 0 0 0 0 0 0 0 0 0 0 0 0 0 0.31 0"/>
<feBlend mode="normal" in2="shape" result="effect1_innerShadow_19_84"/>
</filter>
<filter id="filter5_i_19_84" x="73.2233" y="250" width="176.777" height="231.763" filterUnits="userSpaceOnUse" color-interpolation-filters="sRGB">
<feFlood flood-opacity="0" result="BackgroundImageFix"/>
<feBlend mode="normal" in="SourceGraphic" in2="BackgroundImageFix" result="shape"/>
<feColorMatrix in="SourceAlpha" type="matrix" values="0 0 0 0 0 0 0 0 0 0 0 0 0 0 0 0 0 0 127 0" result="hardAlpha"/>
<feOffset/>
<feGaussianBlur stdDeviation="10"/>
<feComposite in2="hardAlpha" operator="arithmetic" k2="-1" k3="1"/>
<feColorMatrix type="matrix" values="0 0 0 0 0 0 0 0 0 0 0 0 0 0 0 0 0 0 0.31 0"/>
<feBlend mode="normal" in2="shape" result="effect1_innerShadow_19_84"/>
</filter>
<filter id="filter6_i_19_84" x="18.2372" y="250" width="231.763" height="176.777" filterUnits="userSpaceOnUse" color-interpolation-filters="sRGB">
<feFlood flood-opacity="0" result="BackgroundImageFix"/>
<feBlend mode="normal" in="SourceGraphic" in2="BackgroundImageFix" result="shape"/>
<feColorMatrix in="SourceAlpha" type="matrix" values="0 0 0 0 0 0 0 0 0 0 0 0 0 0 0 0 0 0 127 0" result="hardAlpha"/>
<feOffset/>
<feGaussianBlur stdDeviation="10"/>
<feComposite in2="hardAlpha" operator="arithmetic" k2="-1" k3="1"/>
<feColorMatrix type="matrix" values="0 0 0 0 0 0 0 0 0 0 0 0 0 0 0 0 0 0 0.31 0"/>
<feBlend mode="normal" in2="shape" result="effect1_innerShadow_19_84"/>
</filter>
<filter id="filter7_i_19_84" x="-0.00665283" y="250" width="250.007" height="95.5728" filterUnits="userSpaceOnUse" color-interpolation-filters="sRGB">
<feFlood flood-opacity="0" result="BackgroundImageFix"/>
<feBlend mode="normal" in="SourceGraphic" in2="BackgroundImageFix" result="shape"/>
<feColorMatrix in="SourceAlpha" type="matrix" values="0 0 0 0 0 0 0 0 0 0 0 0 0 0 0 0 0 0 127 0" result="hardAlpha"/>
<feOffset/>
<feGaussianBlur stdDeviation="10"/>
<feComposite in2="hardAlpha" operator="arithmetic" k2="-1" k3="1"/>
<feColorMatrix type="matrix" values="0 0 0 0 0 0 0 0 0 0 0 0 0 0 0 0 0 0 0.31 0"/>
<feBlend mode="normal" in2="shape" result="effect1_innerShadow_19_84"/>
</filter>
<filter id="filter8_i_19_84" x="-0.00665283" y="154.427" width="250.007" height="95.5728" filterUnits="userSpaceOnUse" color-interpolation-filters="sRGB">
<feFlood flood-opacity="0" result="BackgroundImageFix"/>
<feBlend mode="normal" in="SourceGraphic" in2="BackgroundImageFix" result="shape"/>
<feColorMatrix in="SourceAlpha" type="matrix" values="0 0 0 0 0 0 0 0 0 0 0 0 0 0 0 0 0 0 127 0" result="hardAlpha"/>
<feOffset/>
<feGaussianBlur stdDeviation="10"/>
<feComposite in2="hardAlpha" operator="arithmetic" k2="-1" k3="1"/>
<feColorMatrix type="matrix" values="0 0 0 0 0 0 0 0 0 0 0 0 0 0 0 0 0 0 0.31 0"/>
<feBlend mode="normal" in2="shape" result="effect1_innerShadow_19_84"/>
</filter>
<filter id="filter9_i_19_84" x="18.2372" y="73.2234" width="231.763" height="176.777" filterUnits="userSpaceOnUse" color-interpolation-filters="sRGB">
<feFlood flood-opacity="0" result="BackgroundImageFix"/>
<feBlend mode="normal" in="SourceGraphic" in2="BackgroundImageFix" result="shape"/>
<feColorMatrix in="SourceAlpha" type="matrix" values="0 0 0 0 0 0 0 0 0 0 0 0 0 0 0 0 0 0 127 0" result="hardAlpha"/>
<feOffset/>
<feGaussianBlur stdDeviation="10"/>
<feComposite in2="hardAlpha" operator="arithmetic" k2="-1" k3="1"/>
<feColorMatrix type="matrix" values="0 0 0 0 0 0 0 0 0 0 0 0 0 0 0 0 0 0 0.31 0"/>
<feBlend mode="normal" in2="shape" result="effect1_innerShadow_19_84"/>
</filter>
<filter id="filter10_i_19_84" x="73.2233" y="18.2373" width="176.777" height="231.763" filterUnits="userSpaceOnUse" color-interpolation-filters="sRGB">
<feFlood flood-opacity="0" result="BackgroundImageFix"/>
<feBlend mode="normal" in="SourceGraphic" in2="BackgroundImageFix" result="shape"/>
<feColorMatrix in="SourceAlpha" type="matrix" values="0 0 0 0 0 0 0 0 0 0 0 0 0 0 0 0 0 0 127 0" result="hardAlpha"/>
<feOffset/>
<feGaussianBlur stdDeviation="10"/>
<feComposite in2="hardAlpha" operator="arithmetic" k2="-1" k3="1"/>
<feColorMatrix type="matrix" values="0 0 0 0 0 0 0 0 0 0 0 0 0 0 0 0 0 0 0.31 0"/>
<feBlend mode="normal" in2="shape" result="effect1_innerShadow_19_84"/>
</filter>
<filter id="filter11_i_19_84" x="154.427" y="-0.0065918" width="95.5728" height="250.007" filterUnits="userSpaceOnUse" color-interpolation-filters="sRGB">
<feFlood flood-opacity="0" result="BackgroundImageFix"/>
<feBlend mode="normal" in="SourceGraphic" in2="BackgroundImageFix" result="shape"/>
<feColorMatrix in="SourceAlpha" type="matrix" values="0 0 0 0 0 0 0 0 0 0 0 0 0 0 0 0 0 0 127 0" result="hardAlpha"/>
<feOffset/>
<feGaussianBlur stdDeviation="10"/>
<feComposite in2="hardAlpha" operator="arithmetic" k2="-1" k3="1"/>
<feColorMatrix type="matrix" values="0 0 0 0 0 0 0 0 0 0 0 0 0 0 0 0 0 0 0.31 0"/>
<feBlend mode="normal" in2="shape" result="effect1_innerShadow_19_84"/>
</filter>
<filter id="filter12_i_19_84" x="250" y="-0.0065918" width="95.5728" height="250.007" filterUnits="userSpaceOnUse" color-interpolation-filters="sRGB">
<feFlood flood-opacity="0" result="BackgroundImageFix"/>
<feBlend mode="normal" in="SourceGraphic" in2="BackgroundImageFix" result="shape"/>
<feColorMatrix in="SourceAlpha" type="matrix" values="0 0 0 0 0 0 0 0 0 0 0 0 0 0 0 0 0 0 127 0" result="hardAlpha"/>
<feOffset/>
<feGaussianBlur stdDeviation="10"/>
<feComposite in2="hardAlpha" operator="arithmetic" k2="-1" k3="1"/>
<feColorMatrix type="matrix" values="0 0 0 0 0 0 0 0 0 0 0 0 0 0 0 0 0 0 0.31 0"/>
<feBlend mode="normal" in2="shape" result="effect1_innerShadow_19_84"/>
</filter>
<filter id="filter13_i_19_84" x="250" y="18.2373" width="176.777" height="231.763" filterUnits="userSpaceOnUse" color-interpolation-filters="sRGB">
<feFlood flood-opacity="0" result="BackgroundImageFix"/>
<feBlend mode="normal" in="SourceGraphic" in2="BackgroundImageFix" result="shape"/>
<feColorMatrix in="SourceAlpha" type="matrix" values="0 0 0 0 0 0 0 0 0 0 0 0 0 0 0 0 0 0 127 0" result="hardAlpha"/>
<feOffset/>
<feGaussianBlur stdDeviation="10"/>
<feComposite in2="hardAlpha" operator="arithmetic" k2="-1" k3="1"/>
<feColorMatrix type="matrix" values="0 0 0 0 0 0 0 0 0 0 0 0 0 0 0 0 0 0 0.31 0"/>
<feBlend mode="normal" in2="shape" result="effect1_innerShadow_19_84"/>
</filter>
<filter id="filter14_i_19_84" x="250" y="73.2234" width="231.763" height="176.777" filterUnits="userSpaceOnUse" color-interpolation-filters="sRGB">
<feFlood flood-opacity="0" result="BackgroundImageFix"/>
<feBlend mode="normal" in="SourceGraphic" in2="BackgroundImageFix" result="shape"/>
<feColorMatrix in="SourceAlpha" type="matrix" values="0 0 0 0 0 0 0 0 0 0 0 0 0 0 0 0 0 0 127 0" result="hardAlpha"/>
<feOffset/>
<feGaussianBlur stdDeviation="10"/>
<feComposite in2="hardAlpha" operator="arithmetic" k2="-1" k3="1"/>
<feColorMatrix type="matrix" values="0 0 0 0 0 0 0 0 0 0 0 0 0 0 0 0 0 0 0.31 0"/>
<feBlend mode="normal" in2="shape" result="effect1_innerShadow_19_84"/>
</filter>
<filter id="filter15_i_19_84" x="250" y="154.427" width="250.007" height="95.5728" filterUnits="userSpaceOnUse" color-interpolation-filters="sRGB">
<feFlood flood-opacity="0" result="BackgroundImageFix"/>
<feBlend mode="normal" in="SourceGraphic" in2="BackgroundImageFix" result="shape"/>
<feColorMatrix in="SourceAlpha" type="matrix" values="0 0 0 0 0 0 0 0 0 0 0 0 0 0 0 0 0 0 127 0" result="hardAlpha"/>
<feOffset/>
<feGaussianBlur stdDeviation="10"/>
<feComposite in2="hardAlpha" operator="arithmetic" k2="-1" k3="1"/>
<feColorMatrix type="matrix" values="0 0 0 0 0 0 0 0 0 0 0 0 0 0 0 0 0 0 0.31 0"/>
<feBlend mode="normal" in2="shape" result="effect1_innerShadow_19_84"/>
</filter>
<filter id="filter16_d_19_84" x="168" y="168" width="164" height="164" filterUnits="userSpaceOnUse" color-interpolation-filters="sRGB">
<feFlood flood-opacity="0" result="BackgroundImageFix"/>
<feColorMatrix in="SourceAlpha" type="matrix" values="0 0 0 0 0 0 0 0 0 0 0 0 0 0 0 0 0 0 127 0" result="hardAlpha"/>
<feMorphology radius="20" operator="dilate" in="SourceAlpha" result="effect1_dropShadow_19_84"/>
<feOffset/>
<feGaussianBlur stdDeviation="8.5"/>
<feComposite in2="hardAlpha" operator="out"/>
<feColorMatrix type="matrix" values="0 0 0 0 0 0 0 0 0 0 0 0 0 0 0 0 0 0 0.25 0"/>
<feBlend mode="normal" in2="BackgroundImageFix" result="effect1_dropShadow_19_84"/>
<feBlend mode="normal" in="SourceGraphic" in2="effect1_dropShadow_19_84" result="shape"/>
</filter>
<clipPath id="clip0_19_84">
<rect width="500" height="500" fill="white"/>
</clipPath>
</defs>
</svg>
