<svg width="500" height="500" viewBox="0 0 500 500" fill="none" xmlns="http://www.w3.org/2000/svg">
<g clip-path="url(#clip0_19_84)">
<path d="M250 250H500C500.239 282.745 494.042 315.217 481.763 345.573L250 250Z" fill="#FF00B3"/>
<path d="M250 250L481.763 345.573C468.975 376.006 450.287 403.604 426.777 426.777L250 250Z" fill="#FF6000"/>
<path d="M250 250L426.777 426.777C403.604 450.287 376.006 468.975 345.573 481.763L250 250Z" fill="#FFBF00"/>
<path d="M250 250L345.573 481.763C315.217 494.042 282.745 500.239 250 500V250Z" fill="#301E1E"/>
<path d="M250 250V500C217.255 500.239 184.783 494.042 154.427 481.763L250 250Z" fill="#7FFF00"/>
<path d="M250 250L154.427 481.763C123.994 468.975 96.3956 450.287 73.2233 426.777L250 250Z" fill="#934091"/>
<path d="M250 250L73.2233 426.777C49.7132 403.604 31.0251 376.006 18.2372 345.573L250 250Z" fill="#5C956A"/>
<path d="M250 250L18.2372 345.573C5.95768 315.217 -0.238731 282.745 -8.74791e-06 250H250Z" fill="#301E1E"/>
<path d="M250 250H-8.74791e-06C-0.238731 217.255 5.95768 184.783 18.2372 154.427L250 250Z" fill="#148787"/>
<path d="M250 250L18.2372 154.427C31.0251 123.994 49.7132 96.3956 73.2233 73.2233L250 250Z" fill="#009FFF"/>
<path d="M250 250L73.2233 73.2233C96.3956 49.7132 123.994 31.0251 154.427 18.2372L250 250Z" fill="#0C2981"/>
<path d="M250 250L154.427 18.2372C184.783 5.95768 217.255 -0.238731 250 -8.74791e-06V250Z" fill="#301E1E"/>
<path d="M250 250V-8.74791e-06C282.745 -0.238731 315.217 5.95768 345.573 18.2372L250 250Z" fill="#8000FF"/>
<path d="M250 250L345.573 18.2372C376.006 31.0251 403.604 49.7132 426.777 73.2233L250 250Z" fill="#DF00FF"/>
<path d="M250 250L426.777 73.2233C450.287 96.3956 468.975 123.994 481.763 154.427L250 250Z" fill="#B7108D"/>
<path d="M250 250L481.763 154.427C494.042 184.783 500.239 217.255 500 250H250Z" fill="#301E1E"/>
<path d="M376.403 351.132C374.76 350.027 373.462 348.862 372.509 347.638C371.556 346.414 371.018 345.164 370.895 343.888C370.79 342.624 371.156 341.372 371.991 340.13C372.715 339.053 373.514 338.279 374.389 337.806C375.282 337.346 376.182 337.13 377.092 337.158C378.013 337.168 378.863 337.382 379.642 337.8L379.919 337.39C378.891 336.513 378.267 335.549 378.045 334.499C377.836 333.43 378.143 332.284 378.965 331.061C380.021 329.491 381.501 328.671 383.405 328.599C385.322 328.509 387.512 329.293 389.976 330.951C392.441 332.608 393.984 334.335 394.605 336.132C395.256 337.922 395.054 339.602 393.998 341.172C393.176 342.395 392.23 343.112 391.161 343.321C390.123 343.524 389.004 343.315 387.805 342.694L387.529 343.105C388.228 343.681 388.747 344.388 389.085 345.225C389.454 346.057 389.584 346.966 389.477 347.954C389.387 348.955 388.98 349.993 388.256 351.07C387.421 352.312 386.389 353.116 385.161 353.483C383.952 353.863 382.6 353.842 381.107 353.421C379.614 353 378.046 352.237 376.403 351.132ZM382.363 335.057C382.044 335.531 382.069 336.026 382.439 336.54C382.828 337.066 383.633 337.74 384.856 338.563C386.079 339.386 386.999 339.872 387.614 340.02C388.23 340.169 388.698 340.007 389.017 339.532C389.336 339.057 389.305 338.572 388.922 338.076C388.552 337.562 387.755 336.894 386.532 336.071C385.309 335.249 384.381 334.757 383.747 334.595C383.143 334.428 382.682 334.582 382.363 335.057ZM377.827 340.795C377.508 341.27 377.555 341.792 377.967 342.361C378.392 342.912 379.326 343.672 380.768 344.642C382.246 345.637 383.312 346.221 383.964 346.394C384.647 346.562 385.148 346.408 385.467 345.933C385.786 345.459 385.733 344.946 385.308 344.395C384.902 343.857 383.959 343.09 382.481 342.095C381.038 341.125 379.982 340.548 379.312 340.362C378.641 340.176 378.146 340.32 377.827 340.795ZM396.356 364.552C394.53 363.324 393.319 361.913 392.721 360.318C392.124 358.723 392.061 356.983 392.532 355.1C393.022 353.229 393.954 351.271 395.329 349.226C396.704 347.182 398.178 345.601 399.751 344.485C401.354 343.363 403.013 342.768 404.728 342.702C406.443 342.636 408.177 343.192 409.929 344.371C411.682 345.55 412.851 346.946 413.436 348.559C414.039 350.184 414.115 351.945 413.661 353.841C413.239 355.731 412.34 357.698 410.965 359.742C409.59 361.787 408.119 363.383 406.552 364.529C405.003 365.689 403.378 366.292 401.675 366.34C399.973 366.388 398.2 365.792 396.356 364.552ZM398.654 350.905C398.273 351.471 398.03 352.09 397.923 352.76C397.847 353.425 398.043 354.14 398.509 354.905C399.007 355.663 399.903 356.478 401.199 357.35C402.514 358.234 403.607 358.757 404.479 358.92C405.381 359.076 406.117 358.987 406.686 358.654C407.285 358.315 407.775 357.862 408.156 357.296C408.549 356.712 408.771 356.106 408.822 355.478C408.904 354.843 408.69 354.156 408.181 353.416C407.702 352.669 406.805 351.854 405.491 350.97C404.195 350.098 403.101 349.575 402.211 349.401C401.352 349.22 400.635 349.281 400.06 349.584C399.515 349.881 399.047 350.321 398.654 350.905ZM416.101 377.832C414.276 376.605 413.064 375.193 412.467 373.598C411.869 372.003 411.806 370.264 412.277 368.38C412.767 366.509 413.7 364.551 415.075 362.507C416.45 360.462 417.924 358.882 419.496 357.765C421.1 356.643 422.759 356.049 424.474 355.983C426.189 355.916 427.922 356.473 429.675 357.651C431.427 358.83 432.596 360.226 433.181 361.839C433.785 363.465 433.86 365.226 433.407 367.121C432.984 369.011 432.085 370.978 430.71 373.023C429.335 375.067 427.864 376.663 426.297 377.81C424.749 378.969 423.123 379.573 421.421 379.621C419.718 379.669 417.945 379.072 416.101 377.832ZM418.399 364.186C418.019 364.752 417.775 365.37 417.669 366.041C417.593 366.706 417.788 367.421 418.255 368.185C418.752 368.944 419.649 369.759 420.945 370.631C422.259 371.515 423.352 372.038 424.224 372.2C425.127 372.356 425.862 372.268 426.431 371.935C427.031 371.595 427.521 371.143 427.901 370.577C428.294 369.993 428.516 369.386 428.568 368.758C428.649 368.124 428.436 367.437 427.926 366.696C427.447 365.95 426.55 365.135 425.236 364.251C423.94 363.379 422.847 362.856 421.957 362.681C421.097 362.501 420.38 362.562 419.805 362.865C419.261 363.161 418.792 363.602 418.399 364.186Z" fill="white"/>
<path d="M340.727 384.595C341.452 385.698 341.926 386.781 342.151 387.845C342.388 388.926 342.258 389.972 341.763 390.981C341.299 391.997 340.34 392.982 338.887 393.936C337.619 394.769 336.41 395.234 335.262 395.33C334.145 395.432 333.094 395.254 332.108 394.796C331.154 394.344 330.261 393.706 329.431 392.883C328.619 392.047 327.875 391.115 327.198 390.085C325.665 387.749 324.76 385.751 324.485 384.089C324.228 382.416 324.807 381.114 326.223 380.184C327.216 379.532 328.196 379.362 329.165 379.673C330.151 379.973 330.924 380.689 331.484 381.822C331.923 382.691 332.402 383.64 332.919 384.669C333.437 385.698 334.055 386.739 334.774 387.794C335.245 388.511 335.694 388.953 336.12 389.121C336.576 389.295 337.025 389.237 337.466 388.947C338 388.597 338.296 388.166 338.354 387.654C338.443 387.148 338.252 386.536 337.781 385.819L334.139 380.275C333.487 379.282 333.17 378.398 333.188 377.623C333.205 376.849 333.692 376.147 334.648 375.519L339.199 372.53C340.156 371.902 340.988 371.566 341.696 371.522C342.416 371.496 343.052 371.684 343.605 372.084C344.169 372.503 344.681 373.062 345.14 373.761L350.05 381.236C350.835 382.431 351.117 383.443 350.898 384.271C350.679 385.099 350.137 385.797 349.273 386.365C348.409 386.933 347.534 387.165 346.65 387.061C345.785 386.945 344.959 386.29 344.174 385.094C343.546 384.138 343.13 383.043 342.925 381.809C342.732 380.593 342.792 379.422 343.105 378.296L342.742 377.744L338.191 380.733L340.727 384.595ZM340.293 410.203C339.085 408.364 338.515 406.594 338.581 404.892C338.648 403.19 339.263 401.562 340.427 400.008C341.603 398.472 343.221 397.028 345.281 395.675C347.34 394.322 349.311 393.436 351.193 393.016C353.106 392.602 354.866 392.696 356.472 393.299C358.079 393.902 359.462 395.086 360.622 396.851C361.781 398.617 362.318 400.356 362.233 402.071C362.16 403.803 361.548 405.455 360.396 407.028C359.275 408.607 357.684 410.072 355.625 411.425C353.565 412.778 351.591 413.679 349.703 414.13C347.826 414.599 346.094 414.526 344.505 413.911C342.917 413.296 341.513 412.06 340.293 410.203ZM347.696 398.511C347.126 398.885 346.662 399.361 346.304 399.938C345.976 400.522 345.88 401.256 346.014 402.142C346.179 403.034 346.69 404.133 347.547 405.438C348.417 406.762 349.222 407.668 349.963 408.155C350.735 408.649 351.447 408.852 352.101 408.765C352.785 408.684 353.412 408.456 353.982 408.082C354.57 407.696 355.01 407.223 355.3 406.663C355.622 406.11 355.691 405.394 355.507 404.514C355.355 403.64 354.844 402.541 353.974 401.217C353.117 399.912 352.311 399.006 351.558 398.501C350.836 398.002 350.151 397.78 349.503 397.837C348.887 397.9 348.284 398.124 347.696 398.511ZM353.356 430.093C352.149 428.254 351.578 426.483 351.645 424.782C351.711 423.08 352.327 421.452 353.49 419.897C354.666 418.362 356.284 416.918 358.344 415.565C360.403 414.212 362.374 413.326 364.256 412.906C366.169 412.492 367.929 412.586 369.536 413.189C371.142 413.792 372.525 414.976 373.685 416.741C374.844 418.507 375.382 420.246 375.296 421.96C375.224 423.693 374.611 425.345 373.459 426.918C372.338 428.496 370.747 429.962 368.688 431.315C366.628 432.667 364.654 433.569 362.766 434.02C360.889 434.489 359.157 434.416 357.569 433.801C355.98 433.186 354.576 431.95 353.356 430.093ZM360.759 418.401C360.189 418.775 359.725 419.251 359.367 419.828C359.04 420.412 358.943 421.146 359.077 422.032C359.242 422.924 359.753 424.023 360.611 425.328C361.48 426.652 362.285 427.558 363.027 428.045C363.798 428.538 364.511 428.742 365.164 428.655C365.848 428.574 366.475 428.346 367.045 427.972C367.634 427.585 368.073 427.112 368.364 426.553C368.685 426 368.754 425.284 368.571 424.404C368.418 423.53 367.907 422.431 367.037 421.107C366.18 419.802 365.375 418.896 364.621 418.391C363.899 417.891 363.214 417.67 362.567 417.727C361.95 417.789 361.347 418.014 360.759 418.401Z" fill="white"/>
<path d="M260.422 386.712C260.153 385.51 259.999 384.271 259.961 382.994C259.949 381.734 260.064 380.536 260.306 379.4C260.574 378.28 260.981 377.332 261.529 376.556C262.098 375.775 262.844 375.281 263.767 375.074C264.948 374.809 265.977 374.974 266.853 375.566C267.73 376.159 268.26 376.965 268.443 377.983C268.599 378.782 268.606 379.615 268.461 380.482C268.339 381.343 268.219 382.216 268.101 383.099C267.988 384.003 268.025 384.874 268.212 385.712C268.4 386.549 268.637 387.104 268.924 387.378C269.211 387.652 269.537 387.748 269.901 387.667C270.331 387.57 270.635 387.266 270.813 386.752C270.991 386.239 271.078 385.622 271.075 384.901L271.108 383.237C271.129 381.519 271.231 379.963 271.415 378.569C271.62 377.17 272.036 376.006 272.662 375.077C273.314 374.164 274.317 373.557 275.669 373.254C277.15 372.922 278.444 373.061 279.55 373.67C280.677 374.274 281.612 375.226 282.354 376.525C283.095 377.824 283.659 379.333 284.043 381.05C284.438 382.811 284.601 384.397 284.534 385.81C284.468 387.223 284.172 388.371 283.649 389.255C283.13 390.16 282.377 390.723 281.389 390.944C280.338 391.18 279.446 391.075 278.715 390.63C278.011 390.202 277.552 389.515 277.341 388.571C277.201 387.948 277.162 387.269 277.223 386.534C277.289 385.821 277.334 385.067 277.359 384.272C277.41 383.494 277.342 382.686 277.154 381.849C276.986 381.098 276.741 380.555 276.418 380.222C276.117 379.883 275.784 379.755 275.419 379.837C274.968 379.938 274.693 380.27 274.594 380.833C274.494 381.396 274.427 382.302 274.39 383.55L274.376 385.447C274.342 387.01 274.193 388.408 273.928 389.639C273.663 390.871 273.181 391.892 272.483 392.702C271.785 393.512 270.76 394.069 269.408 394.372C267.776 394.737 266.359 394.649 265.155 394.107C263.973 393.56 262.992 392.652 262.212 391.384C261.432 390.116 260.835 388.558 260.422 386.712ZM280.532 399.651C280.292 398.578 280.406 397.628 280.875 396.801C281.349 395.996 282.133 395.471 283.228 395.226C284.301 394.986 285.227 395.094 286.006 395.551C286.811 396.024 287.348 396.862 287.617 398.065L290.725 411.944C290.994 413.146 290.864 414.122 290.333 414.872C289.828 415.639 289.039 416.143 287.966 416.383C286.871 416.628 285.935 416.477 285.159 415.93C284.387 415.403 283.881 414.604 283.641 413.53C283.477 412.8 283.42 412.193 283.469 411.709C283.545 411.241 283.659 410.843 283.811 410.516C283.985 410.184 284.118 409.873 284.21 409.581C284.325 409.285 284.338 408.944 284.252 408.558L283.607 408.398C283.433 408.527 283.188 408.739 282.871 409.036C282.576 409.328 282.117 409.644 281.494 409.987C280.894 410.324 280.035 410.618 278.919 410.868L269.612 412.952C268.732 413.149 267.928 412.98 267.199 412.444C266.475 411.93 266.007 411.201 265.796 410.256C265.579 409.29 265.687 408.409 266.117 407.614C266.553 406.84 267.21 406.354 268.091 406.157L277.397 404.073C278.513 403.823 279.415 403.723 280.103 403.772C280.811 403.816 281.362 403.907 281.753 404.045C282.171 404.199 282.486 404.297 282.699 404.34L283.206 403.888C283.12 403.502 282.962 403.199 282.732 402.98C282.524 402.756 282.271 402.531 281.972 402.305C281.695 402.074 281.422 401.763 281.155 401.372C280.908 400.976 280.701 400.402 280.532 399.651ZM271.05 434.172C270.536 431.875 270.605 429.819 271.258 428.004C271.912 426.19 273.038 424.675 274.637 423.46C276.236 422.245 278.195 421.378 280.514 420.859C282.811 420.344 284.942 420.296 286.906 420.712C288.892 421.124 290.568 422.012 291.932 423.374C293.319 424.732 294.269 426.56 294.783 428.857C295.298 431.154 295.215 433.201 294.536 434.999C293.883 436.814 292.746 438.331 291.125 439.551C289.526 440.766 287.578 441.63 285.281 442.145C282.962 442.664 280.82 442.715 278.856 442.298C276.891 441.882 275.227 440.992 273.862 439.629C272.502 438.288 271.565 436.469 271.05 434.172ZM281.938 424.801C281.272 424.95 280.675 425.253 280.146 425.709C279.638 426.161 279.308 426.9 279.154 427.927C279.022 428.948 279.166 430.393 279.584 432.261C280.002 434.128 280.486 435.485 281.037 436.332C281.613 437.194 282.227 437.722 282.879 437.914C283.552 438.102 284.222 438.121 284.887 437.972C285.574 437.818 286.15 437.52 286.615 437.078C287.101 436.631 287.399 435.899 287.509 434.882C287.646 433.882 287.505 432.448 287.087 430.58C286.669 428.713 286.182 427.345 285.627 426.477C285.094 425.605 284.512 425.07 283.881 424.873C283.272 424.671 282.625 424.647 281.938 424.801ZM283.492 454.391L279.466 455.293C278.35 455.543 277.435 455.432 276.72 454.961C276.011 454.511 275.548 453.803 275.332 452.837L275.325 452.805C275.089 451.753 275.191 450.85 275.631 450.098C276.077 449.367 276.857 448.877 277.974 448.627L282.514 447.61C284.79 447.1 286.595 447.057 287.929 447.479C289.264 447.902 290.307 448.581 291.058 449.518L291.633 449.22L291.511 448.672C291.29 447.685 291.425 446.832 291.918 446.112C292.437 445.41 293.242 444.926 294.332 444.659C295.4 444.397 296.332 444.481 297.128 444.912C297.928 445.364 298.439 446.084 298.66 447.071L300.556 455.541C301.042 457.709 300.781 459.616 299.775 461.262C298.794 462.924 296.909 464.068 294.118 464.693C292.1 465.145 290.432 465.146 289.114 464.698C287.796 464.249 286.771 463.498 286.039 462.444C285.307 461.391 284.79 460.187 284.487 458.835L283.492 454.391ZM289.613 452.581C289.141 452.686 288.849 452.842 288.737 453.047C288.63 453.274 288.629 453.624 288.735 454.096L289.406 457.091C289.608 457.993 289.958 458.602 290.457 458.918C290.978 459.23 291.625 459.299 292.398 459.126C293.171 458.953 293.715 458.617 294.032 458.118C294.348 457.618 294.406 456.918 294.204 456.016L293.533 453.022C293.427 452.549 293.288 452.231 293.116 452.067C292.949 451.924 292.619 451.907 292.125 452.018L289.613 452.581Z" fill="white"/>
<path d="M205.818 408.001C206.04 406.946 206.535 406.196 207.303 405.751C208.072 405.305 208.929 405.182 209.877 405.382L221.437 407.814L221.573 407.169C221.11 406.914 220.737 406.498 220.453 405.921C220.17 405.345 220.107 404.679 220.266 403.926C220.438 403.108 220.859 402.443 221.529 401.932C222.215 401.447 223.054 401.309 224.044 401.517C224.797 401.676 225.396 401.982 225.841 402.435C226.285 402.888 226.698 403.436 227.08 404.078L228.683 406.877C229.242 407.849 229.609 408.725 229.783 409.503C229.978 410.286 229.978 411.14 229.783 412.066C229.624 412.82 229.316 413.485 228.857 414.063C228.398 414.641 227.783 415.051 227.013 415.294C226.259 415.562 225.334 415.581 224.236 415.35L208.477 412.034C207.53 411.835 206.792 411.387 206.264 410.692C205.736 409.996 205.587 409.099 205.818 408.001ZM201.996 426.006C202.449 423.854 203.302 422.201 204.557 421.049C205.811 419.896 207.399 419.185 209.322 418.915C211.24 418.667 213.405 418.796 215.816 419.304C218.227 419.811 220.245 420.584 221.87 421.623C223.512 422.688 224.686 424.003 225.39 425.567C226.095 427.132 226.23 428.948 225.796 431.015C225.361 433.081 224.505 434.689 223.23 435.837C221.949 437.006 220.346 437.736 218.418 438.028C216.508 438.345 214.347 438.25 211.936 437.743C209.525 437.235 207.494 436.471 205.843 435.449C204.187 434.449 203.018 433.168 202.334 431.608C201.651 430.048 201.538 428.181 201.996 426.006ZM215.507 423.016C214.84 422.875 214.175 422.881 213.514 423.035C212.869 423.214 212.28 423.663 211.746 424.382C211.229 425.128 210.81 426.265 210.489 427.794C210.163 429.344 210.088 430.553 210.265 431.422C210.459 432.317 210.817 432.966 211.339 433.368C211.878 433.796 212.482 434.081 213.149 434.221C213.838 434.366 214.483 434.345 215.085 434.156C215.704 433.994 216.26 433.538 216.756 432.788C217.268 432.064 217.687 430.927 218.013 429.377C218.335 427.848 218.409 426.639 218.237 425.748C218.082 424.884 217.756 424.242 217.259 423.823C216.78 423.43 216.196 423.161 215.507 423.016ZM197.096 449.293C197.549 447.14 198.402 445.487 199.656 444.335C200.911 443.182 202.499 442.471 204.422 442.201C206.34 441.953 208.505 442.082 210.916 442.59C213.327 443.097 215.345 443.87 216.97 444.909C218.612 445.974 219.786 447.289 220.49 448.854C221.195 450.418 221.33 452.234 220.895 454.301C220.461 456.367 219.605 457.975 218.33 459.123C217.049 460.292 215.446 461.023 213.518 461.314C211.608 461.631 209.447 461.536 207.036 461.029C204.625 460.522 202.594 459.757 200.943 458.735C199.287 457.735 198.118 456.455 197.434 454.894C196.751 453.334 196.638 451.467 197.096 449.293ZM210.607 446.302C209.94 446.161 209.275 446.168 208.613 446.321C207.969 446.5 207.38 446.949 206.846 447.669C206.329 448.414 205.91 449.551 205.589 451.08C205.263 452.63 205.188 453.839 205.365 454.708C205.559 455.603 205.917 456.252 206.439 456.654C206.978 457.083 207.582 457.367 208.249 457.507C208.938 457.652 209.583 457.631 210.185 457.443C210.804 457.28 211.36 456.824 211.856 456.074C212.368 455.35 212.787 454.213 213.113 452.663C213.435 451.135 213.509 449.925 213.337 449.034C213.182 448.17 212.856 447.528 212.359 447.109C211.88 446.716 211.296 446.447 210.607 446.302Z" fill="white"/>
<path d="M151.268 373.229C151.833 372.416 152.451 371.72 153.121 371.141C153.779 370.58 154.511 370.259 155.318 370.177C156.126 370.095 157.026 370.399 158.02 371.09C158.851 371.667 159.414 372.34 159.711 373.109C160.007 373.878 160.159 374.68 160.167 375.516C160.176 376.352 160.16 377.146 160.121 377.895L159.831 383.922C159.787 384.91 159.834 385.613 159.973 386.031C160.111 386.448 160.352 386.777 160.695 387.015C161.002 387.229 161.333 387.311 161.688 387.263C162.031 387.233 162.44 386.875 162.917 386.188C163.382 385.52 163.799 384.765 164.17 383.924C164.54 383.083 164.964 382.319 165.441 381.633C166.131 380.639 166.931 379.99 167.84 379.684C168.755 379.408 169.682 379.597 170.621 380.25C171.525 380.878 172.003 381.693 172.057 382.695C172.129 383.709 171.89 384.843 171.341 386.095C170.779 387.366 170.021 388.688 169.067 390.061C167.523 392.283 165.915 393.71 164.242 394.343C162.558 394.994 160.839 394.711 159.087 393.493C157.876 392.651 157.091 391.583 156.732 390.289C156.36 389.012 156.195 387.477 156.235 385.684L156.414 378.373L152.101 384.578C151.398 385.59 150.592 386.209 149.685 386.436C148.783 386.693 147.844 386.482 146.868 385.804C145.893 385.126 145.368 384.32 145.295 383.384C145.209 382.467 145.517 381.503 146.221 380.491L151.268 373.229ZM135.44 395.829C136.696 394.022 138.125 392.833 139.729 392.259C141.333 391.686 143.073 391.65 144.949 392.15C146.813 392.668 148.756 393.631 150.78 395.037C152.803 396.443 154.361 397.941 155.453 399.531C156.55 401.151 157.119 402.819 157.159 404.534C157.199 406.25 156.616 407.975 155.411 409.709C154.206 411.444 152.792 412.591 151.17 413.152C149.535 413.73 147.774 413.778 145.885 413.296C144.002 412.845 142.049 411.916 140.025 410.51C138.002 409.103 136.429 407.608 135.306 406.024C134.171 404.458 133.593 402.824 133.571 401.12C133.549 399.417 134.172 397.653 135.44 395.829ZM149.05 398.335C148.49 397.946 147.875 397.693 147.206 397.577C146.542 397.49 145.825 397.675 145.053 398.13C144.287 398.615 143.458 399.5 142.567 400.782C141.663 402.083 141.123 403.168 140.947 404.037C140.777 404.937 140.855 405.674 141.179 406.248C141.509 406.852 141.954 407.349 142.514 407.738C143.092 408.14 143.695 408.372 144.322 408.433C144.955 408.524 145.646 408.321 146.394 407.823C147.148 407.355 147.976 406.471 148.88 405.17C149.772 403.888 150.312 402.803 150.5 401.915C150.693 401.059 150.643 400.341 150.349 399.761C150.061 399.213 149.628 398.737 149.05 398.335ZM121.859 415.369C123.115 413.562 124.544 412.373 126.148 411.8C127.752 411.226 129.492 411.19 131.368 411.69C133.232 412.208 135.175 413.171 137.199 414.577C139.222 415.983 140.78 417.481 141.872 419.071C142.969 420.691 143.538 422.359 143.578 424.075C143.618 425.79 143.035 427.515 141.83 429.249C140.625 430.984 139.211 432.131 137.589 432.692C135.954 433.27 134.193 433.318 132.304 432.836C130.421 432.385 128.468 431.456 126.445 430.05C124.421 428.643 122.848 427.148 121.726 425.564C120.59 423.998 120.012 422.364 119.99 420.661C119.968 418.957 120.591 417.194 121.859 415.369ZM135.469 417.876C134.909 417.486 134.294 417.233 133.625 417.117C132.962 417.031 132.244 417.215 131.472 417.67C130.706 418.155 129.877 419.04 128.986 420.322C128.082 421.623 127.542 422.708 127.366 423.577C127.196 424.477 127.274 425.214 127.598 425.788C127.928 426.392 128.373 426.889 128.933 427.278C129.511 427.68 130.114 427.912 130.742 427.973C131.375 428.064 132.065 427.861 132.813 427.363C133.567 426.895 134.396 426.011 135.3 424.71C136.191 423.428 136.731 422.343 136.919 421.455C137.112 420.599 137.062 419.881 136.768 419.301C136.48 418.753 136.047 418.277 135.469 417.876Z" fill="white"/>
<path d="M120.893 338.317C120.893 338.317 120.59 338.658 119.983 339.34C119.358 340.034 118.428 340.782 117.191 341.584C115.862 342.446 114.582 343.08 113.35 343.485C112.112 343.921 110.934 343.964 109.815 343.615C108.697 343.265 107.671 342.37 106.737 340.931C105.42 338.9 104.935 336.92 105.283 334.99C105.643 333.079 107.069 331.315 109.56 329.698C111.221 328.621 112.859 327.992 114.472 327.811C116.067 327.642 117.633 328.015 119.172 328.932C120.704 329.878 122.194 331.468 123.643 333.702C125.067 335.898 126.014 338.025 126.482 340.081C126.951 342.137 126.857 344.034 126.2 345.771C125.556 347.526 124.264 349.032 122.326 350.289C120.185 351.678 118.428 352.385 117.055 352.411C115.675 352.466 114.632 351.95 113.925 350.861C113.363 349.993 113.145 349.152 113.271 348.336C113.379 347.531 113.802 346.89 114.54 346.411C115.167 346.004 115.886 345.656 116.695 345.367C117.504 345.078 118.287 344.688 119.044 344.198C119.967 343.599 120.616 342.942 120.991 342.227C121.366 341.511 121.53 340.815 121.484 340.137C121.437 339.459 121.241 338.852 120.893 338.317ZM118.398 335.137C118.063 334.62 117.574 334.413 116.932 334.514C116.272 334.628 115.24 335.14 113.837 336.05C112.416 336.972 111.537 337.699 111.201 338.232C110.846 338.776 110.837 339.307 111.172 339.824C111.495 340.322 111.972 340.511 112.602 340.391C113.213 340.283 114.23 339.768 115.651 338.846C117.054 337.936 117.948 337.212 118.333 336.674C118.699 336.148 118.721 335.635 118.398 335.137ZM90.4628 341.968C92.3086 340.771 94.0822 340.21 95.7838 340.287C97.4853 340.363 99.1098 340.987 100.657 342.16C102.186 343.345 103.621 344.971 104.962 347.038C106.303 349.105 107.178 351.081 107.588 352.966C107.991 354.881 107.886 356.64 107.274 358.243C106.662 359.847 105.47 361.223 103.698 362.372C101.926 363.522 100.183 364.049 98.4699 363.954C96.7379 363.871 95.089 363.249 93.5231 362.089C91.9508 360.958 90.4942 359.359 89.1533 357.292C87.8124 355.225 86.922 353.246 86.482 351.355C86.0236 349.476 86.1064 347.744 86.7305 346.159C87.3545 344.574 88.5987 343.177 90.4628 341.968ZM102.113 349.437C101.741 348.865 101.268 348.398 100.693 348.037C100.111 347.706 99.3774 347.606 98.4909 347.735C97.598 347.894 96.4963 348.399 95.1858 349.249C93.8569 350.111 92.9468 350.911 92.4554 351.65C91.9576 352.418 91.7503 353.13 91.8336 353.784C91.9104 354.468 92.1344 355.096 92.5055 355.669C92.8886 356.259 93.359 356.701 93.9167 356.995C94.468 357.319 95.184 357.393 96.065 357.214C96.9395 357.067 98.0412 356.562 99.3701 355.7C100.681 354.85 101.591 354.05 102.101 353.3C102.604 352.58 102.829 351.896 102.776 351.249C102.717 350.632 102.496 350.028 102.113 349.437ZM70.4988 354.917C72.3445 353.72 74.1181 353.16 75.8197 353.236C77.5212 353.312 79.1457 353.937 80.6931 355.11C82.222 356.294 83.657 357.92 84.9978 359.988C86.3387 362.055 87.2139 364.031 87.6235 365.915C88.0265 367.83 87.922 369.59 87.3099 371.193C86.6978 372.796 85.5058 374.172 83.7339 375.322C81.962 376.471 80.2193 376.998 78.5058 376.904C76.7738 376.821 75.1249 376.199 73.5591 375.038C71.9867 373.908 70.5301 372.309 69.1892 370.242C67.8484 368.175 66.9579 366.195 66.518 364.304C66.0595 362.425 66.1424 360.693 66.7664 359.108C67.3905 357.524 68.6346 356.127 70.4988 354.917ZM82.1484 362.387C81.7773 361.814 81.3042 361.348 80.729 360.987C80.1473 360.656 79.4133 360.555 78.5269 360.684C77.6339 360.844 76.5322 361.349 75.2218 362.199C73.8928 363.061 72.9827 363.861 72.4913 364.599C71.9935 365.368 71.7862 366.079 71.8695 366.733C71.9463 367.418 72.1703 368.046 72.5415 368.618C72.9246 369.209 73.395 369.651 73.9527 369.945C74.5039 370.269 75.22 370.342 76.1009 370.164C76.9754 370.016 78.0771 369.512 79.406 368.65C80.7165 367.8 81.6266 366.999 82.1364 366.249C82.6398 365.529 82.865 364.846 82.8121 364.198C82.7528 363.581 82.5315 362.977 82.1484 362.387Z" fill="white"/>
<path d="M119.939 271.817C120.709 271.633 121.437 271.741 122.121 272.143C122.811 272.566 123.266 273.237 123.486 274.157C123.696 275.034 123.587 275.807 123.159 276.475C122.731 277.143 122.121 277.572 121.33 277.762L113.948 279.53C113.135 279.725 112.406 279.606 111.759 279.173C111.117 278.761 110.694 278.127 110.489 277.271C110.284 276.415 110.369 275.637 110.744 274.936C111.119 274.236 111.713 273.788 112.526 273.593L119.939 271.817ZM93.8356 283.603C92.5519 283.91 91.3719 283.99 90.2955 283.84C89.1977 283.696 88.2578 283.22 87.476 282.412C86.678 281.63 86.0764 280.394 85.6715 278.704C85.3178 277.228 85.2904 275.934 85.5895 274.822C85.8723 273.736 86.3963 272.807 87.1616 272.036C87.9106 271.29 88.8132 270.667 89.8693 270.165C90.9306 269.685 92.0602 269.301 93.2583 269.014C95.9754 268.363 98.1622 268.189 99.8187 268.494C101.48 268.82 102.509 269.806 102.903 271.454C103.18 272.609 103.008 273.589 102.386 274.394C101.77 275.22 100.834 275.705 99.5785 275.847C98.6115 275.966 97.5564 276.094 96.4131 276.232C95.2699 276.371 94.0804 276.599 92.8446 276.918C92.0102 277.118 91.4419 277.39 91.1398 277.733C90.8213 278.104 90.7236 278.546 90.8466 279.059C90.9953 279.68 91.3006 280.104 91.7626 280.333C92.2083 280.588 92.8484 280.616 93.6828 280.416L100.133 278.87C101.288 278.593 102.228 278.595 102.951 278.874C103.674 279.153 104.168 279.849 104.435 280.961L105.704 286.257C105.97 287.369 106.004 288.266 105.805 288.947C105.585 289.633 105.193 290.168 104.629 290.552C104.043 290.941 103.344 291.233 102.531 291.428L93.8344 293.512C92.4438 293.845 91.396 293.768 90.6911 293.281C89.9862 292.794 89.5133 292.047 89.2723 291.042C89.0314 290.036 89.1096 289.135 89.507 288.339C89.9094 287.564 90.806 287.01 92.1966 286.676C93.3091 286.41 94.4806 286.389 95.711 286.615C96.92 286.845 98.0015 287.299 98.9553 287.975L99.5972 287.821L98.3284 282.526L93.8356 283.603ZM69.8918 274.511C72.0313 273.998 73.8903 274.062 75.4688 274.701C77.0473 275.341 78.3702 276.472 79.4375 278.094C80.4834 279.721 81.2935 281.733 81.8676 284.129C82.4417 286.525 82.6074 288.68 82.3645 290.593C82.1053 292.533 81.4197 294.156 80.3077 295.463C79.1957 296.771 77.6127 297.67 75.5588 298.162C73.505 298.654 71.6862 298.57 70.1026 297.909C68.4975 297.253 67.1506 296.116 66.0619 294.499C64.957 292.909 64.1174 290.916 63.5433 288.52C62.9691 286.123 62.7902 283.961 63.0066 282.031C63.2016 280.107 63.8576 278.502 64.9748 277.216C66.092 275.93 67.731 275.028 69.8918 274.511ZM78.381 285.439C78.2221 284.776 77.9318 284.178 77.5101 283.646C77.0722 283.14 76.4139 282.8 75.5351 282.626C74.6401 282.479 73.4331 282.587 71.9141 282.951C70.3737 283.32 69.2487 283.77 68.5391 284.302C67.8133 284.861 67.3805 285.462 67.2408 286.107C67.0848 286.777 67.0863 287.444 67.2452 288.108C67.4092 288.792 67.7051 289.366 68.1328 289.829C68.5442 290.319 69.1948 290.627 70.0847 290.753C70.9583 290.905 72.1653 290.797 73.7057 290.428C75.2247 290.064 76.3497 289.614 77.0807 289.077C77.7954 288.566 78.2358 287.997 78.4021 287.369C78.5521 286.767 78.545 286.124 78.381 285.439ZM53.9718 283.992C53.5145 284.916 52.9563 285.796 52.2971 286.633C51.6216 287.496 50.9024 288.46 50.1396 289.525C49.3554 290.596 48.5796 291.89 47.8124 293.409C47.0339 294.975 46.4708 296.354 46.1229 297.546C45.7537 298.743 45.4495 299.834 45.2104 300.819C44.9499 301.809 44.5936 302.776 44.1414 303.722C43.7004 304.619 43.1559 305.18 42.5081 305.403C41.844 305.652 41.2065 305.635 40.5956 305.352C39.9634 305.074 39.5601 304.571 39.3858 303.843C39.1901 303.121 39.3479 302.269 39.8591 301.287C40.3052 300.411 40.8417 299.581 41.4683 298.797C42.095 298.014 42.776 297.126 43.5114 296.136C44.2469 295.145 44.9956 293.88 45.7578 292.34C46.5251 290.821 47.0963 289.429 47.4716 288.163C47.852 286.918 48.178 285.776 48.4497 284.738C48.7213 283.701 49.0965 282.717 49.5752 281.788C49.9948 280.896 50.5311 280.349 51.1841 280.147C51.8422 279.967 52.466 280.021 53.0554 280.309C53.6766 280.636 54.0935 281.101 54.3064 281.706C54.5243 282.333 54.4128 283.095 53.9718 283.992ZM55.2498 302.214C53.688 302.588 52.2971 302.401 51.0772 301.653C49.8359 300.91 48.9973 299.629 48.5616 297.81C48.1361 296.034 48.3082 294.534 49.078 293.309C49.8263 292.089 50.9814 291.292 52.5432 290.918C54.1212 290.517 55.5202 290.691 56.7402 291.439C57.9653 292.209 58.7905 293.482 59.216 295.257C59.6517 297.076 59.4954 298.595 58.7471 299.815C58.0039 301.056 56.8381 301.856 55.2498 302.214ZM56.8168 295.866C56.7604 295.631 56.6424 295.421 56.4628 295.238C56.2618 295.06 55.9427 294.956 55.5054 294.925C55.0468 294.899 54.4002 294.986 53.5659 295.186C52.7315 295.386 52.1264 295.599 51.7507 295.824C51.3749 296.05 51.1485 296.285 51.0714 296.53C50.9943 296.775 50.9839 297.015 51.0403 297.25C51.1019 297.507 51.2224 297.727 51.4021 297.91C51.5817 298.093 51.8901 298.2 52.3274 298.231C52.7646 298.262 53.4004 298.178 54.2348 297.978C55.0692 297.778 55.685 297.563 56.0821 297.332C56.4578 297.106 56.695 296.868 56.7935 296.618C56.8706 296.374 56.8784 296.123 56.8168 295.866ZM45.1486 287.531C45.5741 289.307 45.4127 290.805 44.6643 292.025C43.916 293.245 42.7609 294.042 41.1991 294.416C39.6211 294.817 38.2195 294.632 36.9944 293.863C35.7531 293.12 34.9197 291.86 34.4942 290.084C34.0585 288.266 34.2229 286.733 34.9875 285.487C35.7307 284.245 36.8965 283.446 38.4848 283.088C40.0466 282.714 41.4375 282.901 42.6574 283.649C43.8825 284.419 44.7129 285.713 45.1486 287.531ZM42.6866 288.02C42.6302 287.784 42.5122 287.575 42.3326 287.392C42.1315 287.214 41.8124 287.109 41.3752 287.078C40.9165 287.052 40.27 287.139 39.4356 287.339C38.6012 287.539 37.9962 287.752 37.6204 287.978C37.2447 288.204 37.0183 288.439 36.9412 288.684C36.8641 288.928 36.8537 289.168 36.9101 289.404C36.9716 289.66 37.0922 289.88 37.2718 290.064C37.4514 290.247 37.7599 290.354 38.1971 290.385C38.6344 290.416 39.2702 290.331 40.1046 290.131C40.939 289.931 41.5547 289.716 41.9518 289.485C42.3276 289.259 42.5647 289.022 42.6632 288.772C42.7403 288.527 42.7481 288.276 42.6866 288.02Z" fill="white"/>
<path d="M100.56 208.595C102.505 208.969 104.155 209.533 105.511 210.287C106.867 211.041 107.851 211.981 108.463 213.107C109.054 214.228 109.208 215.524 108.925 216.993C108.68 218.268 108.248 219.293 107.628 220.07C106.986 220.843 106.242 221.394 105.394 221.724C104.542 222.075 103.676 222.211 102.795 222.131L102.702 222.617C103.99 223.022 104.942 223.664 105.557 224.544C106.168 225.446 106.334 226.621 106.055 228.068C105.698 229.926 104.657 231.26 102.933 232.071C101.204 232.904 98.8818 233.039 95.9653 232.478C93.0488 231.917 90.9533 230.931 89.6788 229.521C88.3785 228.128 87.9071 226.503 88.2645 224.645C88.543 223.198 89.1331 222.169 90.0347 221.558C90.9105 220.965 92.0219 220.719 93.3689 220.822L93.4624 220.336C92.5932 220.079 91.8392 219.631 91.2003 218.993C90.5356 218.372 90.0596 217.586 89.7721 216.635C89.4631 215.679 89.4312 214.564 89.6765 213.289C89.9591 211.82 90.5936 210.677 91.58 209.858C92.5448 209.036 93.7966 208.526 95.3355 208.329C96.8744 208.132 98.616 208.221 100.56 208.595ZM101.365 225.721C101.473 225.159 101.257 224.714 100.715 224.386C100.151 224.053 99.146 223.748 97.6986 223.469C96.2511 223.191 95.215 223.104 94.5901 223.207C93.9652 223.311 93.5988 223.644 93.4907 224.206C93.3826 224.767 93.6015 225.202 94.1474 225.508C94.6892 225.836 95.6838 226.14 97.1312 226.418C98.5787 226.697 99.6256 226.786 100.272 226.687C100.893 226.604 101.257 226.282 101.365 225.721ZM103.294 218.665C103.402 218.103 103.155 217.641 102.553 217.279C101.946 216.938 100.789 216.604 99.0827 216.275C97.3328 215.939 96.1238 215.818 95.4558 215.914C94.7619 216.027 94.361 216.364 94.2529 216.926C94.1448 217.487 94.3941 217.938 95.0006 218.279C95.5856 218.616 96.753 218.952 98.5029 219.289C100.21 219.617 101.408 219.736 102.097 219.645C102.787 219.553 103.186 219.227 103.294 218.665ZM76.9473 204.052C79.1077 204.468 80.7749 205.293 81.9488 206.527C83.1228 207.761 83.8614 209.337 84.1645 211.254C84.446 213.168 84.354 215.335 83.8885 217.754C83.4229 220.174 82.6849 222.205 81.6743 223.848C80.638 225.508 79.3438 226.704 77.7915 227.436C76.2393 228.168 74.4262 228.334 72.3522 227.935C70.2782 227.536 68.6563 226.709 67.4865 225.453C66.2951 224.193 65.537 222.602 65.2123 220.68C64.8618 218.776 64.9193 216.614 65.3849 214.194C65.8504 211.775 66.5797 209.731 67.5728 208.062C68.5443 206.39 69.8041 205.198 71.3522 204.488C72.9003 203.777 74.7653 203.632 76.9473 204.052ZM80.1718 217.51C80.3006 216.84 80.2828 216.176 80.1183 215.517C79.9281 214.875 79.4687 214.294 78.74 213.773C77.9855 213.269 76.8414 212.87 75.3075 212.575C73.7521 212.275 72.5414 212.222 71.6756 212.414C70.7839 212.623 70.1416 212.992 69.7485 213.521C69.3297 214.068 69.0558 214.676 68.927 215.346C68.794 216.037 68.8268 216.682 69.0253 217.281C69.1981 217.896 69.6638 218.445 70.4223 218.927C71.1552 219.427 72.2993 219.826 73.8548 220.125C75.3887 220.42 76.5993 220.474 77.4868 220.286C78.3485 220.116 78.9846 219.779 79.3951 219.276C79.7799 218.79 80.0387 218.201 80.1718 217.51ZM53.5798 199.556C55.7402 199.972 57.4073 200.797 58.5813 202.031C59.7553 203.265 60.4939 204.841 60.797 206.758C61.0785 208.672 60.9865 210.839 60.521 213.258C60.0554 215.678 59.3174 217.709 58.3068 219.352C57.2705 221.012 55.9762 222.208 54.424 222.94C52.8718 223.672 51.0587 223.838 48.9847 223.439C46.9107 223.04 45.2888 222.213 44.119 220.957C42.9276 219.697 42.1695 218.106 41.8448 216.184C41.4943 214.28 41.5518 212.118 42.0173 209.698C42.4829 207.279 43.2122 205.235 44.2053 203.566C45.1768 201.894 46.4366 200.702 47.9847 199.992C49.5328 199.282 51.3978 199.136 53.5798 199.556ZM56.8042 213.014C56.9331 212.344 56.9153 211.68 56.7508 211.021C56.5606 210.379 56.1011 209.798 55.3725 209.277C54.618 208.773 53.4739 208.374 51.94 208.079C50.3845 207.78 49.1739 207.726 48.308 207.918C47.4164 208.127 46.7741 208.496 46.381 209.026C45.9622 209.572 45.6883 210.181 45.5595 210.85C45.4265 211.542 45.4592 212.186 45.6578 212.785C45.8306 213.4 46.2962 213.949 47.0548 214.431C47.7877 214.931 48.9318 215.33 50.4873 215.629C52.0212 215.924 53.2318 215.978 54.1193 215.79C54.981 215.62 55.6171 215.283 56.0276 214.78C56.4123 214.294 56.6712 213.705 56.8042 213.014Z" fill="white"/>
<path d="M106.505 165.754C107.225 165.772 108.09 165.829 109.098 165.927C110.077 166.031 111.164 166.271 112.361 166.646C113.558 167.021 114.823 167.636 116.157 168.49C117.268 169.202 117.906 170.042 118.07 171.01C118.222 171.995 117.995 172.961 117.39 173.905C116.773 174.869 115.985 175.487 115.025 175.761C114.066 176.035 113.031 175.815 111.919 175.103L103.751 169.869C102.38 168.99 101.541 167.996 101.234 166.884C100.908 165.761 101.179 164.524 102.045 163.171C102.485 162.486 102.981 161.955 103.536 161.579C104.091 161.203 104.702 160.902 105.369 160.676C106.036 160.45 106.743 160.224 107.489 159.997C108.217 159.758 108.972 159.457 109.752 159.095C110.908 158.556 112.048 157.797 113.171 156.818C114.295 155.84 115.346 154.75 116.325 153.548C117.065 152.637 117.861 152.089 118.712 151.903C119.533 151.723 120.44 151.938 121.433 152.549C122.445 153.171 123.082 153.971 123.344 154.949C123.606 155.927 123.395 156.929 122.712 157.954C121.524 159.727 120.19 161.198 118.71 162.366C117.211 163.522 115.711 164.272 114.21 164.617C113.317 164.828 112.422 164.96 111.526 165.013C110.611 165.054 109.775 165.054 109.018 165.013C108.248 164.99 107.634 164.95 107.175 164.891C106.717 164.832 106.487 164.803 106.487 164.803L106.505 165.754ZM100.6 139.277C102.452 140.464 103.694 141.848 104.327 143.43C104.96 145.011 105.062 146.749 104.632 148.642C104.184 150.524 103.296 152.502 101.966 154.576C100.637 156.651 99.1985 158.264 97.6509 159.415C96.073 160.572 94.4276 161.203 92.7146 161.308C91.0016 161.412 89.256 160.894 87.4778 159.755C85.6995 158.615 84.4999 157.246 83.879 155.646C83.2395 154.034 83.1252 152.276 83.5361 150.37C83.9167 148.471 84.7717 146.485 86.1011 144.41C87.4304 142.336 88.8656 140.708 90.4064 139.526C91.9288 138.333 93.5405 137.694 95.2416 137.608C96.9427 137.522 98.7287 138.079 100.6 139.277ZM98.6051 152.971C98.9731 152.397 99.2028 151.774 99.2944 151.101C99.3555 150.434 99.1443 149.724 98.6607 148.97C98.1467 148.223 97.2322 147.428 95.917 146.585C94.5833 145.73 93.4789 145.231 92.6036 145.089C91.6979 144.953 90.9644 145.057 90.4032 145.403C89.8115 145.756 89.3317 146.219 88.9637 146.793C88.5839 147.386 88.3753 147.997 88.3379 148.626C88.2701 149.262 88.4991 149.945 89.0249 150.673C89.5204 151.409 90.4349 152.204 91.7686 153.059C93.0838 153.901 94.1883 154.4 95.0821 154.555C95.9455 154.716 96.6611 154.639 97.2291 154.324C97.7666 154.015 98.2253 153.564 98.6051 152.971ZM80.5639 126.439C82.4163 127.626 83.6589 129.01 84.2917 130.591C84.9246 132.173 85.0262 133.91 84.5968 135.803C84.1488 137.685 83.2601 139.663 81.9307 141.738C80.6013 143.812 79.1629 145.425 77.6153 146.576C76.0374 147.734 74.392 148.365 72.679 148.469C70.966 148.573 69.2204 148.056 67.4422 146.916C65.6639 145.777 64.4643 144.407 63.8434 142.807C63.2039 141.196 63.0896 139.437 63.5005 137.532C63.8811 135.633 64.7361 133.646 66.0655 131.572C67.3948 129.497 68.83 127.869 70.3708 126.688C71.8932 125.494 73.5049 124.855 75.206 124.769C76.9071 124.683 78.6931 125.24 80.5639 126.439ZM78.5695 140.133C78.9375 139.559 79.1672 138.935 79.2588 138.262C79.3199 137.596 79.1087 136.886 78.6251 136.131C78.1111 135.384 77.1966 134.589 75.8814 133.746C74.5477 132.892 73.4433 132.393 72.568 132.25C71.6623 132.114 70.9288 132.219 70.3676 132.565C69.7759 132.917 69.2961 133.38 68.9281 133.955C68.5483 134.547 68.3397 135.158 68.3023 135.788C68.2345 136.424 68.4635 137.106 68.9893 137.835C69.4848 138.57 70.3993 139.366 71.733 140.22C73.0482 141.063 74.1527 141.562 75.0465 141.716C75.9099 141.878 76.6255 141.801 77.1935 141.485C77.731 141.176 78.1897 140.726 78.5695 140.133Z" fill="white"/>
<path d="M162.83 119.821C162.83 119.821 162.475 119.534 161.766 118.96C161.044 118.368 160.253 117.473 159.395 116.274C158.472 114.987 157.779 113.738 157.317 112.526C156.824 111.31 156.726 110.135 157.023 109.001C157.321 107.868 158.167 106.801 159.562 105.801C161.529 104.392 163.484 103.816 165.428 104.073C167.354 104.344 169.183 105.686 170.913 108.1C172.066 109.709 172.771 111.315 173.027 112.918C173.27 114.504 172.969 116.086 172.125 117.665C171.251 119.24 169.732 120.802 167.568 122.353C165.44 123.878 163.36 124.922 161.328 125.486C159.296 126.049 157.397 126.043 155.631 125.468C153.848 124.906 152.283 123.686 150.937 121.809C149.451 119.734 148.663 118.012 148.573 116.641C148.454 115.266 148.921 114.2 149.976 113.444C150.816 112.841 151.647 112.584 152.468 112.672C153.277 112.742 153.937 113.135 154.45 113.85C154.885 114.458 155.266 115.16 155.593 115.955C155.919 116.75 156.344 117.513 156.87 118.247C157.511 119.141 158.197 119.758 158.929 120.1C159.661 120.441 160.365 120.573 161.04 120.495C161.715 120.418 162.312 120.193 162.83 119.821ZM165.891 117.181C166.392 116.822 166.576 116.324 166.445 115.687C166.3 115.033 165.741 114.026 164.767 112.667C163.78 111.29 163.013 110.446 162.465 110.135C161.904 109.806 161.374 109.821 160.873 110.18C160.39 110.526 160.224 111.011 160.373 111.635C160.51 112.241 161.071 113.232 162.058 114.609C163.032 115.968 163.797 116.827 164.353 117.187C164.895 117.529 165.408 117.527 165.891 117.181ZM157.769 89.5931C159.051 91.3812 159.693 93.1269 159.696 94.8301C159.699 96.5334 159.151 98.1851 158.051 99.7853C156.938 101.368 155.381 102.877 153.378 104.312C151.376 105.748 149.442 106.714 147.579 107.21C145.685 107.702 143.922 107.679 142.292 107.142C140.663 106.605 139.232 105.478 138.002 103.762C136.772 102.045 136.164 100.329 136.179 98.6129C136.181 96.879 136.726 95.2029 137.813 93.5849C138.869 91.9617 140.398 90.4324 142.401 88.9969C144.403 87.5614 146.339 86.58 148.208 86.0527C150.064 85.5074 151.797 85.5097 153.41 86.0595C155.022 86.6092 156.475 87.7871 157.769 89.5931ZM150.85 101.577C151.404 101.18 151.848 100.686 152.182 100.094C152.485 99.4978 152.552 98.7599 152.382 97.8804C152.181 96.9959 151.625 95.9188 150.715 94.6493C149.793 93.3618 148.951 92.4898 148.191 92.0333C147.4 91.5717 146.679 91.3977 146.03 91.5113C145.35 91.6198 144.733 91.8728 144.178 92.2701C143.606 92.6802 143.186 93.1707 142.919 93.7414C142.62 94.3071 142.581 95.0258 142.8 95.8975C142.988 96.7642 143.543 97.8413 144.466 99.1287C145.376 100.398 146.217 101.27 146.991 101.745C147.733 102.214 148.426 102.407 149.071 102.324C149.684 102.236 150.277 101.987 150.85 101.577ZM143.906 70.2522C145.188 72.0403 145.83 73.786 145.833 75.4892C145.836 77.1925 145.288 78.8442 144.188 80.4444C143.075 82.0268 141.518 83.5357 139.515 84.9712C137.513 86.4066 135.579 87.3727 133.716 87.8693C131.822 88.3609 130.059 88.3382 128.429 87.8013C126.799 87.2644 125.369 86.1376 124.139 84.421C122.908 82.7044 122.301 80.9881 122.316 79.272C122.318 77.5381 122.863 75.8621 123.95 74.244C125.006 72.6208 126.535 71.0915 128.538 69.656C130.54 68.2205 132.476 67.2391 134.345 66.7118C136.2 66.1665 137.934 66.1688 139.547 66.7186C141.159 67.2683 142.612 68.4462 143.906 70.2522ZM136.986 82.2363C137.541 81.839 137.985 81.3446 138.319 80.7533C138.622 80.1569 138.689 79.419 138.519 78.5395C138.318 77.655 137.762 76.5779 136.852 75.3084C135.93 74.0209 135.088 73.1489 134.328 72.6924C133.537 72.2308 132.816 72.0568 132.167 72.1704C131.487 72.2789 130.87 72.5319 130.315 72.9292C129.743 73.3393 129.323 73.8298 129.056 74.4005C128.757 74.9662 128.718 75.6849 128.937 76.5566C129.125 77.4233 129.68 78.5004 130.603 79.7878C131.513 81.0574 132.354 81.9293 133.128 82.4037C133.87 82.8731 134.563 83.0663 135.208 82.9834C135.821 82.8955 136.414 82.6464 136.986 82.2363Z" fill="white"/>
<path d="M389.867 291.423C388.803 291.252 388.03 290.793 387.549 290.047C387.068 289.301 386.904 288.45 387.058 287.494L388.938 275.831L388.287 275.726C388.054 276.201 387.656 276.594 387.094 276.904C386.531 277.214 385.87 277.308 385.11 277.186C384.284 277.053 383.601 276.664 383.058 276.019C382.541 275.357 382.363 274.526 382.524 273.527C382.647 272.766 382.924 272.154 383.355 271.688C383.787 271.223 384.314 270.785 384.938 270.373L387.658 268.638C388.602 268.033 389.459 267.625 390.228 267.415C391.001 267.183 391.854 267.142 392.788 267.293C393.548 267.415 394.228 267.692 394.827 268.123C395.426 268.554 395.865 269.148 396.144 269.906C396.448 270.646 396.511 271.57 396.332 272.677L393.769 288.576C393.615 289.532 393.203 290.29 392.534 290.85C391.864 291.411 390.975 291.602 389.867 291.423ZM412.512 280.5C413.815 280.71 414.935 281.091 415.871 281.643C416.829 282.199 417.513 283 417.924 284.047C418.359 285.075 418.439 286.447 418.162 288.163C417.921 289.662 417.448 290.867 416.744 291.778C416.065 292.672 415.224 293.327 414.221 293.745C413.243 294.144 412.17 294.373 411.002 294.429C409.837 294.465 408.647 294.384 407.431 294.188C404.672 293.743 402.587 293.062 401.175 292.143C399.767 291.203 399.198 289.897 399.467 288.225C399.656 287.052 400.193 286.213 401.076 285.71C401.963 285.184 403.013 285.097 404.227 285.449C405.165 285.711 406.188 285.999 407.297 286.311C408.405 286.624 409.591 286.87 410.854 287.052C411.701 287.188 412.33 287.156 412.742 286.955C413.178 286.736 413.438 286.365 413.522 285.844C413.624 285.214 413.506 284.705 413.167 284.316C412.854 283.909 412.274 283.637 411.427 283.501L404.878 282.445C403.705 282.256 402.839 281.893 402.279 281.358C401.719 280.822 401.53 279.989 401.712 278.859L402.579 273.484C402.761 272.354 403.075 271.514 403.521 270.962C403.988 270.413 404.556 270.07 405.224 269.933C405.914 269.799 406.672 269.798 407.497 269.931L416.326 271.355C417.738 271.582 418.675 272.056 419.139 272.777C419.602 273.498 419.751 274.369 419.587 275.39C419.422 276.411 419.003 277.212 418.33 277.795C417.66 278.355 416.619 278.522 415.207 278.294C414.078 278.112 412.989 277.68 411.94 276.999C410.913 276.32 410.089 275.486 409.469 274.494L408.818 274.389L407.951 279.765L412.512 280.5ZM431.113 298.106C428.941 297.756 427.25 296.982 426.039 295.784C424.828 294.586 424.043 293.033 423.682 291.125C423.342 289.221 423.369 287.053 423.761 284.62C424.153 282.187 424.829 280.135 425.79 278.462C426.775 276.772 428.033 275.537 429.562 274.759C431.092 273.98 432.899 273.759 434.984 274.095C437.069 274.431 438.715 275.209 439.923 276.429C441.152 277.652 441.957 279.219 442.34 281.13C442.748 283.023 442.756 285.186 442.364 287.619C441.972 290.051 441.304 292.117 440.362 293.814C439.442 295.516 438.219 296.744 436.693 297.501C435.167 298.258 433.307 298.46 431.113 298.106ZM427.483 284.752C427.375 285.425 427.413 286.089 427.597 286.743C427.806 287.378 428.283 287.945 429.027 288.444C429.797 288.924 430.952 289.289 432.495 289.538C434.058 289.79 435.27 289.807 436.13 289.589C437.015 289.353 437.645 288.964 438.022 288.423C438.424 287.864 438.68 287.248 438.788 286.575C438.9 285.88 438.848 285.236 438.632 284.644C438.44 284.034 437.958 283.499 437.185 283.04C436.438 282.563 435.282 282.199 433.718 281.947C432.176 281.698 430.964 281.681 430.083 281.895C429.227 282.092 428.601 282.448 428.206 282.963C427.836 283.461 427.595 284.057 427.483 284.752ZM454.606 301.893C452.434 301.543 450.743 300.769 449.532 299.571C448.321 298.373 447.535 296.82 447.174 294.912C446.835 293.008 446.862 290.84 447.254 288.407C447.646 285.975 448.322 283.922 449.283 282.25C450.268 280.559 451.526 279.324 453.055 278.546C454.584 277.767 456.392 277.546 458.477 277.882C460.562 278.218 462.208 278.996 463.415 280.216C464.644 281.439 465.45 283.006 465.833 284.918C466.241 286.811 466.249 288.974 465.856 291.406C465.464 293.839 464.797 295.904 463.855 297.602C462.934 299.303 461.711 300.532 460.185 301.289C458.66 302.045 456.8 302.247 454.606 301.893ZM450.976 288.539C450.868 289.213 450.905 289.876 451.09 290.53C451.299 291.165 451.776 291.732 452.52 292.231C453.29 292.712 454.445 293.076 455.987 293.325C457.551 293.577 458.763 293.594 459.623 293.376C460.507 293.14 461.138 292.751 461.515 292.21C461.917 291.651 462.173 291.035 462.281 290.362C462.393 289.667 462.341 289.023 462.124 288.431C461.933 287.821 461.451 287.286 460.678 286.828C459.931 286.351 458.775 285.986 457.211 285.734C455.669 285.485 454.457 285.468 453.576 285.683C452.72 285.879 452.094 286.235 451.699 286.751C451.329 287.248 451.088 287.844 450.976 288.539Z" fill="white"/>
<path d="M359.884 231.874C359.114 232.059 358.386 231.951 357.702 231.55C357.012 231.127 356.557 230.456 356.336 229.536C356.125 228.659 356.234 227.886 356.662 227.218C357.089 226.55 357.699 226.12 358.49 225.93L365.871 224.158C366.683 223.963 367.413 224.081 368.06 224.514C368.702 224.926 369.126 225.559 369.331 226.415C369.537 227.271 369.452 228.049 369.078 228.75C368.703 229.451 368.109 229.899 367.296 230.094L359.884 231.874ZM387.512 234.504C386.464 234.756 385.574 234.63 384.842 234.127C384.111 233.624 383.632 232.902 383.406 231.961L380.647 220.474L380.005 220.628C379.974 221.156 379.758 221.671 379.358 222.174C378.959 222.678 378.385 223.019 377.636 223.199C376.823 223.394 376.042 223.299 375.294 222.913C374.561 222.501 374.077 221.803 373.84 220.819C373.66 220.07 373.68 219.398 373.899 218.802C374.118 218.206 374.436 217.598 374.852 216.978L376.694 214.33C377.332 213.407 377.966 212.701 378.595 212.21C379.218 211.699 379.99 211.332 380.91 211.111C381.659 210.931 382.392 210.925 383.111 211.092C383.83 211.258 384.464 211.638 385.014 212.23C385.579 212.795 385.993 213.624 386.255 214.715L390.016 230.373C390.242 231.315 390.154 232.173 389.752 232.948C389.35 233.724 388.603 234.242 387.512 234.504ZM405.417 230.238C403.278 230.752 401.419 230.689 399.84 230.05C398.262 229.411 396.938 228.281 395.87 226.66C394.823 225.033 394.012 223.022 393.437 220.626C392.861 218.23 392.695 216.076 392.936 214.162C393.195 212.222 393.879 210.599 394.991 209.291C396.102 207.983 397.685 207.083 399.738 206.59C401.792 206.096 403.611 206.18 405.195 206.84C406.8 207.496 408.147 208.631 409.237 210.248C410.343 211.837 411.183 213.83 411.759 216.226C412.334 218.622 412.514 220.785 412.299 222.714C412.105 224.639 411.45 226.244 410.333 227.531C409.217 228.817 407.578 229.719 405.417 230.238ZM396.923 219.314C397.082 219.977 397.372 220.575 397.794 221.107C398.233 221.613 398.891 221.952 399.77 222.126C400.665 222.273 401.872 222.164 403.391 221.799C404.931 221.429 406.056 220.978 406.765 220.446C407.491 219.887 407.923 219.285 408.062 218.641C408.218 217.97 408.216 217.303 408.057 216.64C407.893 215.955 407.596 215.382 407.169 214.919C406.757 214.429 406.106 214.122 405.216 213.996C404.342 213.844 403.136 213.953 401.595 214.323C400.076 214.687 398.952 215.139 398.221 215.676C397.507 216.187 397.066 216.757 396.901 217.385C396.751 217.986 396.758 218.629 396.923 219.314ZM428.556 224.682C426.416 225.195 424.557 225.133 422.979 224.494C421.4 223.855 420.076 222.724 419.008 221.103C417.961 219.477 417.15 217.465 416.575 215.069C416 212.674 415.833 210.519 416.075 208.606C416.333 206.666 417.018 205.042 418.129 203.734C419.24 202.427 420.823 201.526 422.876 201.033C424.93 200.54 426.749 200.623 428.333 201.284C429.938 201.939 431.286 203.075 432.375 204.691C433.481 206.281 434.322 208.273 434.897 210.669C435.472 213.065 435.652 215.228 435.437 217.158C435.243 219.082 434.588 220.688 433.471 221.974C432.355 223.26 430.716 224.163 428.556 224.682ZM420.061 213.757C420.22 214.42 420.511 215.018 420.933 215.55C421.371 216.056 422.029 216.395 422.908 216.569C423.803 216.716 425.01 216.607 426.529 216.242C428.069 215.873 429.194 215.421 429.903 214.889C430.629 214.33 431.061 213.729 431.201 213.084C431.356 212.413 431.355 211.746 431.195 211.083C431.031 210.399 430.735 209.825 430.307 209.362C429.895 208.873 429.244 208.565 428.354 208.439C427.481 208.287 426.274 208.396 424.734 208.766C423.215 209.131 422.09 209.582 421.359 210.119C420.645 210.63 420.205 211.2 420.039 211.828C419.889 212.43 419.896 213.073 420.061 213.757ZM444.471 215.192C444.928 214.268 445.485 213.387 446.144 212.55C446.819 211.686 447.538 210.722 448.3 209.657C449.084 208.586 449.859 207.291 450.625 205.772C451.403 204.205 451.965 202.826 452.313 201.634C452.681 200.437 452.985 199.346 453.223 198.361C453.483 197.37 453.839 196.403 454.291 195.457C454.731 194.559 455.276 193.999 455.923 193.775C456.587 193.525 457.225 193.542 457.836 193.825C458.468 194.103 458.872 194.606 459.046 195.333C459.243 196.055 459.085 196.908 458.575 197.89C458.129 198.766 457.593 199.596 456.967 200.38C456.34 201.164 455.66 202.052 454.925 203.043C454.19 204.034 453.442 205.299 452.68 206.84C451.914 208.359 451.343 209.752 450.969 211.018C450.589 212.263 450.264 213.405 449.993 214.443C449.721 215.481 449.347 216.464 448.869 217.394C448.449 218.286 447.913 218.834 447.26 219.036C446.602 219.216 445.979 219.162 445.389 218.874C444.768 218.548 444.351 218.083 444.137 217.478C443.919 216.851 444.03 216.089 444.471 215.192ZM443.183 196.971C444.745 196.596 446.136 196.782 447.356 197.53C448.598 198.272 449.437 199.553 449.874 201.371C450.3 203.147 450.129 204.647 449.36 205.872C448.612 207.093 447.457 207.89 445.896 208.266C444.318 208.667 442.919 208.494 441.699 207.746C440.473 206.977 439.647 205.705 439.221 203.929C438.784 202.111 438.94 200.592 439.687 199.371C440.43 198.13 441.595 197.329 443.183 196.971ZM441.62 203.319C441.676 203.555 441.794 203.764 441.974 203.947C442.175 204.125 442.494 204.229 442.931 204.26C443.39 204.286 444.037 204.198 444.871 203.998C445.705 203.797 446.31 203.584 446.686 203.358C447.061 203.132 447.288 202.897 447.365 202.652C447.442 202.408 447.452 202.168 447.395 201.932C447.334 201.676 447.213 201.456 447.033 201.273C446.854 201.089 446.545 200.983 446.108 200.952C445.671 200.921 445.035 201.006 444.2 201.206C443.366 201.407 442.751 201.622 442.354 201.853C441.978 202.079 441.741 202.317 441.643 202.567C441.566 202.812 441.558 203.063 441.62 203.319ZM453.292 211.648C452.866 209.872 453.026 208.374 453.774 207.154C454.522 205.934 455.676 205.136 457.238 204.761C458.816 204.36 460.218 204.543 461.443 205.312C462.685 206.055 463.519 207.314 463.945 209.09C464.382 210.908 464.218 212.44 463.454 213.687C462.712 214.929 461.546 215.729 459.958 216.088C458.397 216.463 457.006 216.277 455.785 215.529C454.56 214.76 453.729 213.466 453.292 211.648ZM455.754 211.158C455.81 211.394 455.929 211.603 456.108 211.786C456.309 211.964 456.629 212.068 457.066 212.099C457.524 212.125 458.171 212.037 459.005 211.837C459.84 211.637 460.444 211.424 460.82 211.198C461.196 210.972 461.422 210.736 461.499 210.492C461.576 210.247 461.586 210.007 461.53 209.771C461.468 209.515 461.347 209.295 461.168 209.112C460.988 208.929 460.679 208.822 460.242 208.791C459.805 208.76 459.169 208.845 458.335 209.045C457.501 209.246 456.885 209.461 456.488 209.693C456.112 209.919 455.875 210.156 455.777 210.406C455.7 210.651 455.692 210.902 455.754 211.158Z" fill="white"/>
<path d="M377.586 181.102C376.71 181.73 375.838 181.949 374.971 181.759C374.104 181.568 373.388 181.08 372.824 180.293L365.942 170.69L365.406 171.075C365.575 171.576 365.57 172.134 365.389 172.751C365.209 173.368 364.805 173.9 364.18 174.349C363.5 174.836 362.741 175.042 361.902 174.966C361.068 174.86 360.356 174.396 359.767 173.573C359.318 172.947 359.083 172.317 359.062 171.683C359.04 171.049 359.106 170.366 359.258 169.634L359.967 166.487C360.21 165.392 360.531 164.499 360.929 163.808C361.314 163.099 361.891 162.469 362.66 161.918C363.286 161.47 363.963 161.187 364.692 161.071C365.42 160.955 366.151 161.067 366.883 161.409C367.62 161.72 368.315 162.331 368.969 163.243L378.35 176.333C378.914 177.12 379.155 177.948 379.075 178.817C378.994 179.687 378.498 180.449 377.586 181.102ZM392.566 170.407C390.778 171.688 389.033 172.331 387.329 172.333C385.626 172.336 383.974 171.787 382.374 170.688C380.792 169.575 379.283 168.017 377.848 166.015C376.412 164.012 375.446 162.079 374.95 160.215C374.458 158.321 374.481 156.559 375.018 154.929C375.555 153.299 376.682 151.869 378.399 150.638C380.116 149.408 381.832 148.801 383.548 148.816C385.282 148.818 386.958 149.363 388.576 150.45C390.199 151.506 391.728 153.035 393.164 155.038C394.599 157.041 395.58 158.977 396.107 160.845C396.653 162.701 396.65 164.435 396.1 166.047C395.55 167.659 394.373 169.113 392.566 170.407ZM380.583 163.486C380.98 164.041 381.474 164.485 382.066 164.819C382.662 165.122 383.4 165.189 384.279 165.019C385.164 164.818 386.241 164.262 387.511 163.352C388.798 162.43 389.67 161.588 390.127 160.828C390.588 160.037 390.763 159.317 390.649 158.667C390.54 157.987 390.288 157.37 389.89 156.816C389.48 156.243 388.99 155.824 388.419 155.556C387.853 155.258 387.135 155.218 386.263 155.437C385.396 155.625 384.319 156.18 383.032 157.103C381.762 158.013 380.89 158.854 380.416 159.627C379.946 160.37 379.753 161.063 379.836 161.707C379.924 162.321 380.173 162.914 380.583 163.486ZM411.908 156.545C410.12 157.827 408.374 158.469 406.671 158.471C404.968 158.474 403.316 157.926 401.716 156.826C400.134 155.713 398.625 154.156 397.19 152.153C395.754 150.15 394.788 148.217 394.292 146.353C393.8 144.459 393.823 142.697 394.36 141.067C394.897 139.437 396.024 138.007 397.741 136.777C399.457 135.546 401.174 134.939 402.89 134.954C404.624 134.956 406.3 135.501 407.918 136.588C409.541 137.644 411.07 139.174 412.505 141.176C413.941 143.179 414.922 145.115 415.449 146.984C415.994 148.839 415.992 150.573 415.442 152.185C414.892 153.798 413.714 155.251 411.908 156.545ZM399.925 149.624C400.322 150.179 400.816 150.623 401.407 150.957C402.004 151.26 402.742 151.327 403.621 151.157C404.506 150.956 405.583 150.401 406.853 149.491C408.14 148.568 409.012 147.726 409.469 146.966C409.93 146.175 410.104 145.455 409.991 144.806C409.882 144.125 409.629 143.508 409.232 142.954C408.822 142.382 408.332 141.962 407.761 141.694C407.195 141.396 406.477 141.356 405.605 141.575C404.738 141.763 403.661 142.318 402.374 143.241C401.104 144.151 400.232 144.992 399.757 145.765C399.288 146.508 399.095 147.201 399.178 147.846C399.265 148.459 399.515 149.052 399.925 149.624ZM431.25 142.683C429.462 143.965 427.716 144.607 426.013 144.61C424.31 144.612 422.658 144.064 421.058 142.964C419.475 141.852 417.967 140.294 416.531 138.291C415.096 136.288 414.13 134.355 413.634 132.492C413.142 130.597 413.165 128.835 413.702 127.205C414.239 125.575 415.366 124.145 417.082 122.915C418.799 121.685 420.516 121.077 422.232 121.092C423.966 121.095 425.642 121.639 427.26 122.726C428.883 123.782 430.412 125.312 431.847 127.315C433.283 129.317 434.264 131.253 434.791 133.122C435.336 134.978 435.334 136.712 434.784 138.324C434.234 139.936 433.056 141.389 431.25 142.683ZM419.266 135.763C419.664 136.317 420.158 136.761 420.749 137.095C421.346 137.399 422.084 137.465 422.963 137.295C423.848 137.094 424.925 136.539 426.194 135.629C427.482 134.706 428.354 133.865 428.81 133.104C429.272 132.313 429.446 131.593 429.333 130.944C429.224 130.264 428.971 129.646 428.574 129.092C428.164 128.52 427.673 128.1 427.103 127.832C426.537 127.534 425.818 127.494 424.947 127.713C424.08 127.901 423.003 128.456 421.715 129.379C420.446 130.289 419.574 131.131 419.099 131.904C418.63 132.646 418.437 133.339 418.519 133.984C418.607 134.597 418.856 135.19 419.266 135.763Z" fill="white"/>
<path d="M352.729 120.703C352.163 121.646 351.469 122.205 350.647 122.379C349.805 122.541 348.979 122.379 348.168 121.893L345.167 120.094L344.913 120.519C345.271 120.862 345.572 121.324 345.813 121.905C346.055 122.486 346.136 123.163 346.057 123.937C345.979 124.71 345.656 125.569 345.091 126.512C344.638 127.267 344.061 127.909 343.36 128.437C342.65 128.935 341.873 129.226 341.028 129.31C340.176 129.363 339.306 129.123 338.419 128.592C337.721 128.173 337.136 127.63 336.664 126.963C336.184 126.265 335.656 125.307 335.078 124.088L331.816 117.207C331.053 115.57 330.605 114.135 330.473 112.901C330.352 111.649 330.608 110.494 331.241 109.437C331.682 108.701 332.216 108.111 332.842 107.665C333.461 107.19 334.194 106.95 335.043 106.946C335.892 106.942 336.854 107.262 337.93 107.907L345.204 112.267C345.204 112.267 345.257 112.158 345.362 111.939C345.449 111.709 345.566 111.471 345.713 111.226C346.098 110.584 346.626 110.131 347.297 109.867C347.95 109.591 348.748 109.736 349.691 110.302C350.616 110.856 351.12 111.492 351.203 112.208C351.286 112.925 351.136 113.604 350.751 114.246C350.604 114.491 350.449 114.706 350.287 114.891C350.125 115.076 350.044 115.169 350.044 115.169L351.629 116.119C352.44 116.605 352.973 117.258 353.226 118.076C353.471 118.865 353.306 119.74 352.729 120.703ZM339.163 121.381C339.273 121.627 339.422 121.742 339.61 121.726C339.799 121.711 339.95 121.609 340.063 121.421L341.997 118.194L336.337 114.8L336.15 115.112L339.163 121.381ZM363.815 102.403C362.683 104.289 361.337 105.573 359.775 106.253C358.214 106.932 356.48 107.086 354.574 106.713C352.68 106.321 350.676 105.492 348.563 104.225C346.45 102.958 344.795 101.568 343.598 100.056C342.394 98.5133 341.714 96.8874 341.559 95.1783C341.404 93.4692 341.869 91.7089 342.955 89.8975C344.041 88.086 345.374 86.8461 346.955 86.1777C348.547 85.4904 350.301 85.3237 352.218 85.6776C354.127 86.0014 356.138 86.7967 358.252 88.0636C360.365 89.3305 362.035 90.7165 363.262 92.2214C364.5 93.7075 365.187 95.2994 365.324 96.9972C365.46 98.695 364.957 100.497 363.815 102.403ZM350.067 100.818C350.652 101.168 351.282 101.379 351.958 101.451C352.626 101.492 353.329 101.26 354.068 100.754C354.8 100.218 355.568 99.2798 356.371 97.9401C357.185 96.5815 357.651 95.4626 357.767 94.5835C357.876 93.6742 357.75 92.9441 357.387 92.3934C357.017 91.8125 356.54 91.3468 355.955 90.9961C355.351 90.6341 354.734 90.4438 354.104 90.4252C353.466 90.3764 352.791 90.6257 352.078 91.173C351.358 91.6902 350.59 92.6281 349.776 93.9867C348.973 95.3264 348.507 96.4452 348.379 97.3432C348.244 98.2111 348.342 98.9241 348.675 99.4824C348.999 100.01 349.463 100.456 350.067 100.818ZM376.05 81.9929C374.919 83.8798 373.572 85.1631 372.01 85.8429C370.449 86.5226 368.715 86.6761 366.81 86.3033C364.915 85.9116 362.912 85.0823 360.798 83.8154C358.685 82.5485 357.03 81.1588 355.833 79.6463C354.629 78.1036 353.949 76.4777 353.794 74.7686C353.639 73.0595 354.104 71.2993 355.19 69.4878C356.276 67.6764 357.609 66.4364 359.19 65.768C360.782 65.0807 362.536 64.914 364.453 65.268C366.362 65.5917 368.373 66.387 370.487 67.6539C372.6 68.9209 374.27 70.3068 375.497 71.8117C376.735 73.2978 377.422 74.8897 377.559 76.5875C377.695 78.2853 377.192 80.0871 376.05 81.9929ZM362.302 80.4078C362.887 80.7585 363.518 80.9695 364.193 81.041C364.861 81.0822 365.564 80.8499 366.304 80.344C367.035 79.808 367.803 78.8701 368.606 77.5304C369.42 76.1718 369.886 75.053 370.003 74.1738C370.112 73.2645 369.985 72.5345 369.623 71.9838C369.253 71.4029 368.775 70.9371 368.19 70.5864C367.586 70.2245 366.969 70.0342 366.339 70.0155C365.702 69.9667 365.026 70.216 364.313 70.7634C363.593 71.2805 362.826 72.2184 362.011 73.577C361.208 74.9167 360.743 76.0356 360.615 76.9336C360.479 77.8014 360.577 78.5145 360.91 79.0727C361.234 79.6008 361.699 80.0459 362.302 80.4078Z" fill="white"/>
<path d="M297.136 94.5815C296.88 96.1448 296.532 97.5831 296.091 98.8964C295.653 100.188 295.057 101.2 294.303 101.932C293.551 102.643 292.61 102.914 291.479 102.745C290.325 102.573 289.49 102.136 288.971 101.436C288.435 100.711 288.236 99.8805 288.376 98.9449C288.552 97.7699 288.782 96.7478 289.068 95.8784C289.357 94.9873 289.581 94.0087 289.74 92.9425C289.877 92.0287 289.826 91.3983 289.589 91.0514C289.355 90.6828 288.987 90.4611 288.487 90.3863C287.421 90.227 286.759 91.0068 286.503 92.7257L286.225 94.5861C286.114 95.3259 285.86 95.8329 285.463 96.1073C285.045 96.3784 284.585 96.4766 284.085 96.4018C283.563 96.3238 283.152 96.0956 282.852 95.7172C282.553 95.3388 282.459 94.7797 282.569 94.0399L282.847 92.1796C282.967 91.3745 282.895 90.8187 282.629 90.512C282.342 90.2022 281.959 90.0115 281.48 89.94C281.088 89.8814 280.763 89.9774 280.503 90.2277C280.243 90.4781 280.059 90.9622 279.952 91.6803C279.822 92.5506 279.799 93.4481 279.883 94.3727C279.968 95.2973 279.938 96.2383 279.795 97.1957C279.643 98.2183 279.295 99.0561 278.752 99.7091C278.191 100.337 277.28 100.557 276.018 100.368C275.148 100.238 274.489 99.884 274.041 99.3055C273.575 98.7021 273.266 97.944 273.113 97.0314C272.939 96.1156 272.875 95.1273 272.922 94.0666C272.973 92.9842 273.081 91.8882 273.247 90.7785C273.481 89.2119 273.89 87.816 274.473 86.5907C275.035 85.3622 275.797 84.4306 276.759 83.7959C277.725 83.1394 278.936 82.92 280.394 83.1378C281.983 83.3752 283.19 84.0783 284.016 85.2472C284.824 86.3912 285.105 87.79 284.857 89.4436L285.576 89.5509C285.741 88.4412 286.074 87.4788 286.574 86.6638C287.056 85.8237 287.727 85.2011 288.588 84.7959C289.45 84.3907 290.533 84.2857 291.839 84.4807C293.318 84.7018 294.497 85.3005 295.374 86.2769C296.229 87.25 296.805 88.4594 297.101 89.9049C297.375 91.3472 297.386 92.9061 297.136 94.5815ZM300.756 71.2474C300.431 73.4233 299.676 75.1234 298.492 76.3479C297.308 77.5724 295.765 78.3761 293.861 78.759C291.961 79.1202 289.792 79.1187 287.355 78.7546C284.919 78.3905 282.858 77.7379 281.175 76.7968C279.473 75.8307 278.224 74.5875 277.428 73.0671C276.632 71.5468 276.39 69.7422 276.702 67.6534C277.014 65.5646 277.773 63.9096 278.979 62.6883C280.188 61.4453 281.745 60.6215 283.652 60.2168C285.54 59.7871 287.703 59.7544 290.14 60.1185C292.577 60.4826 294.65 61.1259 296.358 62.0485C298.07 62.9494 299.313 64.1583 300.087 65.6754C300.861 67.1925 301.084 69.0498 300.756 71.2474ZM287.445 75.0309C288.119 75.1317 288.782 75.0862 289.434 74.8943C290.067 74.6775 290.628 74.1942 291.118 73.4444C291.59 72.6696 291.941 71.5097 292.172 69.9649C292.406 68.3983 292.409 67.1864 292.182 66.3294C291.935 65.4473 291.539 64.8209 290.994 64.4503C290.431 64.0546 289.811 63.8064 289.137 63.7056C288.441 63.6016 287.798 63.6612 287.208 63.8846C286.6 64.0829 286.071 64.5711 285.621 65.3492C285.153 66.1022 284.802 67.262 284.568 68.8287C284.337 70.3735 284.334 71.5854 284.558 72.4642C284.764 73.318 285.128 73.9395 285.648 74.3287C286.149 74.6928 286.748 74.9269 287.445 75.0309ZM304.272 47.7126C303.947 49.8884 303.193 51.5886 302.009 52.8131C300.825 54.0376 299.281 54.8413 297.378 55.2242C295.477 55.5854 293.309 55.5839 290.872 55.2198C288.435 54.8556 286.375 54.203 284.691 53.2619C282.989 52.2958 281.74 51.0526 280.944 49.5323C280.148 48.012 279.906 46.2074 280.218 44.1186C280.531 42.0298 281.289 40.3747 282.495 39.1535C283.704 37.9105 285.262 37.0867 287.169 36.682C289.057 36.2523 291.219 36.2195 293.656 36.5836C296.093 36.9478 298.166 37.5911 299.874 38.5137C301.586 39.4145 302.829 40.6235 303.603 42.1406C304.378 43.6576 304.601 45.515 304.272 47.7126ZM290.961 51.4961C291.636 51.5968 292.299 51.5513 292.95 51.3595C293.583 51.1427 294.145 50.6593 294.635 49.9095C295.107 49.1347 295.458 47.9749 295.689 46.4301C295.923 44.8634 295.926 43.6516 295.698 42.7945C295.452 41.9124 295.056 41.2861 294.511 40.9154C293.947 40.5198 293.328 40.2716 292.653 40.1708C291.957 40.0668 291.314 40.1264 290.725 40.3497C290.117 40.5481 289.588 41.0363 289.138 41.8143C288.669 42.5674 288.318 43.7272 288.084 45.2938C287.853 46.8387 287.85 48.0505 288.075 48.9294C288.281 49.7832 288.644 50.4047 289.164 50.7938C289.666 51.1579 290.265 51.392 290.961 51.4961Z" fill="white"/>
<path d="M236.802 112.355C237.103 113.55 237.289 114.785 237.36 116.06C237.405 117.319 237.321 118.52 237.109 119.662C236.871 120.788 236.488 121.747 235.961 122.537C235.413 123.333 234.68 123.846 233.762 124.077C232.589 124.372 231.556 124.235 230.664 123.666C229.772 123.096 229.222 122.304 229.012 121.291C228.835 120.496 228.807 119.664 228.928 118.794C229.028 117.929 229.126 117.054 229.22 116.168C229.31 115.261 229.25 114.391 229.041 113.559C228.831 112.727 228.58 112.178 228.286 111.912C227.992 111.645 227.664 111.558 227.301 111.649C226.874 111.756 226.579 112.069 226.414 112.587C226.249 113.105 226.178 113.724 226.201 114.444L226.211 116.109C226.235 117.827 226.173 119.385 226.026 120.783C225.857 122.187 225.472 123.361 224.871 124.306C224.242 125.236 223.256 125.87 221.912 126.208C220.44 126.578 219.143 126.473 218.022 125.893C216.879 125.319 215.92 124.392 215.144 123.112C214.369 121.833 213.766 120.34 213.337 118.633C212.897 116.883 212.692 115.302 212.722 113.888C212.751 112.474 213.017 111.318 213.517 110.421C214.012 109.502 214.75 108.92 215.731 108.673C216.777 108.41 217.67 108.491 218.413 108.917C219.128 109.327 219.604 110.001 219.84 110.94C219.996 111.558 220.053 112.236 220.012 112.972C219.965 113.687 219.939 114.443 219.935 115.238C219.904 116.017 219.993 116.822 220.203 117.654C220.39 118.401 220.65 118.937 220.981 119.262C221.291 119.592 221.628 119.712 221.99 119.621C222.438 119.508 222.705 119.169 222.789 118.603C222.874 118.037 222.918 117.13 222.921 115.881L222.886 113.985C222.879 112.421 222.991 111.02 223.224 109.782C223.457 108.544 223.912 107.511 224.588 106.683C225.265 105.855 226.275 105.272 227.619 104.933C229.241 104.526 230.66 104.577 231.877 105.087C233.073 105.603 234.078 106.485 234.891 107.732C235.704 108.979 236.341 110.521 236.802 112.355ZM216.36 99.9466C216.629 101.013 216.539 101.966 216.092 102.804C215.64 103.621 214.87 104.167 213.782 104.44C212.715 104.709 211.786 104.625 210.996 104.188C210.179 103.736 209.62 102.913 209.32 101.718L205.85 87.9246C205.549 86.7298 205.654 85.7505 206.166 84.9867C206.65 84.207 207.425 83.683 208.492 83.4146C209.58 83.1409 210.52 83.2675 211.31 83.7946C212.095 84.3003 212.622 85.0866 212.89 86.1534C213.073 86.8787 213.146 87.4843 213.109 87.9699C213.046 88.4395 212.942 88.8398 212.799 89.1709C212.634 89.5073 212.509 89.8223 212.424 90.1159C212.318 90.4148 212.313 90.7563 212.409 91.1404L213.058 91.2835C213.229 91.1498 213.468 90.9307 213.777 90.6261C214.065 90.3269 214.515 89.9981 215.129 89.6397C215.72 89.2866 216.571 88.9705 217.68 88.6914L226.929 86.3647C227.804 86.1447 228.612 86.2929 229.355 86.8093C230.092 87.3045 230.579 88.0214 230.815 88.9602C231.056 89.9203 230.972 90.8035 230.563 91.6098C230.147 92.3947 229.503 92.8973 228.628 93.1173L219.379 95.444C218.27 95.7231 217.371 95.8472 216.682 95.8162C215.973 95.7906 215.42 95.714 215.025 95.5865C214.603 95.4431 214.286 95.3529 214.072 95.3158L213.577 95.7808C213.673 96.1648 213.839 96.4634 214.074 96.6764C214.288 96.8949 214.547 97.1133 214.852 97.3316C215.135 97.5553 215.415 97.859 215.693 98.2428C215.95 98.6319 216.172 99.1998 216.36 99.9466ZM224.937 65.1899C225.511 67.4728 225.496 69.5297 224.89 71.3608C224.284 73.1919 223.198 74.7355 221.631 75.9918C220.064 77.248 218.129 78.1659 215.825 78.7456C213.542 79.3199 211.413 79.4244 209.438 79.0592C207.442 78.6993 205.744 77.8561 204.344 76.5295C202.923 75.2084 201.925 73.4063 201.351 71.1235C200.777 68.8406 200.805 66.7916 201.438 64.9765C202.043 63.1454 203.14 61.5991 204.728 60.3375C206.295 59.0813 208.22 58.166 210.503 57.5917C212.807 57.0121 214.947 56.9048 216.922 57.2701C218.896 57.6354 220.584 58.4813 221.984 59.8078C223.378 61.113 224.363 62.907 224.937 65.1899ZM214.298 74.8421C214.96 74.6757 215.549 74.3573 216.066 73.887C216.561 73.4221 216.872 72.6746 216.999 71.6446C217.104 70.62 216.923 69.1796 216.456 67.3234C215.989 65.4673 215.47 64.1234 214.897 63.2919C214.299 62.4444 213.671 61.933 213.014 61.7579C212.336 61.5882 211.667 61.5865 211.005 61.7529C210.323 61.9247 209.755 62.2376 209.302 62.6919C208.828 63.1514 208.549 63.8908 208.465 64.9101C208.354 65.9134 208.533 67.3431 208.999 69.1993C209.466 71.0555 209.989 72.41 210.566 73.2629C211.122 74.1211 211.718 74.6405 212.353 74.8209C212.967 75.0068 213.616 75.0138 214.298 74.8421ZM211.971 45.3027L215.972 44.2963C217.081 44.0172 217.999 44.1039 218.725 44.5563C219.446 44.9875 219.927 45.6831 220.169 46.6432L220.177 46.6752C220.44 47.7206 220.361 48.6251 219.941 49.3888C219.515 50.1311 218.748 50.6418 217.638 50.9209L213.126 52.0561C210.864 52.625 209.061 52.7157 207.716 52.3282C206.37 51.9406 205.31 51.2886 204.535 50.372L203.968 50.685L204.104 51.229C204.351 52.2104 204.238 53.067 203.764 53.7987C203.264 54.5144 202.472 55.0198 201.389 55.3149C200.328 55.6046 199.394 55.5446 198.588 55.1349C197.776 54.7039 197.247 53.9977 197 53.0163L194.882 44.5996C194.34 42.4447 194.551 40.5315 195.514 38.86C196.451 37.1725 198.306 35.9799 201.079 35.2821C203.085 34.7776 204.752 34.7324 206.082 35.1467C207.411 35.5609 208.455 36.285 209.214 37.3191C209.973 38.3531 210.522 39.5421 210.86 40.8863L211.971 45.3027ZM205.899 47.2725C206.369 47.1544 206.657 46.9913 206.763 46.783C206.864 46.5534 206.856 46.204 206.737 45.7346L205.989 42.7583C205.763 41.8622 205.397 41.2625 204.89 40.9591C204.361 40.6611 203.713 40.6087 202.944 40.8019C202.176 40.9951 201.641 41.3454 201.337 41.8528C201.034 42.3601 200.995 43.0618 201.22 43.9579L201.969 46.9342C202.087 47.4036 202.234 47.7181 202.411 47.878C202.582 48.0164 202.912 48.024 203.403 47.9005L205.899 47.2725Z" fill="white"/>
<g filter="url(#filter0_d_19_84)">
<circle cx="250" cy="250" r="45" fill="#301E1E"/>
<circle cx="250" cy="250" r="43.5" stroke="white" stroke-width="3"/>
</g>
</g>
<defs>
<filter id="filter0_d_19_84" x="168" y="168" width="164" height="164" filterUnits="userSpaceOnUse" color-interpolation-filters="sRGB">
<feFlood flood-opacity="0" result="BackgroundImageFix"/>
<feColorMatrix in="SourceAlpha" type="matrix" values="0 0 0 0 0 0 0 0 0 0 0 0 0 0 0 0 0 0 127 0" result="hardAlpha"/>
<feMorphology radius="20" operator="dilate" in="SourceAlpha" result="effect1_dropShadow_19_84"/>
<feOffset/>
<feGaussianBlur stdDeviation="8.5"/>
<feComposite in2="hardAlpha" operator="out"/>
<feColorMatrix type="matrix" values="0 0 0 0 0 0 0 0 0 0 0 0 0 0 0 0 0 0 0.25 0"/>
<feBlend mode="normal" in2="BackgroundImageFix" result="effect1_dropShadow_19_84"/>
<feBlend mode="normal" in="SourceGraphic" in2="effect1_dropShadow_19_84" result="shape"/>
</filter>
<clipPath id="clip0_19_84">
<rect width="500" height="500" fill="white"/>
</clipPath>
</defs>
</svg>
