<svg width="160" height="160" viewBox="0 0 160 160" fill="none" xmlns="http://www.w3.org/2000/svg">
<g filter="url(#filter0_i_111_375)">
<path d="M80 80H160C160.076 90.4783 158.094 100.869 154.164 110.583L80 80Z" fill="#1D5598"/>
</g>
<g filter="url(#filter1_i_111_375)">
<path d="M80 80L154.164 110.583C150.072 120.322 144.092 129.153 136.569 136.569L80 80Z" fill="#AC64F7"/>
</g>
<g filter="url(#filter2_i_111_375)">
<path d="M80 80L136.569 136.569C129.153 144.092 120.322 150.072 110.583 154.164L80 80Z" fill="#1D5598"/>
</g>
<g filter="url(#filter3_i_111_375)">
<path d="M80 80L110.583 154.164C100.869 158.094 90.4783 160.076 80 160V80Z" fill="#55A02D"/>
</g>
<g filter="url(#filter4_i_111_375)">
<path d="M80.0003 80V160C69.522 160.076 59.1308 158.094 49.417 154.164L80.0003 80Z" fill="#1D5598"/>
</g>
<g filter="url(#filter5_i_111_375)">
<path d="M80.0002 80L49.4169 154.164C39.6784 150.072 30.8468 144.092 23.4316 136.569L80.0002 80Z" fill="#AC64F7"/>
</g>
<g filter="url(#filter6_i_111_375)">
<path d="M80 80L23.4315 136.569C15.9083 129.153 9.92804 120.322 5.83594 110.583L80 80Z" fill="#1D5598"/>
</g>
<g filter="url(#filter7_i_111_375)">
<path d="M80.0002 80L5.83609 110.583C1.90663 100.869 -0.076218 90.4783 0.000172982 80H80.0002Z" fill="#C81111"/>
</g>
<g filter="url(#filter8_i_111_375)">
<path d="M80.0002 80.0001H0.000172982C-0.076218 69.5218 1.90663 59.1306 5.83609 49.4167L80.0002 80.0001Z" fill="#1D5598"/>
</g>
<g filter="url(#filter9_i_111_375)">
<path d="M80 80.0002L5.83594 49.4169C9.92804 39.6784 15.9083 30.8468 23.4315 23.4316L80 80.0002Z" fill="#AC64F7"/>
</g>
<g filter="url(#filter10_i_111_375)">
<path d="M80.0002 80L23.4316 23.4315C30.8468 15.9083 39.6784 9.92804 49.4169 5.83594L80.0002 80Z" fill="#1D5598"/>
</g>
<g filter="url(#filter11_i_111_375)">
<path d="M80.0003 79.9999L49.417 5.83585C59.1308 1.90639 69.522 -0.0764622 80.0003 -7.11586e-05V79.9999Z" fill="#55A02D"/>
</g>
<g filter="url(#filter12_i_111_375)">
<path d="M80 79.9999V-7.11586e-05C90.4783 -0.0764622 100.869 1.90639 110.583 5.83585L80 79.9999Z" fill="#1D5598"/>
</g>
<g filter="url(#filter13_i_111_375)">
<path d="M80 80L110.583 5.83594C120.322 9.92804 129.153 15.9083 136.569 23.4315L80 80Z" fill="#AC64F7"/>
</g>
<g filter="url(#filter14_i_111_375)">
<path d="M80 80.0002L136.569 23.4316C144.092 30.8468 150.072 39.6784 154.164 49.4169L80 80.0002Z" fill="#1D5598"/>
</g>
<g filter="url(#filter15_i_111_375)">
<path d="M80 80.0001L154.164 49.4167C158.094 59.1306 160.076 69.5218 160 80.0001H80Z" fill="#C81111"/>
</g>
<path d="M121.002 112.003C120.371 111.578 119.959 111.089 119.765 110.537C119.58 109.982 119.67 109.433 120.035 108.89C120.242 108.582 120.509 108.363 120.836 108.233C121.172 108.1 121.511 108.089 121.851 108.198L121.94 108.066C121.574 107.509 121.597 106.923 122.01 106.309C122.372 105.771 122.816 105.496 123.343 105.483C123.878 105.469 124.437 105.657 125.019 106.049C125.595 106.436 125.972 106.877 126.15 107.371C126.336 107.863 126.249 108.378 125.887 108.916C125.474 109.531 124.94 109.774 124.286 109.644L124.197 109.776C124.427 110.05 124.542 110.366 124.54 110.724C124.548 111.08 124.448 111.411 124.242 111.719C123.876 112.262 123.402 112.553 122.818 112.59C122.239 112.623 121.633 112.427 121.002 112.003ZM124.648 106.6C124.329 106.386 124.007 106.297 123.68 106.332C123.363 106.366 123.105 106.53 122.905 106.827C122.68 107.162 122.59 107.491 122.634 107.816C122.688 108.139 122.896 108.423 123.258 108.666C123.62 108.91 123.956 108.992 124.264 108.912C124.576 108.827 124.845 108.618 125.07 108.283C125.273 107.981 125.333 107.679 125.25 107.376C125.167 107.073 124.966 106.814 124.648 106.6ZM123.341 111.209C123.566 110.874 123.651 110.529 123.596 110.172C123.54 109.816 123.304 109.498 122.887 109.218C122.47 108.937 122.079 108.837 121.714 108.918C121.357 108.998 121.069 109.202 120.847 109.531C120.626 109.86 120.557 110.193 120.642 110.529C120.733 110.869 120.981 111.175 121.387 111.448C121.787 111.718 122.155 111.829 122.489 111.783C122.832 111.735 123.116 111.543 123.341 111.209Z" fill="white"/>
<path d="M132.13 112.9C131.965 113.418 131.677 113.982 131.268 114.591C130.662 115.491 130.01 116.1 129.31 116.418C128.619 116.735 127.862 116.616 127.038 116.062C126.215 115.509 125.823 114.854 125.861 114.099C125.899 113.343 126.222 112.513 126.831 111.607C127.241 110.998 127.649 110.516 128.056 110.16C128.468 109.807 128.923 109.611 129.42 109.571C129.917 109.531 130.46 109.708 131.047 110.103C131.634 110.498 132.003 110.933 132.153 111.409C132.309 111.888 132.301 112.385 132.13 112.9ZM131.3 112.055C131.44 111.479 131.238 111.009 130.695 110.644C130.152 110.278 129.637 110.267 129.152 110.61C128.666 110.953 128.193 111.467 127.731 112.153C127.174 112.982 126.856 113.668 126.776 114.213C126.697 114.757 126.907 115.197 127.407 115.533C127.906 115.869 128.388 115.898 128.853 115.621C129.328 115.343 129.845 114.786 130.406 113.952C130.868 113.266 131.166 112.634 131.3 112.055Z" fill="white"/>
<path d="M138.379 117.103C138.214 117.621 137.927 118.185 137.517 118.794C136.912 119.694 136.259 120.303 135.559 120.622C134.868 120.938 134.111 120.819 133.288 120.266C132.464 119.712 132.072 119.057 132.11 118.302C132.148 117.546 132.471 116.716 133.08 115.81C133.49 115.201 133.898 114.719 134.305 114.363C134.717 114.01 135.172 113.814 135.669 113.774C136.166 113.734 136.709 113.911 137.296 114.306C137.883 114.701 138.252 115.136 138.402 115.612C138.558 116.091 138.55 116.588 138.379 117.103ZM137.549 116.258C137.689 115.682 137.487 115.212 136.944 114.847C136.401 114.481 135.886 114.47 135.401 114.813C134.915 115.156 134.442 115.67 133.98 116.356C133.423 117.185 133.105 117.871 133.025 118.416C132.946 118.96 133.156 119.4 133.656 119.736C134.155 120.072 134.637 120.101 135.102 119.825C135.577 119.546 136.095 118.989 136.656 118.155C137.117 117.469 137.415 116.837 137.549 116.258Z" fill="white"/>
<path d="M105.579 123.485C105.669 123.718 105.803 123.97 105.981 124.241C106.231 124.623 106.552 124.852 106.942 124.928C107.332 125.004 107.707 124.924 108.066 124.688C108.497 124.404 108.716 124.063 108.723 123.663C108.734 123.26 108.565 122.766 108.213 122.182L107.701 121.331L110.462 119.518L112.472 122.577L111.85 122.986L110.412 120.797L108.854 121.821C109.178 122.351 109.414 122.825 109.562 123.242C109.715 123.656 109.737 124.069 109.628 124.481C109.522 124.899 109.209 125.278 108.69 125.619C108.286 125.884 107.88 126.013 107.471 126.004C107.068 125.992 106.685 125.868 106.324 125.63C105.968 125.39 105.652 125.059 105.376 124.639C105.031 124.114 104.82 123.528 104.744 122.882L105.394 122.752C105.436 123.009 105.498 123.253 105.579 123.485Z" fill="white"/>
<path d="M115.403 129.95C115.05 130.364 114.567 130.773 113.953 131.176C113.047 131.771 112.209 132.08 111.44 132.102C110.681 132.126 110.029 131.724 109.484 130.894C108.94 130.065 108.831 129.31 109.159 128.628C109.486 127.946 110.106 127.305 111.018 126.706C111.632 126.303 112.195 126.017 112.708 125.846C113.224 125.681 113.72 125.676 114.194 125.831C114.668 125.987 115.099 126.36 115.487 126.952C115.876 127.543 116.047 128.087 116.002 128.584C115.96 129.086 115.76 129.542 115.403 129.95ZM114.965 128.849C115.317 128.373 115.313 127.861 114.954 127.314C114.594 126.767 114.124 126.557 113.544 126.685C112.963 126.813 112.328 127.104 111.637 127.558C110.802 128.106 110.243 128.616 109.959 129.087C109.675 129.559 109.698 130.046 110.029 130.549C110.359 131.052 110.792 131.266 111.328 131.191C111.874 131.117 112.566 130.805 113.407 130.253C114.098 129.799 114.617 129.331 114.965 128.849Z" fill="white"/>
<path d="M119.538 136.245C119.185 136.659 118.701 137.067 118.088 137.47C117.181 138.066 116.343 138.375 115.575 138.397C114.815 138.421 114.163 138.018 113.619 137.189C113.074 136.36 112.965 135.605 113.293 134.923C113.62 134.241 114.24 133.6 115.152 133.001C115.766 132.598 116.329 132.311 116.842 132.141C117.359 131.975 117.854 131.971 118.328 132.126C118.802 132.282 119.233 132.655 119.622 133.247C120.01 133.838 120.182 134.382 120.136 134.879C120.094 135.381 119.895 135.837 119.538 136.245ZM119.1 135.144C119.451 134.668 119.448 134.156 119.088 133.609C118.729 133.062 118.259 132.852 117.678 132.98C117.098 133.108 116.462 133.399 115.771 133.853C114.936 134.401 114.377 134.911 114.093 135.382C113.809 135.853 113.833 136.341 114.163 136.844C114.493 137.347 114.927 137.561 115.463 137.485C116.008 137.412 116.701 137.1 117.541 136.548C118.232 136.094 118.751 135.626 119.1 135.144Z" fill="white"/>
<path d="M92.3504 125.306L85.8066 126.772L85.5963 125.833L91.6077 124.486L91.3303 123.247L91.8271 123.106L92.556 124.681C92.5834 124.742 92.6007 124.789 92.6079 124.822C92.6339 124.938 92.6233 125.042 92.5761 125.134C92.5354 125.224 92.4602 125.282 92.3504 125.306Z" fill="white"/>
<path d="M92.7063 133.114C92.2297 133.377 91.6332 133.588 90.9169 133.749C89.8585 133.986 88.9658 133.979 88.2388 133.728C87.5196 133.483 87.0516 132.876 86.8349 131.908C86.6181 130.94 86.7833 130.195 87.3304 129.672C87.8776 129.15 88.6836 128.769 89.7484 128.531C90.4648 128.371 91.093 128.301 91.6332 128.322C92.1748 128.35 92.6399 128.52 93.0285 128.833C93.4171 129.146 93.6887 129.648 93.8433 130.338C93.998 131.029 93.9663 131.598 93.7482 132.047C93.5316 132.502 93.1843 132.858 92.7063 133.114ZM92.685 131.929C93.1823 131.608 93.3594 131.128 93.2163 130.489C93.0732 129.85 92.7075 129.488 92.1192 129.403C91.5308 129.318 90.8333 129.366 90.0266 129.546C89.0521 129.764 88.3489 130.044 87.9169 130.385C87.4849 130.725 87.3347 131.189 87.4662 131.777C87.5978 132.364 87.9276 132.717 88.4557 132.836C88.9918 132.96 89.7502 132.912 90.7312 132.692C91.5379 132.512 92.1891 132.257 92.685 131.929Z" fill="white"/>
<path d="M94.3521 140.463C93.8755 140.726 93.2791 140.937 92.5627 141.098C91.5043 141.335 90.6116 141.328 89.8846 141.077C89.1654 140.832 88.6975 140.225 88.4807 139.257C88.2639 138.289 88.4291 137.544 88.9762 137.021C89.5234 136.499 90.3294 136.118 91.3942 135.88C92.1106 135.72 92.7388 135.65 93.279 135.671C93.8206 135.699 94.2857 135.869 94.6743 136.182C95.0629 136.495 95.3345 136.997 95.4891 137.687C95.6438 138.378 95.6121 138.947 95.394 139.396C95.1774 139.851 94.8301 140.207 94.3521 140.463ZM94.3308 139.278C94.8281 138.957 95.0052 138.477 94.8621 137.838C94.719 137.199 94.3533 136.837 93.765 136.752C93.1766 136.667 92.4791 136.715 91.6724 136.895C90.6979 137.113 89.9947 137.393 89.5627 137.734C89.1308 138.074 88.9805 138.538 89.112 139.126C89.2436 139.713 89.5734 140.066 90.1015 140.185C90.6376 140.309 91.3961 140.261 92.377 140.041C93.1837 139.861 93.8349 139.606 94.3308 139.278Z" fill="white"/>
<path d="M95.9979 147.812C95.5213 148.075 94.9249 148.286 94.2085 148.447C93.1502 148.684 92.2574 148.677 91.5304 148.426C90.8112 148.181 90.3433 147.574 90.1265 146.606C89.9097 145.638 90.0749 144.893 90.622 144.37C91.1692 143.848 91.9752 143.467 93.04 143.229C93.7564 143.069 94.3846 142.999 94.9248 143.02C95.4664 143.048 95.9315 143.218 96.3201 143.531C96.7087 143.844 96.9803 144.346 97.1349 145.036C97.2896 145.727 97.2579 146.296 97.0399 146.745C96.8233 147.2 96.4759 147.556 95.9979 147.812ZM95.9766 146.627C96.4739 146.306 96.651 145.826 96.5079 145.187C96.3648 144.548 95.9991 144.186 95.4108 144.101C94.8224 144.016 94.1249 144.064 93.3182 144.244C92.3438 144.462 91.6405 144.742 91.2085 145.083C90.7766 145.423 90.6263 145.887 90.7579 146.475C90.8894 147.062 91.2192 147.415 91.7473 147.534C92.2834 147.658 93.0419 147.61 94.0228 147.39C94.8295 147.21 95.4807 146.955 95.9766 146.627Z" fill="white"/>
<path d="M73.4129 132.326L66.8507 130.945L67.0488 130.003L73.0771 131.272L73.3386 130.029L73.8495 130.106L73.8594 131.842C73.8587 131.909 73.855 131.959 73.8481 131.991C73.8236 132.108 73.7709 132.198 73.6898 132.262C73.6152 132.328 73.5229 132.349 73.4129 132.326Z" fill="white"/>
<path d="M70.4981 139.578C69.9555 139.619 69.325 139.564 68.6067 139.413C67.5453 139.189 66.7358 138.813 66.1782 138.283C65.6257 137.762 65.4516 137.015 65.6559 136.045C65.8601 135.074 66.3196 134.464 67.0341 134.216C67.7487 133.968 68.6399 133.956 69.7077 134.181C70.426 134.332 71.0265 134.529 71.5092 134.772C71.9905 135.022 72.3431 135.37 72.5669 135.816C72.7907 136.262 72.8297 136.831 72.684 137.524C72.5383 138.216 72.2732 138.721 71.8887 139.039C71.5028 139.363 71.0393 139.543 70.4981 139.578ZM70.97 138.491C71.5559 138.405 71.9162 138.041 72.051 137.401C72.1858 136.76 72.0032 136.279 71.5032 135.957C71.0031 135.636 70.3487 135.39 69.5397 135.22C68.5625 135.014 67.8067 134.977 67.2723 135.108C66.7379 135.238 66.4087 135.598 66.2848 136.187C66.1609 136.776 66.3145 137.234 66.7458 137.561C67.1821 137.897 67.8921 138.168 68.8758 138.375C69.6848 138.545 70.3828 138.584 70.97 138.491Z" fill="white"/>
<path d="M68.9473 146.947C68.4047 146.989 67.7742 146.934 67.0559 146.782C65.9945 146.559 65.1851 146.183 64.6275 145.653C64.0749 145.131 63.9008 144.385 64.1051 143.414C64.3094 142.444 64.7688 141.834 65.4833 141.586C66.1979 141.337 67.0891 141.325 68.1569 141.55C68.8753 141.701 69.4758 141.899 69.9584 142.142C70.4397 142.392 70.7923 142.74 71.0161 143.186C71.2399 143.632 71.279 144.201 71.1333 144.893C70.9875 145.586 70.7224 146.091 70.3379 146.409C69.952 146.733 69.4885 146.913 68.9473 146.947ZM69.4193 145.861C70.0051 145.774 70.3654 145.411 70.5002 144.77C70.635 144.13 70.4524 143.648 69.9524 143.327C69.4524 143.005 68.7979 142.76 67.9889 142.589C67.0117 142.384 66.2559 142.346 65.7215 142.477C65.1871 142.608 64.858 142.968 64.734 143.557C64.6101 144.146 64.7638 144.604 65.195 144.931C65.6313 145.266 66.3414 145.537 67.325 145.744C68.134 145.915 68.8321 145.953 69.4193 145.861Z" fill="white"/>
<path d="M49.3212 121.474C49.186 121.726 49.0411 121.964 48.8863 122.186L47.805 123.742L47.1289 123.272L49.7728 119.468L50.3919 119.898C50.4541 120.191 50.596 120.914 50.8177 122.067C50.9606 122.835 51.0738 123.384 51.1572 123.716C51.2423 124.057 51.3506 124.342 51.4819 124.57C51.6132 124.798 51.8038 124.999 52.0536 125.173C52.3631 125.388 52.669 125.464 52.9711 125.4C53.2694 125.341 53.5167 125.171 53.713 124.889C53.8979 124.622 54.0355 124.384 54.1259 124.173C54.2162 123.962 54.3125 123.678 54.4148 123.323L55.0613 123.47C54.9115 124.195 54.646 124.832 54.2648 125.381C53.9025 125.902 53.4796 126.232 52.9963 126.372C52.5091 126.516 52.0076 126.409 51.4917 126.051C51.1768 125.832 50.9288 125.563 50.7479 125.244C50.5686 124.934 50.4364 124.609 50.3513 124.267C50.2624 123.932 50.1701 123.485 50.0745 122.927L49.9851 122.43C49.9222 122.081 49.8675 121.777 49.8211 121.519C49.7802 121.265 49.755 121.099 49.7455 121.02L49.5755 120.986C49.5411 121.059 49.4563 121.221 49.3212 121.474Z" fill="white"/>
<path d="M47.407 132.241C46.8912 132.067 46.3319 131.771 45.7291 131.352C44.8385 130.733 44.2395 130.071 43.9321 129.366C43.6264 128.671 43.7566 127.916 44.3228 127.101C44.8889 126.286 45.5494 125.904 46.3043 125.953C47.0592 126.003 47.8846 126.339 48.7807 126.962C49.3835 127.381 49.8597 127.796 50.2095 128.209C50.5554 128.626 50.7447 129.084 50.7773 129.582C50.8098 130.079 50.6241 130.619 50.2203 131.2C49.8164 131.781 49.3755 132.143 48.8976 132.286C48.4159 132.435 47.9191 132.419 47.407 132.241ZM48.2649 131.424C48.8381 131.572 49.3115 131.378 49.6852 130.84C50.0588 130.303 50.078 129.788 49.7426 129.297C49.4072 128.807 48.9001 128.325 48.2213 127.854C47.4013 127.284 46.7197 126.955 46.1765 126.867C45.6334 126.78 45.19 126.983 44.8466 127.477C44.5031 127.971 44.4663 128.453 44.736 128.922C45.0074 129.401 45.5558 129.927 46.3813 130.501C47.0601 130.973 47.688 131.28 48.2649 131.424Z" fill="white"/>
<path d="M43.1089 138.425C42.5931 138.251 42.0338 137.955 41.431 137.536C40.5404 136.917 39.9414 136.255 39.634 135.551C39.3283 134.855 39.4585 134.1 40.0246 133.285C40.5908 132.471 41.2513 132.088 42.0062 132.137C42.7611 132.187 43.5865 132.523 44.4825 133.146C45.0853 133.565 45.5616 133.98 45.9113 134.393C46.2573 134.81 46.4466 135.268 46.4791 135.766C46.5117 136.264 46.326 136.803 45.9222 137.384C45.5183 137.965 45.0774 138.327 44.5995 138.47C44.1178 138.619 43.6209 138.603 43.1089 138.425ZM43.9668 137.608C44.54 137.756 45.0134 137.562 45.387 137.024C45.7607 136.487 45.7798 135.972 45.4444 135.482C45.1091 134.991 44.602 134.509 43.9232 134.038C43.1031 133.468 42.4216 133.139 41.8784 133.051C41.3352 132.964 40.8919 133.167 40.5484 133.661C40.205 134.155 40.1681 134.637 40.4379 135.107C40.7093 135.585 41.2577 136.111 42.0832 136.685C42.762 137.157 43.3898 137.464 43.9668 137.608Z" fill="white"/>
<path d="M38.4903 108.904C38.5629 109.551 38.2885 110.076 37.667 110.479C37.0567 110.875 36.4771 111.014 35.9283 110.897C35.3739 110.784 34.906 110.433 34.5245 109.845C34.1502 109.268 34.0281 108.697 34.1581 108.132C34.2881 107.566 34.6722 107.077 35.3102 106.663C36.1536 106.116 36.8981 105.988 37.5438 106.278C38.1931 106.575 38.8039 107.164 39.3761 108.046C39.718 108.573 39.9474 109.145 40.0644 109.763C40.1794 110.39 40.1351 110.99 39.9317 111.564C39.7282 112.137 39.3407 112.609 38.7692 112.98C38.342 113.257 37.9409 113.423 37.566 113.477L37.3571 112.808C37.6771 112.742 38.0229 112.589 38.3947 112.348C38.8108 112.078 39.0665 111.731 39.1617 111.306C39.2605 110.888 39.2512 110.46 39.1338 110.024C39.0164 109.588 38.8463 109.186 38.6235 108.818L38.4903 108.904ZM35.6528 107.209C35.2367 107.479 35.019 107.794 34.9998 108.153C34.9787 108.522 35.0976 108.906 35.3568 109.305C35.6087 109.693 35.9127 109.949 36.2689 110.073C36.6195 110.2 36.9917 110.136 37.3857 109.881C37.8184 109.6 38.0508 109.284 38.0827 108.932C38.1183 108.586 37.9975 108.199 37.7204 107.772C37.4648 107.378 37.1646 107.116 36.8195 106.985C36.4745 106.854 36.0856 106.929 35.6528 107.209Z" fill="white"/>
<path d="M30.2356 116.47C29.8237 116.114 29.418 115.628 29.0185 115.013C28.4283 114.103 28.1243 113.263 28.1065 112.494C28.0867 111.735 28.4929 111.085 29.3252 110.545C30.1574 110.005 30.9136 109.901 31.5936 110.232C32.2736 110.564 32.9106 111.187 33.5044 112.103C33.9039 112.719 34.1875 113.284 34.3553 113.797C34.5175 114.315 34.5196 114.81 34.3614 115.283C34.2032 115.756 33.8272 116.186 33.2335 116.571C32.6399 116.956 32.0948 117.124 31.5983 117.076C31.0962 117.031 30.642 116.829 30.2356 116.47ZM31.3389 116.038C31.8132 116.392 32.325 116.391 32.8743 116.035C33.4236 115.679 33.6359 115.21 33.5111 114.629C33.3864 114.048 33.0991 113.41 32.6492 112.717C32.1058 111.879 31.5992 111.317 31.1296 111.03C30.6599 110.744 30.1726 110.764 29.6677 111.091C29.1628 111.419 28.9464 111.851 29.0186 112.388C29.0887 112.933 29.3973 113.628 29.9444 114.471C30.3942 115.165 30.8591 115.687 31.3389 116.038Z" fill="white"/>
<path d="M23.9174 120.568C23.5054 120.212 23.0997 119.727 22.7003 119.111C22.11 118.201 21.806 117.362 21.7882 116.593C21.7684 115.833 22.1746 115.183 23.0069 114.643C23.8391 114.104 24.5953 113.999 25.2753 114.331C25.9553 114.662 26.5923 115.286 27.1861 116.201C27.5856 116.817 27.8692 117.382 28.037 117.896C28.1993 118.413 28.2013 118.909 28.0431 119.382C27.8849 119.855 27.5089 120.284 26.9153 120.669C26.3216 121.054 25.7765 121.222 25.28 121.174C24.7779 121.129 24.3237 120.927 23.9174 120.568ZM25.0207 120.136C25.495 120.491 26.0068 120.49 26.556 120.133C27.1053 119.777 27.3176 119.308 27.1928 118.727C27.0681 118.146 26.7808 117.508 26.3309 116.815C25.7875 115.977 25.2809 115.415 24.8113 115.128C24.3416 114.842 23.8543 114.862 23.3494 115.19C22.8445 115.517 22.6281 115.949 22.7003 116.486C22.7704 117.032 23.079 117.726 23.6261 118.569C24.0759 119.263 24.5408 119.785 25.0207 120.136Z" fill="white"/>
<path d="M39.5624 85.9233C39.1925 85.8555 38.8496 85.8153 38.5338 85.8026C38.2179 85.7898 37.8863 85.8251 37.539 85.9083C37.211 85.9869 36.9593 86.1424 36.7837 86.3749C36.6018 86.6089 36.5478 86.8803 36.6218 87.189C36.685 87.4526 36.8329 87.6586 37.0657 87.8069C37.292 87.9566 37.5876 88.0694 37.9526 88.1452L39.0475 88.3725C39.4765 88.4601 39.8288 88.6103 40.1042 88.8231C40.3732 89.0375 40.5577 89.3537 40.6579 89.7718C40.7503 90.1576 40.7244 90.5175 40.5799 90.8513C40.4291 91.1867 40.2002 91.466 39.8932 91.6891C39.5814 91.9202 39.2325 92.082 38.8466 92.1745C38.4672 92.2654 38.1403 92.3063 37.8661 92.2972C37.587 92.2961 37.2641 92.268 36.8973 92.2131L36.9937 91.4658C37.673 91.5478 38.2377 91.5349 38.6879 91.4271C39.4854 91.236 39.811 90.835 39.6646 90.224C39.6106 89.9989 39.5009 89.8246 39.3352 89.701C39.1647 89.5855 38.9218 89.4941 38.6065 89.4268L37.3125 89.135C36.3554 88.9155 35.7875 88.4327 35.6088 87.6867C35.4978 87.2236 35.5187 86.814 35.6713 86.4578C35.8176 86.1031 36.0449 85.8174 36.3534 85.6007C36.6619 85.384 37.0027 85.2309 37.3757 85.1416C37.7616 85.0491 38.1454 85.0047 38.5271 85.0085C38.9024 85.0138 39.2926 85.0529 39.6977 85.1258L39.5624 85.9233Z" fill="white"/>
<path d="M33.0481 92.5336L35.1029 92.0412L35.3086 92.8998L30.2054 94.1226L29.9996 93.264L32.0737 92.767L30.6614 86.8727L31.6358 86.6393L33.0481 92.5336Z" fill="white"/>
<path d="M22.2758 92.4523C22.0107 91.3461 22.0462 90.4297 22.3821 89.7032C22.7117 88.9782 23.3877 88.4931 24.4103 88.2481C25.4329 88.0031 26.2545 88.1259 26.8753 88.6164C27.4976 89.1133 27.9421 89.9181 28.2086 91.0307C28.4768 92.1498 28.4421 93.0693 28.1046 93.7895C27.7671 94.5096 27.0935 94.9906 26.0838 95.2325C25.0741 95.4745 24.2556 95.3509 23.6284 94.862C22.9948 94.3745 22.5439 93.5713 22.2758 92.4523ZM24.5809 89.0029C23.8735 89.1724 23.4304 89.537 23.2517 90.0967C23.073 90.6563 23.0853 91.3606 23.2887 92.2096C23.4921 93.0585 23.8003 93.6919 24.2132 94.1098C24.6262 94.5277 25.1864 94.6519 25.8938 94.4824C26.6013 94.3129 27.0444 93.9483 27.2231 93.3886C27.3969 92.8369 27.3814 92.1334 27.1764 91.278C26.9715 90.4227 26.6657 89.7853 26.2592 89.3658C25.8478 88.9544 25.2884 88.8334 24.5809 89.0029Z" fill="white"/>
<path d="M20.6889 96.4027L18.5763 96.9089C17.856 97.0815 17.2629 97.0332 16.7972 96.764C16.333 96.5012 16.0161 96.016 15.8466 95.3086C15.6633 94.5433 15.7702 93.9396 16.1676 93.4976C16.5585 93.0571 17.1494 92.7421 17.9405 92.5525L18.7026 92.3699L18.1062 89.881L19.0709 89.6499L20.6889 96.4027ZM17.9522 93.325C17.4762 93.439 17.1349 93.6466 16.9283 93.9478C16.7152 94.2504 16.6633 94.6301 16.7727 95.0867C16.9993 96.0321 17.5691 96.3954 18.4824 96.1766L19.5532 95.92L18.8783 93.1031L17.9522 93.325Z" fill="white"/>
<path d="M31.9356 67.9122C32.6825 68.0559 33.2533 68.3442 33.6482 68.7771C34.0353 69.2152 34.167 69.7558 34.0433 70.3987C33.9734 70.7624 33.8135 71.0683 33.5637 71.3166C33.3061 71.5701 32.9991 71.7131 32.6427 71.7455L32.6127 71.9014C33.1679 72.2709 33.3756 72.8193 33.2356 73.5466C33.1132 74.1831 32.8122 74.61 32.3326 74.8276C31.8452 75.0503 31.2573 75.0955 30.569 74.963C29.8871 74.8318 29.3677 74.5736 29.0108 74.1885C28.6461 73.8085 28.525 73.3003 28.6475 72.6639C28.7874 71.9365 29.1837 71.5043 29.8364 71.3672L29.8664 71.2114C29.5474 71.049 29.3187 70.8029 29.1801 70.4732C29.0337 70.1487 28.9955 69.8046 29.0655 69.441C29.1892 68.798 29.5121 68.345 30.0342 68.0817C30.555 67.825 31.1888 67.7685 31.9356 67.9122ZM30.6945 74.3104C31.0712 74.3828 31.4029 74.3389 31.6897 74.1786C31.9687 74.0235 32.1419 73.7706 32.2094 73.4199C32.2856 73.0238 32.2397 72.6849 32.0716 72.4034C31.8958 72.1271 31.5936 71.9478 31.165 71.8653C30.7363 71.7828 30.3956 71.8385 30.1428 72.0323C29.8888 72.2326 29.7237 72.5308 29.6474 72.927C29.5787 73.2842 29.6419 73.5859 29.8369 73.8322C30.032 74.0785 30.3179 74.2379 30.6945 74.3104ZM30.0936 69.558C30.0174 69.9541 30.0744 70.3052 30.2647 70.6112C30.455 70.9172 30.797 71.1177 31.2905 71.2126C31.7841 71.3076 32.1831 71.2463 32.4876 71.0288C32.7844 70.8165 32.9703 70.5155 33.0452 70.1259C33.1202 69.7362 33.0529 69.4034 32.8434 69.1273C32.6273 68.8501 32.279 68.6652 31.7985 68.5727C31.3244 68.4815 30.9427 68.5226 30.6534 68.6959C30.3564 68.8745 30.1698 69.1618 30.0936 69.558Z" fill="white"/>
<path d="M21.3435 71.4404C21.2928 70.8986 21.3368 70.2673 21.4755 69.5465C21.6805 68.4814 22.0428 67.6655 22.5627 67.0988C23.0748 66.5374 23.8179 66.3503 24.792 66.5378C25.7662 66.7252 26.3836 67.174 26.6443 67.8841C26.905 68.5943 26.9323 69.4851 26.7261 70.5567C26.5874 71.2775 26.4005 71.8814 26.1655 72.3682C25.9239 72.8537 25.5821 73.2123 25.1402 73.4438C24.6984 73.6753 24.13 73.7242 23.4351 73.5905C22.7402 73.4568 22.2306 73.2005 21.9061 72.8215C21.5752 72.4413 21.3877 71.981 21.3435 71.4404ZM22.4382 71.8935C22.5346 72.4778 22.9043 72.8317 23.5472 72.9554C24.1901 73.0791 24.668 72.8882 24.9807 72.3827C25.2935 71.8771 25.528 71.2185 25.6842 70.4067C25.8728 69.4261 25.8971 68.6697 25.7571 68.1377C25.617 67.6057 25.2515 67.2828 24.6605 67.1691C24.0695 67.0554 23.6141 67.2169 23.2944 67.6538C22.9669 68.0959 22.7082 68.8105 22.5182 69.7976C22.362 70.6094 22.3354 71.308 22.4382 71.8935Z" fill="white"/>
<path d="M13.9481 70.0175C13.8974 69.4758 13.9414 68.8444 14.0801 68.1236C14.285 67.0585 14.6474 66.2427 15.1673 65.6759C15.6794 65.1145 16.4225 64.9275 17.3966 65.1149C18.3708 65.3023 18.9882 65.7511 19.2489 66.4612C19.5096 67.1714 19.5369 68.0623 19.3307 69.1338C19.192 69.8547 19.0051 70.4585 18.77 70.9453C18.5284 71.4308 18.1867 71.7894 17.7448 72.0209C17.3029 72.2524 16.7346 72.3013 16.0397 72.1676C15.3448 72.0339 14.8351 71.7776 14.5107 71.3986C14.1798 71.0184 13.9922 70.5581 13.9481 70.0175ZM15.0428 70.4706C15.1392 71.0549 15.5088 71.4088 16.1518 71.5325C16.7947 71.6562 17.2725 71.4653 17.5853 70.9598C17.8981 70.4543 18.1326 69.7956 18.2887 68.9838C18.4774 68.0032 18.5017 67.2469 18.3616 66.7148C18.2216 66.1828 17.856 65.8599 17.2651 65.7462C16.6741 65.6325 16.2187 65.7941 15.8989 66.2309C15.5714 66.673 15.3127 67.3876 15.1228 68.3747C14.9666 69.1865 14.94 69.8851 15.0428 70.4706Z" fill="white"/>
<path d="M35.5278 52.2821C35.1991 52.4642 34.9219 52.6087 34.6964 52.7155C34.4673 52.8279 34.3218 52.8956 34.2598 52.9188L34.2493 53.1006C34.2788 53.1037 34.3441 53.1181 34.4455 53.1438C34.5433 53.1751 34.6745 53.2277 34.8391 53.3018C34.9982 53.3723 35.1696 53.4664 35.3533 53.5841L37.408 54.9007L36.9691 55.5856L33.0435 53.0702L33.4717 52.402L39.5379 48.9844L40.4316 49.557L35.5278 52.2821Z" fill="white"/>
<path d="M28.0062 47.9454C28.16 47.4234 28.4349 46.8534 28.831 46.2354C29.4161 45.3222 30.0551 44.6988 30.748 44.3652C31.4318 44.0336 32.1913 44.1354 33.0265 44.6706C33.8618 45.2058 34.2688 45.8515 34.2477 46.6077C34.2265 47.3639 33.9216 48.2014 33.3329 49.1201C32.9368 49.7382 32.5394 50.2297 32.1406 50.5947C31.7362 50.9561 31.2859 51.1624 30.7897 51.2136C30.2935 51.2648 29.7474 51.0995 29.1516 50.7177C28.5558 50.3359 28.1775 49.9089 28.0167 49.4367C27.8503 48.9609 27.8468 48.4638 28.0062 47.9454ZM28.8549 48.7721C28.7278 49.3504 28.9399 49.8162 29.4912 50.1694C30.0424 50.5227 30.557 50.5225 31.0349 50.1689C31.5128 49.8154 31.9748 49.2906 32.4208 48.5946C32.9595 47.7538 33.2625 47.0603 33.3296 46.5143C33.3968 45.9682 33.177 45.5328 32.6703 45.2081C32.1636 44.8834 31.6808 44.8647 31.2219 45.1518C30.7538 45.441 30.2486 46.0088 29.7063 46.8551C29.2602 47.5512 28.9765 48.1901 28.8549 48.7721Z" fill="white"/>
<path d="M21.6652 43.8822C21.819 43.3603 22.094 42.7902 22.49 42.1722C23.0752 41.259 23.7142 40.6356 24.4071 40.302C25.0909 39.9704 25.8504 40.0722 26.6856 40.6074C27.5208 41.1426 27.9279 41.7883 27.9067 42.5445C27.8856 43.3007 27.5807 44.1382 26.9919 45.0569C26.5959 45.675 26.1985 46.1665 25.7996 46.5315C25.3953 46.8929 24.945 47.0992 24.4487 47.1504C23.9525 47.2016 23.4065 47.0363 22.8107 46.6545C22.2149 46.2727 21.8366 45.8457 21.6758 45.3735C21.5094 44.8977 21.5059 44.4006 21.6652 43.8822ZM22.514 44.7089C22.3869 45.2872 22.599 45.753 23.1502 46.1062C23.7015 46.4595 24.2161 46.4593 24.694 46.1058C25.1719 45.7522 25.6338 45.2274 26.0798 44.5314C26.6186 43.6906 26.9216 42.9971 26.9887 42.4511C27.0559 41.905 26.8361 41.4696 26.3294 41.1449C25.8227 40.8202 25.3399 40.8015 24.8809 41.0887C24.4129 41.3778 23.9077 41.9456 23.3653 42.792C22.9193 43.488 22.6355 44.127 22.514 44.7089Z" fill="white"/>
<path d="M51.7739 38.4824C51.1314 38.585 50.5943 38.3352 50.1628 37.7332C49.739 37.142 49.5728 36.5695 49.6641 36.0158C49.7516 35.4568 50.0803 34.973 50.65 34.5646C51.209 34.1639 51.7739 34.0154 52.3445 34.119C52.9151 34.2226 53.4219 34.5835 53.865 35.2017C54.4506 36.0187 54.6133 36.7565 54.353 37.415C54.0873 38.0773 53.5271 38.7148 52.6725 39.3274C52.1618 39.6934 51.6006 39.9492 50.9889 40.0947C50.368 40.2387 49.7664 40.2224 49.1841 40.0458C48.6019 39.8692 48.1123 39.504 47.7155 38.9504C47.4188 38.5365 47.2348 38.1436 47.1635 37.7716L47.8215 37.5318C47.902 37.8484 48.0713 38.1868 48.3295 38.5469C48.6184 38.9501 48.9771 39.1893 49.4054 39.2647C49.8284 39.344 50.255 39.3148 50.6853 39.1773C51.1156 39.0397 51.5093 38.8511 51.8664 38.6114L51.7739 38.4824ZM53.3351 35.5692C53.0462 35.1661 52.7218 34.9633 52.362 34.9608C51.993 34.9568 51.615 35.0935 51.2279 35.3709C50.8517 35.6406 50.61 35.9562 50.503 36.3177C50.3921 36.6738 50.4734 37.0427 50.747 37.4244C51.0475 37.8436 51.3742 38.061 51.7271 38.0766C52.0746 38.096 52.4553 37.9574 52.8692 37.6607C53.2509 37.3872 53.499 37.075 53.6138 36.7243C53.7285 36.3735 53.6356 35.9885 53.3351 35.5692Z" fill="white"/>
<path d="M43.8332 30.5882C44.1692 30.1602 44.6355 29.7324 45.2322 29.3047C46.1137 28.6728 46.938 28.3301 47.7052 28.2766C48.4631 28.2215 49.131 28.5972 49.709 29.4034C50.2869 30.2097 50.4261 30.9602 50.1266 31.6549C49.8272 32.3496 49.234 33.0148 48.3471 33.6505C47.7505 34.0782 47.1994 34.3877 46.6938 34.5792C46.1844 34.7654 45.6898 34.7904 45.2098 34.6543C44.7299 34.5183 44.2838 34.1627 43.8715 33.5875C43.4593 33.0124 43.2658 32.4757 43.2911 31.9775C43.3126 31.4739 43.4933 31.0108 43.8332 30.5882ZM44.3158 31.6702C43.9837 32.1605 44.0084 32.6717 44.3898 33.2038C44.7713 33.736 45.2494 33.9262 45.8242 33.7746C46.399 33.623 47.0223 33.3064 47.6942 32.8248C48.5059 32.243 49.0439 31.7109 49.3083 31.2284C49.5728 30.746 49.5297 30.2601 49.1791 29.771C48.8285 29.2819 48.3869 29.0858 47.8543 29.1828C47.3124 29.2782 46.633 29.6188 45.816 30.2044C45.1441 30.686 44.644 31.1746 44.3158 31.6702Z" fill="white"/>
<path d="M39.4457 24.4671C39.7818 24.0391 40.2481 23.6113 40.8447 23.1836C41.7263 22.5518 42.5506 22.2091 43.3178 22.1555C44.0757 22.1005 44.7436 22.4761 45.3215 23.2824C45.8995 24.0886 46.0387 24.8391 45.7392 25.5338C45.4398 26.2285 44.8466 26.8937 43.9597 27.5294C43.3631 27.9571 42.812 28.2667 42.3064 28.4582C41.797 28.6443 41.3023 28.6693 40.8224 28.5333C40.3425 28.3972 39.8964 28.0416 39.4841 27.4665C39.0719 26.8913 38.8784 26.3546 38.9037 25.8564C38.9252 25.3528 39.1059 24.8897 39.4457 24.4671ZM39.9284 25.5492C39.5963 26.0394 39.621 26.5506 40.0024 27.0828C40.3838 27.6149 40.862 27.8052 41.4368 27.6535C42.0116 27.5019 42.6349 27.1853 43.3068 26.7037C44.1184 26.1219 44.6565 25.5898 44.9209 25.1073C45.1854 24.6249 45.1423 24.1391 44.7917 23.6499C44.4411 23.1608 43.9995 22.9647 43.4669 23.0617C42.925 23.1571 42.2456 23.4977 41.4286 24.0833C40.7567 24.5649 40.2566 25.0535 39.9284 25.5492Z" fill="white"/>
<path d="M134.224 88.6992L133.156 95.3196L132.206 95.1665L133.187 89.0847L131.933 88.8826L131.986 88.3686L133.719 88.2762C133.787 88.2736 133.837 88.275 133.869 88.2803C133.987 88.2992 134.079 88.3477 134.147 88.4256C134.216 88.497 134.242 88.5882 134.224 88.6992Z" fill="white"/>
<path d="M136.712 95.1994C136.945 95.2906 137.221 95.362 137.541 95.4135C137.992 95.4862 138.377 95.4042 138.696 95.1677C139.016 94.9311 139.21 94.6006 139.278 94.1763C139.36 93.667 139.256 93.2751 138.965 93.0004C138.676 92.7193 138.197 92.5115 137.528 92.3769L136.555 92.1799L137.081 88.9186L140.695 89.5012L140.576 90.2357L137.991 89.8189L137.694 91.6601C138.305 91.7786 138.814 91.9243 139.221 92.0972C139.63 92.2636 139.949 92.5261 140.18 92.8847C140.416 93.2444 140.485 93.7311 140.386 94.3449C140.309 94.8215 140.13 95.2079 139.848 95.504C139.567 95.7936 139.216 95.9917 138.797 96.0983C138.379 96.1984 137.922 96.2085 137.426 96.1285C136.806 96.0285 136.231 95.7885 135.703 95.4086L136.046 94.8409C136.264 94.9833 136.486 95.1027 136.712 95.1994Z" fill="white"/>
<path d="M148.113 92.3149C148.18 92.8549 148.156 93.4872 148.039 94.212C147.866 95.2827 147.529 96.1092 147.026 96.6914C146.531 97.2681 145.794 97.4775 144.815 97.3196C143.835 97.1617 143.205 96.7318 142.923 96.0299C142.641 95.3279 142.586 94.4383 142.76 93.361C142.877 92.6363 143.045 92.0271 143.266 91.5334C143.492 91.0407 143.823 90.672 144.258 90.4273C144.693 90.1825 145.259 90.1164 145.958 90.2291C146.656 90.3417 147.174 90.5825 147.509 90.9514C147.852 91.3214 148.053 91.7759 148.113 92.3149ZM147.006 91.8951C146.892 91.314 146.511 90.9714 145.865 90.8672C145.219 90.763 144.747 90.9683 144.449 91.483C144.152 91.9978 143.938 92.6633 143.806 93.4794C143.647 94.4653 143.646 95.222 143.802 95.7496C143.958 96.2771 144.333 96.5888 144.927 96.6846C145.521 96.7804 145.972 96.6051 146.278 96.1588C146.592 95.707 146.829 94.9849 146.989 93.9925C147.121 93.1764 147.126 92.4772 147.006 91.8951Z" fill="white"/>
<path d="M121.252 72.9438L121.43 73.6865L119.115 74.2425L118.937 73.4998L121.252 72.9438Z" fill="white"/>
<path d="M124.127 68.4379L125.693 74.9584L124.757 75.1831L123.319 69.1931L122.084 69.4896L121.934 68.995L123.498 68.242C123.559 68.2137 123.606 68.1956 123.638 68.1879C123.754 68.1601 123.858 68.1691 123.951 68.2149C124.042 68.2542 124.1 68.3286 124.127 68.4379Z" fill="white"/>
<path d="M131.928 67.962C132.198 68.4345 132.419 69.0277 132.59 69.7414C132.843 70.796 132.85 71.6888 132.611 72.4196C132.376 73.1424 131.777 73.6197 130.812 73.8513C129.848 74.083 129.1 73.9292 128.569 73.3902C128.039 72.8511 127.646 72.051 127.391 70.99C127.22 70.2762 127.14 69.6491 127.153 69.1087C127.173 68.5667 127.336 68.099 127.643 67.7057C127.95 67.3123 128.447 67.033 129.135 66.8678C129.823 66.7026 130.393 66.7255 130.845 66.9366C131.304 67.1462 131.665 67.488 131.928 67.962ZM130.744 68.0016C130.415 67.5093 129.932 67.3396 129.295 67.4924C128.659 67.6453 128.302 68.0166 128.226 68.6061C128.15 69.1957 128.209 69.8924 128.402 70.6962C128.635 71.6672 128.925 72.3661 129.273 72.7928C129.62 73.2195 130.086 73.3626 130.671 73.222C131.257 73.0815 131.605 72.7463 131.715 72.2164C131.831 71.6785 131.772 70.9208 131.537 69.9434C131.344 69.1396 131.079 68.4923 130.744 68.0016Z" fill="white"/>
<path d="M139.251 66.2034C139.521 66.6759 139.742 67.269 139.913 67.9828C140.166 69.0374 140.173 69.9301 139.934 70.661C139.699 71.3838 139.1 71.8611 138.135 72.0927C137.171 72.3244 136.423 72.1706 135.892 71.6316C135.361 71.0925 134.969 70.2924 134.714 69.2314C134.542 68.5176 134.463 67.8905 134.476 67.3501C134.496 66.8081 134.659 66.3404 134.966 65.9471C135.273 65.5537 135.77 65.2744 136.458 65.1092C137.146 64.9439 137.716 64.9669 138.168 65.178C138.627 65.3876 138.988 65.7294 139.251 66.2034ZM138.067 66.2429C137.738 65.7507 137.255 65.581 136.618 65.7338C135.982 65.8867 135.625 66.258 135.549 66.8475C135.473 67.4371 135.532 68.1338 135.725 68.9376C135.958 69.9086 136.248 70.6075 136.596 71.0342C136.943 71.4609 137.409 71.6039 137.994 71.4634C138.579 71.3229 138.927 70.9877 139.038 70.4578C139.154 69.9199 139.094 69.1622 138.86 68.1848C138.667 67.381 138.402 66.7337 138.067 66.2429Z" fill="white"/>
<path d="M144.416 64.9733C144.538 65.4814 144.539 65.9129 144.42 66.2679C144.3 66.6164 143.986 66.8517 143.478 66.9737C142.983 67.0926 142.599 67.0249 142.327 66.7705C142.06 66.5082 141.866 66.123 141.744 65.615C141.617 65.0877 141.611 64.6538 141.727 64.3132C141.842 63.9726 142.157 63.7405 142.672 63.617C143.193 63.4919 143.582 63.5548 143.839 63.8059C144.097 64.0569 144.289 64.446 144.416 64.9733ZM146.182 62.8965L147.059 62.6857L144.427 70.4593L143.549 70.6701L146.182 62.8965ZM142.79 64.1089C142.539 64.1691 142.398 64.3186 142.367 64.5573C142.336 64.796 142.361 65.0858 142.443 65.4266C142.539 65.8253 142.66 66.116 142.806 66.2986C142.95 66.4747 143.135 66.5358 143.36 66.4818C143.585 66.4277 143.722 66.2894 143.77 66.0669C143.817 65.838 143.793 65.5242 143.697 65.1255C143.615 64.7847 143.506 64.515 143.37 64.3164C143.234 64.1178 143.041 64.0487 142.79 64.1089ZM148.865 67.7407C148.987 68.2488 148.989 68.6802 148.87 69.0352C148.75 69.3838 148.435 69.6191 147.927 69.7411C147.432 69.86 147.049 69.7923 146.777 69.5379C146.51 69.2756 146.315 68.8904 146.193 68.3824C146.067 67.8551 146.061 67.4212 146.176 67.0806C146.292 66.74 146.607 66.5079 147.121 66.3844C147.642 66.2593 148.031 66.3222 148.289 66.5733C148.546 66.8243 148.738 67.2134 148.865 67.7407ZM147.239 66.8763C146.989 66.9365 146.848 67.086 146.817 67.3247C146.785 67.5634 146.811 67.8532 146.893 68.194C146.988 68.5927 147.109 68.8833 147.255 69.066C147.399 69.2421 147.584 69.3032 147.809 69.2492C148.034 69.1951 148.171 69.0568 148.22 68.8343C148.267 68.6054 148.242 68.2916 148.147 67.8929C148.065 67.552 147.956 67.2824 147.82 67.0838C147.684 66.8852 147.49 66.8161 147.239 66.8763Z" fill="white"/>
<path d="M122.144 55.1698C122.356 54.9773 122.572 54.802 122.793 54.6441L124.333 53.5404L124.812 54.2096L121.047 56.9082L120.608 56.2954C120.647 55.9986 120.756 55.27 120.933 54.1096C121.056 53.3384 121.133 52.7824 121.166 52.4418C121.2 52.0919 121.193 51.7875 121.146 51.5285C121.098 51.2695 120.986 51.0164 120.809 50.7691C120.589 50.4627 120.327 50.289 120.021 50.2479C119.72 50.2031 119.43 50.2808 119.15 50.4811C118.887 50.6699 118.677 50.8486 118.521 51.0172C118.366 51.1858 118.18 51.4206 117.964 51.7215L117.405 51.366C117.789 50.7327 118.252 50.2215 118.795 49.8324C119.311 49.4626 119.82 49.293 120.322 49.3238C120.83 49.3506 121.266 49.6194 121.632 50.1301C121.856 50.4418 121.999 50.7783 122.063 51.1396C122.128 51.4916 122.144 51.8425 122.11 52.1924C122.081 52.5384 122.018 52.9901 121.922 53.5476L121.839 54.0459C121.781 54.3966 121.731 54.7011 121.689 54.9595C121.642 55.2125 121.61 55.3778 121.592 55.4555L121.741 55.5441C121.798 55.4871 121.932 55.3623 122.144 55.1698Z" fill="white"/>
<path d="M126.852 51.9059C127.082 51.8064 127.328 51.6622 127.592 51.4734C127.962 51.2076 128.178 50.8782 128.238 50.4853C128.298 50.0923 128.203 49.7212 127.953 49.3718C127.652 48.9525 127.302 48.7478 126.902 48.7576C126.499 48.7621 126.012 48.952 125.443 49.3273L124.614 49.8729L122.69 47.1879L125.665 45.0556L126.098 45.6603L123.97 47.1859L125.056 48.7017C125.573 48.3557 126.037 48.1005 126.448 47.9361C126.855 47.7664 127.267 47.7277 127.683 47.82C128.104 47.9085 128.496 48.2054 128.858 48.7107C129.139 49.1031 129.284 49.5038 129.292 49.9128C129.297 50.3164 129.188 50.7037 128.965 51.0746C128.739 51.4401 128.422 51.7693 128.013 52.062C127.503 52.428 126.926 52.6623 126.284 52.7648L126.127 52.1204C126.382 52.0677 126.624 51.9962 126.852 51.9059Z" fill="white"/>
<path d="M132.912 41.8265C133.34 42.1625 133.768 42.6289 134.196 43.2255C134.827 44.1071 135.17 44.9315 135.224 45.6986C135.279 46.4566 134.903 47.1245 134.097 47.7023C133.29 48.2802 132.54 48.4194 131.845 48.1199C131.15 47.8204 130.485 47.2272 129.85 46.3402C129.422 45.7436 129.112 45.1924 128.921 44.6869C128.735 44.1775 128.71 43.6828 128.846 43.2029C128.982 42.7229 129.338 42.2768 129.913 41.8646C130.488 41.4524 131.025 41.259 131.523 41.2844C132.027 41.3059 132.49 41.4866 132.912 41.8265ZM131.83 42.309C131.34 41.9769 130.829 42.0016 130.297 42.383C129.764 42.7644 129.574 43.2425 129.726 43.8173C129.877 44.3921 130.194 45.0154 130.675 45.6874C131.257 46.4991 131.789 47.0371 132.272 47.3016C132.754 47.5661 133.24 47.523 133.729 47.1725C134.218 46.8219 134.414 46.3803 134.317 45.8477C134.222 45.3058 133.881 44.6264 133.296 43.8093C132.814 43.1374 132.326 42.6373 131.83 42.309Z" fill="white"/>
<path d="M110.694 36.2559L111.332 36.6384L110.975 37.234L112.302 38.0297L111.792 38.8805L110.465 38.0848L108.756 40.9351L108.203 40.6035L105.923 35.1655L106.346 34.4593L110.337 36.8514L110.694 36.2559ZM108.062 36.6328C107.915 36.5444 107.772 36.4475 107.635 36.3421C107.498 36.2367 107.39 36.1528 107.312 36.0904C107.231 36.019 107.181 35.9737 107.162 35.9544L107.055 36.0752C107.092 36.1285 107.165 36.2572 107.274 36.4613C107.381 36.6564 107.486 36.8735 107.589 37.1128L108.252 38.6896C108.324 38.8642 108.386 39.0321 108.436 39.1931C108.483 39.3451 108.517 39.4692 108.536 39.5656C108.559 39.6564 108.571 39.7136 108.572 39.7375L108.723 39.7935C108.743 39.7357 108.789 39.6132 108.863 39.426C108.94 39.2332 109.028 39.0545 109.126 38.89L109.832 37.6938L108.062 36.6328Z" fill="white"/>
<path d="M111.674 28.6787C112.2 28.8169 112.778 29.0747 113.408 29.4521C114.338 30.0098 114.98 30.6299 115.334 31.3126C115.686 31.9861 115.607 32.7483 115.097 33.5992C114.587 34.45 113.954 34.8761 113.197 34.8775C112.441 34.879 111.595 34.5991 110.659 34.0381C110.029 33.6606 109.526 33.2781 109.149 32.8903C108.776 32.4969 108.556 32.0529 108.49 31.5585C108.424 31.064 108.573 30.5133 108.937 29.9064C109.301 29.2994 109.716 28.9086 110.184 28.7337C110.654 28.5532 111.151 28.5349 111.674 28.6787ZM110.873 29.5518C110.291 29.442 109.832 29.6678 109.495 30.2294C109.159 30.7909 109.174 31.3053 109.542 31.7724C109.909 32.2396 110.448 32.6857 111.157 33.1107C112.013 33.6242 112.715 33.9063 113.263 33.9571C113.811 34.008 114.24 33.7753 114.549 33.2591C114.859 32.7429 114.863 32.2598 114.562 31.8096C114.259 31.3504 113.677 30.8624 112.814 30.3455C112.105 29.9205 111.458 29.6559 110.873 29.5518Z" fill="white"/>
<path d="M115.546 22.2194C116.072 22.3576 116.65 22.6154 117.28 22.9928C118.21 23.5505 118.852 24.1706 119.207 24.8533C119.558 25.5268 119.479 26.289 118.969 27.1398C118.459 27.9907 117.826 28.4168 117.069 28.4182C116.313 28.4196 115.467 28.1398 114.531 27.5788C113.901 27.2013 113.398 26.8187 113.021 26.431C112.648 26.0376 112.428 25.5936 112.362 25.0992C112.297 24.6047 112.445 24.054 112.809 23.4471C113.173 22.8401 113.589 22.4492 114.056 22.2744C114.526 22.0939 115.023 22.0756 115.546 22.2194ZM114.745 23.0924C114.163 22.9827 113.704 23.2085 113.367 23.7701C113.031 24.3316 113.046 24.846 113.414 25.3131C113.782 25.7803 114.32 26.2263 115.029 26.6514C115.885 27.1648 116.588 27.447 117.135 27.4978C117.683 27.5486 118.112 27.316 118.421 26.7998C118.731 26.2836 118.735 25.8005 118.434 25.3503C118.131 24.8911 117.549 24.4031 116.687 23.8862C115.978 23.4612 115.33 23.1966 114.745 23.0924Z" fill="white"/>
<path d="M93.3521 29.4369C93.1698 29.1355 92.8923 28.957 92.5194 28.9013C92.0616 28.8329 91.6864 28.9273 91.3939 29.1845C91.1023 29.4351 90.9129 29.808 90.8255 30.3031L90.178 30.2064C90.2314 29.7597 90.1767 29.3871 90.014 29.0886C89.8448 28.7892 89.5607 28.6096 89.1617 28.55C88.7889 28.4943 88.492 28.5569 88.271 28.7379C88.0501 28.9189 87.9137 29.1827 87.8619 29.5293C87.7935 29.9872 87.8164 30.4152 87.9308 30.8135L87.2888 30.9482C87.1198 30.4683 87.0841 29.9013 87.1819 29.2472C87.2669 28.6782 87.4905 28.2335 87.8526 27.9131C88.2092 27.5852 88.6786 27.4648 89.2607 27.5518C89.6008 27.6026 89.9029 27.7514 90.1669 27.9981C90.4244 28.2439 90.574 28.5404 90.6157 28.8876L90.7727 28.9111C90.9259 28.5127 91.1783 28.2328 91.5301 28.0714C91.8828 27.9034 92.2358 27.8459 92.589 27.8986C92.9945 27.9592 93.3349 28.1204 93.61 28.3822C93.8796 28.6364 94.0698 28.9524 94.1806 29.33C94.2913 29.7076 94.3159 30.1025 94.2543 30.5146C94.1576 31.1621 93.9373 31.741 93.5936 32.2513L93.0122 31.9137C93.1445 31.6995 93.2529 31.4883 93.3375 31.2803C93.4165 31.0647 93.4804 30.7934 93.5293 30.4664C93.5879 30.074 93.5289 29.7308 93.3521 29.4369Z" fill="white"/>
<path d="M90.2655 20.2225C90.8047 20.1493 91.4373 20.1669 92.1633 20.2754C93.236 20.4356 94.0663 20.7636 94.6542 21.2594C95.2366 21.7476 95.4545 22.4823 95.3079 23.4634C95.1613 24.4445 94.7387 25.0801 94.04 25.3702C93.3414 25.6604 92.4524 25.7248 91.3732 25.5635C90.6472 25.4551 90.0361 25.2935 89.5399 25.079C89.0447 24.8579 88.6722 24.5314 88.4224 24.0996C88.1727 23.6677 88.1001 23.1019 88.2046 22.402C88.3092 21.7022 88.544 21.1823 88.9091 20.8423C89.2752 20.4958 89.7273 20.2892 90.2655 20.2225ZM89.8585 21.3352C89.2788 21.4559 88.9406 21.84 88.8438 22.4875C88.7471 23.1351 88.9578 23.6045 89.4759 23.8959C89.9941 24.1873 90.6619 24.3941 91.4795 24.5162C92.4672 24.6638 93.2239 24.6565 93.7496 24.4943C94.2753 24.3322 94.5827 23.9535 94.6716 23.3583C94.7605 22.7631 94.5801 22.3148 94.1303 22.0136C93.6749 21.7048 92.9501 21.4762 91.956 21.3276C91.1384 21.2055 90.4392 21.208 89.8585 21.3352Z" fill="white"/>
<path d="M91.3784 12.7741C91.9176 12.7009 92.5502 12.7185 93.2762 12.827C94.3489 12.9873 95.1792 13.3153 95.7671 13.811C96.3495 14.2992 96.5674 15.0339 96.4208 16.015C96.2742 16.9961 95.8516 17.6317 95.1529 17.9219C94.4543 18.212 93.5653 18.2764 92.4861 18.1152C91.7601 18.0067 91.149 17.8452 90.6528 17.6306C90.1576 17.4095 89.7851 17.083 89.5353 16.6512C89.2856 16.2194 89.213 15.6535 89.3175 14.9537C89.4221 14.2538 89.6569 13.7339 90.022 13.3939C90.3881 13.0474 90.8402 12.8408 91.3784 12.7741ZM90.9714 13.8868C90.3917 14.0075 90.0535 14.3916 89.9567 15.0391C89.86 15.6867 90.0707 16.1561 90.5888 16.4475C91.107 16.7389 91.7748 16.9457 92.5924 17.0679C93.5801 17.2154 94.3368 17.2081 94.8625 17.046C95.3882 16.8838 95.6956 16.5051 95.7845 15.9099C95.8734 15.3147 95.693 14.8665 95.2432 14.5652C94.7878 14.2565 94.063 14.0278 93.0689 13.8793C92.2513 13.7571 91.5521 13.7596 90.9714 13.8868Z" fill="white"/>
<path d="M68.0942 33.9438L74.6742 32.6505L74.8598 33.5947L68.8151 34.7828L69.06 36.0287L68.5596 36.1574L67.8723 34.5637C67.8465 34.5014 67.8305 34.454 67.8241 34.4215C67.8011 34.3047 67.8145 34.201 67.864 34.1104C67.9071 34.021 67.9838 33.9655 68.0942 33.9438Z" fill="white"/>
<path d="M73.3293 29.3573C73.334 29.107 73.3051 28.8228 73.2426 28.5049C73.1546 28.0571 72.9443 27.7244 72.6117 27.5067C72.2791 27.289 71.9019 27.2216 71.4801 27.3045C70.974 27.404 70.6425 27.6376 70.4856 28.0055C70.3223 28.3746 70.2933 28.8959 70.3987 29.5694L70.5511 30.5504L67.3098 31.1875L66.6038 27.5957L67.3338 27.4522L67.8389 30.0219L69.6688 29.6623C69.5684 29.0485 69.5287 28.5204 69.5496 28.0782C69.564 27.6373 69.6996 27.2467 69.9562 26.9065C70.2115 26.5597 70.6442 26.3264 71.2542 26.2065C71.7279 26.1134 72.1526 26.1479 72.5281 26.3099C72.8972 26.4733 73.2044 26.7331 73.4497 27.0893C73.6884 27.4467 73.8563 27.872 73.9532 28.3652C74.0744 28.9817 74.0483 29.6035 73.875 30.2307L73.2237 30.1059C73.2816 29.8519 73.3168 29.6024 73.3293 29.3573Z" fill="white"/>
<path d="M66.672 19.6618C67.1553 19.4117 67.7571 19.2159 68.4774 19.0744C69.5416 18.8652 70.4339 18.8954 71.1541 19.165C71.8666 19.4293 72.3185 20.0482 72.5098 21.0215C72.7011 21.9949 72.5164 22.7355 71.9557 23.2434C71.395 23.7513 70.5793 24.1104 69.5086 24.3209C68.7883 24.4624 68.1585 24.5155 67.619 24.48C67.0783 24.438 66.6179 24.2555 66.2376 23.9326C65.8574 23.6097 65.599 23.1011 65.4625 22.4067C65.3261 21.7124 65.3727 21.1438 65.6024 20.701C65.8309 20.2517 66.1874 19.9053 66.672 19.6618ZM66.6622 20.8465C66.1567 21.1548 65.967 21.6302 66.0933 22.2726C66.2196 22.9151 66.5757 23.2865 67.1616 23.387C67.7475 23.4875 68.446 23.4581 69.2572 23.2987C70.237 23.1061 70.9473 22.8451 71.3881 22.5159C71.8289 22.1866 71.9912 21.7267 71.8752 21.1362C71.7591 20.5457 71.4386 20.184 70.9138 20.0513C70.3812 19.9133 69.6217 19.9413 68.6354 20.1352C67.8242 20.2946 67.1665 20.5317 66.6622 20.8465Z" fill="white"/>
<path d="M65.2195 12.2721C65.7028 12.0221 66.3046 11.8263 67.0249 11.6847C68.0892 11.4755 68.9814 11.5057 69.7016 11.7753C70.4141 12.0396 70.866 12.6585 71.0573 13.6319C71.2486 14.6053 71.0639 15.3459 70.5033 15.8537C69.9426 16.3616 69.1269 16.7207 68.0562 16.9312C67.3359 17.0728 66.706 17.1258 66.1666 17.0903C65.6259 17.0483 65.1654 16.8658 64.7851 16.5429C64.4049 16.22 64.1465 15.7114 64.0101 15.017C63.8736 14.3227 63.9202 13.7541 64.15 13.3113C64.3784 12.862 64.7349 12.5156 65.2195 12.2721ZM65.2098 13.4569C64.7042 13.7652 64.5146 14.2405 64.6408 14.883C64.7671 15.5254 65.1232 15.8969 65.7091 15.9974C66.295 16.0979 66.9935 16.0684 67.8047 15.909C68.7846 15.7164 69.4949 15.4555 69.9356 15.1262C70.3764 14.7969 70.5388 14.337 70.4227 13.7465C70.3066 13.156 69.9862 12.7944 69.4613 12.6616C68.9287 12.5237 68.1692 12.5516 67.1829 12.7455C66.3717 12.9049 65.714 13.1421 65.2098 13.4569Z" fill="white"/>
<defs>
<filter id="filter0_i_111_375" x="80" y="80" width="80.002" height="30.5833" filterUnits="userSpaceOnUse" color-interpolation-filters="sRGB">
<feFlood flood-opacity="0" result="BackgroundImageFix"/>
<feBlend mode="normal" in="SourceGraphic" in2="BackgroundImageFix" result="shape"/>
<feColorMatrix in="SourceAlpha" type="matrix" values="0 0 0 0 0 0 0 0 0 0 0 0 0 0 0 0 0 0 127 0" result="hardAlpha"/>
<feOffset/>
<feGaussianBlur stdDeviation="8"/>
<feComposite in2="hardAlpha" operator="arithmetic" k2="-1" k3="1"/>
<feColorMatrix type="matrix" values="0 0 0 0 0 0 0 0 0 0 0 0 0 0 0 0 0 0 0.59 0"/>
<feBlend mode="normal" in2="shape" result="effect1_innerShadow_111_375"/>
</filter>
<filter id="filter1_i_111_375" x="80" y="80" width="74.1641" height="56.5686" filterUnits="userSpaceOnUse" color-interpolation-filters="sRGB">
<feFlood flood-opacity="0" result="BackgroundImageFix"/>
<feBlend mode="normal" in="SourceGraphic" in2="BackgroundImageFix" result="shape"/>
<feColorMatrix in="SourceAlpha" type="matrix" values="0 0 0 0 0 0 0 0 0 0 0 0 0 0 0 0 0 0 127 0" result="hardAlpha"/>
<feOffset/>
<feGaussianBlur stdDeviation="8"/>
<feComposite in2="hardAlpha" operator="arithmetic" k2="-1" k3="1"/>
<feColorMatrix type="matrix" values="0 0 0 0 0 0 0 0 0 0 0 0 0 0 0 0 0 0 0.59 0"/>
<feBlend mode="normal" in2="shape" result="effect1_innerShadow_111_375"/>
</filter>
<filter id="filter2_i_111_375" x="80" y="80" width="56.5684" height="74.1641" filterUnits="userSpaceOnUse" color-interpolation-filters="sRGB">
<feFlood flood-opacity="0" result="BackgroundImageFix"/>
<feBlend mode="normal" in="SourceGraphic" in2="BackgroundImageFix" result="shape"/>
<feColorMatrix in="SourceAlpha" type="matrix" values="0 0 0 0 0 0 0 0 0 0 0 0 0 0 0 0 0 0 127 0" result="hardAlpha"/>
<feOffset/>
<feGaussianBlur stdDeviation="8"/>
<feComposite in2="hardAlpha" operator="arithmetic" k2="-1" k3="1"/>
<feColorMatrix type="matrix" values="0 0 0 0 0 0 0 0 0 0 0 0 0 0 0 0 0 0 0.59 0"/>
<feBlend mode="normal" in2="shape" result="effect1_innerShadow_111_375"/>
</filter>
<filter id="filter3_i_111_375" x="80" y="80" width="30.5835" height="80.0022" filterUnits="userSpaceOnUse" color-interpolation-filters="sRGB">
<feFlood flood-opacity="0" result="BackgroundImageFix"/>
<feBlend mode="normal" in="SourceGraphic" in2="BackgroundImageFix" result="shape"/>
<feColorMatrix in="SourceAlpha" type="matrix" values="0 0 0 0 0 0 0 0 0 0 0 0 0 0 0 0 0 0 127 0" result="hardAlpha"/>
<feOffset/>
<feGaussianBlur stdDeviation="8"/>
<feComposite in2="hardAlpha" operator="arithmetic" k2="-1" k3="1"/>
<feColorMatrix type="matrix" values="0 0 0 0 0 0 0 0 0 0 0 0 0 0 0 0 0 0 0.59 0"/>
<feBlend mode="normal" in2="shape" result="effect1_innerShadow_111_375"/>
</filter>
<filter id="filter4_i_111_375" x="49.417" y="80" width="30.5835" height="80.0022" filterUnits="userSpaceOnUse" color-interpolation-filters="sRGB">
<feFlood flood-opacity="0" result="BackgroundImageFix"/>
<feBlend mode="normal" in="SourceGraphic" in2="BackgroundImageFix" result="shape"/>
<feColorMatrix in="SourceAlpha" type="matrix" values="0 0 0 0 0 0 0 0 0 0 0 0 0 0 0 0 0 0 127 0" result="hardAlpha"/>
<feOffset/>
<feGaussianBlur stdDeviation="8"/>
<feComposite in2="hardAlpha" operator="arithmetic" k2="-1" k3="1"/>
<feColorMatrix type="matrix" values="0 0 0 0 0 0 0 0 0 0 0 0 0 0 0 0 0 0 0.59 0"/>
<feBlend mode="normal" in2="shape" result="effect1_innerShadow_111_375"/>
</filter>
<filter id="filter5_i_111_375" x="23.4316" y="80" width="56.5684" height="74.1641" filterUnits="userSpaceOnUse" color-interpolation-filters="sRGB">
<feFlood flood-opacity="0" result="BackgroundImageFix"/>
<feBlend mode="normal" in="SourceGraphic" in2="BackgroundImageFix" result="shape"/>
<feColorMatrix in="SourceAlpha" type="matrix" values="0 0 0 0 0 0 0 0 0 0 0 0 0 0 0 0 0 0 127 0" result="hardAlpha"/>
<feOffset/>
<feGaussianBlur stdDeviation="8"/>
<feComposite in2="hardAlpha" operator="arithmetic" k2="-1" k3="1"/>
<feColorMatrix type="matrix" values="0 0 0 0 0 0 0 0 0 0 0 0 0 0 0 0 0 0 0.59 0"/>
<feBlend mode="normal" in2="shape" result="effect1_innerShadow_111_375"/>
</filter>
<filter id="filter6_i_111_375" x="5.83594" y="80" width="74.1641" height="56.5686" filterUnits="userSpaceOnUse" color-interpolation-filters="sRGB">
<feFlood flood-opacity="0" result="BackgroundImageFix"/>
<feBlend mode="normal" in="SourceGraphic" in2="BackgroundImageFix" result="shape"/>
<feColorMatrix in="SourceAlpha" type="matrix" values="0 0 0 0 0 0 0 0 0 0 0 0 0 0 0 0 0 0 127 0" result="hardAlpha"/>
<feOffset/>
<feGaussianBlur stdDeviation="8"/>
<feComposite in2="hardAlpha" operator="arithmetic" k2="-1" k3="1"/>
<feColorMatrix type="matrix" values="0 0 0 0 0 0 0 0 0 0 0 0 0 0 0 0 0 0 0.59 0"/>
<feBlend mode="normal" in2="shape" result="effect1_innerShadow_111_375"/>
</filter>
<filter id="filter7_i_111_375" x="-0.00195312" y="80" width="80.002" height="30.5833" filterUnits="userSpaceOnUse" color-interpolation-filters="sRGB">
<feFlood flood-opacity="0" result="BackgroundImageFix"/>
<feBlend mode="normal" in="SourceGraphic" in2="BackgroundImageFix" result="shape"/>
<feColorMatrix in="SourceAlpha" type="matrix" values="0 0 0 0 0 0 0 0 0 0 0 0 0 0 0 0 0 0 127 0" result="hardAlpha"/>
<feOffset/>
<feGaussianBlur stdDeviation="8"/>
<feComposite in2="hardAlpha" operator="arithmetic" k2="-1" k3="1"/>
<feColorMatrix type="matrix" values="0 0 0 0 0 0 0 0 0 0 0 0 0 0 0 0 0 0 0.59 0"/>
<feBlend mode="normal" in2="shape" result="effect1_innerShadow_111_375"/>
</filter>
<filter id="filter8_i_111_375" x="-0.00195312" y="49.4167" width="80.002" height="30.5833" filterUnits="userSpaceOnUse" color-interpolation-filters="sRGB">
<feFlood flood-opacity="0" result="BackgroundImageFix"/>
<feBlend mode="normal" in="SourceGraphic" in2="BackgroundImageFix" result="shape"/>
<feColorMatrix in="SourceAlpha" type="matrix" values="0 0 0 0 0 0 0 0 0 0 0 0 0 0 0 0 0 0 127 0" result="hardAlpha"/>
<feOffset/>
<feGaussianBlur stdDeviation="8"/>
<feComposite in2="hardAlpha" operator="arithmetic" k2="-1" k3="1"/>
<feColorMatrix type="matrix" values="0 0 0 0 0 0 0 0 0 0 0 0 0 0 0 0 0 0 0.59 0"/>
<feBlend mode="normal" in2="shape" result="effect1_innerShadow_111_375"/>
</filter>
<filter id="filter9_i_111_375" x="5.83594" y="23.4316" width="74.1641" height="56.5686" filterUnits="userSpaceOnUse" color-interpolation-filters="sRGB">
<feFlood flood-opacity="0" result="BackgroundImageFix"/>
<feBlend mode="normal" in="SourceGraphic" in2="BackgroundImageFix" result="shape"/>
<feColorMatrix in="SourceAlpha" type="matrix" values="0 0 0 0 0 0 0 0 0 0 0 0 0 0 0 0 0 0 127 0" result="hardAlpha"/>
<feOffset/>
<feGaussianBlur stdDeviation="8"/>
<feComposite in2="hardAlpha" operator="arithmetic" k2="-1" k3="1"/>
<feColorMatrix type="matrix" values="0 0 0 0 0 0 0 0 0 0 0 0 0 0 0 0 0 0 0.59 0"/>
<feBlend mode="normal" in2="shape" result="effect1_innerShadow_111_375"/>
</filter>
<filter id="filter10_i_111_375" x="23.4316" y="5.83594" width="56.5684" height="74.1641" filterUnits="userSpaceOnUse" color-interpolation-filters="sRGB">
<feFlood flood-opacity="0" result="BackgroundImageFix"/>
<feBlend mode="normal" in="SourceGraphic" in2="BackgroundImageFix" result="shape"/>
<feColorMatrix in="SourceAlpha" type="matrix" values="0 0 0 0 0 0 0 0 0 0 0 0 0 0 0 0 0 0 127 0" result="hardAlpha"/>
<feOffset/>
<feGaussianBlur stdDeviation="8"/>
<feComposite in2="hardAlpha" operator="arithmetic" k2="-1" k3="1"/>
<feColorMatrix type="matrix" values="0 0 0 0 0 0 0 0 0 0 0 0 0 0 0 0 0 0 0.59 0"/>
<feBlend mode="normal" in2="shape" result="effect1_innerShadow_111_375"/>
</filter>
<filter id="filter11_i_111_375" x="49.417" y="-0.00219727" width="30.5835" height="80.0022" filterUnits="userSpaceOnUse" color-interpolation-filters="sRGB">
<feFlood flood-opacity="0" result="BackgroundImageFix"/>
<feBlend mode="normal" in="SourceGraphic" in2="BackgroundImageFix" result="shape"/>
<feColorMatrix in="SourceAlpha" type="matrix" values="0 0 0 0 0 0 0 0 0 0 0 0 0 0 0 0 0 0 127 0" result="hardAlpha"/>
<feOffset/>
<feGaussianBlur stdDeviation="8"/>
<feComposite in2="hardAlpha" operator="arithmetic" k2="-1" k3="1"/>
<feColorMatrix type="matrix" values="0 0 0 0 0 0 0 0 0 0 0 0 0 0 0 0 0 0 0.59 0"/>
<feBlend mode="normal" in2="shape" result="effect1_innerShadow_111_375"/>
</filter>
<filter id="filter12_i_111_375" x="80" y="-0.00219727" width="30.5835" height="80.0022" filterUnits="userSpaceOnUse" color-interpolation-filters="sRGB">
<feFlood flood-opacity="0" result="BackgroundImageFix"/>
<feBlend mode="normal" in="SourceGraphic" in2="BackgroundImageFix" result="shape"/>
<feColorMatrix in="SourceAlpha" type="matrix" values="0 0 0 0 0 0 0 0 0 0 0 0 0 0 0 0 0 0 127 0" result="hardAlpha"/>
<feOffset/>
<feGaussianBlur stdDeviation="8"/>
<feComposite in2="hardAlpha" operator="arithmetic" k2="-1" k3="1"/>
<feColorMatrix type="matrix" values="0 0 0 0 0 0 0 0 0 0 0 0 0 0 0 0 0 0 0.59 0"/>
<feBlend mode="normal" in2="shape" result="effect1_innerShadow_111_375"/>
</filter>
<filter id="filter13_i_111_375" x="80" y="5.83594" width="56.5684" height="74.1641" filterUnits="userSpaceOnUse" color-interpolation-filters="sRGB">
<feFlood flood-opacity="0" result="BackgroundImageFix"/>
<feBlend mode="normal" in="SourceGraphic" in2="BackgroundImageFix" result="shape"/>
<feColorMatrix in="SourceAlpha" type="matrix" values="0 0 0 0 0 0 0 0 0 0 0 0 0 0 0 0 0 0 127 0" result="hardAlpha"/>
<feOffset/>
<feGaussianBlur stdDeviation="8"/>
<feComposite in2="hardAlpha" operator="arithmetic" k2="-1" k3="1"/>
<feColorMatrix type="matrix" values="0 0 0 0 0 0 0 0 0 0 0 0 0 0 0 0 0 0 0.59 0"/>
<feBlend mode="normal" in2="shape" result="effect1_innerShadow_111_375"/>
</filter>
<filter id="filter14_i_111_375" x="80" y="23.4316" width="74.1641" height="56.5686" filterUnits="userSpaceOnUse" color-interpolation-filters="sRGB">
<feFlood flood-opacity="0" result="BackgroundImageFix"/>
<feBlend mode="normal" in="SourceGraphic" in2="BackgroundImageFix" result="shape"/>
<feColorMatrix in="SourceAlpha" type="matrix" values="0 0 0 0 0 0 0 0 0 0 0 0 0 0 0 0 0 0 127 0" result="hardAlpha"/>
<feOffset/>
<feGaussianBlur stdDeviation="8"/>
<feComposite in2="hardAlpha" operator="arithmetic" k2="-1" k3="1"/>
<feColorMatrix type="matrix" values="0 0 0 0 0 0 0 0 0 0 0 0 0 0 0 0 0 0 0.59 0"/>
<feBlend mode="normal" in2="shape" result="effect1_innerShadow_111_375"/>
</filter>
<filter id="filter15_i_111_375" x="80" y="49.4167" width="80.002" height="30.5833" filterUnits="userSpaceOnUse" color-interpolation-filters="sRGB">
<feFlood flood-opacity="0" result="BackgroundImageFix"/>
<feBlend mode="normal" in="SourceGraphic" in2="BackgroundImageFix" result="shape"/>
<feColorMatrix in="SourceAlpha" type="matrix" values="0 0 0 0 0 0 0 0 0 0 0 0 0 0 0 0 0 0 127 0" result="hardAlpha"/>
<feOffset/>
<feGaussianBlur stdDeviation="8"/>
<feComposite in2="hardAlpha" operator="arithmetic" k2="-1" k3="1"/>
<feColorMatrix type="matrix" values="0 0 0 0 0 0 0 0 0 0 0 0 0 0 0 0 0 0 0.59 0"/>
<feBlend mode="normal" in2="shape" result="effect1_innerShadow_111_375"/>
</filter>
</defs>
</svg>
