<svg width="504" height="504" viewBox="0 0 504 504" fill="none" xmlns="http://www.w3.org/2000/svg">
<g filter="url(#filter0_i_40_4)">
<path d="M298.668 271.245C288.544 267.07 291.53 252 302.481 252H492.073C497.567 252 502.053 256.435 501.875 261.926C501.032 287.941 496.13 313.665 487.349 338.166C485.477 343.39 479.586 345.85 474.456 343.735L298.668 271.245Z" fill="#1E1E1E" fill-opacity="0.3"/>
</g>
<path d="M302.481 251C290.434 251 287.151 267.577 298.287 272.169L474.074 344.659C479.707 346.982 486.217 344.29 488.291 338.504C497.107 313.904 502.028 288.077 502.875 261.959C503.072 255.876 498.106 251 492.073 251H302.481Z" stroke="black" stroke-width="2"/>
<g filter="url(#filter1_i_40_4)">
<path d="M287.403 287.403C279.672 279.672 288.179 266.919 298.287 271.087L474.456 343.735C479.586 345.85 482.031 351.748 479.677 356.773C468.524 380.582 453.685 402.484 435.707 421.669C431.95 425.678 425.642 425.642 421.757 421.757L287.403 287.403Z" fill="#8000FF" fill-opacity="0.3"/>
</g>
<path d="M298.668 270.163C287.549 265.578 278.192 279.606 286.696 288.11L421.049 422.464C425.316 426.73 432.276 426.793 436.437 422.353C454.487 403.091 469.385 381.101 480.583 357.197C483.19 351.631 480.47 345.133 474.837 342.811L298.668 270.163Z" stroke="black" stroke-width="2"/>
<g filter="url(#filter2_i_40_4)">
<path d="M271.087 298.287C266.919 288.179 279.672 279.672 287.403 287.403L421.757 421.757C425.642 425.642 425.678 431.95 421.669 435.707C402.484 453.685 380.582 468.524 356.773 479.677C351.748 482.031 345.85 479.586 343.735 474.456L271.087 298.287Z" fill="#1E1E1E" fill-opacity="0.3"/>
</g>
<path d="M288.11 286.696C279.606 278.192 265.578 287.549 270.163 298.668L342.811 474.837C345.133 480.47 351.631 483.19 357.197 480.583C381.101 469.385 403.091 454.487 422.353 436.437C426.793 432.276 426.73 425.316 422.464 421.05L288.11 286.696Z" stroke="black" stroke-width="2"/>
<g filter="url(#filter3_i_40_4)">
<path d="M252 302.481C252 291.53 267.07 288.544 271.245 298.668L343.735 474.456C345.85 479.586 343.39 485.477 338.166 487.349C313.665 496.13 287.941 501.032 261.926 501.875C256.435 502.053 252 497.567 252 492.073V302.481Z" fill="#88FF48" fill-opacity="0.6"/>
</g>
<path d="M272.169 298.287C267.577 287.151 251 290.434 251 302.481V492.073C251 498.106 255.876 503.072 261.959 502.875C288.077 502.028 313.904 497.107 338.504 488.291C344.29 486.217 346.982 479.707 344.659 474.074L272.169 298.287Z" stroke="black" stroke-width="2"/>
<g filter="url(#filter4_i_40_4)">
<path d="M232.755 298.668C236.93 288.544 252 291.53 252 302.481V492.073C252 497.567 247.565 502.053 242.074 501.875C216.059 501.032 190.335 496.13 165.834 487.349C160.61 485.477 158.15 479.586 160.265 474.456L232.755 298.668Z" fill="#1E1E1E" fill-opacity="0.3"/>
</g>
<path d="M253 302.481C253 290.434 236.423 287.151 231.831 298.287L159.341 474.074C157.018 479.707 159.71 486.217 165.496 488.291C190.096 497.107 215.923 502.028 242.041 502.875C248.124 503.072 253 498.106 253 492.073V302.481Z" stroke="black" stroke-width="2"/>
<g filter="url(#filter5_i_40_4)">
<path d="M216.597 287.403C224.328 279.672 237.081 288.179 232.913 298.287L160.265 474.456C158.15 479.586 152.252 482.031 147.227 479.677C123.418 468.524 101.516 453.685 82.3311 435.707C78.3217 431.95 78.3581 425.642 82.2434 421.757L216.597 287.403Z" fill="#8000FF" fill-opacity="0.3"/>
</g>
<path d="M233.837 298.668C238.422 287.549 224.394 278.192 215.89 286.696L81.5363 421.049C77.2702 425.316 77.2066 432.276 81.6473 436.437C100.909 454.487 122.899 469.385 146.803 480.583C152.369 483.19 158.867 480.47 161.19 474.837L233.837 298.668Z" stroke="black" stroke-width="2"/>
<g filter="url(#filter6_i_40_4)">
<path d="M205.713 271.087C215.821 266.919 224.328 279.672 216.597 287.403L82.2434 421.757C78.3581 425.642 72.0498 425.678 68.2927 421.669C50.3147 402.484 35.4755 380.582 24.3229 356.773C21.9691 351.748 24.4141 345.85 29.5439 343.735L205.713 271.087Z" fill="#1E1E1E" fill-opacity="0.3"/>
</g>
<path d="M217.304 288.11C225.808 279.606 216.451 265.578 205.332 270.163L29.1627 342.811C23.5302 345.133 20.8102 351.631 23.4173 357.197C34.6146 381.101 49.5131 403.091 67.563 422.353C71.7242 426.793 78.6844 426.73 82.9505 422.464L217.304 288.11Z" stroke="black" stroke-width="2"/>
<g filter="url(#filter7_i_40_4)">
<path d="M201.519 252C212.47 252 215.456 267.07 205.332 271.245L29.5445 343.735C24.4144 345.85 18.5229 343.39 16.6507 338.166C7.86961 313.665 2.96837 287.941 2.12471 261.926C1.94662 256.435 6.43295 252 11.9274 252H201.519Z" fill="#C81111"/>
</g>
<path d="M205.713 272.169C216.849 267.577 213.566 251 201.519 251H11.9274C5.89441 251 0.927985 255.876 1.12523 261.959C1.97227 288.077 6.89312 313.904 15.7094 338.504C17.7831 344.29 24.2929 346.982 29.9257 344.659L205.713 272.169Z" stroke="black" stroke-width="2"/>
<g filter="url(#filter8_i_40_4)">
<path d="M205.332 232.755C215.456 236.93 212.47 252 201.519 252H11.9274C6.43295 252 1.94662 247.565 2.12471 242.074C2.96836 216.059 7.86961 190.335 16.6507 165.834C18.5229 160.61 24.4144 158.15 29.5445 160.265L205.332 232.755Z" fill="#1E1E1E" fill-opacity="0.3"/>
</g>
<path d="M201.519 253C213.566 253 216.849 236.423 205.713 231.831L29.9257 159.341C24.2929 157.018 17.7831 159.71 15.7094 165.496C6.89312 190.096 1.97227 215.923 1.12523 242.042C0.927985 248.124 5.89441 253 11.9274 253H201.519Z" stroke="black" stroke-width="2"/>
<g filter="url(#filter9_i_40_4)">
<path d="M216.597 216.597C224.328 224.328 215.821 237.081 205.713 232.913L29.5439 160.265C24.4141 158.15 21.9691 152.252 24.3229 147.227C35.4755 123.418 50.3147 101.516 68.2927 82.3312C72.0498 78.3218 78.3581 78.3582 82.2434 82.2435L216.597 216.597Z" fill="#8000FF" fill-opacity="0.3"/>
</g>
<path d="M205.332 233.837C216.451 238.422 225.808 224.394 217.304 215.89L82.9505 81.5364C78.6844 77.2703 71.7242 77.2067 67.563 81.6474C49.5131 100.909 34.6146 122.899 23.4173 146.803C20.8102 152.369 23.5302 158.867 29.1627 161.19L205.332 233.837Z" stroke="black" stroke-width="2"/>
<g filter="url(#filter10_i_40_4)">
<path d="M232.913 205.713C237.081 215.821 224.328 224.328 216.597 216.597L82.2434 82.2434C78.3581 78.3582 78.3217 72.0498 82.3311 68.2927C101.516 50.3148 123.418 35.4756 147.227 24.323C152.252 21.9692 158.15 24.4141 160.265 29.544L232.913 205.713Z" fill="#1E1E1E" fill-opacity="0.3"/>
</g>
<path d="M215.89 217.304C224.394 225.808 238.422 216.451 233.837 205.332L161.19 29.1627C158.867 23.5302 152.369 20.8102 146.803 23.4174C122.899 34.6146 100.909 49.5132 81.6473 67.563C77.2066 71.7243 77.2702 78.6844 81.5363 82.9505L215.89 217.304Z" stroke="black" stroke-width="2"/>
<g filter="url(#filter11_i_40_4)">
<path d="M252 201.519C252 212.471 236.93 215.456 232.755 205.332L160.265 29.5445C158.15 24.4145 160.61 18.523 165.834 16.6508C190.335 7.86968 216.059 2.96843 242.074 2.12477C247.565 1.94668 252 6.43301 252 11.9274V201.519Z" fill="#88FF48" fill-opacity="0.6"/>
</g>
<path d="M231.831 205.713C236.423 216.849 253 213.566 253 201.519V11.9274C253 5.89447 248.124 0.928046 242.041 1.12529C215.923 1.97233 190.096 6.89318 165.496 15.7094C159.71 17.7831 157.018 24.293 159.341 29.9258L231.831 205.713Z" stroke="black" stroke-width="2"/>
<g filter="url(#filter12_i_40_4)">
<path d="M271.245 205.332C267.07 215.456 252 212.471 252 201.519V11.9274C252 6.43302 256.435 1.94668 261.926 2.12477C287.941 2.96843 313.665 7.86968 338.166 16.6508C343.39 18.523 345.85 24.4145 343.735 29.5445L271.245 205.332Z" fill="#1E1E1E" fill-opacity="0.3"/>
</g>
<path d="M251 201.519C251 213.566 267.577 216.849 272.169 205.713L344.659 29.9258C346.982 24.293 344.29 17.7831 338.504 15.7094C313.904 6.89318 288.077 1.97233 261.959 1.12529C255.876 0.928046 251 5.89447 251 11.9274V201.519Z" stroke="black" stroke-width="2"/>
<g filter="url(#filter13_i_40_4)">
<path d="M287.403 216.597C279.672 224.328 266.919 215.821 271.087 205.713L343.735 29.544C345.85 24.4141 351.748 21.9692 356.773 24.323C380.582 35.4756 402.484 50.3148 421.669 68.2927C425.678 72.0498 425.642 78.3582 421.757 82.2434L287.403 216.597Z" fill="#8000FF" fill-opacity="0.3"/>
</g>
<path d="M270.163 205.332C265.578 216.451 279.606 225.808 288.11 217.304L422.464 82.9506C426.73 78.6845 426.793 71.7243 422.353 67.563C403.091 49.5132 381.101 34.6146 357.197 23.4174C351.631 20.8102 345.133 23.5302 342.811 29.1627L270.163 205.332Z" stroke="black" stroke-width="2"/>
<g filter="url(#filter14_i_40_4)">
<path d="M298.287 232.913C288.179 237.081 279.672 224.328 287.403 216.597L421.757 82.2435C425.642 78.3582 431.95 78.3218 435.707 82.3312C453.685 101.516 468.524 123.418 479.677 147.227C482.031 152.252 479.586 158.15 474.456 160.265L298.287 232.913Z" fill="#1E1E1E" fill-opacity="0.3"/>
</g>
<path d="M286.696 215.89C278.192 224.394 287.549 238.422 298.668 233.837L474.837 161.19C480.47 158.867 483.19 152.369 480.583 146.803C469.385 122.899 454.487 100.909 436.437 81.6474C432.276 77.2067 425.316 77.2703 421.05 81.5364L286.696 215.89Z" stroke="black" stroke-width="2"/>
<g filter="url(#filter15_i_40_4)">
<path d="M302.481 252C291.53 252 288.544 236.93 298.668 232.755L474.456 160.265C479.586 158.15 485.477 160.61 487.349 165.834C496.13 190.335 501.032 216.059 501.875 242.074C502.053 247.565 497.567 252 492.073 252H302.481Z" fill="#C81111"/>
</g>
<path d="M298.287 231.831C287.151 236.423 290.434 253 302.481 253H492.073C498.106 253 503.072 248.124 502.875 242.042C502.028 215.923 497.107 190.096 488.291 165.496C486.217 159.71 479.707 157.018 474.074 159.341L298.287 231.831Z" stroke="black" stroke-width="2"/>
<path d="M380.132 352.008C378.16 350.682 376.871 349.155 376.265 347.427C375.687 345.694 375.969 343.978 377.111 342.28C377.757 341.32 378.591 340.636 379.613 340.227C380.664 339.813 381.721 339.777 382.786 340.12L383.063 339.708C381.918 337.967 381.991 336.136 383.283 334.215C384.414 332.534 385.801 331.675 387.447 331.635C389.121 331.591 390.866 332.18 392.684 333.402C394.485 334.613 395.663 335.991 396.218 337.535C396.802 339.074 396.529 340.683 395.399 342.364C394.107 344.284 392.439 345.043 390.394 344.639L390.117 345.051C390.836 345.908 391.193 346.895 391.189 348.013C391.213 349.125 390.902 350.161 390.256 351.121C389.114 352.819 387.631 353.727 385.808 353.846C383.996 353.947 382.105 353.335 380.132 352.008ZM391.525 335.126C390.53 334.457 389.523 334.177 388.502 334.288C387.51 334.393 386.702 334.908 386.08 335.834C385.376 336.88 385.094 337.911 385.233 338.926C385.401 339.936 386.051 340.821 387.182 341.582C388.314 342.343 389.362 342.6 390.326 342.352C391.302 342.086 392.141 341.431 392.845 340.384C393.479 339.441 393.666 338.496 393.407 337.549C393.147 336.603 392.52 335.795 391.525 335.126ZM387.442 349.528C388.146 348.482 388.411 347.402 388.238 346.29C388.065 345.177 387.327 344.182 386.023 343.306C384.72 342.429 383.497 342.117 382.356 342.371C381.243 342.618 380.34 343.257 379.648 344.286C378.956 345.314 378.743 346.354 379.008 347.404C379.29 348.466 380.066 349.423 381.335 350.277C382.586 351.119 383.734 351.467 384.778 351.322C385.851 351.172 386.739 350.574 387.442 349.528ZM414.908 354.813C414.391 356.433 413.493 358.195 412.212 360.098C410.321 362.911 408.281 364.814 406.093 365.808C403.934 366.797 401.568 366.426 398.996 364.696C396.424 362.966 395.197 360.92 395.315 358.559C395.434 356.198 396.445 353.603 398.348 350.773C399.628 348.87 400.904 347.362 402.175 346.249C403.464 345.148 404.885 344.535 406.439 344.409C407.992 344.284 409.687 344.838 411.522 346.072C413.357 347.306 414.509 348.667 414.979 350.153C415.465 351.651 415.442 353.205 414.908 354.813ZM412.314 352.171C412.751 350.373 412.121 348.903 410.423 347.762C408.725 346.62 407.118 346.584 405.6 347.656C404.082 348.727 402.603 350.335 401.161 352.478C399.419 355.068 398.425 357.213 398.177 358.915C397.929 360.616 398.586 361.991 400.146 363.041C401.707 364.091 403.214 364.183 404.668 363.317C406.15 362.447 407.768 360.708 409.521 358.101C410.963 355.958 411.894 353.981 412.314 352.171ZM434.436 367.948C433.92 369.568 433.021 371.329 431.741 373.233C429.849 376.045 427.81 377.949 425.622 378.943C423.462 379.931 421.097 379.56 418.524 377.83C415.952 376.1 414.725 374.055 414.844 371.694C414.962 369.333 415.973 366.737 417.876 363.908C419.156 362.004 420.432 360.496 421.704 359.384C422.992 358.283 424.413 357.669 425.967 357.544C427.521 357.418 429.215 357.973 431.05 359.207C432.885 360.441 434.037 361.801 434.507 363.288C434.994 364.786 434.97 366.339 434.436 367.948ZM431.842 365.306C432.279 363.508 431.649 362.038 429.951 360.896C428.254 359.754 426.646 359.719 425.128 360.79C423.611 361.862 422.131 363.469 420.689 365.613C418.948 368.202 417.953 370.348 417.705 372.049C417.458 373.751 418.114 375.126 419.675 376.176C421.235 377.225 422.742 377.317 424.196 376.452C425.678 375.581 427.296 373.842 429.049 371.236C430.491 369.092 431.422 367.116 431.842 365.306Z" fill="white"/>
<path d="M331.935 387.89C332.216 388.62 332.635 389.408 333.191 390.255C333.974 391.447 334.975 392.161 336.194 392.399C337.414 392.637 338.585 392.387 339.707 391.649C341.055 390.764 341.739 389.697 341.759 388.448C341.796 387.187 341.265 385.644 340.165 383.82L338.567 381.16L347.196 375.493L353.475 385.055L351.532 386.331L347.039 379.491L342.168 382.69C343.183 384.348 343.92 385.829 344.381 387.133C344.86 388.426 344.928 389.716 344.587 391.004C344.257 392.308 343.28 393.494 341.656 394.56C340.395 395.389 339.126 395.79 337.848 395.764C336.587 395.726 335.392 395.337 334.262 394.595C333.149 393.843 332.162 392.81 331.3 391.497C330.222 389.856 329.564 388.026 329.325 386.006L331.357 385.599C331.489 386.402 331.682 387.166 331.935 387.89ZM362.636 408.095C361.533 409.388 360.022 410.665 358.105 411.924C355.272 413.785 352.654 414.75 350.252 414.819C347.878 414.895 345.841 413.637 344.139 411.046C342.437 408.455 342.098 406.094 343.121 403.963C344.145 401.832 346.082 399.83 348.932 397.958C350.849 396.699 352.61 395.802 354.212 395.269C355.827 394.753 357.374 394.737 358.856 395.223C360.337 395.709 361.685 396.876 362.899 398.725C364.112 400.573 364.648 402.273 364.506 403.826C364.375 405.395 363.751 406.818 362.636 408.095ZM361.267 404.655C362.366 403.166 362.355 401.567 361.231 399.857C360.108 398.147 358.64 397.492 356.825 397.892C355.011 398.292 353.025 399.201 350.865 400.62C348.257 402.333 346.509 403.926 345.622 405.398C344.735 406.871 344.808 408.394 345.84 409.965C346.873 411.537 348.226 412.206 349.902 411.971C351.606 411.742 353.771 410.765 356.396 409.041C358.556 407.623 360.179 406.161 361.267 404.655ZM375.556 427.766C374.452 429.06 372.942 430.336 371.024 431.595C368.191 433.456 365.574 434.421 363.172 434.491C360.798 434.566 358.76 433.308 357.059 430.717C355.357 428.126 355.018 425.765 356.041 423.634C357.065 421.503 359.001 419.501 361.852 417.629C363.769 416.37 365.529 415.474 367.132 414.94C368.746 414.424 370.294 414.409 371.775 414.895C373.257 415.38 374.604 416.548 375.818 418.396C377.032 420.244 377.568 421.945 377.425 423.497C377.294 425.067 376.671 426.49 375.556 427.766ZM374.187 424.326C375.286 422.837 375.274 421.238 374.151 419.528C373.028 417.818 371.559 417.163 369.745 417.563C367.931 417.963 365.944 418.873 363.785 420.291C361.177 422.004 359.429 423.597 358.542 425.07C357.655 426.542 357.727 428.065 358.76 429.637C359.792 431.209 361.146 431.877 362.821 431.642C364.525 431.413 366.69 430.436 369.316 428.712C371.475 427.294 373.099 425.832 374.187 424.326Z" fill="white"/>
<path d="M290.596 393.582L270.146 398.162L269.489 395.228L288.275 391.021L287.408 387.149L288.96 386.706L291.238 391.628C291.324 391.82 291.378 391.967 291.4 392.068C291.482 392.431 291.448 392.756 291.301 393.043C291.174 393.326 290.939 393.506 290.596 393.582ZM291.708 417.982C290.218 418.802 288.355 419.463 286.116 419.965C282.809 420.705 280.019 420.684 277.747 419.901C275.499 419.134 274.037 417.238 273.36 414.212C272.682 411.187 273.198 408.859 274.908 407.226C276.618 405.594 279.137 404.405 282.464 403.66C284.703 403.158 286.666 402.941 288.354 403.008C290.047 403.095 291.5 403.627 292.715 404.604C293.929 405.582 294.778 407.15 295.261 409.308C295.744 411.466 295.645 413.246 294.964 414.648C294.287 416.07 293.202 417.181 291.708 417.982ZM291.641 414.28C293.195 413.275 293.749 411.775 293.302 409.778C292.854 407.782 291.712 406.65 289.873 406.384C288.034 406.119 285.855 406.268 283.334 406.832C280.289 407.514 278.091 408.388 276.741 409.452C275.391 410.517 274.922 411.967 275.333 413.802C275.744 415.638 276.774 416.741 278.425 417.113C280.1 417.5 282.47 417.35 285.536 416.664C288.056 416.099 290.092 415.305 291.641 414.28ZM296.851 440.948C295.362 441.768 293.498 442.429 291.259 442.93C287.952 443.671 285.162 443.65 282.89 442.867C280.643 442.099 279.18 440.203 278.503 437.178C277.825 434.153 278.341 431.824 280.051 430.192C281.761 428.559 284.28 427.371 287.608 426.625C289.846 426.124 291.809 425.907 293.498 425.973C295.19 426.06 296.644 426.593 297.858 427.57C299.072 428.548 299.921 430.115 300.404 432.273C300.887 434.431 300.788 436.211 300.107 437.613C299.43 439.036 298.345 440.147 296.851 440.948ZM296.784 437.246C298.338 436.241 298.892 434.741 298.445 432.744C297.998 430.747 296.855 429.616 295.016 429.35C293.178 429.084 290.998 429.234 288.477 429.798C285.432 430.48 283.234 431.353 281.884 432.418C280.534 433.483 280.065 434.933 280.476 436.768C280.887 438.603 281.918 439.707 283.568 440.078C285.243 440.466 287.613 440.316 290.679 439.63C293.2 439.065 295.235 438.27 296.784 437.246ZM301.994 463.913C300.505 464.734 298.641 465.395 296.402 465.896C293.095 466.637 290.305 466.616 288.033 465.833C285.786 465.065 284.323 463.169 283.646 460.144C282.968 457.119 283.485 454.79 285.195 453.158C286.904 451.525 289.423 450.336 292.751 449.591C294.989 449.09 296.953 448.872 298.641 448.939C300.333 449.026 301.787 449.558 303.001 450.536C304.215 451.513 305.064 453.081 305.547 455.239C306.031 457.397 305.932 459.177 305.25 460.579C304.573 462.001 303.488 463.113 301.994 463.913ZM301.928 460.211C303.482 459.207 304.035 457.706 303.588 455.71C303.141 453.713 301.998 452.582 300.159 452.316C298.321 452.05 296.141 452.199 293.62 452.764C290.575 453.446 288.377 454.319 287.027 455.384C285.677 456.449 285.208 457.899 285.619 459.734C286.03 461.569 287.061 462.672 288.711 463.044C290.386 463.431 292.757 463.282 295.822 462.595C298.343 462.031 300.378 461.236 301.928 460.211Z" fill="white"/>
<path d="M231.416 415.518L210.909 411.203L211.528 408.26L230.367 412.224L231.184 408.341L232.78 408.582L232.811 414.006C232.809 414.217 232.797 414.373 232.776 414.474C232.7 414.838 232.535 415.12 232.281 415.32C232.048 415.524 231.76 415.59 231.416 415.518ZM222.307 438.181C220.612 438.31 218.641 438.138 216.397 437.665C213.08 436.968 210.55 435.791 208.808 434.136C207.081 432.506 206.537 430.174 207.175 427.14C207.814 424.107 209.249 422.202 211.482 421.426C213.715 420.649 216.5 420.612 219.837 421.315C222.082 421.787 223.959 422.404 225.467 423.164C226.971 423.946 228.073 425.033 228.772 426.426C229.472 427.819 229.594 429.598 229.138 431.762C228.683 433.926 227.854 435.504 226.653 436.497C225.447 437.511 223.998 438.072 222.307 438.181ZM223.782 434.785C225.613 434.515 226.739 433.379 227.16 431.377C227.581 429.375 227.011 427.872 225.448 426.867C223.885 425.862 221.84 425.094 219.312 424.562C216.258 423.919 213.897 423.803 212.227 424.211C210.557 424.62 209.528 425.745 209.141 427.585C208.753 429.426 209.234 430.857 210.581 431.88C211.945 432.927 214.164 433.774 217.238 434.421C219.766 434.953 221.947 435.074 223.782 434.785ZM217.461 461.211C215.765 461.34 213.795 461.168 211.55 460.696C208.234 459.998 205.704 458.821 203.961 457.166C202.235 455.536 201.691 453.204 202.329 450.17C202.967 447.137 204.403 445.232 206.636 444.456C208.869 443.68 211.654 443.643 214.991 444.345C217.236 444.817 219.112 445.434 220.621 446.195C222.125 446.976 223.227 448.063 223.926 449.456C224.625 450.849 224.747 452.628 224.292 454.792C223.837 456.956 223.008 458.534 221.807 459.528C220.601 460.541 219.152 461.102 217.461 461.211ZM218.936 457.815C220.767 457.545 221.893 456.409 222.314 454.407C222.735 452.405 222.165 450.902 220.602 449.897C219.039 448.893 216.994 448.124 214.466 447.592C211.412 446.95 209.05 446.833 207.38 447.242C205.71 447.651 204.682 448.775 204.295 450.616C203.907 452.456 204.387 453.887 205.735 454.91C207.099 455.957 209.317 456.804 212.391 457.451C214.919 457.983 217.101 458.104 218.936 457.815Z" fill="white"/>
<path d="M156.129 381.606C155.707 382.395 155.254 383.137 154.77 383.833L151.391 388.695L149.278 387.226L157.541 375.338L159.475 376.683C159.67 377.598 160.113 379.857 160.806 383.459C161.252 385.859 161.606 387.577 161.867 388.614C162.133 389.68 162.471 390.569 162.882 391.282C163.292 391.995 163.888 392.623 164.668 393.166C165.635 393.838 166.591 394.074 167.535 393.875C168.468 393.692 169.24 393.16 169.854 392.277C170.432 391.446 170.862 390.7 171.144 390.041C171.426 389.381 171.727 388.495 172.047 387.384L174.067 387.844C173.599 390.111 172.769 392.102 171.578 393.816C170.446 395.445 169.124 396.477 167.614 396.912C166.092 397.364 164.524 397.03 162.912 395.909C161.928 395.225 161.153 394.385 160.588 393.388C160.027 392.419 159.614 391.402 159.348 390.337C159.071 389.288 158.782 387.892 158.484 386.149L158.204 384.596C158.007 383.503 157.837 382.553 157.692 381.748C157.564 380.954 157.485 380.434 157.455 380.187L156.924 380.082C156.817 380.309 156.552 380.817 156.129 381.606ZM150.148 415.253C148.536 414.711 146.788 413.786 144.904 412.477C142.121 410.542 140.249 408.474 139.289 406.271C138.333 404.097 138.74 401.737 140.509 399.191C142.279 396.646 144.343 395.45 146.702 395.605C149.061 395.76 151.64 396.81 154.44 398.756C156.324 400.065 157.812 401.364 158.905 402.652C159.986 403.957 160.578 405.388 160.68 406.943C160.781 408.499 160.201 410.185 158.939 412.001C157.677 413.816 156.299 414.948 154.806 415.395C153.3 415.858 151.748 415.811 150.148 415.253ZM152.829 412.699C154.62 413.164 156.099 412.556 157.267 410.876C158.434 409.196 158.494 407.589 157.446 406.055C156.398 404.521 154.813 403.017 152.692 401.543C150.13 399.762 148 398.734 146.302 398.461C144.605 398.187 143.22 398.822 142.146 400.367C141.073 401.911 140.958 403.417 141.801 404.883C142.649 406.379 144.363 408.023 146.942 409.816C149.063 411.29 151.026 412.251 152.829 412.699ZM136.716 434.578C135.104 434.037 133.356 433.111 131.472 431.802C128.689 429.868 126.817 427.799 125.857 425.596C124.902 423.422 125.308 421.062 127.078 418.517C128.847 415.971 130.911 414.776 133.27 414.93C135.629 415.085 138.209 416.135 141.009 418.081C142.892 419.391 144.381 420.689 145.474 421.978C146.555 423.283 147.146 424.713 147.248 426.269C147.35 427.824 146.769 429.51 145.507 431.326C144.245 433.142 142.868 434.273 141.374 434.72C139.869 435.184 138.316 435.136 136.716 434.578ZM139.397 432.024C141.188 432.489 142.667 431.881 143.835 430.201C145.003 428.521 145.063 426.914 144.015 425.38C142.966 423.847 141.382 422.343 139.261 420.868C136.698 419.087 134.568 418.06 132.871 417.786C131.173 417.512 129.788 418.148 128.715 419.692C127.641 421.236 127.526 422.742 128.369 424.209C129.217 425.704 130.931 427.348 133.511 429.141C135.632 430.616 137.594 431.577 139.397 432.024Z" fill="white"/>
<path d="M122.283 342.326C122.51 344.347 121.652 345.987 119.71 347.246C117.803 348.484 115.992 348.919 114.277 348.554C112.544 348.2 111.082 347.103 109.89 345.266C108.72 343.462 108.338 341.678 108.745 339.911C109.151 338.145 110.351 336.616 112.345 335.322C114.981 333.613 117.307 333.212 119.325 334.12C121.354 335.046 123.263 336.887 125.051 339.644C126.119 341.291 126.836 343.08 127.202 345.011C127.561 346.97 127.423 348.845 126.787 350.637C126.151 352.429 124.94 353.904 123.154 355.063C121.819 355.929 120.566 356.446 119.395 356.615L118.742 354.526C119.742 354.321 120.822 353.841 121.984 353.088C123.284 352.244 124.083 351.159 124.381 349.833C124.69 348.524 124.661 347.188 124.294 345.825C123.927 344.462 123.395 343.206 122.699 342.056L122.283 342.326ZM113.416 337.03C112.115 337.873 111.435 338.856 111.375 339.979C111.309 341.13 111.681 342.33 112.491 343.579C113.278 344.792 114.228 345.592 115.341 345.979C116.436 346.377 117.6 346.177 118.831 345.378C120.183 344.501 120.909 343.513 121.009 342.413C121.12 341.331 120.743 340.123 119.877 338.788C119.078 337.557 118.14 336.736 117.062 336.327C115.983 335.918 114.768 336.152 113.416 337.03ZM96.4871 365.968C95.1998 364.857 93.932 363.339 92.6837 361.414C90.8392 358.571 89.8891 355.948 89.8334 353.545C89.7715 351.171 91.041 349.141 93.6418 347.454C96.2426 345.767 98.6056 345.441 100.731 346.477C102.856 347.513 104.846 349.461 106.702 352.322C107.95 354.246 108.837 356.011 109.361 357.617C109.868 359.235 109.874 360.782 109.38 362.261C108.886 363.739 107.711 365.08 105.856 366.284C104 367.487 102.297 368.013 100.745 367.862C99.1764 367.722 97.757 367.09 96.4871 365.968ZM99.9349 364.618C101.417 365.726 103.016 365.723 104.733 364.61C106.449 363.497 107.113 362.032 106.723 360.215C106.333 358.399 105.435 356.407 104.029 354.24C102.331 351.622 100.748 349.865 99.2806 348.969C97.8129 348.074 96.2901 348.138 94.7123 349.161C93.1345 350.185 92.4583 351.535 92.6837 353.211C92.903 354.917 93.8674 357.087 95.5769 359.723C96.9827 361.89 98.4353 363.522 99.9349 364.618ZM76.7424 378.775C75.4552 377.664 74.1873 376.146 72.939 374.222C71.0946 371.378 70.1445 368.755 70.0887 366.353C70.0269 363.979 71.2963 361.948 73.8971 360.261C76.4979 358.574 78.8609 358.248 80.986 359.284C83.1112 360.32 85.1016 362.268 86.9572 365.129C88.2056 367.053 89.092 368.819 89.6163 370.425C90.1234 372.042 90.1297 373.59 89.6353 375.068C89.1409 376.547 87.9661 377.887 86.1109 379.091C84.2556 380.294 82.5522 380.82 81.0007 380.669C79.4318 380.529 78.0123 379.897 76.7424 378.775ZM80.1902 377.426C81.6724 378.533 83.2718 378.531 84.9883 377.417C86.7048 376.304 87.3682 374.839 86.9783 373.023C86.5884 371.206 85.6906 369.214 84.2848 367.047C82.5865 364.429 81.0036 362.672 79.5359 361.777C78.0682 360.881 76.5455 360.945 74.9677 361.968C73.3899 362.992 72.7136 364.342 72.939 366.019C73.1583 367.724 74.1227 369.894 75.8322 372.53C77.238 374.697 78.6907 376.329 80.1902 377.426Z" fill="white"/>
<path d="M125.633 270.511C124.477 270.299 123.406 270.173 122.419 270.134C121.432 270.094 120.395 270.204 119.31 270.464C118.285 270.71 117.498 271.196 116.95 271.922C116.381 272.653 116.213 273.501 116.444 274.466C116.641 275.29 117.104 275.934 117.831 276.397C118.538 276.865 119.462 277.218 120.602 277.454L124.024 278.165C125.365 278.438 126.466 278.908 127.326 279.573C128.167 280.243 128.744 281.231 129.057 282.537C129.345 283.743 129.264 284.868 128.813 285.911C128.341 286.959 127.626 287.832 126.667 288.529C125.692 289.251 124.602 289.757 123.396 290.046C122.211 290.33 121.189 290.458 120.332 290.429C119.46 290.426 118.451 290.338 117.305 290.167L117.606 287.831C119.729 288.088 121.494 288.047 122.9 287.71C125.393 287.113 126.41 285.86 125.952 283.951C125.784 283.247 125.441 282.702 124.923 282.316C124.39 281.955 123.631 281.67 122.646 281.459L118.602 280.548C115.611 279.862 113.837 278.353 113.278 276.022C112.931 274.574 112.996 273.294 113.474 272.181C113.931 271.073 114.641 270.18 115.605 269.503C116.569 268.826 117.634 268.347 118.8 268.068C120.006 267.779 121.205 267.64 122.398 267.652C123.571 267.669 124.79 267.791 126.056 268.019L125.633 270.511ZM105.276 291.168L111.697 289.629L112.34 292.313L96.3924 296.134L95.7495 293.451L102.231 291.898L97.8176 273.478L100.862 272.748L105.276 291.168ZM71.6124 290.914C70.7842 287.457 70.895 284.593 71.9448 282.323C72.9746 280.057 75.0872 278.542 78.2828 277.776C81.4784 277.01 84.0461 277.394 85.986 278.927C87.9307 280.48 89.3196 282.995 90.1527 286.472C90.9906 289.969 90.8822 292.842 89.8275 295.093C88.7728 297.343 86.6678 298.846 83.5125 299.602C80.3571 300.358 77.7994 299.972 75.8394 298.444C73.8593 296.921 72.4503 294.411 71.6124 290.914ZM78.8161 280.135C76.6053 280.664 75.2207 281.804 74.6622 283.553C74.1036 285.302 74.1422 287.503 74.7778 290.155C75.4135 292.808 76.3766 294.788 77.667 296.094C78.9575 297.4 80.7081 297.788 82.9189 297.258C85.1297 296.728 86.5143 295.589 87.0728 293.84C87.616 292.116 87.5674 289.917 86.927 287.244C86.2865 284.571 85.3311 282.58 84.0607 281.269C82.775 279.983 81.0268 279.605 78.8161 280.135ZM66.6536 303.259L60.0515 304.841C57.8005 305.38 55.9473 305.229 54.4919 304.388C53.0413 303.567 52.0511 302.051 51.5214 299.84C50.9483 297.448 51.2826 295.562 52.5243 294.181C53.7458 292.804 55.5926 291.82 58.0647 291.227L60.4462 290.657L58.5826 282.879L61.5973 282.156L66.6536 303.259ZM58.1011 293.641C56.6139 293.998 55.5474 294.646 54.9015 295.587C54.2356 296.533 54.0736 297.72 54.4155 299.147C55.1234 302.101 56.9042 303.236 59.7581 302.552L63.1044 301.751L60.9952 292.948L58.1011 293.641Z" fill="white"/>
<path d="M101.8 214.226C104.133 214.675 105.917 215.576 107.151 216.929C108.361 218.298 108.773 219.987 108.386 221.996C108.167 223.133 107.668 224.089 106.887 224.865C106.082 225.657 105.123 226.104 104.009 226.205L103.915 226.692C105.65 227.847 106.299 229.561 105.862 231.834C105.479 233.823 104.539 235.157 103.04 235.837C101.517 236.533 99.6799 236.674 97.5287 236.26C95.3978 235.85 93.7746 235.043 92.6593 233.839C91.5198 232.652 91.1414 231.064 91.524 229.075C91.9613 226.802 93.1998 225.451 95.2395 225.023L95.3332 224.536C94.3365 224.029 93.6215 223.26 93.1884 222.229C92.7311 221.215 92.6117 220.14 92.8304 219.003C93.217 216.994 94.226 215.578 95.8574 214.756C97.485 213.954 99.4657 213.777 101.8 214.226ZM97.9211 234.22C99.0982 234.447 100.135 234.31 101.031 233.808C101.903 233.324 102.444 232.534 102.655 231.438C102.893 230.2 102.75 229.141 102.225 228.261C101.675 227.398 100.731 226.837 99.3912 226.579C98.0518 226.322 96.987 226.496 96.1971 227.101C95.4032 227.727 94.8871 228.659 94.6489 229.897C94.4342 231.013 94.6316 231.956 95.2411 232.726C95.8507 233.496 96.744 233.994 97.9211 234.22ZM96.0432 219.369C95.805 220.607 95.9833 221.704 96.578 222.66C97.1727 223.617 98.2412 224.243 99.7836 224.54C101.326 224.837 102.573 224.645 103.525 223.965C104.452 223.302 105.033 222.361 105.267 221.144C105.501 219.926 105.291 218.886 104.636 218.023C103.961 217.157 102.873 216.579 101.371 216.29C99.8894 216.005 98.6966 216.133 97.7927 216.675C96.8645 217.233 96.2814 218.131 96.0432 219.369ZM68.6991 225.252C68.5408 223.559 68.6784 221.586 69.1118 219.333C69.7521 216.005 70.8846 213.455 72.5091 211.684C74.1094 209.93 76.4317 209.345 79.4758 209.931C82.52 210.517 84.4494 211.919 85.2642 214.138C86.0789 216.358 86.1641 219.141 85.5198 222.49C85.0864 224.743 84.5024 226.63 83.7677 228.151C83.0128 229.668 81.9449 230.789 80.564 231.512C79.1831 232.236 77.4069 232.388 75.2354 231.971C73.0639 231.553 71.4712 230.752 70.4573 229.568C69.4232 228.38 68.8371 226.941 68.6991 225.252ZM72.1202 226.668C72.4213 228.493 73.5765 229.6 75.5856 229.986C77.5948 230.373 79.0881 229.776 80.0655 228.196C81.0429 226.616 81.7756 224.558 82.2637 222.021C82.8533 218.957 82.9293 216.593 82.4915 214.931C82.0538 213.268 80.9115 212.259 79.0647 211.904C77.2179 211.548 75.7949 212.053 74.7956 213.418C73.7722 214.8 72.9637 217.033 72.3702 220.118C71.8821 222.655 71.7988 224.838 72.1202 226.668ZM45.5884 220.805C45.4301 219.112 45.5676 217.139 46.0011 214.887C46.6414 211.558 47.7739 209.009 49.3984 207.238C50.9987 205.483 53.321 204.899 56.3651 205.484C59.4093 206.07 61.3387 207.473 62.1535 209.692C62.9682 211.911 63.0534 214.695 62.4091 218.044C61.9757 220.296 61.3917 222.183 60.657 223.704C59.9021 225.222 58.8342 226.342 57.4533 227.066C56.0724 227.789 54.2962 227.942 52.1247 227.524C49.9532 227.106 48.3605 226.305 47.3466 225.121C46.3125 223.933 45.7264 222.494 45.5884 220.805ZM49.0095 222.221C49.3106 224.047 50.4658 225.153 52.4749 225.54C54.4841 225.926 55.9774 225.33 56.9548 223.75C57.9322 222.17 58.6649 220.112 59.153 217.575C59.7426 214.51 59.8186 212.147 59.3808 210.484C58.9431 208.822 57.8008 207.813 55.954 207.457C54.1072 207.102 52.6842 207.607 51.6849 208.972C50.6615 210.353 49.853 212.587 49.2595 215.671C48.7714 218.208 48.6881 220.391 49.0095 222.221Z" fill="white"/>
<path d="M113.025 165.382C111.998 165.951 111.132 166.403 110.427 166.736C109.711 167.088 109.256 167.299 109.063 167.372L109.03 167.94C109.122 167.95 109.326 167.995 109.643 168.075C109.948 168.173 110.358 168.337 110.873 168.569C111.37 168.789 111.906 169.083 112.48 169.451L118.901 173.565L117.529 175.706L105.262 167.845L106.6 165.757L125.557 155.077L128.349 156.866L113.025 165.382ZM89.5199 151.83C90.0006 150.199 90.8597 148.418 92.0974 146.486C93.926 143.632 95.923 141.684 98.0883 140.642C100.225 139.605 102.598 139.924 105.209 141.596C107.819 143.269 109.091 145.286 109.025 147.65C108.959 150.013 108.006 152.63 106.166 155.501C104.928 157.432 103.686 158.968 102.44 160.109C101.176 161.238 99.7691 161.883 98.2184 162.043C96.6677 162.203 94.9614 161.686 93.0995 160.493C91.2376 159.3 90.0554 157.966 89.5528 156.49C89.0328 155.003 89.0219 153.45 89.5199 151.83ZM92.1723 154.413C91.7751 156.221 92.4379 157.676 94.1606 158.78C95.8832 159.884 97.4913 159.883 98.9847 158.778C100.478 157.674 101.922 156.034 103.316 153.859C104.999 151.231 105.946 149.064 106.156 147.358C106.366 145.651 105.679 144.291 104.095 143.276C102.512 142.261 101.003 142.203 99.5689 143.1C98.1063 144.004 96.5275 145.778 94.8327 148.423C93.4389 150.598 92.5521 152.595 92.1723 154.413ZM69.7045 139.132C70.1852 137.501 71.0443 135.72 72.282 133.789C74.1106 130.935 76.1076 128.987 78.2729 127.944C80.4096 126.908 82.7831 127.226 85.3932 128.899C88.0033 130.571 89.2753 132.589 89.2092 134.952C89.1432 137.315 88.1902 139.932 86.3505 142.803C85.1128 144.735 83.8708 146.271 82.6245 147.411C81.3609 148.541 79.9537 149.185 78.403 149.345C76.8523 149.505 75.146 148.989 73.2841 147.796C71.4222 146.603 70.24 145.268 69.7374 143.793C69.2174 142.306 69.2065 140.752 69.7045 139.132ZM72.3569 141.716C71.9597 143.523 72.6225 144.979 74.3451 146.082C76.0678 147.186 77.6759 147.186 79.1693 146.081C80.6627 144.976 82.1064 143.336 83.5001 141.161C85.1838 138.534 86.1306 136.367 86.3404 134.66C86.5502 132.954 85.8634 131.593 84.2799 130.578C82.6965 129.564 81.1877 129.505 79.7535 130.403C78.2909 131.306 76.7121 133.08 75.0173 135.725C73.6235 137.9 72.7367 139.897 72.3569 141.716Z" fill="white"/>
<path d="M163.794 122.258C161.786 122.578 160.108 121.798 158.76 119.917C157.435 118.069 156.916 116.28 157.201 114.55C157.474 112.803 158.501 111.291 160.282 110.015C162.029 108.763 163.794 108.299 165.577 108.622C167.36 108.946 168.944 110.074 170.329 112.006C172.159 114.559 172.667 116.864 171.854 118.922C171.023 120.992 169.273 122.984 166.602 124.899C165.006 126.042 163.253 126.842 161.341 127.296C159.401 127.746 157.521 127.696 155.701 127.144C153.881 126.592 152.352 125.451 151.112 123.72C150.184 122.427 149.609 121.199 149.387 120.037L151.443 119.287C151.694 120.277 152.224 121.334 153.03 122.46C153.933 123.719 155.054 124.467 156.393 124.703C157.714 124.95 159.048 124.859 160.392 124.429C161.737 124 162.967 123.41 164.083 122.661L163.794 122.258ZM168.673 113.154C167.77 111.895 166.756 111.261 165.632 111.253C164.479 111.24 163.297 111.668 162.088 112.535C160.912 113.377 160.157 114.364 159.823 115.493C159.476 116.606 159.73 117.759 160.585 118.952C161.524 120.262 162.545 120.941 163.648 120.99C164.734 121.05 165.924 120.617 167.217 119.69C168.41 118.835 169.185 117.86 169.544 116.764C169.902 115.668 169.612 114.465 168.673 113.154ZM138.979 97.5885C140.029 96.251 141.487 94.914 143.351 93.5776C146.106 91.6031 148.682 90.5321 151.079 90.3648C153.448 90.1927 155.535 91.3665 157.341 93.8861C159.147 96.4057 159.582 98.751 158.646 100.922C157.711 103.093 155.857 105.172 153.085 107.158C151.221 108.495 149.499 109.462 147.919 110.061C146.327 110.642 144.781 110.72 143.281 110.295C141.782 109.87 140.387 108.759 139.099 106.961C137.811 105.164 137.206 103.487 137.285 101.93C137.353 100.356 137.917 98.9092 138.979 97.5885ZM140.488 100.97C139.45 102.502 139.527 104.099 140.719 105.762C141.911 107.425 143.405 108.02 145.201 107.546C146.997 107.072 148.945 106.083 151.045 104.578C153.581 102.76 155.263 101.097 156.089 99.5892C156.916 98.0815 156.781 96.5634 155.685 95.0348C154.59 93.5063 153.21 92.8935 151.545 93.1965C149.852 93.4948 147.729 94.559 145.176 96.3891C143.076 97.8941 141.513 99.421 140.488 100.97ZM125.269 78.4602C126.319 77.1227 127.776 75.7857 129.64 74.4493C132.395 72.4747 134.971 71.4038 137.369 71.2365C139.737 71.0644 141.824 72.2382 143.63 74.7578C145.436 77.2774 145.872 79.6227 144.936 81.7936C144 83.9646 142.146 86.0434 139.375 88.0299C137.51 89.3664 135.788 90.3338 134.208 90.9322C132.616 91.5138 131.07 91.592 129.571 91.1669C128.071 90.7417 126.677 89.6304 125.389 87.8331C124.1 86.0358 123.496 84.3587 123.575 82.8018C123.642 81.2281 124.206 79.7808 125.269 78.4602ZM126.777 81.8415C125.739 83.3736 125.816 84.9711 127.008 86.634C128.2 88.297 129.694 88.8915 131.491 88.4177C133.287 87.9439 135.235 86.9544 137.334 85.4495C139.871 83.6314 141.552 81.9686 142.379 80.4609C143.205 78.9532 143.07 77.435 141.975 75.9065C140.879 74.3779 139.499 73.7652 137.835 74.0682C136.141 74.3665 134.018 75.4307 131.465 77.2607C129.365 78.7657 127.803 80.2927 126.777 81.8415Z" fill="white"/>
<path d="M421.45 279.185L418.114 299.874L415.146 299.396L418.21 280.39L414.292 279.759L414.457 278.152L419.873 277.864C420.084 277.856 420.24 277.86 420.342 277.876C420.709 277.936 420.999 278.087 421.211 278.331C421.426 278.554 421.506 278.839 421.45 279.185ZM429.224 299.499C429.953 299.784 430.817 300.007 431.817 300.168C433.225 300.395 434.428 300.139 435.426 299.4C436.425 298.66 437.031 297.628 437.245 296.301C437.501 294.71 437.175 293.485 436.267 292.627C435.362 291.748 433.865 291.099 431.777 290.679L428.736 290.063L430.379 279.871L441.672 281.692L441.302 283.987L433.222 282.685L432.295 288.438C434.203 288.809 435.794 289.264 437.067 289.804C438.344 290.324 439.342 291.145 440.062 292.265C440.802 293.389 441.017 294.91 440.708 296.828C440.468 298.318 439.907 299.525 439.025 300.451C438.146 301.356 437.052 301.975 435.742 302.308C434.436 302.621 433.007 302.652 431.457 302.402C429.519 302.09 427.724 301.34 426.073 300.153L427.144 298.378C427.826 298.823 428.52 299.197 429.224 299.499ZM464.855 290.485C465.065 292.172 464.987 294.148 464.622 296.413C464.082 299.759 463.028 302.342 461.457 304.161C459.911 305.963 457.607 306.618 454.547 306.124C451.486 305.631 449.515 304.287 448.634 302.094C447.752 299.9 447.583 297.12 448.126 293.754C448.491 291.489 449.018 289.585 449.706 288.042C450.415 286.503 451.448 285.351 452.807 284.586C454.165 283.821 455.936 283.614 458.119 283.966C460.302 284.318 461.918 285.071 462.967 286.224C464.037 287.38 464.666 288.8 464.855 290.485ZM461.393 289.173C461.037 287.357 459.849 286.286 457.829 285.961C455.809 285.635 454.334 286.276 453.405 287.885C452.476 289.494 451.806 291.573 451.395 294.124C450.898 297.205 450.893 299.569 451.381 301.218C451.869 302.867 453.041 303.841 454.898 304.14C456.755 304.439 458.162 303.892 459.119 302.497C460.101 301.085 460.841 298.828 461.341 295.727C461.752 293.177 461.77 290.992 461.393 289.173Z" fill="white"/>
<path d="M380.913 229.95L381.471 232.271L374.236 234.008L373.679 231.687L380.913 229.95ZM389.897 215.869L394.79 236.246L391.866 236.948L387.371 218.229L383.513 219.156L383.046 217.61L387.932 215.257C388.124 215.168 388.27 215.112 388.37 215.088C388.732 215.001 389.057 215.029 389.347 215.172C389.631 215.295 389.815 215.527 389.897 215.869ZM414.276 214.382C415.12 215.858 415.809 217.712 416.345 219.943C417.136 223.238 417.158 226.028 416.41 228.312C415.677 230.571 413.804 232.062 410.789 232.786C407.775 233.51 405.439 233.029 403.78 231.345C402.121 229.66 400.894 227.16 400.098 223.844C399.562 221.614 399.315 219.654 399.355 217.965C399.416 216.271 399.926 214.81 400.885 213.581C401.844 212.352 403.398 211.479 405.548 210.962C407.698 210.446 409.48 210.518 410.892 211.177C412.325 211.832 413.453 212.901 414.276 214.382ZM410.576 214.505C409.547 212.967 408.038 212.437 406.049 212.914C404.06 213.392 402.946 214.552 402.708 216.395C402.471 218.237 402.653 220.414 403.257 222.926C403.985 225.961 404.892 228.145 405.978 229.478C407.063 230.811 408.52 231.259 410.349 230.819C412.178 230.38 413.265 229.333 413.611 227.677C413.973 225.996 413.787 223.628 413.053 220.574C412.45 218.062 411.624 216.039 410.576 214.505ZM437.16 208.886C438.003 210.363 438.693 212.216 439.229 214.447C440.02 217.743 440.042 220.532 439.294 222.816C438.561 225.075 436.687 226.566 433.673 227.29C430.659 228.014 428.322 227.534 426.664 225.849C425.005 224.165 423.778 221.664 422.982 218.349C422.446 216.118 422.198 214.158 422.239 212.47C422.3 210.776 422.81 209.314 423.769 208.085C424.728 206.856 426.282 205.983 428.432 205.467C430.582 204.95 432.364 205.022 433.776 205.682C435.209 206.337 436.337 207.405 437.16 208.886ZM433.46 209.01C432.431 207.471 430.922 206.941 428.933 207.419C426.943 207.897 425.83 209.057 425.592 210.899C425.355 212.742 425.537 214.919 426.141 217.431C426.869 220.465 427.776 222.649 428.862 223.982C429.947 225.316 431.404 225.763 433.233 225.324C435.061 224.885 436.149 223.837 436.495 222.181C436.857 220.5 436.671 218.133 435.937 215.078C435.334 212.566 434.508 210.543 433.46 209.01ZM453.299 205.042C453.68 206.63 453.685 207.978 453.314 209.088C452.938 210.177 451.956 210.912 450.369 211.293C448.822 211.665 447.623 211.453 446.773 210.658C445.939 209.839 445.331 208.635 444.95 207.047C444.554 205.4 444.536 204.044 444.897 202.979C445.258 201.915 446.242 201.19 447.85 200.804C449.477 200.413 450.694 200.609 451.498 201.394C452.303 202.178 452.903 203.394 453.299 205.042ZM458.818 198.552L461.561 197.893L453.335 222.186L450.592 222.845L458.818 198.552ZM448.219 202.341C447.435 202.529 446.995 202.996 446.898 203.742C446.8 204.488 446.88 205.394 447.135 206.459C447.435 207.705 447.812 208.613 448.268 209.184C448.719 209.734 449.296 209.925 450 209.756C450.703 209.587 451.131 209.155 451.282 208.46C451.429 207.744 451.353 206.764 451.054 205.518C450.798 204.453 450.458 203.61 450.032 202.989C449.607 202.369 449.003 202.153 448.219 202.341ZM467.204 213.69C467.585 215.278 467.59 216.626 467.219 217.736C466.843 218.825 465.861 219.56 464.274 219.941C462.726 220.313 461.528 220.101 460.678 219.307C459.844 218.487 459.236 217.283 458.854 215.696C458.459 214.048 458.441 212.692 458.802 211.627C459.163 210.563 460.147 209.838 461.755 209.452C463.382 209.061 464.599 209.258 465.403 210.042C466.208 210.826 466.808 212.043 467.204 213.69ZM462.124 210.989C461.34 211.177 460.9 211.644 460.802 212.39C460.705 213.136 460.785 214.042 461.04 215.107C461.34 216.353 461.717 217.261 462.173 217.832C462.624 218.382 463.201 218.573 463.905 218.404C464.608 218.235 465.035 217.803 465.187 217.108C465.334 216.392 465.258 215.412 464.959 214.166C464.703 213.101 464.363 212.258 463.937 211.637C463.512 211.017 462.907 210.801 462.124 210.989Z" fill="white"/>
<path d="M383.702 174.406C384.364 173.804 385.039 173.257 385.728 172.763L390.541 169.314L392.04 171.405L380.272 179.839L378.9 177.924C379.023 176.996 379.362 174.719 379.916 171.093C380.299 168.683 380.542 166.945 380.643 165.881C380.75 164.788 380.729 163.836 380.581 163.027C380.433 162.218 380.082 161.426 379.529 160.654C378.842 159.696 378.021 159.153 377.065 159.025C376.125 158.885 375.219 159.128 374.345 159.754C373.522 160.344 372.867 160.902 372.38 161.429C371.893 161.956 371.313 162.69 370.639 163.63L368.89 162.519C370.09 160.54 371.539 158.943 373.236 157.727C374.848 156.571 376.439 156.041 378.008 156.137C379.594 156.221 380.958 157.061 382.102 158.657C382.8 159.631 383.249 160.683 383.448 161.812C383.651 162.912 383.7 164.008 383.593 165.101C383.504 166.183 383.308 167.594 383.005 169.337L382.748 170.894C382.568 171.99 382.411 172.941 382.277 173.749C382.132 174.539 382.032 175.056 381.977 175.299L382.442 175.576C382.62 175.398 383.04 175.008 383.702 174.406ZM398.413 164.206C399.131 163.895 399.901 163.445 400.724 162.855C401.883 162.024 402.557 160.995 402.745 159.767C402.932 158.539 402.635 157.379 401.853 156.287C400.914 154.977 399.819 154.337 398.57 154.368C397.309 154.382 395.789 154.975 394.011 156.148L391.419 157.853L385.405 149.463L394.703 142.799L396.058 144.689L389.405 149.456L392.8 154.193C394.416 153.112 395.865 152.315 397.15 151.801C398.422 151.27 399.709 151.149 401.009 151.438C402.326 151.715 403.55 152.642 404.682 154.221C405.561 155.448 406.013 156.7 406.039 157.978C406.053 159.239 405.713 160.449 405.018 161.608C404.311 162.751 403.319 163.779 402.042 164.694C400.447 165.838 398.645 166.57 396.637 166.89L396.147 164.877C396.944 164.712 397.7 164.489 398.413 164.206ZM417.351 132.708C418.689 133.758 420.026 135.216 421.362 137.08C423.336 139.835 424.407 142.411 424.574 144.809C424.746 147.177 423.572 149.264 421.053 151.07C418.533 152.876 416.188 153.311 414.017 152.375C411.846 151.439 409.767 149.585 407.781 146.814C406.444 144.949 405.477 143.227 404.879 141.647C404.297 140.055 404.219 138.509 404.644 137.009C405.07 135.51 406.181 134.116 407.978 132.827C409.776 131.539 411.453 130.935 413.01 131.014C414.584 131.081 416.031 131.646 417.351 132.708ZM413.97 134.216C412.438 133.178 410.84 133.255 409.177 134.447C407.514 135.639 406.92 137.133 407.393 138.929C407.867 140.726 408.856 142.674 410.361 144.773C412.179 147.31 413.842 148.991 415.35 149.818C416.857 150.644 418.375 150.51 419.904 149.414C421.433 148.319 422.045 146.939 421.743 145.274C421.444 143.581 420.38 141.458 418.55 138.905C417.046 136.805 415.519 135.242 413.97 134.216Z" fill="white"/>
<path d="M347.919 115.3L349.913 116.495L348.797 118.357L352.945 120.843L351.351 123.502L347.204 121.015L341.864 129.923L340.136 128.886L333.01 111.893L334.333 109.686L346.803 117.161L347.919 115.3ZM339.695 116.478C339.234 116.202 338.789 115.899 338.36 115.569C337.931 115.24 337.594 114.978 337.35 114.783C337.098 114.56 336.942 114.418 336.882 114.358L336.547 114.735C336.664 114.902 336.893 115.304 337.233 115.942C337.567 116.552 337.895 117.23 338.218 117.978L340.288 122.905C340.515 123.451 340.706 123.976 340.862 124.479C341.011 124.954 341.116 125.342 341.176 125.643C341.247 125.927 341.285 126.106 341.288 126.18L341.762 126.355C341.822 126.174 341.967 125.792 342.197 125.207C342.438 124.604 342.712 124.046 343.02 123.532L345.225 119.793L339.695 116.478ZM350.982 91.6214C352.626 92.0531 354.433 92.8588 356.4 94.0383C359.307 95.781 361.314 97.7189 362.421 99.8522C363.52 101.957 363.273 104.339 361.679 106.998C360.085 109.657 358.106 110.988 355.742 110.993C353.378 110.997 350.734 110.123 347.809 108.369C345.841 107.19 344.269 105.994 343.092 104.783C341.925 103.553 341.239 102.166 341.033 100.621C340.827 99.0754 341.292 97.3544 342.429 95.4578C343.566 93.5612 344.864 92.3397 346.325 91.7933C347.795 91.2292 349.348 91.1719 350.982 91.6214ZM348.479 94.3497C346.66 94.0066 345.225 94.7124 344.173 96.4673C343.121 98.2221 343.17 99.8294 344.319 101.289C345.467 102.749 347.15 104.143 349.365 105.471C352.042 107.076 354.236 107.958 355.948 108.116C357.66 108.275 359 107.548 359.967 105.935C360.934 104.322 360.947 102.812 360.007 101.406C359.061 99.9704 357.24 98.4453 354.546 96.8301C352.33 95.5019 350.308 94.675 348.479 94.3497ZM363.082 71.436C364.727 71.8678 366.533 72.6734 368.501 73.8529C371.408 75.5956 373.415 77.5336 374.521 79.6668C375.621 81.7717 375.374 84.1536 373.78 86.8124C372.186 89.4713 370.207 90.8029 367.843 90.8074C365.479 90.8118 362.834 89.9374 359.91 88.1841C357.942 87.0046 356.37 85.809 355.192 84.5973C354.026 83.3678 353.34 81.9805 353.133 80.4353C352.927 78.89 353.393 77.1691 354.53 75.2724C355.667 73.3758 356.965 72.1543 358.425 71.6079C359.896 71.0438 361.448 70.9865 363.082 71.436ZM360.579 74.1643C358.761 73.8212 357.326 74.5271 356.274 76.2819C355.222 78.0367 355.27 79.6441 356.419 81.1039C357.568 82.5637 359.25 83.9577 361.466 85.286C364.143 86.8905 366.337 87.7722 368.049 87.9311C369.761 88.0899 371.1 87.3628 372.067 85.7498C373.034 84.1368 373.048 82.6269 372.108 81.2201C371.161 79.7851 369.341 78.2599 366.646 76.6448C364.431 75.3165 362.408 74.4897 360.579 74.1643Z" fill="white"/>
<path d="M293.726 93.9908C293.156 93.0489 292.289 92.4909 291.124 92.3168C289.693 92.1031 288.521 92.398 287.607 93.2018C286.695 93.9851 286.103 95.1504 285.83 96.6977L283.807 96.3953C283.974 94.9993 283.803 93.835 283.294 92.9023C282.766 91.9665 281.878 91.4055 280.631 91.2192C279.466 91.0451 278.538 91.2408 277.848 91.8063C277.157 92.3718 276.731 93.1962 276.569 94.2796C276.355 95.7103 276.427 97.048 276.784 98.2924L274.778 98.7136C274.25 97.2137 274.139 95.4418 274.444 93.3978C274.71 91.6196 275.408 90.2299 276.54 89.2288C277.654 88.2042 279.121 87.8279 280.94 88.0997C282.003 88.2585 282.947 88.7234 283.772 89.4945C284.577 90.2625 285.045 91.1891 285.175 92.2743L285.665 92.3476C286.144 91.1026 286.933 90.2279 288.032 89.7235C289.135 89.1986 290.238 89.0186 291.341 89.1836C292.609 89.3729 293.672 89.8766 294.532 90.6947C295.375 91.4892 295.969 92.4765 296.315 93.6566C296.661 94.8367 296.738 96.0706 296.545 97.3584C296.243 99.3819 295.555 101.191 294.481 102.786L292.664 101.731C293.077 101.061 293.416 100.401 293.68 99.7512C293.927 99.0777 294.127 98.2299 294.28 97.2079C294.463 95.9815 294.278 94.9091 293.726 93.9908ZM284.08 65.1957C285.765 64.9668 287.742 65.0219 290.011 65.3609C293.363 65.8617 295.958 66.8868 297.795 68.4359C299.615 69.9616 300.296 72.2574 299.838 75.3234C299.38 78.3894 298.059 80.3757 295.876 81.2823C293.692 82.189 290.915 82.3904 287.542 81.8864C285.273 81.5474 283.363 81.0427 281.813 80.3722C280.265 79.6813 279.101 78.661 278.321 77.3116C277.54 75.9621 277.313 74.1938 277.64 72.0067C277.967 69.8197 278.701 68.195 279.842 67.1326C280.986 66.0497 282.398 65.4041 284.08 65.1957ZM282.809 68.6729C280.997 69.05 279.94 70.2503 279.638 72.2739C279.335 74.2974 279.994 75.7645 281.613 76.6751C283.232 77.5857 285.319 78.2319 287.874 78.6136C290.961 79.0748 293.325 79.052 294.968 78.5452C296.611 78.0384 297.572 76.855 297.849 74.995C298.127 73.135 297.564 71.7343 296.158 70.7929C294.735 69.828 292.47 69.1134 289.363 68.6492C286.808 68.2675 284.623 68.2754 282.809 68.6729ZM287.558 41.9195C289.243 41.6906 291.22 41.7457 293.489 42.0847C296.841 42.5856 299.436 43.6106 301.273 45.1597C303.093 46.6854 303.774 48.9813 303.316 52.0472C302.858 55.1132 301.537 57.0995 299.354 58.0061C297.17 58.9128 294.392 59.1142 291.02 58.6103C288.751 58.2713 286.841 57.7665 285.291 57.096C283.743 56.4051 282.579 55.3849 281.799 54.0354C281.018 52.6859 280.791 50.9176 281.118 48.7306C281.445 46.5435 282.179 44.9188 283.319 43.8564C284.463 42.7735 285.876 42.1279 287.558 41.9195ZM286.286 45.3967C284.475 45.7738 283.418 46.9741 283.115 48.9977C282.813 51.0212 283.472 52.4883 285.091 53.3989C286.71 54.3095 288.797 54.9557 291.352 55.3374C294.438 55.7986 296.803 55.7758 298.446 55.269C300.089 54.7622 301.049 53.5788 301.327 51.7188C301.605 49.8588 301.041 48.4581 299.636 47.5167C298.213 46.5518 295.948 45.8373 292.841 45.373C290.286 44.9913 288.101 44.9992 286.286 45.3967Z" fill="white"/>
<path d="M214.795 108.075L235.357 104.033L235.937 106.984L217.048 110.697L217.813 114.59L216.249 114.992L214.101 110.012C214.021 109.817 213.971 109.669 213.951 109.568C213.879 109.203 213.921 108.879 214.076 108.595C214.21 108.316 214.45 108.143 214.795 108.075ZM231.155 93.742C231.169 92.9598 231.079 92.0719 230.884 91.0782C230.609 89.679 229.952 88.6392 228.912 87.9589C227.873 87.2786 226.694 87.068 225.376 87.3271C223.794 87.6379 222.758 88.3681 222.268 89.5176C221.758 90.671 221.667 92.3001 221.997 94.4047L222.473 97.4704L212.344 99.4614L210.137 88.2371L212.419 87.7887L213.997 95.8191L219.716 94.695C219.402 92.7769 219.278 91.1269 219.343 89.745C219.388 88.3671 219.812 87.1465 220.614 86.0832C221.412 84.9996 222.764 84.2705 224.67 83.8958C226.15 83.6048 227.477 83.7126 228.651 84.2191C229.805 84.7295 230.764 85.5413 231.531 86.6544C232.277 87.7714 232.801 89.1006 233.104 90.6418C233.483 92.5682 233.402 94.5114 232.86 96.4713L230.825 96.0815C231.006 95.2877 231.116 94.5079 231.155 93.742ZM210.351 63.4435C211.861 62.6622 213.742 62.0503 215.993 61.6079C219.318 60.9542 222.106 61.0486 224.357 61.8909C226.584 62.7171 227.996 64.651 228.594 67.6928C229.192 70.7346 228.614 73.049 226.862 74.6361C225.11 76.2231 222.561 77.3455 219.215 78.0032C216.964 78.4456 214.996 78.6113 213.31 78.5004C211.62 78.3691 210.181 77.7989 208.993 76.7898C207.805 75.7807 206.998 74.1913 206.571 72.0215C206.145 69.8516 206.29 68.0748 207.008 66.6911C207.722 65.287 208.836 64.2045 210.351 63.4435ZM210.32 67.1459C208.74 68.1093 208.148 69.5948 208.542 71.6024C208.937 73.61 210.05 74.7708 211.881 75.085C213.712 75.3991 215.894 75.307 218.429 74.8088C221.491 74.2069 223.711 73.3915 225.089 72.3625C226.466 71.3335 226.973 69.8964 226.611 68.051C226.248 66.2057 225.246 65.0756 223.606 64.6608C221.942 64.2297 219.569 64.3171 216.486 64.9229C213.951 65.4211 211.896 66.1621 210.32 67.1459ZM205.812 40.3507C207.322 39.5695 209.203 38.9576 211.454 38.5152C214.779 37.8615 217.567 37.9558 219.818 38.7982C222.045 39.6243 223.457 41.5583 224.055 44.6001C224.653 47.6419 224.075 49.9563 222.323 51.5434C220.571 53.1304 218.022 54.2528 214.676 54.9105C212.425 55.3529 210.457 55.5186 208.771 55.4076C207.081 55.2764 205.642 54.7062 204.454 53.6971C203.266 52.688 202.459 51.0986 202.032 48.9287C201.606 46.7589 201.751 44.9821 202.469 43.5983C203.183 42.1943 204.297 41.1118 205.812 40.3507ZM205.781 44.0531C204.201 45.0166 203.609 46.5021 204.003 48.5097C204.398 50.5173 205.511 51.6781 207.342 51.9922C209.173 52.3063 211.355 52.2143 213.89 51.716C216.952 51.1142 219.172 50.2988 220.55 49.2698C221.927 48.2408 222.434 46.8036 222.072 44.9583C221.709 43.1129 220.707 41.9829 219.067 41.5681C217.403 41.137 215.03 41.2243 211.947 41.8302C209.412 42.3284 207.357 43.0694 205.781 44.0531Z" fill="white"/>
<defs>
<filter id="filter0_i_40_4" x="290.466" y="250" width="213.415" height="96.491" filterUnits="userSpaceOnUse" color-interpolation-filters="sRGB">
<feFlood flood-opacity="0" result="BackgroundImageFix"/>
<feBlend mode="normal" in="SourceGraphic" in2="BackgroundImageFix" result="shape"/>
<feColorMatrix in="SourceAlpha" type="matrix" values="0 0 0 0 0 0 0 0 0 0 0 0 0 0 0 0 0 0 127 0" result="hardAlpha"/>
<feOffset/>
<feGaussianBlur stdDeviation="20"/>
<feComposite in2="hardAlpha" operator="arithmetic" k2="-1" k3="1"/>
<feColorMatrix type="matrix" values="0 0 0 0 0 0 0 0 0 0 0 0 0 0 0 0 0 0 0.6 0"/>
<feBlend mode="normal" in2="shape" result="effect1_innerShadow_40_4"/>
</filter>
<filter id="filter1_i_40_4" x="282.39" y="268.258" width="200.19" height="158.415" filterUnits="userSpaceOnUse" color-interpolation-filters="sRGB">
<feFlood flood-opacity="0" result="BackgroundImageFix"/>
<feBlend mode="normal" in="SourceGraphic" in2="BackgroundImageFix" result="shape"/>
<feColorMatrix in="SourceAlpha" type="matrix" values="0 0 0 0 0 0 0 0 0 0 0 0 0 0 0 0 0 0 127 0" result="hardAlpha"/>
<feOffset/>
<feGaussianBlur stdDeviation="20"/>
<feComposite in2="hardAlpha" operator="arithmetic" k2="-1" k3="1"/>
<feColorMatrix type="matrix" values="0 0 0 0 0 0 0 0 0 0 0 0 0 0 0 0 0 0 0.6 0"/>
<feBlend mode="normal" in2="shape" result="effect1_innerShadow_40_4"/>
</filter>
<filter id="filter2_i_40_4" x="268.258" y="282.39" width="158.415" height="200.19" filterUnits="userSpaceOnUse" color-interpolation-filters="sRGB">
<feFlood flood-opacity="0" result="BackgroundImageFix"/>
<feBlend mode="normal" in="SourceGraphic" in2="BackgroundImageFix" result="shape"/>
<feColorMatrix in="SourceAlpha" type="matrix" values="0 0 0 0 0 0 0 0 0 0 0 0 0 0 0 0 0 0 127 0" result="hardAlpha"/>
<feOffset/>
<feGaussianBlur stdDeviation="20"/>
<feComposite in2="hardAlpha" operator="arithmetic" k2="-1" k3="1"/>
<feColorMatrix type="matrix" values="0 0 0 0 0 0 0 0 0 0 0 0 0 0 0 0 0 0 0.6 0"/>
<feBlend mode="normal" in2="shape" result="effect1_innerShadow_40_4"/>
</filter>
<filter id="filter3_i_40_4" x="250" y="290.466" width="96.4911" height="213.415" filterUnits="userSpaceOnUse" color-interpolation-filters="sRGB">
<feFlood flood-opacity="0" result="BackgroundImageFix"/>
<feBlend mode="normal" in="SourceGraphic" in2="BackgroundImageFix" result="shape"/>
<feColorMatrix in="SourceAlpha" type="matrix" values="0 0 0 0 0 0 0 0 0 0 0 0 0 0 0 0 0 0 127 0" result="hardAlpha"/>
<feOffset/>
<feGaussianBlur stdDeviation="20"/>
<feComposite in2="hardAlpha" operator="arithmetic" k2="-1" k3="1"/>
<feColorMatrix type="matrix" values="0 0 0 0 0 0 0 0 0 0 0 0 0 0 0 0 0 0 0.6 0"/>
<feBlend mode="normal" in2="shape" result="effect1_innerShadow_40_4"/>
</filter>
<filter id="filter4_i_40_4" x="157.509" y="290.466" width="96.4911" height="213.415" filterUnits="userSpaceOnUse" color-interpolation-filters="sRGB">
<feFlood flood-opacity="0" result="BackgroundImageFix"/>
<feBlend mode="normal" in="SourceGraphic" in2="BackgroundImageFix" result="shape"/>
<feColorMatrix in="SourceAlpha" type="matrix" values="0 0 0 0 0 0 0 0 0 0 0 0 0 0 0 0 0 0 127 0" result="hardAlpha"/>
<feOffset/>
<feGaussianBlur stdDeviation="20"/>
<feComposite in2="hardAlpha" operator="arithmetic" k2="-1" k3="1"/>
<feColorMatrix type="matrix" values="0 0 0 0 0 0 0 0 0 0 0 0 0 0 0 0 0 0 0.6 0"/>
<feBlend mode="normal" in2="shape" result="effect1_innerShadow_40_4"/>
</filter>
<filter id="filter5_i_40_4" x="77.3268" y="282.39" width="158.415" height="200.19" filterUnits="userSpaceOnUse" color-interpolation-filters="sRGB">
<feFlood flood-opacity="0" result="BackgroundImageFix"/>
<feBlend mode="normal" in="SourceGraphic" in2="BackgroundImageFix" result="shape"/>
<feColorMatrix in="SourceAlpha" type="matrix" values="0 0 0 0 0 0 0 0 0 0 0 0 0 0 0 0 0 0 127 0" result="hardAlpha"/>
<feOffset/>
<feGaussianBlur stdDeviation="20"/>
<feComposite in2="hardAlpha" operator="arithmetic" k2="-1" k3="1"/>
<feColorMatrix type="matrix" values="0 0 0 0 0 0 0 0 0 0 0 0 0 0 0 0 0 0 0.6 0"/>
<feBlend mode="normal" in2="shape" result="effect1_innerShadow_40_4"/>
</filter>
<filter id="filter6_i_40_4" x="21.4203" y="268.258" width="200.19" height="158.415" filterUnits="userSpaceOnUse" color-interpolation-filters="sRGB">
<feFlood flood-opacity="0" result="BackgroundImageFix"/>
<feBlend mode="normal" in="SourceGraphic" in2="BackgroundImageFix" result="shape"/>
<feColorMatrix in="SourceAlpha" type="matrix" values="0 0 0 0 0 0 0 0 0 0 0 0 0 0 0 0 0 0 127 0" result="hardAlpha"/>
<feOffset/>
<feGaussianBlur stdDeviation="20"/>
<feComposite in2="hardAlpha" operator="arithmetic" k2="-1" k3="1"/>
<feColorMatrix type="matrix" values="0 0 0 0 0 0 0 0 0 0 0 0 0 0 0 0 0 0 0.6 0"/>
<feBlend mode="normal" in2="shape" result="effect1_innerShadow_40_4"/>
</filter>
<filter id="filter7_i_40_4" x="0.119537" y="250" width="213.415" height="96.491" filterUnits="userSpaceOnUse" color-interpolation-filters="sRGB">
<feFlood flood-opacity="0" result="BackgroundImageFix"/>
<feBlend mode="normal" in="SourceGraphic" in2="BackgroundImageFix" result="shape"/>
<feColorMatrix in="SourceAlpha" type="matrix" values="0 0 0 0 0 0 0 0 0 0 0 0 0 0 0 0 0 0 127 0" result="hardAlpha"/>
<feOffset/>
<feGaussianBlur stdDeviation="20"/>
<feComposite in2="hardAlpha" operator="arithmetic" k2="-1" k3="1"/>
<feColorMatrix type="matrix" values="0 0 0 0 0 0 0 0 0 0 0 0 0 0 0 0 0 0 0.6 0"/>
<feBlend mode="normal" in2="shape" result="effect1_innerShadow_40_4"/>
</filter>
<filter id="filter8_i_40_4" x="0.119537" y="157.509" width="213.415" height="96.491" filterUnits="userSpaceOnUse" color-interpolation-filters="sRGB">
<feFlood flood-opacity="0" result="BackgroundImageFix"/>
<feBlend mode="normal" in="SourceGraphic" in2="BackgroundImageFix" result="shape"/>
<feColorMatrix in="SourceAlpha" type="matrix" values="0 0 0 0 0 0 0 0 0 0 0 0 0 0 0 0 0 0 127 0" result="hardAlpha"/>
<feOffset/>
<feGaussianBlur stdDeviation="20"/>
<feComposite in2="hardAlpha" operator="arithmetic" k2="-1" k3="1"/>
<feColorMatrix type="matrix" values="0 0 0 0 0 0 0 0 0 0 0 0 0 0 0 0 0 0 0.6 0"/>
<feBlend mode="normal" in2="shape" result="effect1_innerShadow_40_4"/>
</filter>
<filter id="filter9_i_40_4" x="21.4203" y="77.3269" width="200.19" height="158.415" filterUnits="userSpaceOnUse" color-interpolation-filters="sRGB">
<feFlood flood-opacity="0" result="BackgroundImageFix"/>
<feBlend mode="normal" in="SourceGraphic" in2="BackgroundImageFix" result="shape"/>
<feColorMatrix in="SourceAlpha" type="matrix" values="0 0 0 0 0 0 0 0 0 0 0 0 0 0 0 0 0 0 127 0" result="hardAlpha"/>
<feOffset/>
<feGaussianBlur stdDeviation="20"/>
<feComposite in2="hardAlpha" operator="arithmetic" k2="-1" k3="1"/>
<feColorMatrix type="matrix" values="0 0 0 0 0 0 0 0 0 0 0 0 0 0 0 0 0 0 0.6 0"/>
<feBlend mode="normal" in2="shape" result="effect1_innerShadow_40_4"/>
</filter>
<filter id="filter10_i_40_4" x="77.3268" y="21.4204" width="158.415" height="200.19" filterUnits="userSpaceOnUse" color-interpolation-filters="sRGB">
<feFlood flood-opacity="0" result="BackgroundImageFix"/>
<feBlend mode="normal" in="SourceGraphic" in2="BackgroundImageFix" result="shape"/>
<feColorMatrix in="SourceAlpha" type="matrix" values="0 0 0 0 0 0 0 0 0 0 0 0 0 0 0 0 0 0 127 0" result="hardAlpha"/>
<feOffset/>
<feGaussianBlur stdDeviation="20"/>
<feComposite in2="hardAlpha" operator="arithmetic" k2="-1" k3="1"/>
<feColorMatrix type="matrix" values="0 0 0 0 0 0 0 0 0 0 0 0 0 0 0 0 0 0 0.6 0"/>
<feBlend mode="normal" in2="shape" result="effect1_innerShadow_40_4"/>
</filter>
<filter id="filter11_i_40_4" x="157.509" y="0.119629" width="96.4911" height="213.415" filterUnits="userSpaceOnUse" color-interpolation-filters="sRGB">
<feFlood flood-opacity="0" result="BackgroundImageFix"/>
<feBlend mode="normal" in="SourceGraphic" in2="BackgroundImageFix" result="shape"/>
<feColorMatrix in="SourceAlpha" type="matrix" values="0 0 0 0 0 0 0 0 0 0 0 0 0 0 0 0 0 0 127 0" result="hardAlpha"/>
<feOffset/>
<feGaussianBlur stdDeviation="20"/>
<feComposite in2="hardAlpha" operator="arithmetic" k2="-1" k3="1"/>
<feColorMatrix type="matrix" values="0 0 0 0 0 0 0 0 0 0 0 0 0 0 0 0 0 0 0.6 0"/>
<feBlend mode="normal" in2="shape" result="effect1_innerShadow_40_4"/>
</filter>
<filter id="filter12_i_40_4" x="250" y="0.119629" width="96.4911" height="213.415" filterUnits="userSpaceOnUse" color-interpolation-filters="sRGB">
<feFlood flood-opacity="0" result="BackgroundImageFix"/>
<feBlend mode="normal" in="SourceGraphic" in2="BackgroundImageFix" result="shape"/>
<feColorMatrix in="SourceAlpha" type="matrix" values="0 0 0 0 0 0 0 0 0 0 0 0 0 0 0 0 0 0 127 0" result="hardAlpha"/>
<feOffset/>
<feGaussianBlur stdDeviation="20"/>
<feComposite in2="hardAlpha" operator="arithmetic" k2="-1" k3="1"/>
<feColorMatrix type="matrix" values="0 0 0 0 0 0 0 0 0 0 0 0 0 0 0 0 0 0 0.6 0"/>
<feBlend mode="normal" in2="shape" result="effect1_innerShadow_40_4"/>
</filter>
<filter id="filter13_i_40_4" x="268.258" y="21.4204" width="158.415" height="200.19" filterUnits="userSpaceOnUse" color-interpolation-filters="sRGB">
<feFlood flood-opacity="0" result="BackgroundImageFix"/>
<feBlend mode="normal" in="SourceGraphic" in2="BackgroundImageFix" result="shape"/>
<feColorMatrix in="SourceAlpha" type="matrix" values="0 0 0 0 0 0 0 0 0 0 0 0 0 0 0 0 0 0 127 0" result="hardAlpha"/>
<feOffset/>
<feGaussianBlur stdDeviation="20"/>
<feComposite in2="hardAlpha" operator="arithmetic" k2="-1" k3="1"/>
<feColorMatrix type="matrix" values="0 0 0 0 0 0 0 0 0 0 0 0 0 0 0 0 0 0 0.6 0"/>
<feBlend mode="normal" in2="shape" result="effect1_innerShadow_40_4"/>
</filter>
<filter id="filter14_i_40_4" x="282.39" y="77.3269" width="200.19" height="158.415" filterUnits="userSpaceOnUse" color-interpolation-filters="sRGB">
<feFlood flood-opacity="0" result="BackgroundImageFix"/>
<feBlend mode="normal" in="SourceGraphic" in2="BackgroundImageFix" result="shape"/>
<feColorMatrix in="SourceAlpha" type="matrix" values="0 0 0 0 0 0 0 0 0 0 0 0 0 0 0 0 0 0 127 0" result="hardAlpha"/>
<feOffset/>
<feGaussianBlur stdDeviation="20"/>
<feComposite in2="hardAlpha" operator="arithmetic" k2="-1" k3="1"/>
<feColorMatrix type="matrix" values="0 0 0 0 0 0 0 0 0 0 0 0 0 0 0 0 0 0 0.6 0"/>
<feBlend mode="normal" in2="shape" result="effect1_innerShadow_40_4"/>
</filter>
<filter id="filter15_i_40_4" x="290.466" y="157.509" width="213.415" height="96.491" filterUnits="userSpaceOnUse" color-interpolation-filters="sRGB">
<feFlood flood-opacity="0" result="BackgroundImageFix"/>
<feBlend mode="normal" in="SourceGraphic" in2="BackgroundImageFix" result="shape"/>
<feColorMatrix in="SourceAlpha" type="matrix" values="0 0 0 0 0 0 0 0 0 0 0 0 0 0 0 0 0 0 127 0" result="hardAlpha"/>
<feOffset/>
<feGaussianBlur stdDeviation="20"/>
<feComposite in2="hardAlpha" operator="arithmetic" k2="-1" k3="1"/>
<feColorMatrix type="matrix" values="0 0 0 0 0 0 0 0 0 0 0 0 0 0 0 0 0 0 0.6 0"/>
<feBlend mode="normal" in2="shape" result="effect1_innerShadow_40_4"/>
</filter>
</defs>
</svg>
